<svg width="119" height="102" viewBox="0 0 119 102" fill="none" xmlns="http://www.w3.org/2000/svg">
<g clip-path="url(#clip0_360_52974)">
<path d="M11.5674 56.0017L16.107 60.5685L25.5789 51.9961" stroke="#403C73" stroke-width="2" stroke-miterlimit="10" stroke-linecap="round" stroke-linejoin="round"/>
<path d="M11.5674 73.9387L16.107 78.5055L25.5789 69.9331" stroke="#403C73" stroke-width="2" stroke-miterlimit="10" stroke-linecap="round" stroke-linejoin="round"/>
<path d="M11.5674 92.4592L16.107 97.0261L25.5789 88.4536" stroke="#403C73" stroke-width="2" stroke-miterlimit="10" stroke-linecap="round" stroke-linejoin="round"/>
<path d="M117.582 43.9518C117.582 67.6223 98.5613 86.803 75.0887 86.803C51.6161 86.803 32.5957 67.6223 32.5957 43.9518C32.5957 20.2813 51.6161 1.10059 75.0887 1.10059C98.5504 1.10059 117.582 20.2813 117.582 43.9518Z" fill="#403C73" fill-opacity="0.2"/>
<path d="M39.3946 48.5076C41.7735 45.0963 45.1345 41.894 49.8487 39.5941C43.574 36.1057 39.3291 29.3599 39.3291 21.6238C39.3182 10.2893 48.4301 1.10059 59.6808 1.10059C70.9315 1.10059 80.0325 10.2893 80.0325 21.6238C80.0325 29.3269 75.8312 36.0396 69.6111 39.539L69.6438 39.5941C86.689 47.9244 85.9361 67.8864 85.9361 67.8864" stroke="#FFA631" stroke-width="2" stroke-miterlimit="10" stroke-linecap="round" stroke-linejoin="round"/>
<path d="M53.7985 18.8395C53.7985 20.8313 52.1944 22.4599 50.2083 22.4599C48.2223 22.4599 46.6182 20.8423 46.6182 18.8395C46.6182 16.8477 48.2223 15.23 50.2083 15.23C52.1944 15.219 53.7985 16.8477 53.7985 18.8395Z" fill="#272733"/>
<path d="M72.863 18.84C72.863 20.8318 71.2589 22.4604 69.2728 22.4604C67.2867 22.4604 65.6826 20.8428 65.6826 18.84C65.6826 16.8482 67.2867 15.2305 69.2728 15.2305C71.2589 15.2195 72.863 16.8482 72.863 18.84Z" fill="#272733"/>
<path d="M64.8638 25.8384C64.8638 28.7215 62.5722 31.0545 59.7459 31.0545C56.9195 31.0545 54.6279 28.7215 54.6279 25.8384H64.8638Z" stroke="#484859" stroke-width="2" stroke-miterlimit="10" stroke-linecap="round" stroke-linejoin="round"/>
<path d="M1.09155 56.8381C1.09155 56.8381 0.545929 42.5103 12.7788 36.5349C8.28284 34.0259 5.23827 29.184 5.23827 23.6378C5.23827 15.5055 11.7748 8.90283 19.85 8.90283C27.9143 8.90283 34.4617 15.4945 34.4617 23.6378C34.4617 29.162 31.4499 33.9819 26.9758 36.4909L26.9976 36.5239C29.1692 37.5804 30.937 38.9119 32.3775 40.3645" stroke="#484859" stroke-width="2" stroke-miterlimit="10" stroke-linecap="round" stroke-linejoin="round"/>
<path d="M117.898 56.8381C117.898 56.8381 118.433 42.5103 106.211 36.5349C110.718 34.0369 113.763 29.195 113.763 23.6378C113.763 15.5055 107.226 8.90283 99.1508 8.90283C91.0865 8.90283 84.5391 15.4945 84.5391 23.6378C84.5391 29.162 87.5509 33.9819 92.0141 36.4909L91.9923 36.5239C89.8207 37.5804 88.0529 38.9119 86.6124 40.3645" stroke="#484859" stroke-width="2" stroke-miterlimit="10" stroke-linecap="round" stroke-linejoin="round"/>
<path d="M90.3334 80.0795L69.2725 65.5977L73.6156 88.85L78.2643 83.3808L84.4626 91.414L88.6638 89.6753L82.2582 81.499L90.3334 80.0795Z" stroke="#484859" stroke-width="2" stroke-miterlimit="10" stroke-linecap="round" stroke-linejoin="round"/>
<path d="M22.4251 60.3372V64.4419H8.44629V50.3452H22.4251" stroke="#484859" stroke-width="2" stroke-miterlimit="10" stroke-linecap="round" stroke-linejoin="round"/>
<path d="M22.4251 78.2747V82.3794H8.44629V68.2827H22.4251" stroke="#484859" stroke-width="2" stroke-miterlimit="10" stroke-linecap="round" stroke-linejoin="round"/>
<path d="M22.4251 96.7952V100.9H8.44629V86.8032H22.4251" stroke="#484859" stroke-width="2" stroke-miterlimit="10" stroke-linecap="round" stroke-linejoin="round"/>
<path d="M29.2998 54.3398H60.9131" stroke="#484859" stroke-width="2" stroke-miterlimit="10" stroke-linecap="round" stroke-linejoin="round"/>
<path d="M29.2998 60.4473H50.0007" stroke="#484859" stroke-width="2" stroke-miterlimit="10" stroke-linecap="round" stroke-linejoin="round"/>
<path d="M29.6279 72.2773H61.2412" stroke="#484859" stroke-width="2" stroke-miterlimit="10" stroke-linecap="round" stroke-linejoin="round"/>
<path d="M29.6279 78.3848H50.3288" stroke="#484859" stroke-width="2" stroke-miterlimit="10" stroke-linecap="round" stroke-linejoin="round"/>
<path d="M30.8496 92.7344H62.4629" stroke="#484859" stroke-width="2" stroke-miterlimit="10" stroke-linecap="round" stroke-linejoin="round"/>
<path d="M30.8496 98.853H51.5505" stroke="#484859" stroke-width="2" stroke-miterlimit="10" stroke-linecap="round" stroke-linejoin="round"/>
</g>
<defs>
<clipPath id="clip0_360_52974">
<rect width="119" height="102" fill="white"/>
</clipPath>
</defs>
</svg>
