<svg width="100" height="102" viewBox="0 0 100 102" fill="none" xmlns="http://www.w3.org/2000/svg">
<g clip-path="url(#clip0_360_53040)">
<path d="M97.6702 44.3396C97.6702 63.6898 81.9865 79.3736 62.6363 79.3736C43.2951 79.3736 27.6113 63.6898 27.6113 44.3396C27.6113 24.9894 43.2951 9.30566 62.6363 9.30566C81.9865 9.30566 97.6702 24.9894 97.6702 44.3396Z" fill="#403C73" fill-opacity="0.2"/>
<path d="M61.0145 70.8965H40.25V74.4188H61.0145V70.8965Z" stroke="#484859" stroke-width="2" stroke-miterlimit="10" stroke-linecap="round" stroke-linejoin="round"/>
<path d="M27.6113 66.7979H73.6536" stroke="#484859" stroke-width="2" stroke-miterlimit="10" stroke-linecap="round" stroke-linejoin="round"/>
<path d="M73.6536 70.8965H27.6113V67.3111C27.6113 61.3656 32.4759 56.501 38.4215 56.501H62.8525C68.7981 56.501 73.6626 61.3656 73.6626 67.3111V70.8965H73.6536Z" stroke="#403C73" stroke-width="2" stroke-miterlimit="10" stroke-linecap="round" stroke-linejoin="round"/>
<path d="M53.7084 74.4102H47.5557V82.4817H53.7084V74.4102Z" stroke="#484859" stroke-width="2" stroke-miterlimit="10" stroke-linecap="round" stroke-linejoin="round"/>
<path d="M30.7367 56.5012V42.6191L24.0254 49.5647" stroke="#484859" stroke-width="2" stroke-miterlimit="10" stroke-linecap="round" stroke-linejoin="round"/>
<path d="M70.6719 56.5012V42.6191L77.2391 49.5647" stroke="#484859" stroke-width="2" stroke-miterlimit="10" stroke-linecap="round" stroke-linejoin="round"/>
<path d="M34.1426 56.501V35.0879H67.1316V56.501" stroke="#403C73" stroke-width="2" stroke-miterlimit="10" stroke-linecap="round" stroke-linejoin="round"/>
<path d="M63.8614 35.0882H37.4035C33.9622 35.0882 31.1426 32.2685 31.1426 28.8273V24.296C31.1426 20.8548 33.9622 18.0352 37.4035 18.0352H63.8614C67.3026 18.0352 70.1222 20.8548 70.1222 24.296V28.8273C70.1222 32.2685 67.3026 35.0882 63.8614 35.0882Z" stroke="#403C73" stroke-width="2" stroke-miterlimit="10" stroke-linecap="round" stroke-linejoin="round"/>
<path d="M29.7549 93.6611C29.7549 89.1298 33.4303 85.4634 37.9526 85.4634H50.6275V93.6611" stroke="#484859" stroke-width="2" stroke-miterlimit="10" stroke-linecap="round" stroke-linejoin="round"/>
<path d="M32.7905 97.1203C32.7905 98.7959 31.4302 100.156 29.7546 100.156C28.079 100.156 26.7188 98.7959 26.7188 97.1203C26.7188 95.4447 28.079 94.0845 29.7546 94.0845C31.4302 94.0935 32.7905 95.4447 32.7905 97.1203Z" stroke="#403C73" stroke-width="2" stroke-miterlimit="10" stroke-linecap="round" stroke-linejoin="round"/>
<path d="M71.5093 93.6611C71.5093 89.1298 67.8339 85.4634 63.3116 85.4634H50.6367V93.6611" stroke="#484859" stroke-width="2" stroke-miterlimit="10" stroke-linecap="round" stroke-linejoin="round"/>
<path d="M68.4736 97.1203C68.4736 98.7959 69.8339 100.156 71.5095 100.156C73.1851 100.156 74.5453 98.7959 74.5453 97.1203C74.5453 95.4447 73.1851 94.0845 71.5095 94.0845C69.8339 94.0935 68.4736 95.4447 68.4736 97.1203Z" stroke="#403C73" stroke-width="2" stroke-miterlimit="10" stroke-linecap="round" stroke-linejoin="round"/>
<path d="M47.6006 97.1203C47.6006 98.7959 48.9609 100.156 50.6364 100.156C52.312 100.156 53.6723 98.7959 53.6723 97.1203C53.6723 95.4447 52.312 94.0845 50.6364 94.0845C48.9609 94.0935 47.6006 95.4447 47.6006 97.1203Z" stroke="#403C73" stroke-width="2" stroke-miterlimit="10" stroke-linecap="round" stroke-linejoin="round"/>
<path d="M50.6365 0.900879L55.8254 5.69339L63.3295 1.85578L59.8162 15.4406H50.6365H41.4479L37.9346 1.85578L45.4386 5.69339L50.6365 0.900879Z" stroke="#FFA631" stroke-width="2" stroke-miterlimit="10" stroke-linecap="round" stroke-linejoin="round"/>
<path d="M37.457 38.0786V43.9882" stroke="#403C73" stroke-width="2" stroke-miterlimit="10" stroke-linecap="round" stroke-linejoin="round"/>
<path d="M37.457 47.3306V51.6456" stroke="#403C73" stroke-width="2" stroke-miterlimit="10" stroke-linecap="round" stroke-linejoin="round"/>
<path d="M38.5742 63.3115H70.1219" stroke="#403C73" stroke-width="2" stroke-miterlimit="10" stroke-linecap="round" stroke-linejoin="round"/>
<path d="M49.2764 31.2056H67.1222" stroke="#403C73" stroke-width="2" stroke-miterlimit="10" stroke-linecap="round" stroke-linejoin="round"/>
<path d="M27.5745 17.5126L27.8898 23.1609L19.9083 17.5126H3.99931C2.2967 17.5126 0.900391 16.1163 0.900391 14.4137V5.54032C0.900391 3.83772 2.2967 2.44141 3.99931 2.44141H27.5745C29.2681 2.44141 30.6644 3.83772 30.6644 5.54032V14.4137C30.6644 16.1163 29.2681 17.5126 27.5745 17.5126Z" stroke="#484859" stroke-width="2" stroke-miterlimit="10" stroke-linecap="round" stroke-linejoin="round"/>
<path d="M4.62109 5.72021H25.3316" stroke="#484859" stroke-width="2" stroke-miterlimit="10" stroke-linecap="round" stroke-linejoin="round"/>
<path d="M4.62109 9.71094H25.3316" stroke="#484859" stroke-width="2" stroke-miterlimit="10" stroke-linecap="round" stroke-linejoin="round"/>
<path d="M4.62109 13.8188H14.062" stroke="#484859" stroke-width="2" stroke-miterlimit="10" stroke-linecap="round" stroke-linejoin="round"/>
<path d="M75.2383 22.7463L74.923 28.3946L82.9046 22.7463H95.9398C97.6424 22.7463 99.0387 21.3499 99.0387 19.6563V10.783C99.0387 9.0804 97.6424 7.68408 95.9398 7.68408H75.2383C73.5357 7.68408 72.1484 9.0804 72.1484 10.783V19.6563C72.1484 21.3589 73.5448 22.7463 75.2383 22.7463Z" stroke="#484859" stroke-width="2" stroke-miterlimit="10" stroke-linecap="round" stroke-linejoin="round"/>
<path d="M95.3182 10.9541H77.4814" stroke="#484859" stroke-width="2" stroke-miterlimit="10" stroke-linecap="round" stroke-linejoin="round"/>
<path d="M95.3182 14.9453H77.4814" stroke="#484859" stroke-width="2" stroke-miterlimit="10" stroke-linecap="round" stroke-linejoin="round"/>
<path d="M95.3191 19.062H88.752" stroke="#484859" stroke-width="2" stroke-miterlimit="10" stroke-linecap="round" stroke-linejoin="round"/>
</g>
<defs>
<clipPath id="clip0_360_53040">
<rect width="99.94" height="101.057" fill="white"/>
</clipPath>
</defs>
</svg>
