<svg width="87" height="104" viewBox="0 0 87 104" fill="none" xmlns="http://www.w3.org/2000/svg">
<path d="M14.8672 80.0851L18.7487 83.9666L26.867 76.6807" stroke="#403C73" stroke-width="2" stroke-miterlimit="10" stroke-linecap="round" stroke-linejoin="round"/>
<path d="M24.1637 68.5252V72.0138H12.1826V60.0327H24.1637" stroke="#484859" stroke-width="2" stroke-miterlimit="10" stroke-linecap="round" stroke-linejoin="round"/>
<path d="M14.8672 64.8396L18.7487 68.7211L26.867 61.4258" stroke="#403C73" stroke-width="2" stroke-miterlimit="10" stroke-linecap="round" stroke-linejoin="round"/>
<path d="M24.1637 83.7703V87.2589H12.1826V75.2778H24.1637" stroke="#484859" stroke-width="2" stroke-miterlimit="10" stroke-linecap="round" stroke-linejoin="round"/>
<path d="M24.1637 99.5115V103H12.1826V91.019H24.1637" stroke="#484859" stroke-width="2" stroke-miterlimit="10" stroke-linecap="round" stroke-linejoin="round"/>
<path d="M14.8672 95.8263L18.7487 99.7078L26.867 92.4219" stroke="#403C73" stroke-width="2" stroke-miterlimit="10" stroke-linecap="round" stroke-linejoin="round"/>
<path d="M46.1898 7.17919C57.7781 16.7005 59.4429 33.8164 49.9216 45.4046C40.4003 56.9929 23.2845 58.6578 11.6962 49.1365C0.107887 39.6152 -1.55694 22.4993 7.96435 10.911C17.4856 -0.677269 34.6109 -2.3421 46.1898 7.17919Z" stroke="#403C73" stroke-width="2" stroke-miterlimit="10" stroke-linecap="round" stroke-linejoin="round"/>
<path d="M59.7927 47.4571L53.8477 54.6895L79.468 75.7496L85.4131 68.5172L59.7927 47.4571Z" stroke="#403C73" stroke-width="2" stroke-miterlimit="10" stroke-linecap="round" stroke-linejoin="round"/>
<path d="M42.9171 11.1639C52.2981 18.8801 53.6542 32.7412 45.9381 42.1222C38.2219 51.5032 24.3608 52.8593 14.9798 45.1432C5.59885 37.427 4.24268 23.5659 11.9589 14.1849C19.675 4.80395 33.5361 3.45712 42.9171 11.1639Z" stroke="#484859" stroke-width="2" stroke-miterlimit="10" stroke-linecap="round" stroke-linejoin="round"/>
<g clip-path="url(#clip0_360_52949)">
<path d="M59.7616 35.6404C59.7616 48.7345 49.146 59.3501 36.0519 59.3501C22.9671 59.3407 12.3516 48.7345 12.3516 35.6404C12.3516 22.5462 22.9671 11.9307 36.0613 11.9307C49.146 11.9307 59.7616 22.5462 59.7616 35.6404Z" fill="#403C73" fill-opacity="0.2"/>
</g>
<path d="M16.0553 43.0946C16.0553 43.0946 15.6718 33.0028 24.3607 28.7939C21.162 27.0356 18.9921 23.6218 18.9921 19.7122C18.9921 13.9789 23.6405 9.33984 29.3738 9.33984C35.1072 9.33984 39.7462 13.9882 39.7462 19.7122C39.7462 23.6031 37.6044 26.9982 34.4338 28.7659L34.4525 28.7939C43.1414 33.0028 42.7579 43.0946 42.7579 43.0946" stroke="#FFA631" stroke-width="2" stroke-miterlimit="10" stroke-linecap="round" stroke-linejoin="round"/>
<path d="M63.1357 92.6842V68.6191" stroke="#484859" stroke-width="2" stroke-miterlimit="10" stroke-linecap="round" stroke-linejoin="round"/>
<path d="M7.51465 52.9058V92.6838H10.5544" stroke="#484859" stroke-width="2" stroke-miterlimit="10" stroke-linecap="round" stroke-linejoin="round"/>
<path d="M63.138 44.7318V22.9956H61.2207" stroke="#484859" stroke-width="2" stroke-miterlimit="10" stroke-linecap="round" stroke-linejoin="round"/>
<path d="M30.0557 63.4282H57.1511" stroke="#484859" stroke-width="2" stroke-miterlimit="10" stroke-linecap="round" stroke-linejoin="round"/>
<path d="M30.0557 68.6191H47.7982" stroke="#484859" stroke-width="2" stroke-miterlimit="10" stroke-linecap="round" stroke-linejoin="round"/>
<path d="M30.3369 78.6733H57.4324" stroke="#484859" stroke-width="2" stroke-miterlimit="10" stroke-linecap="round" stroke-linejoin="round"/>
<path d="M30.3369 83.8638H48.0794" stroke="#484859" stroke-width="2" stroke-miterlimit="10" stroke-linecap="round" stroke-linejoin="round"/>
<path d="M31.3848 96.0601H58.4802" stroke="#484859" stroke-width="2" stroke-miterlimit="10" stroke-linecap="round" stroke-linejoin="round"/>
<path d="M31.3848 101.261H49.1273" stroke="#484859" stroke-width="2" stroke-miterlimit="10" stroke-linecap="round" stroke-linejoin="round"/>
<path d="M26.0715 18.6363C26.0715 19.6464 25.2484 20.4601 24.2476 20.4601C23.2375 20.4601 22.4238 19.6371 22.4238 18.6363C22.4238 17.6262 23.2469 16.8125 24.2476 16.8125C25.2578 16.8125 26.0715 17.6262 26.0715 18.6363Z" fill="#272733"/>
<path d="M35.7892 18.6363C35.7892 19.6464 34.9662 20.4601 33.9654 20.4601C32.9553 20.4601 32.1416 19.6371 32.1416 18.6363C32.1416 17.6262 32.9647 16.8125 33.9654 16.8125C34.9755 16.8125 35.7892 17.6262 35.7892 18.6363Z" fill="#272733"/>
<path d="M25.7051 22.8638C25.7051 22.8638 26.0231 24.5941 28.7261 24.5941C31.4197 24.5941 31.7751 22.8638 31.7751 22.8638" stroke="#484859" stroke-width="2" stroke-miterlimit="10" stroke-linecap="round" stroke-linejoin="round"/>
<defs>
<clipPath id="clip0_360_52949">
<rect width="47.41" height="47.41" fill="white" transform="translate(12.3516 11.9307)"/>
</clipPath>
</defs>
</svg>
