<svg width="89" height="103" viewBox="0 0 89 103" fill="none" xmlns="http://www.w3.org/2000/svg">
<g clip-path="url(#clip0_360_53013)">
<path d="M47.2224 38.5267C47.2224 51.5654 36.6499 62.1379 23.6112 62.1379C10.5725 62.1379 0 51.5654 0 38.5267C0 25.488 10.5725 14.9155 23.6112 14.9155C36.6499 14.9155 47.2224 25.488 47.2224 38.5267Z" fill="#403C73" fill-opacity="0.2"/>
<path d="M13.4811 49.9933C13.4811 49.9933 13.2452 43.8326 18.5511 41.2583C16.5958 40.1774 15.2792 38.1042 15.2792 35.7067C15.2792 32.2088 18.1188 29.3691 21.6168 29.3691C25.1147 29.3691 27.9543 32.2088 27.9543 35.7067C27.9543 38.0845 26.6475 40.1578 24.7118 41.2386L24.7217 41.2484C30.0276 43.8228 29.7917 49.9835 29.7917 49.9835" stroke="#403C73" stroke-width="2" stroke-miterlimit="10" stroke-linecap="round" stroke-linejoin="round"/>
<path d="M33.4568 26.7651H9.54102V53.0489H33.4568V26.7651Z" stroke="#484859" stroke-width="2" stroke-miterlimit="10" stroke-linecap="round" stroke-linejoin="round"/>
<path d="M32.3761 0.982422L35.196 6.69116L41.4943 7.60495L36.9352 12.056L38.0062 18.3248L32.3761 15.3673L26.7361 18.3248L27.8169 12.056L23.2578 7.60495L29.5561 6.69116L32.3761 0.982422Z" stroke="#FFA631" stroke-width="2" stroke-miterlimit="10" stroke-linecap="round" stroke-linejoin="round"/>
<path d="M13.2545 6.23926L15.1116 10.0123L19.2679 10.6117L16.2612 13.5398L16.9687 17.6862L13.2545 15.7309L9.5306 17.6862L10.2479 13.5398L7.24121 10.6117L11.3975 10.0123L13.2545 6.23926Z" stroke="#FFA631" stroke-width="2" stroke-miterlimit="10" stroke-linecap="round" stroke-linejoin="round"/>
<path d="M20.8596 65.6258V68.7995H9.96289V57.9028H20.8596" stroke="#484859" stroke-width="2" stroke-miterlimit="10" stroke-linecap="round" stroke-linejoin="round"/>
<path d="M12.4102 62.2753L15.9376 65.8027L23.3167 59.1802" stroke="#403C73" stroke-width="2" stroke-miterlimit="10" stroke-linecap="round" stroke-linejoin="round"/>
<path d="M20.8596 79.4803V82.654H9.96289V71.7671H20.8596" stroke="#484859" stroke-width="2" stroke-miterlimit="10" stroke-linecap="round" stroke-linejoin="round"/>
<path d="M12.4102 76.1298L15.9376 79.667L23.3167 73.0347" stroke="#403C73" stroke-width="2" stroke-miterlimit="10" stroke-linecap="round" stroke-linejoin="round"/>
<path d="M20.8596 93.7963V96.9601H9.96289V86.0732H20.8596" stroke="#484859" stroke-width="2" stroke-miterlimit="10" stroke-linecap="round" stroke-linejoin="round"/>
<path d="M12.4102 90.4359L15.9376 93.9732L23.3167 87.3408" stroke="#403C73" stroke-width="2" stroke-miterlimit="10" stroke-linecap="round" stroke-linejoin="round"/>
<path d="M26.2148 60.9883H42.5943" stroke="#403C73" stroke-width="2" stroke-miterlimit="10" stroke-linecap="round" stroke-linejoin="round"/>
<path d="M26.2148 65.7144H42.3388" stroke="#403C73" stroke-width="2" stroke-miterlimit="10" stroke-linecap="round" stroke-linejoin="round"/>
<path d="M26.4707 74.8521H51.0939" stroke="#403C73" stroke-width="2" stroke-miterlimit="10" stroke-linecap="round" stroke-linejoin="round"/>
<path d="M26.4707 79.5684H42.5947" stroke="#403C73" stroke-width="2" stroke-miterlimit="10" stroke-linecap="round" stroke-linejoin="round"/>
<path d="M27.4238 90.6621H52.0569" stroke="#403C73" stroke-width="2" stroke-miterlimit="10" stroke-linecap="round" stroke-linejoin="round"/>
<path d="M27.4238 95.3779H43.5576" stroke="#403C73" stroke-width="2" stroke-miterlimit="10" stroke-linecap="round" stroke-linejoin="round"/>
<path d="M51.4968 6.23926L53.3539 10.0123L57.5101 10.6117L54.5035 13.5398L55.2109 17.6862L51.4968 15.7309L47.7728 17.6862L48.4803 13.5398L45.4736 10.6117L49.6299 10.0123L51.4968 6.23926Z" stroke="#FFA631" stroke-width="2" stroke-miterlimit="10" stroke-linecap="round" stroke-linejoin="round"/>
<path d="M77.4363 29.3664L49.7217 57.0811L59.6222 66.9816L87.3368 39.267L77.4363 29.3664Z" stroke="#FFA631" stroke-width="2" stroke-miterlimit="10" stroke-linecap="round" stroke-linejoin="round"/>
<path d="M74.3851 37.8951L52.458 59.8223L56.8004 64.1646L78.7275 42.2375L74.3851 37.8951Z" stroke="#FFA631" stroke-width="2" stroke-miterlimit="10" stroke-linecap="round" stroke-linejoin="round"/>
<path d="M49.7177 57.0874L45.7383 69.1042L47.8705 71.2364L59.622 66.9819" stroke="#FFA631" stroke-width="2" stroke-miterlimit="10" stroke-linecap="round" stroke-linejoin="round"/>
<path d="M46.4463 66.9521L53.7468 69.104" stroke="#FFA631" stroke-width="2" stroke-miterlimit="10" stroke-linecap="round" stroke-linejoin="round"/>
<path d="M59.0331 70.6074V101.902H52.0863H5.70898V22.3828H59.0331V43.626" stroke="#484859" stroke-width="2" stroke-miterlimit="10" stroke-linecap="round" stroke-linejoin="round"/>
<path d="M55.1025 25.4487V42.1623" stroke="#484859" stroke-width="2" stroke-miterlimit="10" stroke-linecap="round" stroke-linejoin="round"/>
<path d="M51.6533 34.96V40.5606" stroke="#484859" stroke-width="2" stroke-miterlimit="10" stroke-linecap="round" stroke-linejoin="round"/>
</g>
<defs>
<clipPath id="clip0_360_53013">
<rect width="88.3135" height="102.885" fill="white"/>
</clipPath>
</defs>
</svg>
