<svg width="97" height="105" viewBox="0 0 97 105" fill="none" xmlns="http://www.w3.org/2000/svg">
<path d="M42.5942 88.2413L32.4961 100.522L35.9642 103.374L46.0623 91.0929L42.5942 88.2413Z" stroke="#403C73" stroke-width="2" stroke-miterlimit="10" stroke-linecap="round" stroke-linejoin="round"/>
<path d="M47.0498 86.3599L44.3398 89.6599" stroke="#484859" stroke-width="2" stroke-miterlimit="10" stroke-linecap="round" stroke-linejoin="round"/>
<path d="M70.7 39.8598C70.7 59.3798 54.87 75.2098 35.35 75.2098C15.83 75.2098 0 59.3798 0 39.8598C0 20.3398 15.83 4.50977 35.35 4.50977C54.87 4.50977 70.7 20.3398 70.7 39.8598Z" fill="#403C73" fill-opacity="0.2"/>
<path d="M68.2403 30.26L68.1803 29.2L68.0303 28.15L67.7003 26.04L67.1703 23.97L61.3503 25.59C60.8003 23.6 60.0103 21.71 59.0103 19.95L64.2703 16.98L63.1603 15.16C62.7803 14.55 62.3303 14.01 61.9103 13.43C61.1003 12.27 60.0803 11.26 59.1303 10.21C58.0803 9.26 57.0703 8.24 55.9003 7.42C55.3303 7 54.7803 6.55 54.1803 6.18L52.3503 5.07L49.3803 10.33C47.6203 9.33 45.7303 8.54 43.7403 7.99L45.3603 2.17L43.2903 1.64L41.2003 1.31L40.1503 1.16L39.0803 1.1L36.9603 1L34.8303 1.1L33.7703 1.17L32.7103 1.32L30.6103 1.65L28.5303 2.18L30.1503 8C28.1703 8.55 26.2703 9.34 24.5103 10.34L21.5403 5.08L19.7203 6.19C19.1103 6.56 18.5603 7.02 17.9903 7.43C16.8203 8.24 15.8203 9.26 14.7603 10.22C13.8203 11.27 12.8003 12.28 11.9803 13.44C11.5603 14.02 11.1103 14.57 10.7403 15.17L9.63031 16.99L14.9003 19.96C13.9003 21.72 13.1103 23.61 12.5603 25.6L6.74031 23.98L6.21031 26.05L5.88031 28.16L5.73031 29.2L5.67031 30.26L5.57031 32.39L5.67031 34.52L5.73031 35.58L5.89031 36.63L6.22031 38.74L6.75031 40.81L12.5703 39.19C13.1203 41.18 13.9103 43.07 14.9103 44.83L9.63031 47.8L10.7403 49.62C11.1103 50.23 11.5703 50.77 11.9803 51.35C12.7903 52.51 13.8103 53.52 14.7603 54.57C15.8203 55.52 16.8203 56.54 17.9903 57.36C18.5603 57.78 19.1203 58.23 19.7203 58.6L21.5403 59.71L24.5103 54.45C26.2703 55.45 28.1603 56.24 30.1503 56.79L28.5303 62.61L30.6103 63.14L32.7103 63.47L33.7703 63.62L34.8303 63.69L36.9603 63.79L39.0803 63.69L40.1503 63.62L41.2003 63.47L43.3103 63.14L45.3803 62.61L43.7603 56.79C45.7503 56.24 47.6403 55.45 49.4003 54.45L52.3703 59.71L54.2003 58.6C54.8003 58.23 55.3503 57.77 55.9203 57.36C57.0903 56.55 58.0903 55.53 59.1503 54.57C60.1003 53.52 61.1203 52.51 61.9303 51.35C62.3503 50.77 62.8003 50.22 63.1803 49.62L64.2903 47.8L59.0303 44.83C60.0303 43.07 60.8103 41.18 61.3703 39.19L67.1903 40.81L67.7203 38.74L68.0503 36.63L68.2003 35.58L68.2603 34.52L68.3603 32.39L68.2403 30.26ZM56.1803 33.08L56.1503 33.7V33.77C56.1503 33.79 56.1503 33.8 56.1403 33.82L56.1203 34.36L56.0203 34.96C56.0303 34.97 56.0203 34.99 56.0103 35.01L55.9103 35.65L55.8103 36.31L55.6403 36.95L55.4803 37.58C55.0303 39.22 54.3703 40.76 53.5103 42.19L53.3003 42.54L53.0303 42.98C52.8703 43.24 52.6803 43.47 52.5003 43.72C52.4903 43.74 52.4803 43.75 52.4603 43.77C52.3903 43.85 52.3203 43.94 52.2703 44.03C52.2603 44.05 52.2403 44.08 52.2303 44.1L52.2203 44.11C51.9903 44.45 51.7303 44.76 51.4503 45.06C51.4203 45.09 51.4003 45.13 51.3603 45.16C51.2403 45.28 51.1303 45.41 51.0103 45.54C50.9303 45.62 50.8603 45.7 50.7903 45.78C50.7203 45.86 50.6503 45.94 50.5703 46.03C50.4903 46.1 50.4003 46.17 50.3203 46.24C50.1603 46.39 50.0003 46.54 49.8403 46.69C49.8303 46.7 49.8303 46.7 49.8303 46.7C49.8203 46.71 49.8203 46.71 49.8103 46.72C49.7903 46.74 49.7703 46.75 49.7503 46.77C49.4003 47.09 49.0503 47.41 48.6503 47.67C48.6203 47.7 48.6003 47.71 48.5803 47.72C48.4303 47.83 48.2803 47.94 48.1403 48.05C48.1103 48.08 48.0903 48.1 48.0603 48.11C47.8803 48.25 47.7103 48.38 47.5203 48.49L47.2303 48.66L46.6803 49C46.6703 49.01 46.6503 49.02 46.6403 49.03C45.2403 49.85 43.7203 50.5 42.1303 50.94L41.4803 51.11L40.8603 51.27L40.3603 51.34C40.3403 51.35 40.3203 51.35 40.2903 51.35C39.9703 51.41 39.6503 51.45 39.3203 51.49H39.3003L38.9103 51.56L38.5303 51.57C38.5103 51.57 38.4903 51.58 38.4703 51.58C38.1603 51.61 37.8503 51.63 37.5303 51.63H37.4603L36.9403 51.66L36.4203 51.63H36.3503C36.0503 51.62 35.7603 51.6 35.4603 51.58H35.4303C35.4103 51.58 35.3803 51.57 35.3603 51.57L34.9603 51.56L34.5603 51.49H34.5503C34.2203 51.45 33.8903 51.41 33.5703 51.35C33.5503 51.34 33.5303 51.34 33.5103 51.34L33.0103 51.27L32.3703 51.1L31.7403 50.94C30.1203 50.5 28.5903 49.84 27.1803 49.01L26.6303 48.67L26.3403 48.5C26.2903 48.47 26.2503 48.45 26.2103 48.41C26.0703 48.33 25.9403 48.23 25.8003 48.12L25.7203 48.06C25.5803 47.95 25.4303 47.83 25.2803 47.73C25.2503 47.72 25.2303 47.71 25.2103 47.68C24.8703 47.45 24.5703 47.19 24.2703 46.91C24.2303 46.88 24.1903 46.84 24.1503 46.81C23.9703 46.65 23.7903 46.49 23.6203 46.32C23.5903 46.3 23.5603 46.27 23.5403 46.24C23.4603 46.17 23.3803 46.1 23.2903 46.03C23.2203 45.95 23.1503 45.86 23.0703 45.78C22.9903 45.7 22.9103 45.63 22.8503 45.54C22.7203 45.42 22.6003 45.29 22.5003 45.16C22.4603 45.13 22.4303 45.09 22.4103 45.06C22.1603 44.78 21.9103 44.5 21.7003 44.2C21.5503 44.01 21.4103 43.82 21.2803 43.63C21.1203 43.42 20.9503 43.21 20.8203 42.99L20.5503 42.55L20.3403 42.2C19.4903 40.77 18.8203 39.22 18.3703 37.59C18.3003 37.39 18.2503 37.18 18.2103 36.96L18.0403 36.32L17.9403 35.66L17.8903 35C17.8803 34.99 17.8803 34.97 17.8803 34.95L17.7803 34.35L17.7503 33.76C17.7403 33.74 17.7403 33.71 17.7503 33.69C17.7303 33.49 17.7203 33.28 17.7203 33.07L17.6803 32.37L17.7203 31.67C17.7203 31.46 17.7303 31.25 17.7503 31.05C17.7403 31.03 17.7403 31 17.7503 30.98L17.7803 30.39L17.8803 29.79C17.8703 29.78 17.8803 29.76 17.8903 29.74L17.9903 29.1L18.0903 28.44L18.2603 27.8C18.3103 27.59 18.3603 27.38 18.4203 27.17C18.8703 25.53 19.5303 23.99 20.3903 22.56L20.6003 22.21L20.8703 21.77C21.0103 21.54 21.1703 21.33 21.3303 21.13C21.4603 20.94 21.6003 20.75 21.7503 20.56C21.9703 20.25 22.2103 19.98 22.4603 19.7C22.4903 19.67 22.5103 19.63 22.5503 19.6C22.6503 19.47 22.7703 19.34 22.9003 19.22C22.9703 19.14 23.0403 19.06 23.1203 18.98C23.1903 18.9 23.2603 18.82 23.3403 18.73C23.4203 18.66 23.5103 18.59 23.5903 18.51C23.6203 18.48 23.6503 18.45 23.6703 18.43C23.8403 18.26 24.0203 18.1 24.2003 17.94C24.2403 17.91 24.2803 17.87 24.3203 17.84C24.6203 17.57 24.9203 17.3 25.2603 17.07C25.2803 17.04 25.3003 17.03 25.3303 17.02C25.4803 16.92 25.6303 16.8 25.7703 16.69L25.8503 16.63C25.9903 16.53 26.1203 16.43 26.2603 16.34C26.3003 16.3 26.3403 16.27 26.3903 16.25L26.6803 16.08L27.2303 15.74C28.6403 14.91 30.1703 14.25 31.7903 13.81L32.4203 13.65L33.0603 13.48L33.5603 13.41C33.5803 13.4 33.6003 13.4 33.6203 13.4C33.9403 13.34 34.2703 13.3 34.6003 13.26H34.6103C34.6203 13.26 34.6303 13.26 34.6403 13.25L35.0103 13.19L35.4103 13.18C35.4303 13.18 35.4603 13.17 35.4803 13.17C35.7903 13.14 36.0903 13.12 36.4003 13.12H36.4703L36.9903 13.09L37.5103 13.12H37.5803C37.9003 13.13 38.2103 13.15 38.5203 13.17C38.5403 13.17 38.5603 13.18 38.5803 13.18L38.9603 13.19L39.3503 13.26H39.3703C39.7003 13.3 40.0203 13.34 40.3403 13.4C40.3603 13.41 40.3903 13.41 40.4103 13.41L40.9103 13.48L41.5303 13.64L42.1803 13.81C43.7703 14.25 45.2903 14.9 46.6903 15.72C46.7003 15.73 46.7203 15.74 46.7303 15.75L47.2803 16.09L47.5703 16.26C47.7603 16.37 47.9303 16.5 48.1103 16.64C48.1403 16.65 48.1603 16.67 48.1903 16.7C48.3303 16.81 48.4803 16.93 48.6303 17.03C48.6603 17.04 48.6803 17.06 48.7003 17.08C49.1203 17.36 49.4903 17.7 49.8603 18.04L49.8803 18.06C49.8903 18.07 49.8903 18.07 49.8903 18.07C50.0503 18.22 50.2103 18.37 50.3703 18.52C50.4503 18.59 50.5303 18.66 50.6203 18.74C50.6903 18.82 50.7603 18.91 50.8403 18.99C50.9103 19.08 50.9803 19.15 51.0603 19.23C51.1803 19.36 51.2903 19.49 51.4103 19.61C51.4503 19.64 51.4803 19.68 51.5003 19.71C51.7803 20.01 52.0503 20.32 52.2703 20.66L52.2803 20.67C52.2903 20.69 52.3103 20.72 52.3203 20.74C52.3803 20.83 52.4403 20.92 52.5103 21C52.5303 21.02 52.5403 21.03 52.5503 21.05C52.7403 21.3 52.9303 21.53 53.0803 21.79L53.3503 22.23L53.5603 22.58C54.4103 24.01 55.0803 25.56 55.5303 27.19L55.6903 27.82L55.8603 28.46L55.9603 29.12L56.0603 29.76C56.0703 29.77 56.0703 29.79 56.0703 29.81L56.1703 30.41L56.1903 30.95C56.2003 30.97 56.2003 30.98 56.2003 31V31.07L56.2303 31.69L56.2703 32.39L56.1803 33.08Z" stroke="#403C73" stroke-width="2" stroke-miterlimit="10" stroke-linecap="round" stroke-linejoin="round"/>
<path d="M93.4298 64.0299L93.6798 63.5799L93.8898 63.1099L94.2898 62.1699L94.5998 61.1899L91.8198 60.3699C92.0998 59.4199 92.2598 58.4499 92.3098 57.4799L95.2098 57.6099L95.2198 56.5899C95.2198 56.2499 95.1698 55.9099 95.1498 55.5699C95.1198 54.8899 94.9598 54.2199 94.8398 53.5499C94.6498 52.8899 94.4998 52.2199 94.2398 51.5899C94.1098 51.2699 94.0098 50.9499 93.8498 50.6399L93.3898 49.7199L90.8398 51.1099C90.3798 50.2599 89.8098 49.4499 89.1398 48.7199L91.2798 46.7599L90.5698 46.0199L89.7999 45.3499L89.4099 45.0199L88.9898 44.7199L88.1498 44.1399L87.2598 43.6399L86.7999 43.3999L86.3298 43.1899L85.3898 42.7899L84.4099 42.4799L83.5898 45.2599C82.6398 44.9799 81.6698 44.8199 80.6998 44.7699L80.8298 41.8699L79.8098 41.8599C79.4698 41.8599 79.1298 41.8999 78.7898 41.9299C78.1098 41.9599 77.4398 42.1199 76.7698 42.2399C76.1198 42.4299 75.4398 42.5799 74.8198 42.8399C74.4998 42.9699 74.1799 43.0799 73.8699 43.2299L72.9498 43.6899L74.3398 46.2499C73.4898 46.7099 72.6798 47.2799 71.9498 47.9499L69.9898 45.8099L69.2498 46.5199L68.5798 47.2899L68.2498 47.6799L67.9598 48.0999L67.3798 48.9399L66.8798 49.8299L66.6298 50.2799L66.4298 50.7499L66.0298 51.6899L65.7198 52.6699L68.4998 53.4899C68.2098 54.4399 68.0598 55.4099 68.0098 56.3799L65.0998 56.2499L65.0898 57.2699C65.0898 57.6099 65.1299 57.9499 65.1599 58.2899C65.1899 58.9699 65.3498 59.6399 65.4698 60.3099C65.6598 60.9699 65.7998 61.6399 66.0698 62.2699C66.1998 62.5899 66.3098 62.9099 66.4598 63.2199L66.9198 64.1299L69.4698 62.7399C69.9298 63.5899 70.4998 64.3999 71.1698 65.1299L69.0298 67.0899L69.7398 67.8299L70.5098 68.4999L70.9099 68.8299L71.3198 69.1299L72.1599 69.7099L73.0499 70.2099L73.4998 70.4499L73.9698 70.6599L74.9099 71.0599L75.8898 71.3699L76.7098 68.5899C77.6598 68.8699 78.6298 69.0299 79.5998 69.0699L79.4698 71.9699L80.4898 71.9999C80.8298 71.9999 81.1698 71.9599 81.5098 71.9299C82.1898 71.8999 82.8598 71.7399 83.5298 71.6199C84.1798 71.4299 84.8499 71.2799 85.4799 71.0199C85.7999 70.8899 86.1198 70.7799 86.4298 70.6299L87.3498 70.1699L85.9598 67.6199C86.8098 67.1599 87.6198 66.5899 88.3498 65.9199L90.3098 68.0599L91.0499 67.3499L91.7198 66.5799L92.0499 66.1899L92.3398 65.7699L92.9298 64.9299L93.4298 64.0299ZM86.2698 61.0799L86.1298 61.2799L86.1199 61.2999C86.1199 61.3099 86.1098 61.3099 86.1098 61.3199L85.9898 61.4899L85.8398 61.6599C85.8398 61.6699 85.8298 61.6699 85.8298 61.6699L85.6698 61.8599L85.4998 62.0499L85.3198 62.2199L85.1398 62.3899C84.6598 62.8299 84.1298 63.1999 83.5598 63.4899L83.4198 63.5599L83.2398 63.6499C83.1398 63.6999 83.0298 63.7399 82.9198 63.7799C82.9098 63.7899 82.9098 63.7899 82.8998 63.7899C82.8598 63.7999 82.8198 63.8199 82.7798 63.8299C82.7698 63.8299 82.7598 63.8399 82.7498 63.8399C82.6098 63.8999 82.4599 63.9499 82.2999 63.9899C82.2899 63.9999 82.2698 63.9999 82.2498 63.9999C82.1898 64.0199 82.1198 64.0399 82.0598 64.0499C82.0198 64.0599 81.9798 64.0699 81.9398 64.0799C81.8998 64.0899 81.8598 64.0999 81.8198 64.1199C81.7798 64.1299 81.7398 64.1299 81.6998 64.1399C81.6198 64.1499 81.5298 64.1699 81.4498 64.1899C81.4498 64.1899 81.4498 64.1899 81.4398 64.1899H81.4298C81.4198 64.1899 81.4098 64.1899 81.3998 64.1999C81.2198 64.2299 81.0398 64.2699 80.8598 64.2699C80.8498 64.2699 80.8398 64.2799 80.8298 64.2699C80.7598 64.2699 80.6899 64.2799 80.6199 64.2899C80.6099 64.2899 80.5898 64.2899 80.5798 64.2899C80.4998 64.2999 80.4098 64.3099 80.3298 64.2999H80.1998H79.9498C79.9398 64.2999 79.9398 64.2999 79.9298 64.2999C79.3098 64.2799 78.6798 64.1799 78.0698 63.9999L77.8198 63.9199L77.5898 63.8499L77.3998 63.7999C77.3898 63.7999 77.3798 63.7899 77.3798 63.7899C77.2598 63.7399 77.1498 63.6899 77.0298 63.6399H77.0198L76.8798 63.5799L76.7498 63.5099C76.7398 63.5099 76.7399 63.4999 76.7299 63.4999C76.6199 63.4499 76.5199 63.3899 76.4099 63.3299L76.3898 63.3199L76.2098 63.2199L76.0499 63.0999L76.0298 63.0899C75.9298 63.0299 75.8398 62.9599 75.7498 62.8899L75.7398 62.8799C75.7298 62.8799 75.7298 62.8699 75.7198 62.8699L75.5898 62.7799L75.4698 62.6799C75.3698 62.5999 75.2698 62.5199 75.1798 62.4299C75.1798 62.4199 75.1699 62.4199 75.1599 62.4099L75.0098 62.2799L74.8398 62.0899L74.6698 61.9099C74.2298 61.4399 73.8698 60.9099 73.5798 60.3499L73.4698 60.1299L73.4099 60.0099C73.3999 59.9899 73.3898 59.9799 73.3898 59.9499C73.3598 59.8899 73.3398 59.8399 73.3098 59.7699C73.3098 59.7599 73.2999 59.7499 73.2999 59.7299C73.2799 59.6599 73.2498 59.5999 73.2198 59.5299C73.2098 59.5199 73.2098 59.5099 73.2098 59.4999C73.1498 59.3599 73.0998 59.2099 73.0598 59.0599C73.0498 59.0399 73.0498 59.0199 73.0398 58.9999C73.0098 58.9099 72.9898 58.8199 72.9698 58.7299C72.9698 58.7199 72.9598 58.6999 72.9598 58.6899C72.9498 58.6499 72.9398 58.6099 72.9198 58.5699C72.9098 58.5299 72.9098 58.4899 72.8998 58.4499C72.8898 58.4099 72.8798 58.3699 72.8798 58.3299C72.8598 58.2599 72.8498 58.1999 72.8398 58.1299C72.8298 58.1099 72.8298 58.0899 72.8298 58.0799C72.7998 57.9399 72.7798 57.7999 72.7798 57.6499C72.7698 57.5599 72.7598 57.4699 72.7598 57.3799C72.7498 57.2799 72.7398 57.1799 72.7398 57.0799V56.8799V56.7299C72.7498 56.0899 72.8498 55.4499 73.0398 54.8299C73.0598 54.7499 73.0798 54.6699 73.1098 54.5899L73.1898 54.3499L73.2898 54.1199L73.3898 53.8899C73.3898 53.8799 73.3898 53.8799 73.3998 53.8699L73.4898 53.6599L73.5998 53.4599C73.5998 53.4499 73.6098 53.4399 73.6098 53.4399C73.6498 53.3699 73.6798 53.2999 73.7198 53.2299L73.8699 52.9999L74.0198 52.7799C74.0598 52.7099 74.1099 52.6499 74.1599 52.5799C74.1599 52.5699 74.1698 52.5599 74.1698 52.5599L74.2999 52.3699L74.4498 52.1899C74.4498 52.1799 74.4598 52.1799 74.4598 52.1799L74.6298 51.9999L74.7999 51.7999L74.9898 51.6299C75.0498 51.5699 75.1098 51.5099 75.1698 51.4599C75.6498 51.0199 76.1798 50.6499 76.7498 50.3599L76.8898 50.2899L77.0698 50.1999C77.1598 50.1499 77.2598 50.1199 77.3498 50.0799C77.4298 50.0399 77.5198 50.0099 77.5998 49.9799C77.7298 49.9199 77.8698 49.8799 78.0098 49.8399C78.0198 49.8399 78.0398 49.8299 78.0598 49.8299C78.1198 49.8099 78.1898 49.7899 78.2498 49.7799C78.2898 49.7699 78.3299 49.7599 78.3699 49.7499C78.4099 49.7399 78.4498 49.7299 78.4898 49.7099C78.5298 49.6999 78.5698 49.6999 78.6098 49.6899C78.6298 49.6799 78.6398 49.6799 78.6498 49.6799C78.7398 49.6599 78.8298 49.6399 78.9198 49.6299C78.9398 49.6299 78.9599 49.6199 78.9799 49.6199C79.1299 49.5899 79.2898 49.5699 79.4398 49.5599C79.4498 49.5599 79.4598 49.5599 79.4698 49.5599C79.5398 49.5599 79.6098 49.5499 79.6798 49.5399C79.6898 49.5399 79.7098 49.5399 79.7198 49.5399C79.7898 49.5299 79.8499 49.5299 79.9099 49.5299C79.9299 49.5199 79.9498 49.5299 79.9698 49.5299H80.0998H80.3498C80.9798 49.5499 81.6099 49.6399 82.2299 49.8299L82.4698 49.8999L82.7098 49.9799L82.8898 50.0599C82.8998 50.0599 82.8999 50.0699 82.9099 50.0699C83.0299 50.1199 83.1398 50.1699 83.2598 50.2199H83.2698L83.3998 50.2799L83.5298 50.3599C83.5398 50.3599 83.5499 50.3699 83.5499 50.3699C83.6499 50.4199 83.7598 50.4799 83.8598 50.5399L83.8798 50.5499L84.0598 50.6499L84.2198 50.7699L84.2398 50.7799C84.3398 50.8499 84.4398 50.9199 84.5298 50.9899C84.5398 50.9899 84.5399 50.9999 84.5499 50.9999L84.6698 51.0799L84.7798 51.1799H84.7898C84.8898 51.2599 84.9898 51.3399 85.0798 51.4199C85.0898 51.4299 85.0898 51.4299 85.0998 51.4399L85.2498 51.5599L85.4198 51.7399L85.5998 51.9299C86.0298 52.3999 86.3898 52.9199 86.6798 53.4699C86.6798 53.4699 86.6898 53.4799 86.6898 53.4899L86.7999 53.7099L86.8598 53.8299C86.8998 53.8999 86.9298 53.9799 86.9598 54.0599C86.9698 54.0699 86.9698 54.0799 86.9698 54.0999C86.9898 54.1699 87.0199 54.2299 87.0499 54.2999C87.0599 54.3099 87.0598 54.3199 87.0598 54.3299C87.1398 54.5099 87.1898 54.6899 87.2398 54.8799V54.8899C87.2398 54.8899 87.2398 54.8899 87.2398 54.8999C87.2598 54.9799 87.2798 55.0599 87.3098 55.1399C87.3198 55.1799 87.3298 55.2199 87.3498 55.2599C87.3598 55.2999 87.3599 55.3399 87.3699 55.3799C87.3799 55.4199 87.3798 55.4599 87.3898 55.4999C87.3998 55.5699 87.4098 55.6299 87.4298 55.6999C87.4398 55.7199 87.4398 55.7399 87.4398 55.7499C87.4698 55.8999 87.4898 56.0599 87.4998 56.2199C87.4998 56.2299 87.4998 56.2399 87.4998 56.2499C87.4998 56.2899 87.4998 56.3299 87.5098 56.3799C87.5098 56.3899 87.5098 56.3999 87.5098 56.3999C87.5198 56.5199 87.5298 56.6299 87.5298 56.7499V56.9499V57.0999C87.5198 57.7399 87.4199 58.3799 87.2299 58.9999L87.1599 59.2399L87.0898 59.4799L86.9898 59.7099L86.8898 59.9399C86.8898 59.9499 86.8898 59.9499 86.8798 59.9599L86.7898 60.1699L86.6898 60.3499C86.6898 60.3599 86.6898 60.3599 86.6798 60.3699L86.6698 60.3899L86.5598 60.5999L86.4298 60.8299L86.2698 61.0799Z" stroke="#FFBD07" stroke-width="2" stroke-miterlimit="10" stroke-linecap="round" stroke-linejoin="round"/>
<path d="M27.5596 44.02C27.5596 44.02 27.2596 36.16 34.0296 32.88C31.5396 31.51 29.8496 28.85 29.8496 25.81C29.8496 21.35 33.4696 17.73 37.9296 17.73C42.3896 17.73 46.0096 21.35 46.0096 25.81C46.0096 28.84 44.3396 31.48 41.8696 32.86L41.8796 32.88C48.6496 36.16 48.3496 44.02 48.3496 44.02" stroke="#484859" stroke-width="2" stroke-miterlimit="10" stroke-linecap="round" stroke-linejoin="round"/>
<path d="M65.3801 84.5701C60.8101 90.1301 52.6101 90.9301 47.0501 86.3601C41.5001 81.7901 40.7001 73.5901 45.2601 68.0401C49.8301 62.4901 58.0301 61.6801 63.5901 66.2501C69.1401 70.8101 69.9401 79.0201 65.3801 84.5701Z" stroke="#484859" stroke-width="2" stroke-miterlimit="10" stroke-linecap="round" stroke-linejoin="round"/>
<path d="M63.0796 82.6801C59.5596 86.9701 53.2296 87.5801 48.9396 84.0601C44.6496 80.5401 44.0396 74.2101 47.5596 69.9201C51.0796 65.6301 57.4096 65.0201 61.6996 68.5401C65.9796 72.0701 66.5996 78.4001 63.0796 82.6801Z" stroke="#484859" stroke-width="2" stroke-miterlimit="10" stroke-linecap="round" stroke-linejoin="round"/>
<path d="M89.3598 34.3498C89.3598 35.8698 88.1198 37.1098 86.5998 37.1098C85.0798 37.1098 83.8398 35.8698 83.8398 34.3498C83.8398 32.8298 85.0798 31.5898 86.5998 31.5898C88.1298 31.5998 89.3598 32.8298 89.3598 34.3498Z" stroke="#484859" stroke-width="2" stroke-miterlimit="10" stroke-linecap="round" stroke-linejoin="round"/>
<path d="M87.9199 23.6401C87.9199 24.3401 87.3499 24.9101 86.6499 24.9101C85.9499 24.9101 85.3799 24.3401 85.3799 23.6401C85.3799 22.9401 85.9499 22.3701 86.6499 22.3701C87.3499 22.3701 87.9199 22.9401 87.9199 23.6401Z" stroke="#FFBD07" stroke-width="2" stroke-miterlimit="10" stroke-linecap="round" stroke-linejoin="round"/>
<path d="M38.9001 72.8802C38.9001 75.4502 36.8101 77.5402 34.2401 77.5402C31.6701 77.5402 29.5801 75.4502 29.5801 72.8802C29.5801 70.3102 31.6601 68.2202 34.2401 68.2202C36.8101 68.2202 38.9001 70.3102 38.9001 72.8802Z" stroke="#484859" stroke-width="2" stroke-miterlimit="10" stroke-linecap="round" stroke-linejoin="round"/>
<path d="M23.0497 77.5399C24.3365 77.5399 25.3797 76.4967 25.3797 75.2099C25.3797 73.9231 24.3365 72.8799 23.0497 72.8799C21.7629 72.8799 20.7197 73.9231 20.7197 75.2099C20.7197 76.4967 21.7629 77.5399 23.0497 77.5399Z" stroke="#FFBD07" stroke-width="2" stroke-miterlimit="10" stroke-linecap="round" stroke-linejoin="round"/>
<path d="M81.4102 27.6201C81.4102 29.8201 79.6302 31.6001 77.4302 31.6001C75.2302 31.6001 73.4502 29.8201 73.4502 27.6201C73.4502 25.4201 75.2302 23.6401 77.4302 23.6401C79.6202 23.6401 81.4102 25.4201 81.4102 27.6201Z" stroke="#484859" stroke-width="2" stroke-miterlimit="10" stroke-linecap="round" stroke-linejoin="round"/>
</svg>
