<svg width="22" height="24" viewBox="0 0 22 24" fill="none" xmlns="http://www.w3.org/2000/svg">
<path d="M11 0C6.78289 0 3.26562 3.39703 3.26562 7.73438C3.26562 9.38447 3.76147 10.8559 4.71308 12.2347L10.4081 21.1212C10.6844 21.5532 11.3162 21.5524 11.5919 21.1212L17.3116 12.2044C18.2428 10.8881 18.7344 9.34252 18.7344 7.73438C18.7344 3.46964 15.2647 0 11 0ZM11 11.25C9.06158 11.25 7.48438 9.6728 7.48438 7.73438C7.48438 5.79595 9.06158 4.21875 11 4.21875C12.9384 4.21875 14.5156 5.79595 14.5156 7.73438C14.5156 9.6728 12.9384 11.25 11 11.25Z" fill="#403C73"/>
<path d="M16.4967 16.1572L12.9562 21.6926C12.0398 23.1214 9.95511 23.1167 9.04306 21.6939L5.49678 16.1587C2.37659 16.8801 0.453125 18.2016 0.453125 19.7809C0.453125 22.5213 5.88725 23.9996 11 23.9996C16.1128 23.9996 21.5469 22.5213 21.5469 19.7809C21.5469 18.2005 19.6207 16.8783 16.4967 16.1572Z" fill="#403C73"/>
</svg>
