<svg width="1439" height="224" viewBox="0 0 1439 224" fill="none" xmlns="http://www.w3.org/2000/svg">
<path d="M733.976 223.105C728.792 222.658 724.76 221.614 720.728 220.57C719 220.122 716.696 219.675 714.968 219.228C707.48 217.587 700.568 215.798 694.808 213.561C685.016 209.683 683.288 205.358 689.048 199.989C693.08 196.261 699.416 192.533 705.176 188.953C706.904 187.909 708.632 186.866 710.36 185.822C719 180.304 729.368 173.891 733.4 167.18C736.856 161.513 730.52 155.696 716.696 151.521C704.024 147.643 686.168 145.555 667.16 145.406H665.432H663.128H660.824C656.216 145.406 651.608 145.406 646.424 145.108C635.48 144.66 628.568 142.871 625.688 140.037C623.96 138.546 623.384 136.905 623.384 135.414C623.384 131.089 622.808 127.063 620.504 123.036C615.32 114.386 598.04 108.57 566.36 104.991C558.872 104.245 552.536 103.499 545.624 102.903C534.68 101.71 523.16 100.517 512.216 99.1744C485.144 95.7443 463.256 90.6738 447.704 84.1118C445.4 83.217 443.096 82.1731 440.792 81.2783C435.032 78.743 429.272 76.0586 421.784 73.6724C411.992 70.0932 401.048 68.4527 388.376 68.4527C380.312 68.4527 371.096 69.1984 361.304 70.6897C323.288 76.3568 301.4 85.3049 295.064 97.3848C292.184 103.201 293.912 109.017 299.096 115.43C299.672 116.474 300.824 117.369 301.976 118.413C304.28 121.097 306.584 123.782 308.312 126.615C310.616 130.642 309.464 134.967 306.008 139.739C299.672 147.643 291.608 153.758 280.088 158.828C266.264 164.943 246.68 168.522 221.912 169.417C213.848 169.715 205.784 169.864 197.72 169.864C168.92 169.864 140.12 168.075 109.592 164.346C104.984 163.899 100.952 163.302 96.92 162.706C83.672 161.065 69.848 159.276 55.448 158.232C43.928 157.337 32.408 156.889 19.736 156.74C17.432 156.74 15.128 156.591 13.4 156.591C10.52 156.442 7.64 156.442 4.76 156.442C4.184 156.442 3.608 156.442 2.456 156.144V140.634C3.032 140.485 3.608 140.485 4.184 140.485C5.336 140.485 5.912 140.485 7.064 140.634C7.64 140.634 8.216 140.783 8.792 140.783C47.384 142.722 79.64 146.45 108.44 152.117C122.84 154.951 135.512 157.337 148.76 159.126C165.464 161.513 182.168 162.706 199.448 162.855C200.6 162.855 201.752 162.855 203.48 162.855C229.4 162.855 249.56 160.021 262.808 154.354C275.48 148.687 282.392 142.125 283.544 134.967C284.12 130.194 280.664 125.72 276.632 121.395C270.296 114.834 267.992 109.316 268.568 104.096C270.296 96.3409 273.752 87.2437 289.304 79.0413C295.64 75.6112 303.704 72.3302 315.8 68.6019C319.832 67.2597 323.864 66.0666 327.896 64.7244C340.568 60.6977 353.24 56.522 367.64 52.7936C375.704 50.2583 383.192 48.4687 390.68 47.1265C407.384 43.9947 421.208 39.968 434.456 34.8975C448.856 29.2304 464.408 24.4581 480.536 20.1332C491.48 17.2996 504.152 14.7643 516.248 12.3782L522.008 11.1851C535.832 8.50067 545.048 5.36884 550.232 1.64048C550.808 1.34221 551.96 1.04394 553.112 0.745672H622.232C623.384 1.04394 624.536 1.34221 625.112 1.93875C629.144 6.41278 638.936 9.69374 648.152 12.3782C671.768 19.2383 688.472 26.2477 700.568 34.0027C708.056 38.9241 717.272 44.1438 730.52 48.4687C742.04 52.1971 755.864 55.6272 770.264 58.4607L780.056 60.3995C795.032 63.3822 810.584 66.514 826.136 69.1984C837.656 71.1371 849.176 72.1811 861.272 72.3302C861.848 72.3302 863 72.3302 863.576 72.3302C877.4 72.3302 889.496 70.8389 899.864 68.0053C908.504 65.6192 915.992 62.6365 924.056 58.4607C932.12 54.285 938.456 49.8109 945.368 45.486C947.672 43.9947 949.975 42.3542 952.279 40.8629C958.615 36.5379 964.951 33.1079 971.287 29.976C978.199 26.5459 980.504 23.4141 978.2 20.1332C974.744 14.9134 974.168 9.54461 973.592 5.07057C973.592 4.47403 973.592 3.8775 974.168 3.13182C974.744 2.53529 974.744 1.93875 974.744 1.34221C974.744 1.04394 975.319 0.894807 975.895 0.745672H1036.38C1038.1 1.04394 1039.26 1.34221 1040.41 2.08788C1045.02 4.7723 1048.47 6.71105 1053.08 8.35153C1066.33 13.4221 1085.34 16.2557 1110.68 17.1505C1116.44 17.4487 1121.62 17.4487 1127.38 17.4487C1130.84 17.4487 1134.3 17.4487 1137.75 17.4487C1144.09 17.5979 1150.42 17.5979 1156.18 17.747C1170.01 17.8961 1183.83 18.0453 1197.66 18.7909C1222.42 20.2823 1238.55 25.2037 1241.43 32.0639C1243.16 36.2397 1243.16 39.5206 1241.43 42.6525C1236.25 50.8549 1215.51 56.6711 1186.14 58.1624C1179.22 58.4607 1172.89 58.759 1165.98 58.759C1151 58.759 1135.45 57.8642 1120.47 55.9254C1110.68 54.5832 1100.89 53.0919 1091.1 51.4514C1087.06 50.8549 1083.61 50.2583 1079.58 49.6618C1073.82 48.767 1066.9 47.8722 1059.99 47.1265C1053.08 46.3808 1045.59 45.9334 1038.1 45.9334C1027.16 45.9334 1015.64 46.8282 1004.12 48.6178C990.872 50.7057 979.352 53.6884 968.408 58.1624C958.616 62.1891 949.975 66.6631 942.487 70.8389C940.183 72.032 937.88 73.3742 935.576 74.5672C930.968 76.9534 926.36 78.8921 920.6 80.6818C911.96 83.217 901.016 84.5592 884.888 84.8575C883.16 84.8575 881.432 84.8575 879.704 84.8575C856.664 84.8575 835.352 82.4714 814.04 77.5499C803.672 75.1638 793.304 72.7776 782.936 70.2423C764.504 65.9174 746.072 61.5925 727.64 57.2676C709.208 52.9427 693.08 47.4248 680.984 40.8629L680.408 40.5646C671.768 36.0905 663.128 31.4674 648.728 28.0373C630.296 23.4141 612.44 21.1771 592.856 21.028H591.128C577.304 21.028 565.784 22.6684 554.84 25.9494C549.656 27.5899 544.472 29.3795 539.288 31.9148C523.736 38.4767 505.88 45.0386 484.568 51.7497C473.624 55.0306 467.288 58.759 464.408 62.6365C461.528 66.9614 463.256 71.4354 470.168 76.6551C480.536 84.5592 501.848 89.9281 535.256 93.2091C546.2 94.253 556.568 95.1478 566.936 95.8935C574.424 96.49 581.912 97.0865 589.4 97.6831C613.016 99.771 631.448 104.096 645.848 110.956C649.88 112.746 653.336 114.684 656.792 116.623C658.52 117.965 661.4 119.308 663.704 120.65C672.92 125.273 686.168 129.3 705.752 133.326C728.216 138.099 744.344 141.976 758.168 146.003C773.144 150.477 786.968 155.249 801.368 160.767C810.008 164.346 818.072 165.838 827.864 165.838C835.352 165.838 842.84 164.943 852.632 163.75C871.064 161.364 885.464 157.188 897.56 151.222C910.232 144.959 919.448 139.59 926.36 134.519C933.272 129.449 937.304 124.229 938.456 118.86C939.031 116.325 939.032 113.79 939.608 111.254C939.608 109.017 940.184 106.78 940.76 104.543C941.336 102.306 941.912 99.6218 944.792 97.0866C949.4 92.7617 960.92 90.0772 978.2 89.4807C986.84 89.1824 994.904 88.8842 1002.39 88.8842C1021.98 88.8842 1038.68 90.0772 1053.08 92.4634C1069.78 95.1478 1084.18 99.1744 1095.7 104.245C1110.68 110.956 1119.9 118.562 1122.2 126.615L1122.78 128.554C1123.93 132.879 1125.66 137.204 1131.42 141.379C1136.02 144.959 1142.94 148.836 1158.49 151.073C1163.67 151.819 1168.28 152.266 1172.89 152.565C1174.62 152.714 1176.92 152.714 1178.65 152.714C1187.86 152.714 1195.35 151.222 1199.38 148.687C1203.99 145.854 1205.72 142.871 1207.45 139.888L1208.6 139.142C1212.63 133.475 1217.24 126.913 1229.34 120.948C1238.55 116.325 1248.34 112.447 1259.86 109.166C1271.38 106.035 1283.48 102.903 1295.58 100.069C1299.03 99.3236 1302.49 98.4288 1305.37 97.6831C1319.19 94.253 1332.44 90.5246 1348.57 85.1558C1367 79.0413 1382.55 74.1198 1400.41 69.6458C1409.62 67.4088 1419.42 64.8735 1432.66 62.0399C1433.24 61.8908 1433.82 61.7417 1434.39 61.7417C1435.54 61.4434 1436.12 61.2943 1436.7 61.2943V89.1824C1432.09 91.4194 1424.6 93.0599 1417.11 94.4021C1401.56 97.3848 1384.28 99.771 1368.15 101.859C1364.12 102.455 1359.51 102.903 1355.48 103.499C1338.2 105.736 1320.34 107.973 1303.64 110.807C1273.11 116.176 1254.1 122.887 1245.46 131.089C1242.58 134.072 1240.86 136.756 1240.86 139.441V140.932C1240.86 143.617 1240.86 146.45 1243.16 149.134C1247.19 154.802 1259.29 158.828 1278.87 161.065C1289.82 162.407 1301.91 163.153 1312.86 164.048C1316.31 164.346 1319.77 164.495 1322.65 164.794C1339.93 166.136 1362.97 168.075 1384.86 171.057C1410.78 174.786 1425.75 180.602 1430.36 189.103C1433.24 194.77 1429.78 199.989 1419.42 204.762C1413.66 207.595 1403.86 209.683 1389.46 211.324C1379.1 212.517 1368.15 213.262 1357.78 214.008C1354.9 214.157 1352.6 214.306 1349.72 214.605H1349.14C1341.08 215.201 1332.44 215.798 1324.38 216.692C1315.74 217.736 1308.25 219.377 1301.34 221.912C1300.18 222.36 1299.03 222.807 1297.3 223.105H1252.95C1251.22 222.658 1251.22 222.061 1250.65 221.316V220.868C1249.5 218.035 1247.19 215.798 1244.31 213.859C1241.43 211.622 1235.67 210.28 1227.03 209.683C1217.24 208.937 1207.45 208.639 1197.66 208.49C1182.68 208.043 1167.13 207.744 1153.3 207.446C1148.12 207.297 1142.94 207.297 1138.33 207.297C1110.1 207.297 1088.79 209.236 1070.36 213.262C1060.57 215.35 1053.08 218.184 1045.59 221.912C1044.44 222.509 1043.29 222.956 1041.56 223.254H994.328C993.752 223.105 993.752 222.807 994.904 222.21C1000.66 218.333 1006.42 215.499 1014.49 213.262C1038.68 206.104 1065.18 201.63 1095.7 199.542C1102.62 199.095 1110.1 198.796 1119.9 198.796C1121.62 198.796 1123.35 198.796 1125.08 198.796C1128.54 198.796 1131.42 198.796 1134.87 198.796C1138.33 198.796 1141.21 198.796 1144.66 198.796C1151 198.796 1159.06 198.796 1167.13 198.498C1177.5 198.051 1189.02 197.454 1197.08 194.77C1199.96 193.875 1202.84 192.682 1203.99 191.34C1208.02 186.567 1213.21 174.487 1174.04 167.478L1167.7 166.285C1158.49 164.644 1148.7 163.004 1140.06 161.065C1117.02 156.144 1102.62 149.433 1097.43 141.379C1095.13 137.651 1094.55 133.774 1093.98 130.344C1094.55 125.422 1093.4 120.053 1087.06 114.983C1079.58 109.017 1068.06 104.543 1052.5 101.561C1041.56 99.3236 1030.04 98.2796 1017.94 98.2796C1013.91 98.2796 1010.46 98.4288 1006.42 98.5779C991.448 99.4727 980.504 102.008 974.168 106.184C968.984 109.465 967.831 112.895 967.255 115.579C964.951 125.571 960.344 134.668 954.008 143.467C951.128 147.345 949.976 151.372 948.247 155.249L947.672 156.889C944.792 164.495 936.152 170.461 920.6 175.382C915.416 177.023 909.656 178.514 903.896 179.856C900.44 180.751 896.984 181.646 893.528 182.69C881.432 186.12 872.792 190.146 868.184 194.919C866.456 196.559 865.304 198.051 863.576 199.691C861.272 201.928 859.544 204.314 856.664 206.7C852.632 210.727 846.872 214.605 841.688 218.333C839.96 219.526 838.232 220.719 836.504 221.912C835.928 222.36 834.776 222.658 833.624 222.807H733.976M733.976 223.702C767.96 223.702 801.368 223.702 835.352 223.702C837.656 223.403 838.808 222.956 839.96 222.36C846.872 217.289 854.936 212.368 860.12 206.999C864.152 203.121 867.608 199.095 871.064 195.217C875.672 190.594 883.16 186.567 895.832 183.286C905.048 180.751 914.264 178.514 922.904 175.979C940.184 170.61 948.248 164.197 950.552 157.188C952.28 152.714 953.432 148.24 956.312 143.766C963.224 134.519 967.256 125.124 969.56 115.877C970.136 112.746 971.863 109.614 976.471 106.631C982.232 102.903 992.023 100.218 1007 99.3236C1010.46 99.1744 1014.49 99.0253 1017.94 99.0253C1030.04 99.0253 1040.98 100.218 1051.35 102.157C1068.06 105.438 1077.85 110.061 1084.76 115.281C1091.1 120.053 1092.25 125.124 1092.82 130.194C1093.4 133.923 1093.98 137.651 1096.28 141.379C1101.46 149.582 1115.86 156.293 1140.06 161.513C1151 163.899 1162.52 165.838 1174.04 167.925C1205.14 173.593 1209.75 183.137 1202.84 191.19C1201.69 192.383 1199.38 193.427 1196.5 194.322C1189.02 196.858 1178.65 197.454 1167.7 197.901C1160.22 198.2 1152.73 198.2 1145.24 198.2C1138.9 198.2 1131.99 198.2 1125.66 198.2C1123.93 198.2 1122.2 198.2 1120.47 198.2C1112.41 198.2 1103.77 198.498 1095.7 198.945C1062.87 201.182 1035.8 206.104 1013.34 212.815C1004.12 215.499 998.36 218.631 993.752 222.061C992.6 222.807 992.024 223.403 994.328 224C1010.46 224 1026.58 224 1042.71 224C1045.59 223.702 1046.74 222.956 1047.9 222.36C1054.23 219.079 1061.72 216.245 1072.09 213.859C1092.25 209.534 1114.71 208.043 1138.9 208.043C1143.51 208.043 1148.7 208.043 1153.3 208.192C1168.28 208.49 1183.26 208.788 1197.66 209.236C1207.45 209.534 1217.24 209.832 1226.46 210.429C1233.94 211.025 1239.13 212.218 1242.01 214.157C1244.89 216.394 1246.62 218.78 1247.77 221.017C1248.34 222.061 1248.34 223.105 1251.22 223.851C1266.78 223.851 1282.33 223.851 1297.3 223.851C1299.61 223.403 1301.34 222.807 1302.49 222.36C1308.25 220.272 1315.16 218.482 1324.38 217.438C1332.44 216.543 1341.08 215.947 1349.72 215.35C1362.97 214.455 1376.79 213.561 1389.46 212.069C1402.14 210.578 1413.66 208.639 1420.57 205.209C1430.94 200.138 1434.39 194.77 1431.51 189.103C1426.9 180.9 1411.93 174.636 1384.86 170.759C1366.42 167.627 1345.11 165.688 1323.8 164.048C1308.82 162.855 1293.85 161.96 1280.02 160.32C1261.02 158.083 1249.5 154.354 1245.46 148.687C1243.16 145.555 1243.16 142.423 1243.16 139.292C1243.16 136.458 1244.89 133.774 1247.77 131.089C1256.98 122.29 1277.72 116.027 1305.37 111.254C1325.53 107.675 1347.42 105.14 1369.3 102.306C1386.58 100.069 1403.29 97.6831 1418.26 94.7004C1426.33 93.2091 1433.82 91.5686 1439 89.1824C1439 79.6378 1439 70.2423 1439 60.6977C1438.42 60.5486 1437.27 60.5486 1436.7 60.5486C1434.39 60.5486 1432.66 61.1451 1430.94 61.5925C1419.99 64.1278 1409.05 66.6631 1398.68 69.3475C1379.67 74.1198 1362.97 79.4887 1346.84 85.0067C1333.59 89.4807 1319.77 93.6565 1304.22 97.3848C1288.66 101.113 1272.54 104.842 1258.14 108.868C1245.46 112.447 1235.67 116.325 1227.03 120.65C1215.51 126.466 1210.33 132.73 1206.3 138.993C1203.99 142.125 1202.26 145.406 1197.66 148.389C1194.2 150.775 1187.29 151.968 1179.22 151.968C1177.5 151.968 1175.77 151.968 1174.04 151.819C1168.86 151.521 1164.82 151.073 1160.22 150.328C1146.39 148.389 1139.48 144.81 1134.3 140.932C1127.96 136.309 1126.81 131.238 1125.08 126.317C1122.78 118.115 1113.56 110.658 1098.01 103.798C1087.06 98.8762 1072.66 94.7004 1054.23 91.8668C1037.53 89.1824 1020.25 88.2876 1002.39 88.2876C994.328 88.2876 986.263 88.4368 977.624 88.8842C960.919 89.4807 947.672 92.016 942.487 96.9374C939.607 99.4727 938.456 102.008 937.88 104.543C936.727 109.316 936.728 114.088 935.576 118.86C934.424 124.229 930.391 129.449 923.479 134.37C915.416 140.186 905.624 145.555 894.68 150.924C884.312 156.144 870.488 160.618 850.904 163.302C841.688 164.644 834.2 165.39 827.288 165.39C818.648 165.39 811.16 164.048 802.52 160.618C789.272 155.398 774.872 150.477 759.32 145.704C743.192 140.932 725.336 136.905 706.904 132.879C690.2 129.449 675.8 125.571 665.432 120.501C659.096 117.22 653.912 113.939 647 110.658C633.752 104.245 615.32 99.4727 589.4 97.0866C571.544 95.5952 553.688 94.4021 535.832 92.6125C506.456 89.6298 482.84 84.8575 471.896 76.3569C466.136 71.8828 462.68 67.4088 466.136 62.6365C469.592 58.6098 476.504 55.1798 486.296 52.0479C506.456 45.6352 524.888 39.0732 541.592 31.9148C546.2 29.8269 550.808 27.8881 557.144 26.0985C566.36 23.265 577.304 21.4754 591.704 21.4754C592.28 21.4754 592.856 21.4754 593.432 21.4754C614.744 21.6245 632.6 24.4581 647.576 28.3356C661.976 31.9148 670.616 36.5379 679.256 41.012C691.352 47.2756 706.904 52.9427 726.488 57.5659C755.288 64.277 784.088 70.988 812.888 77.6991C832.472 82.1731 854.36 85.1558 880.28 85.1558C882.008 85.1558 883.736 85.1558 886.04 85.1558C900.44 85.0067 913.112 83.9627 923.479 80.8309C929.815 78.8921 934.424 76.8043 939.031 74.5672C949.4 69.0493 958.615 63.3822 971.863 58.1624C981.079 54.4341 992.023 51.1531 1007 48.9161C1017.37 47.2756 1028.31 46.2317 1039.83 46.2317C1046.74 46.2317 1053.66 46.53 1060.57 47.4248C1067.48 48.1704 1073.82 49.0652 1080.15 49.96C1093.4 52.0479 1106.65 54.4341 1121.05 56.2237C1136.02 58.1624 1151.58 59.2064 1167.13 59.2064C1174.04 59.2064 1180.38 59.0573 1187.29 58.6099C1217.82 56.9694 1239.13 51.004 1244.31 42.5033C1246.62 38.9241 1246.04 35.3449 1244.31 31.7656C1241.43 24.4581 1223.58 19.3875 1198.81 18.0453C1178.65 16.8522 1158.49 17.1505 1138.33 16.7031C1129.11 16.5539 1120.47 16.7031 1111.26 16.4048C1088.79 15.51 1069.21 12.9747 1055.38 7.75499C1050.2 5.81624 1046.17 3.72836 1042.71 1.49134C1041.56 0.894807 1039.83 0.447403 1037.53 0C1016.79 0 996.056 0 975.32 0C974.168 0.298269 973.016 0.745672 973.016 1.19308C973.016 2.38615 971.863 3.72836 971.863 4.92144C971.863 9.99201 973.016 15.0626 976.471 20.1332C978.775 23.4141 975.896 26.3968 970.136 29.3795C962.648 32.9587 956.312 36.5379 950.552 40.4154C941.336 46.2317 933.272 52.3462 922.328 58.0133C915.992 61.4434 908.504 64.5752 898.136 67.4088C888.344 70.0932 876.824 71.5846 863.576 71.5846C863 71.5846 861.848 71.5846 861.272 71.5846C849.176 71.4354 838.232 70.2423 827.288 68.6019C807.704 65.3209 789.848 61.5925 771.416 57.8642C757.016 55.0306 743.768 51.7497 732.248 48.0213C719 43.6964 710.36 38.775 702.296 33.7044C690.2 25.3529 671.768 18.1944 649.88 11.7816C640.088 8.79893 630.872 5.66711 627.416 1.64048C626.84 0.894807 625.112 0.447403 623.384 0C599.768 0 576.152 0 552.536 0C550.808 0.447403 549.08 0.894807 547.928 1.49134C542.168 5.36884 532.376 8.35153 520.28 10.8868C505.88 13.7204 491.48 16.5539 478.808 19.8349C461.528 24.3089 445.976 29.3795 432.152 34.7483C420.632 39.2224 406.808 43.249 389.528 46.53C380.888 48.3196 372.824 50.2583 365.912 52.1971C347.48 57.2676 331.352 62.7856 314.072 68.0053C303.704 71.4354 293.912 74.8655 287 78.743C272.024 86.6471 267.992 95.2969 266.264 104.096C265.112 110.061 268.568 115.877 273.752 121.694C278.36 126.019 281.816 130.344 281.24 134.967C280.664 141.827 273.752 148.389 259.928 154.205C246.104 160.021 226.52 162.407 202.904 162.407C201.752 162.407 200.6 162.407 198.872 162.407C181.592 162.258 164.888 160.916 149.336 158.679C134.936 156.74 122.264 154.205 109.016 151.67C79.064 145.555 45.08 141.976 8.792 140.186C7.064 140.186 5.336 139.888 3.608 139.888C1.88 139.888 0.151999 140.037 -1 140.336C-1 145.704 -1 151.073 -1 156.442C0.151999 156.74 1.304 157.039 3.608 157.039C3.608 157.039 3.608 157.039 4.184 157.039C9.368 157.039 13.976 157.337 19.16 157.337C31.256 157.486 42.776 157.933 54.296 158.828C73.304 160.17 90.584 162.706 108.44 164.794C137.24 168.224 166.616 170.312 197.72 170.312C205.784 170.312 213.848 170.162 222.488 169.864C248.984 168.969 268.568 165.241 282.392 159.126C295.64 153.161 303.128 146.599 308.312 139.888C311.768 135.563 312.92 131.089 310.616 126.615C308.312 122.887 304.856 119.158 301.4 115.43C296.216 109.465 294.488 103.648 297.368 97.534C303.128 85.7523 325.016 76.9534 361.88 71.2863C371.096 69.9441 379.736 69.1984 387.8 69.1984C399.32 69.1984 409.688 70.6897 419.48 74.269C429.272 77.5499 436.76 81.1292 444.824 84.7084C461.528 91.5686 483.416 96.49 510.488 99.9201C528.344 102.157 546.776 103.798 564.632 105.736C593.432 109.017 612.44 114.684 617.624 123.334C619.928 127.51 621.08 131.537 620.504 135.712C620.504 137.353 621.08 138.844 622.808 140.485C625.688 143.617 633.176 145.555 645.272 146.003C650.456 146.152 655.064 146.301 659.672 146.301C661.4 146.301 663.128 146.301 664.856 146.301C665.432 146.301 666.008 146.301 666.584 146.301C706.904 146.301 736.856 156.293 730.52 167.329C726.488 173.891 717.272 179.856 708.056 185.971C700.568 190.594 692.504 195.217 686.744 200.138C680.984 205.06 680.984 209.832 692.504 214.306C698.264 216.543 705.752 218.333 713.24 219.973C720.152 221.017 725.336 222.956 733.976 223.702Z" fill="white" fill-opacity="0.03"/>
</svg>
