<svg width="56" height="56" viewBox="0 0 56 56" fill="none" xmlns="http://www.w3.org/2000/svg">
<g clip-path="url(#clip0_360_55673)">
<mask id="mask0_360_55673" style="mask-type:luminance" maskUnits="userSpaceOnUse" x="0" y="0" width="56" height="56">
<path d="M0 3.8147e-06H56V56H0V3.8147e-06Z" fill="white"/>
</mask>
<g mask="url(#mask0_360_55673)">
<path d="M54.3594 56H39.0469C38.1408 56 37.4062 55.2654 37.4062 54.3594V53.2656C37.4062 48.1393 41.5768 43.9688 46.7031 43.9688C51.8294 43.9688 56 48.1393 56 53.2656V54.3594C56 55.2654 55.2654 56 54.3594 56Z" fill="#FFF064"/>
<path d="M54.3594 56C55.2654 56 56 55.2654 56 54.3594V53.2656C56 48.1393 51.8294 43.9688 46.7031 43.9688V56H54.3594Z" fill="#FFDC1E"/>
<path d="M46.7031 47.25C43.0846 47.25 40.1406 44.3061 40.1406 40.6875C40.1406 37.0689 43.0846 34.125 46.7031 34.125C50.3217 34.125 53.2656 37.0689 53.2656 40.6875C53.2656 44.3061 50.3217 47.25 46.7031 47.25Z" fill="#FFD0AF"/>
<path d="M46.7031 34.125V47.25C50.3216 47.25 53.2656 44.3061 53.2656 40.6875C53.2656 37.069 50.3216 34.125 46.7031 34.125Z" fill="#FABE8C"/>
<path d="M16.9531 21.875H1.64062C0.734562 21.875 0 21.1404 0 20.2344V19.1406C0 14.0143 4.17058 9.84375 9.29687 9.84375C14.4232 9.84375 18.5937 14.0143 18.5937 19.1406V20.2344C18.5937 21.1404 17.8592 21.875 16.9531 21.875Z" fill="#EBBC8A"/>
<path d="M16.9531 21.875C17.8592 21.875 18.5937 21.1404 18.5937 20.2344V19.1406C18.5937 14.0143 14.4232 9.84375 9.29688 9.84375V21.875H16.9531Z" fill="#EBBC8A"/>
<path d="M9.29688 13.125C5.67831 13.125 2.73438 10.1811 2.73438 6.5625C2.73438 2.94394 5.67831 0 9.29688 0C12.9154 0 15.8594 2.94394 15.8594 6.5625C15.8594 10.1811 12.9154 13.125 9.29688 13.125Z" fill="#FFD0AF"/>
<path d="M9.29688 0V13.125C12.9153 13.125 15.8594 10.181 15.8594 6.5625C15.8594 2.94394 12.9153 0 9.29688 0Z" fill="#FABE8C"/>
<path d="M54.3594 21.875H39.0469C38.1408 21.875 37.4062 21.1404 37.4062 20.2344V19.1406C37.4062 14.0143 41.5768 9.84375 46.7031 9.84375C51.8294 9.84375 56 14.0143 56 19.1406V20.2344C56 21.1404 55.2654 21.875 54.3594 21.875Z" fill="white"/>
<path d="M54.3594 21.875C55.2654 21.875 56 21.1404 56 20.2344V19.1406C56 14.0143 51.8294 9.84375 46.7031 9.84375V21.875H54.3594Z" fill="white"/>
<path d="M46.7031 13.125C43.0846 13.125 40.1406 10.1811 40.1406 6.5625C40.1406 2.94394 43.0846 0 46.7031 0C50.3217 0 53.2656 2.94394 53.2656 6.5625C53.2656 10.1811 50.3217 13.125 46.7031 13.125Z" fill="#FFD0AF"/>
<path d="M46.7031 0V13.125C50.3216 13.125 53.2656 10.181 53.2656 6.5625C53.2656 2.94394 50.3216 0 46.7031 0Z" fill="#FABE8C"/>
<path d="M24.0635 37.3483C24.0586 37.3546 24.0703 37.3436 24.0645 37.3493L6.53505 54.8788C5.04 56.3737 2.61625 56.3737 1.12131 54.8788L1.1212 54.8787C-0.373734 53.3837 -0.373734 50.96 1.1212 49.465L18.6507 31.9355L24.0635 37.3483Z" fill="#C8E1F5"/>
<path d="M6.53494 54.8788L24.0645 37.3493C24.0702 37.3436 24.0585 37.3546 24.0634 37.3483L21.3575 34.6423L1.12109 54.8788C2.61614 56.3737 5.04 56.3737 6.53494 54.8788Z" fill="#AACDE6"/>
<path d="M14.875 28C14.875 35.2487 20.7513 41.125 28 41.125C35.2487 41.125 41.125 35.2487 41.125 28C41.125 20.7513 35.2487 14.875 28 14.875C20.7513 14.875 14.875 20.7513 14.875 28Z" fill="#E1F5FF"/>
<path d="M18.7192 37.2808C21.0944 39.656 24.3756 41.125 28 41.125C35.2488 41.125 41.125 35.2487 41.125 28C41.125 24.3756 39.6559 21.0944 37.2808 18.7192L18.7192 37.2808Z" fill="#C8E1F5"/>
<path d="M27.9999 41.125C31.5557 41.125 34.7807 39.7103 37.1443 37.4139C36.8058 35.4978 35.8768 33.738 34.4569 32.3631C32.7167 30.678 30.4238 29.75 28.0005 29.75H27.9999C25.5766 29.75 23.2837 30.678 21.5435 32.3631C20.1235 33.7381 19.1945 35.498 18.856 37.4143C21.2196 39.7105 24.4444 41.125 27.9999 41.125Z" fill="#FF823C"/>
<path d="M18.856 37.4143C21.2196 39.7105 24.4443 41.125 27.9999 41.125C31.5557 41.125 34.7806 39.7103 37.1443 37.4139C36.8057 35.4978 35.8767 33.738 34.4569 32.3631C32.7166 30.678 30.4237 29.75 28.0004 29.75H27.9999C27.3338 29.75 26.6782 29.8225 26.0406 29.9592L18.9234 37.0764C18.8993 37.1886 18.876 37.3009 18.856 37.4143Z" fill="#F06923"/>
<path d="M16.5156 28C16.5156 34.3325 21.6675 39.4844 28 39.4844C34.3325 39.4844 39.4844 34.3325 39.4844 28C39.4844 21.6675 34.3325 16.5156 28 16.5156C21.6675 16.5156 16.5156 21.6675 16.5156 28ZM13.2344 28C13.2344 19.8582 19.8582 13.2344 28 13.2344C36.1418 13.2344 42.7656 19.8582 42.7656 28C42.7656 36.1418 36.1418 42.7656 28 42.7656C19.8582 42.7656 13.2344 36.1418 13.2344 28Z" fill="#556E87"/>
<path d="M36.1168 19.8832C38.1964 21.9627 39.4844 24.8338 39.4844 28C39.4844 34.3325 34.3325 39.4844 28 39.4844C24.8337 39.4844 21.9626 38.1965 19.883 36.1169L17.564 38.436C20.2376 41.1097 23.929 42.7656 28 42.7656C36.1417 42.7656 42.7656 36.1419 42.7656 28C42.7656 23.9292 41.1096 20.2378 38.436 17.564L36.1168 19.8832Z" fill="#435569"/>
<path d="M23.3595 21.8285C25.9182 19.2698 30.0815 19.2698 32.6403 21.8285C35.199 24.3872 35.199 28.5506 32.6403 31.1093C30.0815 33.668 25.9182 33.668 23.3595 31.1093C20.8008 28.5506 20.8008 24.3872 23.3595 21.8285Z" fill="#FFD0AF"/>
<path d="M24.1895 31.8105C26.7512 33.6398 30.3425 33.4071 32.6403 31.1091C34.9382 28.8113 35.171 25.22 33.3417 22.6582L24.1895 31.8105Z" fill="#FABE8C"/>
</g>
</g>
<defs>
<clipPath id="clip0_360_55673">
<rect width="56" height="56" fill="white"/>
</clipPath>
</defs>
</svg>
