<svg width="24" height="18" viewBox="0 0 24 18" fill="none" xmlns="http://www.w3.org/2000/svg">
<path d="M23.7885 1.28516L16.5098 8.99936L23.7885 16.7136C23.92 16.4202 23.9999 16.0959 23.9999 15.7496V2.24914C23.9999 1.90278 23.92 1.57852 23.7885 1.28516Z" fill="#403C73"/>
<path d="M21.89 0H2.10878C1.78408 0 1.48009 0.0851529 1.20508 0.225507L10.508 10.099C11.3306 10.9764 12.6682 10.9764 13.4908 10.099L22.7937 0.225507C22.5187 0.0851529 22.2147 0 21.89 0Z" fill="#403C73"/>
<path d="M0.211406 1.28516C0.0798282 1.57852 0 1.90278 0 2.24914V15.7496C0 16.0959 0.0798282 16.4202 0.211406 16.7136L7.49011 8.99936L0.211406 1.28516Z" fill="#403C73"/>
<path d="M15.515 10.0596L14.485 11.1583C13.1145 12.6203 10.8843 12.6203 9.51372 11.1583L8.48378 10.0596L1.20508 17.7738C1.48009 17.9141 1.78408 17.9993 2.10878 17.9993H21.89C22.2147 17.9993 22.5187 17.9141 22.7937 17.7738L15.515 10.0596Z" fill="#403C73"/>
</svg>
