<svg width="56" height="45" viewBox="0 0 56 45" fill="none" xmlns="http://www.w3.org/2000/svg">
<path d="M40.8328 9.71301C40.6068 9.07474 40.5667 8.35226 40.5302 7.6475C40.5011 7.04026 40.4683 6.41529 40.5886 5.82135C40.7125 5.19195 41.0771 4.55811 41.3943 4.08385C41.4636 3.9819 41.5365 3.87996 41.613 3.78244C42.6776 2.3951 44.4312 1.67262 45.3245 1.4244C46.0463 1.22494 46.812 1.11856 47.5593 1.18948C47.975 1.22937 48.4125 1.30029 48.8171 1.4377C49.1489 1.55294 49.4807 1.7657 49.6776 2.14245C49.8927 2.5458 49.9437 3.05996 50.2025 3.42785C50.4833 3.8312 50.8661 4.07498 51.1541 4.46947C51.5406 4.99692 51.9234 5.83022 51.9781 6.57486C52.0291 7.24415 51.8103 7.87799 51.5588 8.43647C51.515 8.53399 51.0702 9.60663 50.9682 9.72187H40.8328V9.71301Z" fill="#FFAF19"/>
<path d="M48.3578 18.6136C48.3141 18.8529 48.2849 19.1011 48.2922 19.4912C48.3104 20.4486 48.5219 21.3306 48.7589 22.0221V26.5698H42.8818V22.124C43.0969 21.4548 43.2975 20.5638 43.3157 19.6419C43.3266 19.0435 43.2501 18.782 43.1735 18.3698V16.0073H48.3615L48.3578 18.6136Z" fill="#F0C0AA"/>
<path d="M50.9615 9.71175V12.5928C50.9615 16.3559 48.6938 19.4099 45.8975 19.4099C43.1012 19.4099 40.8335 16.3604 40.8335 12.5928V9.71175C40.8335 9.71175 42.0147 9.21532 42.6892 8.30225C42.6892 8.30225 45.3798 10.8863 49.6928 8.41306C49.6964 8.41749 50.3454 9.25078 50.9615 9.71175Z" fill="#F9C7B2"/>
<path d="M56.0002 24.1235V36.4101H35.5327V24.1235C35.5327 22.7583 36.2983 21.566 37.3884 21.2336L42.1754 19.7842L45.7628 23.175L49.3539 19.7842L54.1409 21.2336C55.2346 21.566 56.0002 22.7539 56.0002 24.1235Z" fill="#FFE375"/>
<path d="M39.0838 26.3943V36.4027H38.3765V26.3943C38.3765 26.1594 38.5332 25.9644 38.7301 25.9644C38.927 25.9688 39.0838 26.1594 39.0838 26.3943Z" fill="#CCB65E"/>
<path d="M53.155 26.3943V36.4027H52.4478V26.3943C52.4478 26.1594 52.6045 25.9644 52.8014 25.9644C52.9946 25.9688 53.155 26.1594 53.155 26.3943Z" fill="#CCB65E"/>
<path d="M5.30024 9.71301C5.0742 9.07474 5.03409 8.35226 4.99763 7.6475C4.96482 7.04026 4.9393 6.41529 5.05232 5.82135C5.17628 5.19195 5.54086 4.55811 5.85804 4.08385C5.92731 3.9819 6.00023 3.87996 6.07679 3.78244C7.14136 2.3951 8.89499 1.67262 9.78822 1.4244C10.5101 1.22494 11.2757 1.11856 12.0231 1.18948C12.4387 1.22937 12.8762 1.30029 13.2809 1.4377C13.6127 1.55294 13.9444 1.7657 14.1413 2.14245C14.3564 2.5458 14.4074 3.05996 14.6663 3.42785C14.947 3.8312 15.3298 4.07498 15.6178 4.46947C16.0007 4.99692 16.3835 5.83022 16.4418 6.57486C16.4928 7.24415 16.2741 7.87799 16.0225 8.43647C15.9788 8.53399 15.5303 9.60663 15.4319 9.72187H5.30024V9.71301Z" fill="#FFAF19"/>
<path d="M12.8251 18.6136C12.7814 18.8529 12.7522 19.1011 12.7595 19.4912C12.7777 20.4486 12.9892 21.3306 13.2262 22.0221V26.5698H7.34912V22.124C7.56422 21.4548 7.76839 20.5638 7.78297 19.6419C7.79391 19.0435 7.71735 18.782 7.64079 18.3698V16.0073H12.8288L12.8251 18.6136Z" fill="#F0C0AA"/>
<path d="M15.4288 9.71175V12.5928C15.4288 16.3559 13.1611 19.4099 10.3648 19.4099C7.56847 19.4099 5.30078 16.3604 5.30078 12.5928V9.71175C5.30078 9.71175 6.48202 9.21532 7.16014 8.30225C7.16014 8.30225 9.85074 10.8863 14.1637 8.41306C14.1637 8.41749 14.8127 9.25078 15.4288 9.71175Z" fill="#F9C7B2"/>
<path d="M20.4675 24.1235V36.4101H0V24.1235C0 22.7583 0.765618 21.566 1.85571 21.2336L6.64265 19.7842L10.2338 23.175L13.8249 19.7842L18.6118 21.2336C19.7019 21.566 20.4675 22.7539 20.4675 24.1235Z" fill="white"/>
<path d="M3.55104 26.3943V36.4027H2.84375V26.3943C2.84375 26.1594 3.00052 25.9644 3.19739 25.9644C3.39427 25.9644 3.55104 26.1594 3.55104 26.3943Z" fill="white"/>
<path d="M17.6192 26.3943V36.4027H16.9155V26.3943C16.9155 26.1594 17.0723 25.9644 17.2692 25.9644C17.4624 25.9688 17.6192 26.1594 17.6192 26.3943Z" fill="white"/>
<path d="M21.704 10.9179C21.416 10.1067 21.3649 9.18035 21.3175 8.28057C21.2774 7.5049 21.241 6.70707 21.3905 5.94913C21.5472 5.14686 22.0139 4.33573 22.4186 3.72849C22.5097 3.59552 22.6009 3.46698 22.6957 3.34287C24.0555 1.57434 26.2941 0.647967 27.4352 0.328834C28.3576 0.0717546 29.3347 -0.061217 30.2862 0.0274311C30.8185 0.0761876 31.3727 0.169269 31.8904 0.346565C32.3133 0.492834 32.7362 0.76321 32.9914 1.24634C33.2648 1.7605 33.3341 2.4165 33.6622 2.88633C34.0195 3.40049 34.5117 3.71076 34.8763 4.21605C35.3685 4.88978 35.857 5.95356 35.9263 6.90209C35.9919 7.75755 35.7112 8.56868 35.3903 9.28229C35.3356 9.40197 34.7633 10.776 34.6356 10.9223L21.704 10.9179Z" fill="#FFAF19"/>
<path d="M31.311 22.2848C31.2563 22.5907 31.2162 22.9054 31.2272 23.4062C31.249 24.6296 31.5188 25.751 31.8214 26.633V32.4395H24.3184V26.7616C24.5954 25.9105 24.8506 24.7714 24.8725 23.5924C24.8871 22.83 24.7887 22.4976 24.6902 21.9701V18.9517H31.3147L31.311 22.2848Z" fill="#F0C0AA"/>
<path d="M34.6343 10.9182V14.5971C34.6343 19.4018 31.7395 23.2979 28.1666 23.2979C24.5938 23.2979 21.7026 19.4018 21.7026 14.5971V10.9182C21.7026 10.9182 23.2084 10.2844 24.0724 9.11865C24.0724 9.11865 27.5068 12.4164 33.0156 9.26049C33.0156 9.26492 33.8432 10.3243 34.6343 10.9182Z" fill="#F9C7B2"/>
<path d="M41.0667 29.3125V44.9988H14.9336V29.3125C14.9336 27.5661 15.9107 26.0458 17.3034 25.6247L23.4174 23.772L28.0001 28.1024L32.5829 23.772L38.6969 25.6247C40.0896 26.0458 41.0667 27.5661 41.0667 29.3125Z" fill="#FF725C"/>
<path d="M19.4694 32.222V45.0006H18.5688V32.222C18.5688 31.9206 18.7694 31.6724 19.0209 31.6724C19.2725 31.6724 19.4694 31.9206 19.4694 32.222Z" fill="#CC5B48"/>
<path d="M4.90051 25.4671V36.3282H4V25.4671C4 25.211 4.20052 25 4.45208 25C4.70364 25 4.90051 25.211 4.90051 25.4671Z" fill="#D1D3D4"/>
<path d="M37.4349 32.222V45.0006H36.5308V32.222C36.5308 31.9206 36.7313 31.6724 36.9828 31.6724C37.2308 31.6724 37.4349 31.9206 37.4349 32.222Z" fill="#CC5B48"/>
</svg>
