<svg width="99" height="248" viewBox="0 0 99 248" fill="none" xmlns="http://www.w3.org/2000/svg">
<g clip-path="url(#clip0_360_53114)">
<g opacity="0.08">
<mask id="mask0_360_53114" style="mask-type:luminance" maskUnits="userSpaceOnUse" x="-98" y="0" width="197" height="248">
<path d="M99 0H-98V248H99V0Z" fill="white"/>
</mask>
<g mask="url(#mask0_360_53114)">
<path d="M-51.6524 171.271C-51.2125 171.905 -50.7674 172.542 -50.3154 173.18C-35.5942 193.951 -14.3478 216.502 15.6718 240.54L15.6752 240.544C29.6436 228.561 42.7009 215.819 54.3516 201.949C57.702 197.959 60.9376 193.876 64.0429 189.691C72.7796 177.924 80.5027 165.344 86.9583 151.745C95.4186 133.934 99.381 115.764 98.9742 98.4853C98.9846 98.4697 98.995 98.4541 99.002 98.442V98.4386C98.3048 70.296 86.0195 44.5379 62.7128 26.5894C50.9664 17.5451 36.2679 10.0869 21.837 7.14487C5.54758 3.82532 -9.65347 7.54488 -21.5546 15.855C-23.0376 16.8888 -24.4703 17.9988 -25.8456 19.1694C-39.3758 30.7038 -47.544 48.6626 -46.2887 68.5591C-46.2869 68.5695 -46.2869 68.5799 -46.2869 68.5903C-46.2887 68.5938 -46.2887 68.5972 -46.2869 68.6042V68.6059C-46.1426 70.8761 -45.8731 73.1705 -45.4767 75.484C-45.2229 76.968 -44.9377 78.4347 -44.623 79.8858C-40.1616 100.404 -29.6775 118.063 -16.7281 134.457C-14.3409 137.482 -11.9398 140.497 -9.52132 143.517C-5.32595 148.76 -1.07842 154.017 3.23344 159.345C3.24735 159.349 3.25951 159.351 3.27168 159.351C3.40034 159.515 3.53596 159.678 3.66811 159.844C4.93385 161.413 5.9892 163.089 6.82549 164.838C6.90547 165.006 6.98546 165.176 7.05848 165.346C7.37666 166.04 7.65657 166.743 7.90173 167.458C10.9218 176.149 9.02489 186.091 2.3728 193.116C1.69994 193.831 0.588943 193.912 -0.193451 193.317C-1.65218 192.212 -2.97703 191.247 -4.09846 190.082C-9.30921 184.66 -14.3409 179.116 -19.1552 173.42C-19.6733 172.805 -20.1914 172.191 -20.7044 171.573C-21.219 170.956 -21.7302 170.338 -22.2378 169.716C-22.7038 169.148 -23.168 168.582 -23.6288 168.009C-23.7227 167.893 -23.8183 167.773 -23.9139 167.656C-24.3051 167.171 -24.6963 166.684 -25.0788 166.196C-25.2109 166.031 -25.3431 165.865 -25.4717 165.701C-26.3619 164.573 -27.2452 163.444 -28.118 162.307C-28.1649 162.244 -28.2119 162.185 -28.2571 162.126C-28.7282 161.51 -29.1994 160.892 -29.6636 160.27C-30.0653 159.739 -30.4634 159.207 -30.8581 158.674C-31.4492 157.879 -32.0334 157.082 -32.6107 156.282C-33.0175 155.723 -33.4209 155.16 -33.8225 154.597C-34.2033 154.066 -34.5806 153.532 -34.9544 152.999C-35.1717 152.693 -35.3838 152.386 -35.5994 152.078C-36.0654 151.409 -36.5261 150.739 -36.9851 150.066C-37.3224 149.572 -37.658 149.077 -37.9901 148.582C-38.0057 148.561 -38.0179 148.54 -38.0283 148.523C-38.4056 147.96 -38.7811 147.399 -39.1515 146.836C-39.2471 146.694 -39.341 146.552 -39.4314 146.41C-39.84 145.792 -40.2451 145.17 -40.6467 144.545C-41.0709 143.885 -41.4934 143.224 -41.9107 142.562C-42.1333 142.214 -42.3558 141.861 -42.5731 141.508C-42.7853 141.17 -42.9974 140.829 -43.2043 140.49C-43.632 139.804 -44.0545 139.113 -44.47 138.417C-44.6717 138.084 -44.8734 137.752 -45.0716 137.416C-45.2785 137.07 -45.4802 136.727 -45.6853 136.382C-46.12 135.648 -46.5512 134.909 -46.9772 134.167C-47.1475 133.868 -47.3197 133.567 -47.4901 133.267C-47.69 132.919 -47.8865 132.571 -48.0829 132.219C-48.6237 131.26 -49.1609 130.292 -49.686 129.321C-49.9242 128.882 -50.1624 128.444 -50.3988 128.003C-50.7066 127.424 -51.0143 126.848 -51.3186 126.264C-51.5411 125.838 -51.7637 125.414 -51.9845 124.985C-52.2001 124.567 -52.4139 124.146 -52.6295 123.726C-52.666 123.653 -52.7043 123.578 -52.7408 123.504C-52.9512 123.092 -53.1598 122.676 -53.3667 122.261C-53.4815 122.03 -53.5945 121.798 -53.7092 121.566C-54.1491 120.68 -54.582 119.786 -55.0097 118.889C-55.2306 118.43 -55.4496 117.968 -55.6652 117.507C-55.886 117.04 -56.1034 116.574 -56.3172 116.105C-56.4859 115.739 -56.6545 115.371 -56.8197 115C-56.9483 114.716 -57.0753 114.432 -57.2022 114.148C-57.6577 113.132 -58.1063 112.113 -58.5462 111.086C-58.6887 110.756 -58.8278 110.427 -58.9687 110.096C-59.2225 109.497 -59.4729 108.896 -59.7215 108.295C-70.6089 81.9274 -73.3612 55.7017 -56.4789 30.3921C-55.9886 29.6544 -56.1573 28.6743 -56.8753 28.1618L-56.8805 28.167L-56.9014 28.1877C-56.9031 28.1912 -56.9084 28.1929 -56.9136 28.1999C-56.9205 28.2068 -56.9292 28.2172 -56.9414 28.2276C-56.9623 28.2501 -56.9901 28.2795 -57.0214 28.3124C-57.0388 28.328 -57.0544 28.3453 -57.0753 28.3661C-57.5621 28.8769 -58.9043 30.3298 -60.7091 32.6692C-60.916 32.9342 -61.1263 33.2129 -61.3437 33.5021C-61.4219 33.6026 -61.4967 33.7065 -61.5732 33.8121C-61.7209 34.0078 -61.8687 34.2121 -62.0183 34.4182C-62.0235 34.4216 -62.0252 34.4268 -62.0287 34.432C-62.1782 34.6381 -62.3312 34.8493 -62.4877 35.0693C-62.4894 35.0727 -62.4929 35.0762 -62.4981 35.0814C-62.6511 35.2978 -62.8093 35.5195 -62.9676 35.7498C-63.0528 35.8693 -63.138 35.9905 -63.2214 36.1134C-63.3814 36.3455 -63.5448 36.5862 -63.7082 36.8286C-63.7134 36.8303 -63.7152 36.8355 -63.7187 36.8407C-63.8838 37.0832 -64.0507 37.3325 -64.2142 37.5853C-64.388 37.8433 -64.5584 38.1031 -64.7288 38.3715C-64.9392 38.6988 -65.1513 39.0312 -65.3652 39.3724C-65.5808 39.7152 -65.7946 40.0633 -66.0119 40.42C-66.2275 40.7767 -66.4466 41.1404 -66.6639 41.5092C-66.8848 41.8798 -67.1021 42.259 -67.3212 42.6434C-67.4324 42.8374 -67.542 43.0331 -67.6532 43.2287C-67.874 43.6201 -68.0966 44.0201 -68.3157 44.4288C-68.4269 44.6331 -68.5382 44.8392 -68.6477 45.0452C-68.6495 45.0452 -68.6495 45.0487 -68.6495 45.0487C-68.8703 45.4643 -69.0894 45.8851 -69.3102 46.3128C-69.3119 46.3128 -69.3119 46.3128 -69.3119 46.3163C-69.4214 46.531 -69.5327 46.7474 -69.6405 46.9639C-69.9726 47.6184 -70.3012 48.2886 -70.6281 48.976C-70.8454 49.4332 -71.0627 49.899 -71.2801 50.3735C-71.3861 50.609 -71.4957 50.8462 -71.5982 51.0852C-71.7043 51.3259 -71.8138 51.5648 -71.9199 51.8107C-72.026 52.0532 -72.1303 52.2991 -72.2363 52.545C-72.3424 52.7891 -72.4467 53.0367 -72.5493 53.2878C-72.6553 53.5389 -72.7597 53.79 -72.8622 54.0428L-72.864 54.0446C-72.9648 54.2974 -73.0657 54.5519 -73.17 54.8099C-73.3751 55.3225 -73.5768 55.8437 -73.7768 56.3736C-73.7768 56.3736 -73.7785 56.3736 -73.7785 56.3771C-74.0758 57.1684 -74.3697 57.9736 -74.6531 58.7962C-74.8426 59.3451 -75.0321 59.901 -75.2146 60.462C-75.3937 61.0057 -75.5693 61.5581 -75.7397 62.1157C-76.1779 63.5391 -76.5917 65.0041 -76.9776 66.5106C-77.0472 66.7738 -77.115 67.0388 -77.1793 67.3054C-77.2541 67.6015 -77.3271 67.9011 -77.4001 68.2024C-77.5427 68.8033 -77.6818 69.4111 -77.8139 70.0258C-78.0156 70.9471 -78.2051 71.8804 -78.3842 72.8294C-78.5024 73.4614 -78.6172 74.1004 -78.7232 74.7463C-78.7771 75.0684 -78.8293 75.3905 -78.8815 75.716C-78.9232 75.9809 -78.9649 76.2494 -79.0032 76.5178C-79.0206 76.639 -79.0397 76.7602 -79.0571 76.8814C-79.0901 77.1186 -79.1249 77.3559 -79.1579 77.5931C-79.1631 77.6451 -79.1701 77.697 -79.1788 77.7507C-79.264 78.3671 -79.3422 78.9905 -79.417 79.6208C-79.4239 79.7092 -79.4344 79.7957 -79.4448 79.8841C-79.5143 80.4953 -79.5787 81.1118 -79.6395 81.7334C-79.6708 82.0763 -79.7021 82.4226 -79.7334 82.7672C-79.7977 83.5309 -79.8551 84.3015 -79.9021 85.0807C-81.3278 108.037 -75.2633 137.217 -51.6524 171.271ZM59.319 78.5299C59.319 88.4418 55.028 97.358 48.1916 103.528C47.8647 103.891 47.5257 104.243 47.171 104.582C44.8151 106.849 41.9011 108.567 38.7437 109.571C34.6544 111.31 30.1565 112.274 25.4308 112.274C9.22484 112.274 -4.32449 100.941 -7.65923 85.8011C-7.97567 84.3725 -8.19821 82.9092 -8.32513 81.4183C-8.32687 81.4131 -8.32687 81.4079 -8.32513 81.4027C-8.40858 80.4555 -8.44858 79.4962 -8.44858 78.5299C-8.44858 73.3402 -7.27325 68.4241 -5.16948 64.0326C0.183838 52.8411 11.5407 45.0504 24.7562 44.7941C24.9823 44.7889 25.2066 44.7872 25.4326 44.7872C26.0515 44.7872 26.6688 44.8045 27.279 44.8357C27.4181 44.8426 27.5607 44.8513 27.7015 44.8617C45.3576 46.0253 59.319 60.6508 59.319 78.5299ZM-51.6298 171.278C-50.9309 171.477 -50.2267 171.664 -49.5191 171.841C-49.7851 172.277 -50.0494 172.721 -50.3067 173.164C-50.7553 172.535 -51.1951 171.905 -51.6298 171.278Z" fill="#6E5EA7"/>
</g>
<mask id="mask1_360_53114" style="mask-type:luminance" maskUnits="userSpaceOnUse" x="-98" y="0" width="197" height="248">
<path d="M99 0H-98V248H99V0Z" fill="white"/>
</mask>
<g mask="url(#mask1_360_53114)">
<path d="M-58.0752 196.139C-45.2613 212.096 -30.441 226.592 -14.7497 240.414C-13.3205 241.669 -11.867 242.895 -10.3648 244.123C-3.96653 249.361 5.28485 249.273 11.6327 243.965C12.9871 242.831 14.3328 241.69 15.6733 240.54L15.6768 240.543C29.6451 228.56 42.7024 215.819 54.3532 201.949C57.7036 197.959 60.9392 193.876 64.0427 189.69C59.6891 171.416 47.2003 156.278 30.5979 148.283C30.085 148.036 29.5704 147.799 29.0523 147.567C21.2787 144.079 12.655 142.143 3.57575 142.143C-0.915195 142.143 -5.29313 142.618 -9.51458 143.518C-5.3192 148.761 -1.07167 154.019 3.24019 159.347C3.25236 159.349 3.26628 159.352 3.27845 159.352C3.40711 159.517 3.54272 159.679 3.67485 159.846C4.94059 161.414 5.99596 163.091 6.83226 164.84C6.91223 165.008 6.99221 165.177 7.06523 165.347C7.38341 166.041 7.66334 166.744 7.91022 167.46C10.9303 176.152 9.03339 186.092 2.38129 193.117C1.70844 193.832 0.597443 193.914 -0.184952 193.318C-1.64368 192.215 -2.96854 191.251 -4.08997 190.083C-9.30072 184.662 -14.3324 179.117 -19.1467 173.422C-19.6648 172.809 -20.183 172.192 -20.6959 171.576C-21.2105 170.959 -21.7217 170.339 -22.2294 169.719C-22.6953 169.151 -23.1595 168.585 -23.6203 168.012C-23.7142 167.896 -23.8098 167.777 -23.9054 167.659C-24.2966 167.174 -24.6843 166.687 -25.0703 166.199C-25.2025 166.034 -25.3346 165.868 -25.4633 165.704C-26.3534 164.576 -27.2367 163.447 -28.1095 162.31C-28.1564 162.247 -28.2034 162.189 -28.2486 162.13C-28.7198 161.513 -29.1892 160.893 -29.6551 160.273C-30.0568 159.742 -30.4549 159.21 -30.8496 158.677C-31.4407 157.882 -32.0249 157.085 -32.6022 156.285C-33.009 155.726 -33.4124 155.163 -33.814 154.6C-40.0732 159.3 -48.9768 164.89 -53.0783 171.581C-53.3443 172.017 -51.3657 173.179 -51.6231 173.623C-51.6265 173.628 -50.3051 173.179 -50.3104 173.184C-54.3214 180.102 -57.0198 187.865 -58.0752 196.139Z" fill="#F3957E"/>
</g>
<mask id="mask2_360_53114" style="mask-type:luminance" maskUnits="userSpaceOnUse" x="-98" y="0" width="197" height="248">
<path d="M99 0H-98V248H99V0Z" fill="white"/>
</mask>
<g mask="url(#mask2_360_53114)">
<path d="M-46.2902 65.4611C-46.2885 65.4715 -46.2884 65.4819 -46.2884 65.4923C-46.2902 65.4958 -46.2902 65.4992 -46.2884 65.5044V65.5062C-46.2415 68.7945 -45.9355 72.1453 -45.3565 75.5341C-45.1357 76.8241 -44.8906 78.1004 -44.6246 79.3662C-40.2345 100.129 -29.6773 117.961 -16.6079 134.507C-14.9249 136.637 -13.2366 138.763 -11.5432 140.888H-11.5397C-10.9625 141.612 -10.3852 142.337 -9.80279 143.059C-5.47875 148.476 -1.09908 153.894 3.35361 159.396C3.36578 159.399 3.37969 159.401 3.39186 159.401C3.52052 159.565 3.65614 159.728 3.78828 159.894C5.05402 161.463 6.10938 163.139 6.94567 164.888C6.98218 164.868 7.02044 164.847 7.05695 164.826C7.34208 164.674 7.62201 164.52 7.90193 164.358C15.9432 159.863 23.0978 153.984 29.0457 147.047C29.5708 146.436 30.0872 145.814 30.5914 145.186C39.728 133.845 45.7281 119.893 47.2894 104.636C44.9335 106.903 42.0195 108.62 38.8622 109.625C34.7728 111.363 30.2749 112.328 25.5493 112.328C9.13811 112.328 -4.54161 100.71 -7.6625 85.2849C-8.10064 83.1186 -8.33015 80.8762 -8.33015 78.5835C-8.33015 78.4952 -8.33014 78.4086 -8.32667 78.3237C-8.33014 78.3185 -8.33014 78.3134 -8.32667 78.3082C-8.28842 73.2189 -7.11657 68.4015 -5.05105 64.0862C0.392681 52.7041 12.0486 44.8408 25.551 44.8408C26.3125 44.8408 27.0706 44.8668 27.82 44.9152C27.6409 44.7161 27.4601 44.5187 27.2758 44.3196C26.4569 43.4278 25.6153 42.5533 24.753 41.6996C11.6557 28.7071 -6.05946 20.3312 -25.7254 19.2212C-38.5393 30.1409 -46.5406 46.827 -46.2902 65.4611Z" fill="#9D90C4"/>
</g>
<mask id="mask3_360_53114" style="mask-type:luminance" maskUnits="userSpaceOnUse" x="-98" y="0" width="197" height="248">
<path d="M99 0H-98V248H99V0Z" fill="white"/>
</mask>
<g mask="url(#mask3_360_53114)">
<path d="M-91.7668 136.614C-90.1012 141.426 -88.2495 146.105 -86.2275 150.663C-78.8573 167.273 -69.2269 182.258 -58.0752 196.139C-45.2613 212.096 -30.441 226.592 -14.7497 240.413C-13.3205 241.669 -11.867 242.895 -10.3648 244.123C-3.96478 249.361 5.28486 249.274 11.6327 243.965C12.9871 242.831 14.3328 241.69 15.6733 240.54C15.6785 240.538 15.6803 240.533 15.6855 240.53C-14.3359 216.493 -35.5874 193.935 -50.3069 173.164C-50.7555 172.535 -51.1953 171.905 -51.63 171.278C-76.0459 136.068 -81.7087 106.068 -79.7388 82.7652C-79.7075 82.4188 -79.6762 82.0743 -79.6449 81.7314C-79.5858 81.1097 -79.5215 80.4933 -79.4502 79.882C-79.4398 79.7937 -79.4293 79.7071 -79.4224 79.6188C-79.3476 78.9885 -79.2694 78.3651 -79.1842 77.7486C-79.1772 77.6949 -79.1685 77.643 -79.1633 77.591C-79.1303 77.3538 -79.0955 77.1166 -79.0625 76.8793C-79.0451 76.7581 -79.026 76.6369 -79.0086 76.5157C-78.9703 76.2473 -78.9286 75.9789 -78.8869 75.7139C-78.8347 75.3884 -78.7826 75.0663 -78.7287 74.7442C-78.6226 74.1001 -78.5079 73.4594 -78.3896 72.8273C-78.2105 71.8784 -78.0228 70.945 -77.8193 70.0238C-77.6872 69.4108 -77.5481 68.8013 -77.4055 68.2004C-77.3325 67.8991 -77.2612 67.5995 -77.1847 67.3034C-77.1204 67.0384 -77.0526 66.7718 -76.9831 66.5086C-76.5971 65.002 -76.1833 63.5371 -75.7451 62.1137C-75.5747 61.5561 -75.3974 61.0037 -75.2201 60.4599C-75.0358 59.8972 -74.848 59.343 -74.6585 58.7941C-74.3716 57.9716 -74.0778 57.1664 -73.7839 56.375C-73.7839 56.3716 -73.7822 56.3716 -73.7822 56.3716C-73.5822 55.8434 -73.3806 55.3222 -73.1754 54.8079C-73.0711 54.5499 -72.9702 54.2953 -72.8694 54.0425L-72.8659 54.039C-72.7616 53.7862 -72.659 53.5334 -72.553 53.284C-72.4486 53.033 -72.3461 52.7853 -72.24 52.5412C-72.1339 52.2936 -72.0296 52.0494 -71.9236 51.807C-71.8175 51.5628 -71.708 51.3221 -71.6019 51.0831C-71.4976 50.8424 -71.3898 50.6052 -71.2837 50.3714C-71.0664 49.897 -70.8491 49.4294 -70.6317 48.974C-70.3049 48.2883 -69.9763 47.6181 -69.6442 46.9618C-69.5347 46.7454 -69.4234 46.5289 -69.3156 46.3142C-69.3156 46.3107 -69.3156 46.3107 -69.3138 46.3107C-69.093 45.883 -68.874 45.4622 -68.6532 45.0466C-68.6532 45.0466 -68.6532 45.0449 -68.6514 45.0449C-68.5419 44.8388 -68.4306 44.6328 -68.3193 44.4284C-68.0985 44.0215 -67.876 43.6215 -67.6569 43.2284C-67.5456 43.0327 -67.4361 42.8371 -67.3248 42.6431C-67.104 42.2587 -66.8867 41.8795 -66.6676 41.5089C-66.4503 41.1401 -66.2295 40.7764 -66.0156 40.4197C-65.7983 40.0647 -65.5827 39.7149 -65.3688 39.3721C-65.1532 39.0309 -64.9411 38.6985 -64.7325 38.3712C-64.5621 38.1028 -64.39 37.843 -64.2178 37.585C-64.0544 37.3322 -63.8892 37.0828 -63.7223 36.8404C-63.7206 36.8352 -63.7171 36.83 -63.7119 36.8283C-63.5485 36.5859 -63.385 36.3452 -63.2251 36.1131C-63.1416 35.9902 -63.0564 35.869 -62.9712 35.7495C-62.813 35.5209 -62.6548 35.2975 -62.5018 35.0811C-62.4966 35.0759 -62.4948 35.0707 -62.4914 35.0672C-62.3366 34.8473 -62.1836 34.636 -62.0324 34.43C-62.0306 34.4248 -62.0271 34.4196 -62.0219 34.4179C-61.8724 34.2118 -61.7246 34.0075 -61.5768 33.8118C-61.4986 33.7061 -61.4238 33.6023 -61.3456 33.5018C-61.1283 33.2126 -60.9179 32.9338 -60.711 32.6689C-58.9063 30.3295 -57.564 28.8766 -57.0772 28.3675C-57.0563 28.3467 -57.0407 28.3294 -57.0233 28.3138C-56.992 28.2809 -56.9642 28.2515 -56.9433 28.229C-56.9311 28.2186 -56.9225 28.2082 -56.9155 28.2013C-56.9103 28.1926 -56.9051 28.1909 -56.9033 28.1874L-56.8825 28.1666L-56.8773 28.1614C-56.8703 28.1511 -56.8668 28.1493 -56.8668 28.1493L-56.8894 28.1268C-57.5136 27.6783 -58.3725 27.732 -58.9463 28.248C-65.4819 34.1616 -72.7755 39.4915 -78.1201 46.3263C-99.5125 73.6949 -102.934 104.371 -91.7668 136.614Z" fill="#F3A76E"/>
</g>
</g>
</g>
<defs>
<clipPath id="clip0_360_53114">
<rect width="197" height="248" fill="white" transform="translate(-98)"/>
</clipPath>
</defs>
</svg>
