<svg width="141" height="148" viewBox="0 0 141 148" fill="none" xmlns="http://www.w3.org/2000/svg">
<path d="M117.095 49.7462C117.066 49.2896 117.037 48.8413 116.999 48.3931C116.982 48.192 116.961 47.9867 116.944 47.7898C116.911 47.4254 116.873 47.0651 116.831 46.709C116.827 46.6588 116.819 46.6085 116.815 46.554C116.773 46.1854 116.727 45.8209 116.676 45.4607C116.672 45.4272 116.668 45.3978 116.664 45.3685C116.643 45.2303 116.626 45.092 116.605 44.9538C116.592 44.8826 116.584 44.8114 116.572 44.7401C116.551 44.581 116.525 44.426 116.5 44.271C116.471 44.0824 116.442 43.8939 116.408 43.7054C116.345 43.3284 116.278 42.9556 116.211 42.5827C116.107 42.0298 115.998 41.481 115.88 40.9448C115.805 40.5845 115.721 40.2284 115.637 39.8765C115.595 39.7006 115.554 39.5246 115.507 39.3529C115.47 39.1979 115.432 39.0429 115.39 38.8879C115.164 38.0082 114.925 37.1494 114.67 36.3199C114.569 35.9932 114.469 35.6706 114.364 35.3522C114.255 35.0213 114.146 34.6987 114.037 34.3762C113.87 33.8944 113.702 33.4252 113.526 32.9602C113.409 32.6502 113.291 32.3444 113.174 32.047C113.115 31.8962 113.057 31.7454 112.994 31.5988C112.935 31.4521 112.873 31.3013 112.81 31.1589C112.751 31.0123 112.688 30.8657 112.625 30.7232C112.563 30.5766 112.504 30.4342 112.441 30.2917C112.378 30.1493 112.315 30.0069 112.253 29.8686C112.194 29.7304 112.131 29.588 112.068 29.4539C111.943 29.1774 111.817 28.9051 111.687 28.637C111.498 28.2349 111.306 27.8453 111.113 27.4599C111.05 27.3342 110.983 27.2085 110.92 27.0829C110.79 26.8315 110.665 26.5885 110.535 26.3456C110.472 26.2241 110.405 26.1026 110.342 25.9853C110.212 25.7465 110.083 25.5119 109.957 25.2857C109.894 25.1726 109.827 25.0553 109.764 24.9422C109.634 24.716 109.509 24.494 109.383 24.2803C109.257 24.0625 109.127 23.853 109.002 23.6436C108.876 23.4341 108.75 23.233 108.625 23.0319C108.499 22.8351 108.378 22.6382 108.252 22.4455C108.151 22.2905 108.055 22.1355 107.95 21.9847C107.854 21.838 107.758 21.6914 107.661 21.549C107.661 21.5448 107.657 21.5448 107.657 21.5406C107.561 21.3982 107.468 21.2599 107.372 21.1217C107.326 21.0505 107.276 20.9793 107.226 20.9081C107.133 20.774 107.041 20.6441 106.953 20.5185C106.949 20.5143 106.949 20.5101 106.945 20.5101C106.853 20.3802 106.765 20.2587 106.677 20.1372C106.677 20.1331 106.673 20.1289 106.673 20.1289C106.585 20.0074 106.501 19.8901 106.413 19.7728C106.367 19.71 106.325 19.6513 106.279 19.5927C106.153 19.4251 106.032 19.2617 105.91 19.1067C104.859 17.7411 104.079 16.8907 103.795 16.589C103.782 16.5765 103.774 16.5681 103.761 16.5555C103.744 16.5346 103.728 16.5178 103.715 16.5053C103.707 16.4969 103.702 16.4927 103.698 16.4885C103.694 16.4843 103.69 16.4843 103.69 16.4801L103.677 16.4675L103.673 16.4634C103.254 16.765 103.158 17.3347 103.443 17.7662C113.275 32.5665 111.67 47.8988 105.332 63.3148C105.185 63.6667 105.043 64.0186 104.892 64.3663C104.813 64.559 104.729 64.7517 104.645 64.9444C104.389 65.5435 104.13 66.1383 103.862 66.7332C103.786 66.9008 103.715 67.0641 103.64 67.2317C103.543 67.4453 103.447 67.6632 103.346 67.8768C103.221 68.1533 103.095 68.4256 102.965 68.6979C102.839 68.966 102.714 69.2383 102.584 69.5064C102.337 70.03 102.081 70.5537 101.826 71.0732C101.759 71.2072 101.692 71.3454 101.625 71.4795C101.503 71.7225 101.382 71.9654 101.26 72.2042C101.239 72.2461 101.218 72.2922 101.197 72.3341C101.072 72.5812 100.946 72.8242 100.82 73.0714C100.69 73.3227 100.565 73.5699 100.435 73.8212C100.259 74.1606 100.079 74.4999 99.8987 74.8392C99.7605 75.0989 99.6222 75.3545 99.484 75.61C99.1782 76.1797 98.864 76.7453 98.5498 77.3066C98.4367 77.5119 98.3194 77.7171 98.2021 77.9182C98.1016 78.0942 98.0052 78.2701 97.9047 78.4461C97.6575 78.8817 97.4062 79.3132 97.1506 79.7405C97.0333 79.9416 96.9118 80.1427 96.7945 80.3437C96.6814 80.5406 96.5641 80.7333 96.4468 80.9302C96.2039 81.3366 95.9567 81.7429 95.7095 82.1451C95.5881 82.342 95.4666 82.543 95.3409 82.7399C95.2152 82.9452 95.0854 83.1547 94.9555 83.3557C94.7125 83.7411 94.4654 84.1307 94.2182 84.5161C93.9836 84.8806 93.749 85.245 93.5102 85.6053C93.4558 85.6891 93.4013 85.7729 93.3469 85.8525C93.129 86.1792 92.9112 86.5102 92.6934 86.8369C92.685 86.8495 92.6808 86.8579 92.6724 86.8704C92.4797 87.1595 92.2828 87.4485 92.0859 87.7376C91.8178 88.1314 91.5497 88.5252 91.2774 88.9147C91.1518 89.0949 91.0303 89.275 90.9004 89.4551C90.6826 89.7651 90.4647 90.0793 90.2427 90.3893C90.0081 90.7161 89.7735 91.047 89.5389 91.3738C89.2038 91.843 88.8603 92.308 88.5168 92.773C88.2864 93.083 88.056 93.3971 87.8214 93.7071C87.5491 94.0716 87.2768 94.4319 87.0003 94.7921C86.971 94.8256 86.9458 94.8633 86.9207 94.8969C86.4138 95.5629 85.8986 96.2206 85.3791 96.8825C85.3037 96.9789 85.2283 97.0752 85.1487 97.1716C84.9267 97.4564 84.6963 97.7413 84.4701 98.0262C84.4156 98.0974 84.3569 98.1644 84.3025 98.2314C84.0344 98.5666 83.7621 98.8975 83.494 99.2284C83.1966 99.5929 82.9033 99.9532 82.6017 100.313C82.3043 100.674 82.0026 101.034 81.701 101.394C78.8985 104.725 75.9661 107.967 72.9331 111.138C72.2796 111.821 71.5088 112.382 70.6584 113.032C70.2018 113.379 69.5567 113.333 69.1629 112.914C65.2879 108.805 64.1862 102.994 65.9414 97.913C66.0839 97.4941 66.2472 97.0836 66.4316 96.6772C66.4735 96.5767 66.5195 96.4804 66.5656 96.3798C67.0516 95.3577 67.6674 94.3774 68.4047 93.46C68.4801 93.3636 68.5597 93.2673 68.6351 93.1709C68.6434 93.1709 68.6518 93.1709 68.656 93.1667C71.1653 90.05 73.6411 86.9794 76.0834 83.9129C77.4909 82.1451 78.8901 80.3856 80.2809 78.6136C87.8214 69.0288 93.9292 58.7026 96.5264 46.7048C96.7108 45.8545 96.8783 44.9999 97.0249 44.1327C97.2553 42.7796 97.4145 41.4391 97.4983 40.1111C97.4983 40.1069 97.4983 40.1069 97.4983 40.1027C97.4983 40.0986 97.4983 40.0902 97.4983 40.086C98.2314 28.4527 93.4725 17.9505 85.5928 11.206C84.7926 10.519 83.959 9.87382 83.0918 9.26639C76.1588 4.40698 67.3071 2.23281 57.8229 4.17239C49.4194 5.89413 40.861 10.255 34.0201 15.5417C20.4682 26.0398 13.3131 41.1039 12.9068 57.5589C12.911 57.5673 12.9193 57.5757 12.9235 57.5841C12.6847 67.6883 14.993 78.312 19.9194 88.7262C23.6771 96.6772 28.1762 104.033 33.266 110.912C35.0758 113.358 36.9567 115.746 38.9088 118.08C45.6953 126.19 53.2986 133.642 61.4339 140.647C78.9152 126.592 91.29 113.405 99.861 101.26C100.125 100.887 100.385 100.515 100.64 100.146C114.389 80.2348 117.92 63.1682 117.095 49.7462ZM54.4296 26.2325C54.5092 26.2283 54.593 26.2199 54.6768 26.2157C55.0329 26.1989 55.3931 26.1864 55.7534 26.1864C55.8833 26.1864 56.0173 26.1864 56.1472 26.1906C63.8427 26.3414 70.4573 30.895 73.5741 37.4384C74.7973 40.0064 75.4843 42.8802 75.4843 45.9173C75.4843 46.4828 75.4592 47.0442 75.4131 47.5971C75.4131 47.6013 75.4131 47.6013 75.4131 47.6055C75.3377 48.4769 75.2078 49.3315 75.0277 50.1693C73.0839 59.021 65.1958 65.6482 55.7576 65.6482C53.0053 65.6482 50.3871 65.0827 48.0035 64.0689C46.1644 63.4824 44.4678 62.477 43.098 61.1532C42.8927 60.9563 42.6958 60.7511 42.5031 60.5374C38.5234 56.9306 36.0225 51.7151 36.0225 45.9215C36.0141 35.4654 44.1453 26.9111 54.4296 26.2325ZM99.8568 101.252C99.706 100.992 99.5552 100.732 99.4002 100.477C99.8107 100.376 100.221 100.263 100.628 100.15C100.372 100.515 100.117 100.883 99.8568 101.252Z" fill="#6E5EA9"/>
<path d="M104.381 114.686C96.9203 124.016 88.2864 132.494 79.1499 140.575C78.3163 141.308 77.4701 142.025 76.5987 142.745C72.8704 145.808 67.4831 145.757 63.7883 142.653C63.0007 141.991 62.2132 141.325 61.434 140.651C53.2986 133.642 45.6953 126.194 38.9089 118.084C36.9568 115.75 35.0758 113.363 33.2661 110.916C35.8006 100.23 43.0729 91.3821 52.7415 86.707C53.0389 86.5604 53.3405 86.4222 53.6422 86.2881C58.1706 84.248 63.1934 83.1169 68.4801 83.1169C71.0942 83.1169 73.6454 83.3934 76.1044 83.9213C73.6621 86.9877 71.1863 90.0626 68.677 93.1751C68.6686 93.1751 68.6603 93.1793 68.6561 93.1793C68.5807 93.2756 68.5011 93.372 68.4257 93.4683C67.6884 94.3858 67.0768 95.366 66.5866 96.3882C66.5405 96.4845 66.4945 96.5851 66.4526 96.6856C66.2683 97.092 66.1049 97.5025 65.9624 97.9214C64.203 103.003 65.3089 108.817 69.1839 112.923C69.5777 113.342 70.2228 113.388 70.6794 113.04C71.5298 112.395 72.3006 111.829 72.9541 111.151C75.9871 107.98 78.9195 104.737 81.722 101.407C82.0237 101.047 82.3253 100.686 82.6227 100.326C82.9243 99.9657 83.2176 99.6054 83.515 99.241C83.7873 98.91 84.0554 98.5791 84.3235 98.244C84.378 98.1769 84.4324 98.1057 84.4911 98.0387C84.7173 97.7538 84.9435 97.469 85.1697 97.1841C85.2451 97.0878 85.3247 96.9914 85.4001 96.8951C85.9196 96.2374 86.4348 95.5755 86.9417 94.9094C86.9669 94.8717 86.9962 94.8382 87.0213 94.8047C87.2978 94.4444 87.5701 94.0841 87.8424 93.7197C88.077 93.4097 88.3074 93.0997 88.5378 92.7855C88.8813 92.3205 89.2248 91.8555 89.5599 91.3863C89.7987 91.0596 90.0333 90.7286 90.2637 90.4019C93.9083 93.15 99.0945 96.4175 101.482 100.33C101.637 100.586 100.485 101.264 100.636 101.524C100.636 101.528 99.8694 101.264 99.8694 101.269C102.194 105.307 103.765 109.848 104.381 114.686Z" fill="#F4977E"/>
<path d="M97.515 38.2762C97.515 38.2804 97.515 38.2888 97.515 38.293C97.515 38.293 97.515 38.2972 97.515 38.3014C97.4898 40.2242 97.3097 42.1847 96.9704 44.1662C96.8405 44.9202 96.6981 45.6659 96.5431 46.4074C93.9877 58.5476 87.838 68.9744 80.2263 78.6513C79.2461 79.8955 78.2616 81.1397 77.2772 82.3838C76.942 82.8069 76.6027 83.23 76.2634 83.6531C73.7457 86.8201 71.1945 89.9871 68.6014 93.2044C68.593 93.2044 68.5847 93.2086 68.5805 93.2086C68.5051 93.3049 68.4255 93.4013 68.3501 93.4977C67.6128 94.4151 66.997 95.3953 66.511 96.4175C66.4901 96.4049 66.4691 96.3924 66.4482 96.3798C66.2806 96.2918 66.1214 96.1997 65.9581 96.1075C61.2746 93.4767 57.1064 90.0416 53.6462 85.9865C53.3403 85.6304 53.0387 85.266 52.7455 84.8973C47.4253 78.2659 43.9315 70.1096 43.0225 61.1867C44.3965 62.5105 46.0931 63.5159 47.928 64.1024C50.3074 65.1203 52.9298 65.6817 55.6821 65.6817C65.2375 65.6817 73.2053 58.8911 75.0234 49.8676C75.2789 48.6025 75.413 47.2913 75.413 45.9508C75.413 45.9005 75.413 45.8502 75.413 45.8C75.413 45.7958 75.413 45.7958 75.413 45.7916C75.392 42.8173 74.7092 39.998 73.5069 37.4761C70.3357 30.8196 63.5493 26.2241 55.6863 26.2241C55.2422 26.2241 54.8024 26.2408 54.3667 26.266C54.4714 26.1487 54.5761 26.0355 54.6851 25.9183C55.1626 25.3946 55.6528 24.8835 56.1555 24.385C63.7839 16.7901 74.1018 11.8888 85.5507 11.2437C93.0032 17.6237 97.6616 27.3803 97.515 38.2762Z" fill="#9F92C6"/>
<path d="M123.999 79.8789C123.027 82.694 121.95 85.4295 120.773 88.0938C116.479 97.8042 110.874 106.568 104.377 114.687C96.9161 124.016 88.2822 132.495 79.1457 140.575C78.312 141.309 77.4658 142.025 76.5945 142.745C72.8662 145.808 67.4789 145.757 63.7841 142.653C62.9965 141.991 62.2089 141.321 61.4298 140.651C61.4256 140.651 61.4256 140.647 61.4214 140.647C78.9027 126.592 91.2775 113.4 99.8485 101.256C100.108 100.887 100.368 100.519 100.619 100.154C114.837 79.5689 118.134 62.0247 116.986 48.4016C116.97 48.2005 116.949 47.9952 116.932 47.7983C116.898 47.4339 116.861 47.0736 116.819 46.7175C116.815 46.6673 116.806 46.617 116.802 46.5625C116.756 46.1939 116.714 45.8294 116.664 45.4692C116.66 45.4357 116.655 45.4063 116.651 45.377C116.63 45.2388 116.613 45.1005 116.593 44.9623C116.58 44.8911 116.572 44.8198 116.559 44.7486C116.538 44.5936 116.513 44.4344 116.488 44.2794C116.458 44.0909 116.429 43.9024 116.396 43.7139C116.333 43.3369 116.266 42.9641 116.199 42.5954C116.094 42.0424 115.985 41.4937 115.868 40.9574C115.792 40.5972 115.709 40.2411 115.625 39.8892C115.583 39.7133 115.541 39.5373 115.495 39.3656C115.457 39.2106 115.42 39.0556 115.378 38.9006C115.151 38.0209 114.913 37.1621 114.657 36.3326C114.557 36.0059 114.456 35.6833 114.351 35.3649C114.242 35.0382 114.133 34.7114 114.025 34.3889C113.857 33.9071 113.685 33.4379 113.513 32.9729C113.396 32.6629 113.279 32.3613 113.162 32.0597C113.103 31.9089 113.044 31.7581 112.981 31.6115C112.923 31.4648 112.86 31.314 112.797 31.1716C112.739 31.025 112.676 30.8784 112.613 30.7359C112.55 30.5893 112.491 30.4469 112.429 30.3044C112.366 30.162 112.303 30.0196 112.24 29.8813C112.181 29.7431 112.119 29.6007 112.056 29.4666C111.93 29.1901 111.804 28.9178 111.674 28.6497C111.486 28.2476 111.293 27.858 111.101 27.4726C111.038 27.3469 110.971 27.2212 110.908 27.0955C110.778 26.8442 110.652 26.6012 110.522 26.3583C110.46 26.2368 110.393 26.1153 110.33 25.998C110.2 25.7592 110.07 25.5246 109.944 25.2984C109.882 25.1853 109.814 25.068 109.752 24.9549C109.622 24.7287 109.496 24.5067 109.37 24.293C109.245 24.0752 109.115 23.8657 108.989 23.6563C108.864 23.4468 108.738 23.2457 108.612 23.0446C108.487 22.8477 108.365 22.6509 108.239 22.4582C108.139 22.3032 108.038 22.1482 107.938 21.9973C107.841 21.8507 107.745 21.7041 107.649 21.5617C107.649 21.5575 107.644 21.5533 107.644 21.5533C107.548 21.4109 107.456 21.2726 107.36 21.1344C107.314 21.0632 107.263 20.992 107.213 20.9207C107.121 20.7867 107.029 20.6568 106.941 20.5311C106.937 20.527 106.937 20.527 106.932 20.5228C106.84 20.3929 106.752 20.2714 106.664 20.1499C106.664 20.1457 106.66 20.1457 106.66 20.1416C106.572 20.0201 106.488 19.9028 106.4 19.7855C106.354 19.7226 106.312 19.664 106.266 19.6053C106.141 19.4378 106.019 19.2744 105.898 19.1194C104.846 17.7495 104.067 16.9033 103.782 16.6059C103.77 16.5933 103.761 16.585 103.749 16.5724C103.732 16.5515 103.715 16.5347 103.703 16.5221C103.694 16.5179 103.69 16.5096 103.686 16.5054C103.682 16.5012 103.677 16.497 103.677 16.497L103.665 16.4844L103.661 16.4802C103.656 16.4719 103.652 16.4719 103.652 16.4719L103.665 16.4593C104.029 16.1954 104.528 16.2289 104.863 16.5305C108.671 19.9907 112.914 23.1033 116.027 27.0997C128.511 43.0897 130.505 61.0277 123.999 79.8789Z" fill="#F5A86E"/>
<path d="M123.999 79.8787C123.027 82.6938 121.95 85.4294 120.773 88.0937C115.311 93.7239 108.398 97.9424 100.64 100.142C100.636 100.142 100.632 100.146 100.628 100.146C100.221 100.263 99.8107 100.372 99.4002 100.473C95.8268 101.377 92.0817 101.859 88.2235 101.859C86.0158 101.859 83.8417 101.7 81.7178 101.394C82.0194 101.034 82.321 100.674 82.6184 100.313C82.9201 99.9532 83.2133 99.5929 83.5107 99.2284C83.783 98.8975 84.0511 98.5665 84.3192 98.2314C84.3737 98.1644 84.4281 98.0932 84.4868 98.0261C84.713 97.7413 84.9392 97.4564 85.1654 97.1716C85.2408 97.0752 85.3204 96.9789 85.3958 96.8825C85.9153 96.2248 86.4306 95.5629 86.9375 94.8969C86.9626 94.8591 86.9919 94.8256 87.017 94.7921C87.2935 94.4319 87.5658 94.0716 87.8381 93.7071C88.0727 93.3971 88.3031 93.0871 88.5335 92.7729C88.877 92.308 89.2205 91.843 89.5557 91.3738C89.7945 91.047 90.0291 90.7161 90.2595 90.3893C90.4815 90.0793 90.6993 89.7651 90.9171 89.4551C91.0428 89.275 91.1685 89.0949 91.2942 88.9189C91.5665 88.5293 91.8346 88.1356 92.1027 87.7418C92.2996 87.4527 92.4965 87.1637 92.6892 86.8746C92.6975 86.8621 92.7059 86.8495 92.7101 86.8411C92.9321 86.5144 93.15 86.1834 93.3636 85.8567C93.4181 85.7729 93.4725 85.6891 93.527 85.6095C93.7658 85.2492 94.0004 84.8848 94.235 84.5203C94.4821 84.1349 94.7293 83.7495 94.9723 83.3599C95.1021 83.1547 95.232 82.9494 95.3577 82.7441C95.4791 82.5472 95.6048 82.3462 95.7263 82.1493C95.9735 81.7471 96.2206 81.3449 96.4636 80.9386C96.5809 80.7459 96.6982 80.549 96.8113 80.3521C96.9328 80.151 97.0501 79.95 97.1674 79.7489C97.4187 79.3174 97.6701 78.8859 97.9214 78.4544C98.0219 78.2785 98.1225 78.1025 98.2188 77.9266C98.3361 77.7213 98.4492 77.5202 98.5665 77.315C98.8807 76.7536 99.1949 76.1881 99.5007 75.6184C99.639 75.3628 99.7772 75.1073 99.9154 74.8476C100.096 74.5082 100.276 74.1731 100.452 73.8296C100.582 73.5824 100.711 73.3311 100.841 73.0797C100.967 72.8368 101.093 72.5896 101.218 72.3425C101.239 72.3006 101.26 72.2545 101.281 72.2126C101.403 71.9696 101.524 71.7266 101.646 71.4837C101.713 71.3496 101.78 71.2156 101.842 71.0773C102.098 70.5579 102.349 70.0384 102.601 69.5106C102.731 69.2425 102.856 68.9744 102.982 68.7021C103.112 68.4298 103.237 68.1575 103.363 67.881C103.459 67.6674 103.56 67.4495 103.656 67.2359C103.732 67.0683 103.807 66.9049 103.878 66.7374C104.142 66.1425 104.406 65.5476 104.662 64.9486C104.746 64.7559 104.825 64.5632 104.909 64.3705C105.056 64.0186 105.202 63.6709 105.349 63.319C111.687 47.9029 113.291 32.5665 103.459 17.7704C103.175 17.3389 103.271 16.765 103.69 16.4675C103.686 16.4592 103.681 16.4592 103.681 16.4592L103.694 16.4466C104.059 16.1827 104.557 16.2162 104.892 16.5178C108.7 19.978 112.944 23.0906 116.056 27.087C128.511 43.0896 130.505 61.0275 123.999 79.8787Z" fill="#F5C354"/>
<path d="M104.787 8.00966C104.787 12.4334 101.201 16.0193 96.7777 16.0193C92.354 16.0193 88.7681 12.4334 88.7681 8.00966C88.7681 3.58591 92.354 0 96.7777 0C101.201 0 104.787 3.58591 104.787 8.00966Z" fill="#F5C354"/>
</svg>
