<svg width="201" height="206" viewBox="0 0 201 206" fill="none" xmlns="http://www.w3.org/2000/svg">
<g clip-path="url(#clip0_991_4)">
<path fill-rule="evenodd" clip-rule="evenodd" d="M185.15 54.2627C186.048 51.6046 197.149 50.8699 194.627 54.9715C193.265 57.0423 188.007 55.1185 185.15 54.2627Z" fill="white" fill-opacity="0.2"/>
<path fill-rule="evenodd" clip-rule="evenodd" d="M172.041 56.5382C167.01 59.9901 161.074 60.0568 155.163 59.8179C155.904 56.593 165.51 54.0393 168.562 53.7327C169.623 53.5547 172.231 54.2661 172.041 56.5382Z" fill="white" fill-opacity="0.2"/>
<path fill-rule="evenodd" clip-rule="evenodd" d="M140.544 64.4025C137.53 71.5614 128.584 69.0932 125.67 76.6258C121.93 75.0996 124.063 71.4084 126.293 69.2001C129.384 66.0582 138.028 61.042 140.544 64.4025Z" fill="white" fill-opacity="0.2"/>
<path fill-rule="evenodd" clip-rule="evenodd" d="M132.106 85.9089C136.622 86.9325 147.627 89.9509 151.672 93.7193C154.194 95.9725 153.353 100.73 148.996 99.1674C146.753 98.3511 143.553 95.071 139.68 92.6723C136.233 90.3604 131.261 88.7582 132.106 85.9089Z" fill="white" fill-opacity="0.2"/>
<path fill-rule="evenodd" clip-rule="evenodd" d="M161.566 115.488C155.185 115.777 157.682 107.044 159.86 103.539C163.701 106.55 165.295 112.083 161.566 115.488Z" fill="white" fill-opacity="0.2"/>
<path fill-rule="evenodd" clip-rule="evenodd" d="M122.037 84.8576C120.728 87.1227 118.569 85.8754 116.842 86.9434C114.222 92.5796 110.473 98.5186 109.173 103.807C104.84 99.7116 109.548 93.2159 111.863 87.5593C108.531 86.429 104.21 89.495 100.023 88.1863C101.744 85.2081 105.733 84.6522 109.692 83.6026C113.638 82.5456 120.644 80.0798 122.037 84.8576Z" fill="white" fill-opacity="0.2"/>
<path fill-rule="evenodd" clip-rule="evenodd" d="M162.414 123.132C160.05 127.485 152.319 137.006 149.337 130.039C152.922 125.757 157.986 121.684 162.414 123.132Z" fill="white" fill-opacity="0.2"/>
<path fill-rule="evenodd" clip-rule="evenodd" d="M140.581 136.898C137.594 140.416 123.493 136.399 125.686 131.787C127.58 127.954 139.194 133.235 140.581 136.898Z" fill="white" fill-opacity="0.2"/>
<path fill-rule="evenodd" clip-rule="evenodd" d="M93.2442 93.0112C90.0149 96.3929 85.3051 97.6396 81.3508 99.8069C77.5059 102.033 74.0705 105.771 69.4908 105.982C72.3131 101.099 80.805 94.4034 86.5951 91.5505C88.4442 90.557 93.1232 88.8085 93.2442 93.0112Z" fill="white" fill-opacity="0.2"/>
<path fill-rule="evenodd" clip-rule="evenodd" d="M118.705 125.371C114.525 127.088 107.143 116.143 108.932 113.048C109.691 111.735 110.842 111.13 112.698 112.047C114.606 113.15 114.195 116.089 115.053 118.176C116.295 121.272 118.646 123.266 118.705 125.371Z" fill="white" fill-opacity="0.2"/>
<path fill-rule="evenodd" clip-rule="evenodd" d="M62.154 113.983C60.5608 118.946 56.0745 120.646 52.2457 123.677C49.4683 125.729 47.0633 128.788 43.8959 129.023C42.2686 125.221 57.4077 106.476 62.154 113.983Z" fill="white" fill-opacity="0.2"/>
<path fill-rule="evenodd" clip-rule="evenodd" d="M30.8229 140.062C27.6594 144.433 24.8142 149.619 20.8884 151.167C14.6829 146.47 28.3274 128.924 30.8229 140.062Z" fill="white" fill-opacity="0.2"/>
</g>
<g clip-path="url(#clip1_991_4)">
<path fill-rule="evenodd" clip-rule="evenodd" d="M0.303919 169.97C0.398481 168.794 0.983342 167.774 1.48072 166.833C3.90165 162.293 5.74056 157.12 7.93276 152.023C8.29835 151.137 8.79157 150.01 9.19976 149.018C9.47992 148.374 10.0497 146.179 10.5356 146.173C10.9333 146.141 11.4127 147.229 11.6601 147.466C11.9056 147.729 12.2839 147.831 12.5315 148.122C13.3839 149.045 14.0425 150.344 14.9819 151.052C15.7052 150.456 16.2019 149.596 16.7678 148.788C17.3121 148.034 17.8306 147.093 18.6663 146.709C19.1824 147.236 19.1288 148.17 19.2486 148.969C19.4693 150.593 19.6026 152.3 19.7606 154.246C19.8158 155.125 19.7855 156.193 20.0147 156.83C20.1526 157.255 20.713 157.755 21.0728 158.204C21.8594 159.155 22.5306 159.706 23.2982 160.818C23.5453 161.161 24.3525 161.898 24.1817 162.38C24.0973 162.701 23.7404 162.573 23.3663 162.658C22.5053 162.855 21.5367 163.295 20.6329 163.627C15.212 165.537 10.016 167.792 4.30366 169.466C3.3558 169.745 2.35892 169.811 1.45673 170.223C1.10593 170.387 0.638842 170.259 0.303919 169.97ZM23.0927 161.941C22.1656 160.405 20.7069 158.93 19.4057 157.612C14.1892 161.708 7.87619 164.856 2.76826 168.818C9.82698 166.859 16.2804 164.189 23.0927 161.941ZM16.162 153.304C13.9992 151.998 12.8357 149.451 10.9343 147.821C8.4534 154.683 5.0581 160.863 2.30523 167.223C7.1416 162.838 11.461 157.82 16.162 153.304ZM18.6496 157.302C18.6838 154.846 18.301 152.61 18.3775 149.887C17.7702 150.936 17.9037 152.668 17.1637 153.611C16.9444 153.881 16.6153 154.045 16.3541 154.342C12.6894 158.712 8.44522 162.554 4.66451 166.472C9.34072 163.451 14.0183 160.402 18.6496 157.302ZM16.6617 152.497C17.0027 151.479 17.3861 150.193 17.5495 149.177C16.9853 150.119 16.2651 150.822 15.7235 151.789C16.0357 151.999 16.2389 152.396 16.6617 152.497Z" fill="white" fill-opacity="0.2"/>
</g>
<defs>
<clipPath id="clip0_991_4">
<rect width="113" height="172" fill="white" transform="translate(103.064) rotate(30.0247)"/>
</clipPath>
<clipPath id="clip1_991_4">
<rect width="24" height="24" fill="white" transform="translate(24.3047 169.998) rotate(179.266)"/>
</clipPath>
</defs>
</svg>
