<svg width="32" height="32" viewBox="0 0 32 32" fill="none" xmlns="http://www.w3.org/2000/svg">
<g clip-path="url(#clip0_360_53074)">
<path d="M16 32C24.8366 32 32 24.8366 32 16C32 7.16344 24.8366 0 16 0C7.16344 0 0 7.16344 0 16C0 24.8366 7.16344 32 16 32Z" fill="white"/>
<path d="M12.4213 10.1832C12.4217 10.6155 12.2939 11.0383 12.0539 11.398C11.8139 11.7577 11.4727 12.0381 11.0733 12.2038C10.6739 12.3694 10.2343 12.4129 9.81024 12.3286C9.38614 12.2444 8.99657 12.0362 8.69083 11.7305C8.38509 11.4247 8.17692 11.0352 8.09267 10.6111C8.00842 10.187 8.05187 9.74742 8.21753 9.34803C8.38319 8.94864 8.6636 8.60737 9.02329 8.36741C9.38298 8.12745 9.80577 7.99958 10.2382 8C10.817 8.00056 11.372 8.23075 11.7813 8.64005C12.1906 9.04935 12.4208 9.60432 12.4213 10.1832Z" fill="#6E5EA8"/>
<path d="M11.3879 13.2783H9.0889C8.79009 13.2783 8.54785 13.5206 8.54785 13.8194V23.4594C8.54785 23.7582 8.79009 24.0004 9.0889 24.0004H11.3879C11.6867 24.0004 11.9289 23.7582 11.9289 23.4594V13.8194C11.9289 13.5206 11.6867 13.2783 11.3879 13.2783Z" fill="#6E5EA8"/>
<path d="M23.948 18.8359V23.5033C23.948 23.635 23.8957 23.7614 23.8025 23.8546C23.7093 23.9478 23.5829 24.0001 23.4512 24.0001H20.9838C20.852 24.0001 20.7257 23.9478 20.6325 23.8546C20.5393 23.7614 20.487 23.635 20.487 23.5033V18.9812C20.487 18.3054 20.6828 16.0338 18.7228 16.0338C17.2028 16.0338 16.8933 17.5959 16.828 18.297V23.5138C16.8253 23.643 16.7723 23.7661 16.6803 23.8569C16.5884 23.9477 16.4646 23.9991 16.3354 24.0001H13.948C13.8827 24.0004 13.818 23.9877 13.7576 23.9629C13.6972 23.938 13.6423 23.9014 13.5961 23.8552C13.5499 23.809 13.5133 23.7541 13.4884 23.6937C13.4636 23.6333 13.4509 23.5686 13.4512 23.5033V13.777C13.4509 13.7115 13.4635 13.6467 13.4884 13.5862C13.5132 13.5257 13.5498 13.4706 13.596 13.4243C13.6421 13.3779 13.697 13.3411 13.7574 13.316C13.8178 13.2909 13.8826 13.278 13.948 13.278H16.3354C16.4016 13.2769 16.4674 13.289 16.5289 13.3135C16.5904 13.3381 16.6464 13.3747 16.6937 13.4211C16.7409 13.4676 16.7784 13.523 16.804 13.5841C16.8296 13.6451 16.8428 13.7107 16.8428 13.777V14.6191C17.407 13.777 18.2449 13.1201 20.028 13.1201C23.9712 13.118 23.948 16.8085 23.948 18.8359Z" fill="#6E5EA8"/>
</g>
<defs>
<clipPath id="clip0_360_53074">
<rect width="32" height="32" fill="white"/>
</clipPath>
</defs>
</svg>
