<svg width="206" height="201" viewBox="0 0 206 201" fill="none" xmlns="http://www.w3.org/2000/svg">
<g clip-path="url(#clip0_991_4)">
<path fill-rule="evenodd" clip-rule="evenodd" d="M54.2636 15.7498C51.6056 14.8511 50.8709 3.7502 54.9725 6.27262C57.0433 7.63402 55.1195 12.8925 54.2636 15.7498Z" fill="white" fill-opacity="0.2"/>
<path fill-rule="evenodd" clip-rule="evenodd" d="M56.5392 28.8589C59.9911 33.8892 60.0578 39.8252 59.8189 45.7366C56.594 44.9958 54.0403 35.3892 53.7336 32.3371C53.5557 31.276 54.2671 28.6687 56.5392 28.8589Z" fill="white" fill-opacity="0.2"/>
<path fill-rule="evenodd" clip-rule="evenodd" d="M64.4025 60.3551C71.5614 63.3694 69.0932 72.3153 76.6258 75.2291C75.0996 78.9696 71.4084 76.8365 69.2001 74.6061C66.0582 71.5154 61.042 62.8709 64.4025 60.3551Z" fill="white" fill-opacity="0.2"/>
<path fill-rule="evenodd" clip-rule="evenodd" d="M85.9099 68.7938C86.9335 64.2773 89.9519 53.2726 93.7203 49.2279C95.9735 46.7054 100.731 47.5467 99.1684 51.9037C98.3521 54.1464 95.072 57.3461 92.6733 61.2199C90.3614 64.6668 88.7591 69.6384 85.9099 68.7938Z" fill="white" fill-opacity="0.2"/>
<path fill-rule="evenodd" clip-rule="evenodd" d="M115.489 39.3329C115.778 45.7142 107.045 43.217 103.54 41.0392C106.551 37.1983 112.084 35.6048 115.489 39.3329Z" fill="white" fill-opacity="0.2"/>
<path fill-rule="evenodd" clip-rule="evenodd" d="M84.8576 78.8628C87.1227 80.1719 85.8754 82.3301 86.9434 84.0576C92.5796 86.6775 98.5186 90.4264 103.807 91.7262C99.7116 96.0593 93.2159 91.3512 87.5593 89.0361C86.429 92.3681 89.495 96.6898 88.1863 100.877C85.2081 99.1558 84.6522 95.1659 83.6026 91.2074C82.5456 87.2616 80.0798 80.2556 84.8576 78.8628Z" fill="white" fill-opacity="0.2"/>
<path fill-rule="evenodd" clip-rule="evenodd" d="M123.133 38.4867C127.486 40.8505 137.007 48.5819 130.04 51.5633C125.758 47.978 121.685 42.9143 123.133 38.4867Z" fill="white" fill-opacity="0.2"/>
<path fill-rule="evenodd" clip-rule="evenodd" d="M136.899 60.3179C140.417 63.3048 136.4 77.4055 131.788 75.2129C127.955 73.3184 133.236 61.7047 136.899 60.3179Z" fill="white" fill-opacity="0.2"/>
<path fill-rule="evenodd" clip-rule="evenodd" d="M93.0112 107.654C96.3929 110.883 97.6396 115.593 99.8069 119.548C102.033 123.393 105.771 126.828 105.982 131.408C101.099 128.585 94.4034 120.093 91.5505 114.303C90.557 112.454 88.8085 107.775 93.0112 107.654Z" fill="white" fill-opacity="0.2"/>
<path fill-rule="evenodd" clip-rule="evenodd" d="M125.371 82.1953C127.088 86.375 116.143 93.7569 113.048 91.9683C111.735 91.2099 111.13 90.058 112.047 88.2025C113.15 86.2943 116.089 86.7056 118.176 85.8473C121.272 84.6053 123.266 82.254 125.371 82.1953Z" fill="white" fill-opacity="0.2"/>
<path fill-rule="evenodd" clip-rule="evenodd" d="M113.984 138.745C118.947 140.339 120.647 144.825 123.678 148.654C125.73 151.431 128.788 153.836 129.024 157.004C125.222 158.631 106.477 143.492 113.984 138.745Z" fill="white" fill-opacity="0.2"/>
<path fill-rule="evenodd" clip-rule="evenodd" d="M140.063 170.076C144.434 173.24 149.62 176.085 151.168 180.011C146.471 186.216 128.925 172.572 140.063 170.076Z" fill="white" fill-opacity="0.2"/>
</g>
<g clip-path="url(#clip1_991_4)">
<path fill-rule="evenodd" clip-rule="evenodd" d="M169.97 200.597C168.794 200.503 167.774 199.918 166.833 199.421C162.293 197 157.12 195.161 152.023 192.969C151.137 192.603 150.01 192.11 149.018 191.702C148.374 191.421 146.179 190.852 146.173 190.366C146.141 189.968 147.229 189.489 147.466 189.241C147.729 188.996 147.831 188.617 148.122 188.37C149.045 187.517 150.344 186.859 151.052 185.92C150.456 185.196 149.596 184.699 148.788 184.134C148.034 183.589 147.093 183.071 146.709 182.235C147.236 181.719 148.17 181.773 148.969 181.653C150.593 181.432 152.3 181.299 154.246 181.141C155.125 181.086 156.193 181.116 156.83 180.887C157.255 180.749 157.755 180.188 158.204 179.829C159.155 179.042 159.706 178.371 160.818 177.603C161.161 177.356 161.898 176.549 162.38 176.72C162.701 176.804 162.573 177.161 162.658 177.535C162.855 178.396 163.295 179.365 163.627 180.268C165.537 185.689 167.792 190.885 169.466 196.598C169.745 197.546 169.811 198.542 170.223 199.445C170.387 199.795 170.259 200.263 169.97 200.597ZM161.941 177.809C160.405 178.736 158.93 180.194 157.612 181.496C161.708 186.712 164.856 193.025 168.818 198.133C166.859 191.074 164.189 184.621 161.941 177.809ZM153.304 184.739C151.998 186.902 149.451 188.066 147.821 189.967C154.683 192.448 160.863 195.843 167.223 198.596C162.838 193.76 157.82 189.44 153.304 184.739ZM157.302 182.252C154.846 182.218 152.61 182.6 149.887 182.524C150.936 183.131 152.668 182.998 153.611 183.738C153.881 183.957 154.045 184.286 154.342 184.547C158.712 188.212 162.554 192.456 166.472 196.237C163.451 191.561 160.402 186.883 157.302 182.252ZM152.497 184.24C151.479 183.899 150.193 183.515 149.177 183.352C150.119 183.916 150.822 184.636 151.789 185.178C151.999 184.866 152.396 184.662 152.497 184.24Z" fill="white" fill-opacity="0.2"/>
</g>
<defs>
<clipPath id="clip0_991_4">
<rect width="113" height="172" fill="white" transform="translate(0 97.8359) rotate(-59.9753)"/>
</clipPath>
<clipPath id="clip1_991_4">
<rect width="24" height="24" fill="white" transform="translate(169.998 176.596) rotate(89.2659)"/>
</clipPath>
</defs>
</svg>
