<svg width="24" height="24" viewBox="0 0 24 24" fill="none" xmlns="http://www.w3.org/2000/svg">
<g id="Group">
<g id="Group_2">
<path id="Vector" d="M14.8666 5.04989C14.355 5.54123 14.0815 6.13388 14.0815 6.76198C14.0815 7.38502 14.35 7.98274 14.8616 8.49434L16.4572 10.095C16.3862 10.2267 16.3204 10.3584 16.2545 10.485C16.1634 10.6674 16.0773 10.8396 15.9861 10.9865C15.0338 12.4858 13.7928 13.8484 12.1871 15.1553C11.3867 15.7885 10.713 16.214 10.0292 16.5229C9.6493 16.1076 9.25421 15.7226 8.8743 15.3478C8.73247 15.2059 8.58558 15.0641 8.44375 14.9223C7.38002 13.8586 6.00224 13.8586 4.93852 14.9223L3.55567 16.3051C3.39865 16.4622 3.23655 16.6242 3.07446 16.7762C2.76041 17.0801 2.43623 17.3992 2.1323 17.7285C1.64603 18.2198 1.3877 18.8074 1.3877 19.4254C1.3877 20.0434 1.64603 20.6411 2.1323 21.1476C2.13737 21.1527 2.13737 21.1527 2.14243 21.1577L3.87985 22.88C4.52822 23.5283 5.31842 23.8981 6.23525 23.9792C7.71434 24.1007 9.09211 23.6651 9.99375 23.3308C12.2073 22.5102 14.2588 21.2844 16.4572 19.4558C19.1063 17.2372 21.1983 14.5677 22.6724 11.5184C23.2245 10.3533 23.8779 8.79826 23.9893 7.06084C23.9944 6.95447 23.9995 6.84303 23.9995 6.74172C23.9995 5.57163 23.5791 4.58894 22.7433 3.81901C22.7331 3.81394 22.7281 3.80381 22.7179 3.79875C22.3988 3.53535 22.1101 3.23143 21.8011 2.91231C21.5934 2.6945 21.3756 2.47162 21.1477 2.25381C20.6259 1.75234 20.0181 1.48894 19.3951 1.48894C18.767 1.48894 18.1642 1.75741 17.6576 2.26901L14.8666 5.04989ZM20.2005 3.23649C20.2005 3.24156 20.2055 3.24156 20.2005 3.23649C20.4132 3.43404 20.6057 3.63666 20.8184 3.85447C21.1325 4.18372 21.4617 4.51803 21.8315 4.83208C22.3786 5.34368 22.6369 5.94646 22.6369 6.73666C22.6369 6.81264 22.6369 6.89369 22.6318 6.96966C22.5356 8.47408 21.948 9.87212 21.4465 10.9206C20.0586 13.7876 18.0882 16.3051 15.591 18.3971C13.5091 20.1244 11.5843 21.2793 9.5176 22.0442C8.25633 22.5153 7.27365 22.6875 6.34669 22.6115C5.75404 22.5609 5.2627 22.3329 4.84227 21.9125L3.11498 20.1852C2.88198 19.937 2.75534 19.6736 2.75534 19.4153C2.75534 19.0961 2.94783 18.8378 3.10992 18.6757C3.11498 18.6707 3.12005 18.6656 3.12512 18.6605C3.41384 18.3515 3.7127 18.0577 4.03182 17.7488C4.19391 17.5917 4.356 17.4296 4.52316 17.2675L5.906 15.8847C6.44293 15.3478 6.93933 15.3478 7.47626 15.8847C7.62316 16.0316 7.77005 16.1734 7.91188 16.3203C8.34751 16.7458 8.75273 17.151 9.14783 17.5917C9.15796 17.6019 9.16303 17.612 9.17316 17.6171C9.60878 18.0527 10.0343 17.9716 10.323 17.8805C10.3382 17.8754 10.3534 17.8703 10.3686 17.8653C11.2398 17.5056 12.0604 16.9991 13.038 16.2292L13.0431 16.2241C14.7653 14.826 16.1076 13.352 17.1359 11.726C17.2676 11.5184 17.374 11.3056 17.4753 11.103C17.5665 10.9206 17.6526 10.7484 17.7438 10.6015C17.7539 10.5813 17.7691 10.561 17.7792 10.5407C17.8653 10.3685 17.9058 10.2064 17.9058 10.0393C17.9058 9.61885 17.6424 9.35545 17.5563 9.26934L15.824 7.53699C15.6518 7.36476 15.4441 7.09124 15.4441 6.77212C15.4441 6.45806 15.6416 6.19973 15.8139 6.0427C15.8189 6.03764 15.8189 6.03764 15.824 6.03257L18.615 3.24156C19.1317 2.71983 19.6635 2.71983 20.2005 3.23649Z" fill="white" fill-opacity="0.7"/>
<path id="Vector_2" d="M5.70908 11.0475C5.93196 9.72035 6.56006 8.5148 7.52248 7.55238C8.4849 6.58996 9.69046 5.96692 11.0176 5.73898C11.3519 5.68326 11.5849 5.39453 11.5849 5.06528C11.5849 5.02476 11.5798 4.9893 11.5748 4.94878C11.514 4.57394 11.1594 4.32574 10.7846 4.38652C9.17886 4.66005 7.71497 5.41986 6.555 6.57983C5.39503 7.73979 4.63522 9.20368 4.36169 10.8094C4.30091 11.1842 4.54911 11.5338 4.91888 11.5996C5.28866 11.6655 5.6483 11.4223 5.70908 11.0475Z" fill="white" fill-opacity="0.7"/>
<path id="Vector_3" d="M10.5869 0.0452544C7.94279 0.496072 5.53674 1.74215 3.62203 3.65686C1.70732 5.57157 0.461243 7.97761 0.0104253 10.6217C-0.0554245 10.9915 0.197844 11.341 0.567615 11.4069C0.942452 11.4677 1.29196 11.2194 1.35781 10.8446C1.75798 8.48415 2.87742 6.33137 4.58445 4.61928C6.29654 2.90719 8.44932 1.79281 10.8098 1.39264C11.1441 1.33692 11.3771 1.0482 11.3771 0.718948C11.3771 0.678425 11.372 0.642967 11.367 0.602444C11.3113 0.232672 10.9567 -0.0205958 10.5869 0.0452544Z" fill="white" fill-opacity="0.7"/>
</g>
</g>
</svg>
