<svg width="56" height="56" viewBox="0 0 56 56" fill="none" xmlns="http://www.w3.org/2000/svg">
<g clip-path="url(#clip0_360_55615)">
<path d="M28 56C43.464 56 56 43.464 56 28C56 12.536 43.464 0 28 0C12.536 0 0 12.536 0 28C0 43.464 12.536 56 28 56Z" fill="#B4D2E2"/>
<path d="M38.2709 1.94385C46.2827 6.87032 51.625 15.7176 51.625 25.8125C51.625 41.2765 39.089 53.8125 23.625 53.8125C19.9991 53.8125 16.5341 53.1233 13.354 51.8687C17.6149 54.4889 22.631 56 28 56C43.464 56 56 43.464 56 28C56 16.1619 48.6536 6.03983 38.2709 1.94385Z" fill="#8ABBD5"/>
<path d="M28 50.75C40.5645 50.75 50.75 40.5645 50.75 28C50.75 15.4355 40.5645 5.25 28 5.25C15.4355 5.25 5.25 15.4355 5.25 28C5.25 40.5645 15.4355 50.75 28 50.75Z" fill="white"/>
<path d="M27.9628 8.75003C17.3467 8.77005 8.69676 17.483 8.75025 28.099C8.77584 33.1733 10.7646 37.7831 13.9959 41.2079C14.2075 41.4322 14.5631 41.4369 14.7812 41.2188L28 28L41.2189 41.2189C41.4367 41.4368 41.7923 41.4324 42.0039 41.2083C45.2563 37.7612 47.25 33.1134 47.25 28C47.25 17.3562 38.6114 8.73002 27.9628 8.75003Z" fill="#FFC344"/>
<path d="M26.7627 26.7627L29.2375 29.2375L20.5392 37.9358C19.8759 38.5991 18.8003 38.5991 18.1369 37.9358L18.0644 37.8633C17.4011 37.1999 17.4011 36.1243 18.0644 35.461L26.7627 26.7627Z" fill="#025F80"/>
<path d="M29.75 24.5169V10.5001C29.75 9.55788 29.0258 8.74708 28.0847 8.70267C27.0796 8.65542 26.25 9.45616 26.25 10.4507V24.5172C26.25 24.7839 26.1237 25.0342 25.91 25.1936C24.9942 25.8764 24.4235 26.9962 24.5083 28.2446C24.6258 29.9718 26.0243 31.3722 27.7514 31.4915C29.7968 31.6328 31.5 30.0154 31.5 28.0001C31.5 26.8537 30.9483 25.8365 30.0963 25.1983C29.8806 25.0367 29.75 24.7863 29.75 24.5169Z" fill="#017297"/>
<path d="M28 28.8203C28.453 28.8203 28.8203 28.453 28.8203 28C28.8203 27.547 28.453 27.1797 28 27.1797C27.547 27.1797 27.1797 27.547 27.1797 28C27.1797 28.453 27.547 28.8203 28 28.8203Z" fill="#FFC344"/>
<path d="M33.25 42V52.5598C33.25 53.4932 34.0067 54.25 34.9402 54.25H54.3099C55.2433 54.25 56.0001 53.4933 56.0001 52.5598V42H33.25Z" fill="#FD6930"/>
<path d="M52.719 42V52.5598C52.719 53.4932 51.9623 54.25 51.0288 54.25H54.3101C55.2435 54.25 56.0002 53.4933 56.0002 52.5598V42H52.719Z" fill="#FD5426"/>
<path d="M49.0002 37.7076C48.5334 37.7076 48.1552 37.3293 48.1552 36.8626V35.0528C48.1552 34.5867 47.7761 34.2078 47.3101 34.2078H41.9404C41.4743 34.2078 41.0953 34.5868 41.0953 35.0528V36.8626C41.0953 37.3293 40.717 37.7076 40.2503 37.7076C39.7836 37.7076 39.4053 37.3293 39.4053 36.8626V35.0528C39.4053 33.6549 40.5426 32.5176 41.9405 32.5176H47.3102C48.7082 32.5176 49.8454 33.6549 49.8454 35.0528V36.8626C49.8452 37.3292 49.467 37.7076 49.0002 37.7076Z" fill="#017297"/>
<path d="M54.3098 36.75H34.9402C34.0068 36.75 33.25 37.5067 33.25 38.4402V42L42 47.25H47.25L56 42V38.4402C56 37.5067 55.2433 36.75 54.3098 36.75Z" fill="#FE7D43"/>
<path d="M54.3101 36.75H51.0288C51.9622 36.75 52.719 37.5067 52.719 38.4402V43.9688L56.0002 42V38.4402C56.0002 37.5067 55.2436 36.75 54.3101 36.75Z" fill="#FD6930"/>
<path d="M46.4297 50.75H42.8203C42.3673 50.75 42 50.3827 42 49.9297V46.3203C42 45.8673 42.3673 45.5 42.8203 45.5H46.4297C46.8827 45.5 47.25 45.8673 47.25 46.3203V49.9297C47.25 50.3827 46.8827 50.75 46.4297 50.75Z" fill="#FFC344"/>
</g>
<defs>
<clipPath id="clip0_360_55615">
<rect width="56" height="56" fill="white"/>
</clipPath>
</defs>
</svg>
