<svg width="32" height="32" viewBox="0 0 32 32" fill="none" xmlns="http://www.w3.org/2000/svg">
<g clip-path="url(#clip0_360_53083)">
<path d="M16 32C24.8366 32 32 24.8366 32 16C32 7.16344 24.8366 0 16 0C7.16344 0 0 7.16344 0 16C0 24.8366 7.16344 32 16 32Z" fill="white"/>
<path d="M23.9679 11.1834C23.5897 11.7515 23.1276 12.259 22.5974 12.6887C22.5305 12.7444 22.4769 12.8143 22.4405 12.8933C22.4041 12.9724 22.3858 13.0585 22.3868 13.1455V13.1982C22.3807 14.3391 22.1711 15.4698 21.7679 16.5371C21.3525 17.6574 20.7352 18.692 19.9468 19.5897C18.8874 20.7959 17.5244 21.6965 15.9995 22.1982C14.9974 22.5234 13.9498 22.6861 12.8963 22.6803C11.225 22.6801 9.58353 22.2377 8.13842 21.3982C8.08663 21.3687 8.04587 21.3232 8.02231 21.2685C7.99875 21.2138 7.99369 21.1529 8.00789 21.095C8.02246 21.0381 8.05567 20.9877 8.10221 20.9518C8.14876 20.9159 8.20597 20.8967 8.26473 20.8971H8.66473C9.93483 20.9002 11.1768 20.5234 12.231 19.815C11.6028 19.7133 11.0148 19.4401 10.5319 19.0255C10.049 18.611 9.6899 18.0711 9.4942 17.4655C9.48418 17.4352 9.48237 17.4028 9.48893 17.3715C9.4955 17.3402 9.51022 17.3113 9.5316 17.2875C9.55298 17.2638 9.58026 17.2462 9.61067 17.2364C9.64107 17.2266 9.67352 17.225 9.70473 17.2318C9.89632 17.2679 10.0908 17.2862 10.2858 17.2866H10.3595C9.75226 17.0076 9.23886 16.5587 8.88132 15.9942C8.52377 15.4297 8.3374 14.7737 8.34473 14.1055C8.34495 14.0743 8.35326 14.0436 8.36885 14.0165C8.38445 13.9894 8.40679 13.9668 8.43371 13.9509C8.46064 13.935 8.49122 13.9263 8.52248 13.9258C8.55374 13.9252 8.58462 13.9327 8.6121 13.9476C8.85908 14.0855 9.12409 14.1883 9.39947 14.2529C8.85516 13.7144 8.50504 13.0104 8.40407 12.2514C8.3031 11.4924 8.45698 10.7213 8.84157 10.0592C8.85612 10.0338 8.87663 10.0123 8.90132 9.9965C8.92602 9.98074 8.95418 9.97121 8.98337 9.96873C9.01256 9.96624 9.04192 9.97088 9.06893 9.98224C9.09593 9.9936 9.11978 10.0113 9.13842 10.0339C9.8988 10.9754 10.8405 11.7546 11.9077 12.3253C12.9749 12.8959 14.1458 13.2465 15.351 13.3561H15.3679C15.3856 13.3555 15.403 13.3514 15.4191 13.344C15.4351 13.3365 15.4495 13.3259 15.4613 13.3127C15.4732 13.2995 15.4822 13.284 15.4878 13.2672C15.4935 13.2504 15.4956 13.2327 15.4942 13.215C15.4472 12.7925 15.4743 12.365 15.5742 11.9518C15.71 11.3902 15.9889 10.8732 16.3836 10.4512C16.7783 10.0292 17.2755 9.71646 17.8268 9.54342C18.1806 9.43293 18.5489 9.37615 18.9195 9.375C19.7597 9.37403 20.5714 9.68027 21.2016 10.2361C21.2832 10.3091 21.3889 10.3496 21.4984 10.3497C21.534 10.349 21.5693 10.344 21.6037 10.335C22.1958 10.1854 22.7631 9.95065 23.2879 9.63816C23.3193 9.61879 23.3559 9.6096 23.3927 9.61185C23.4296 9.6141 23.4648 9.62768 23.4936 9.65073C23.5224 9.67378 23.5434 9.70517 23.5537 9.74061C23.564 9.77605 23.5631 9.8138 23.551 9.84869C23.3759 10.3998 23.0637 10.8975 22.6437 11.295C23.022 11.2048 23.3913 11.0801 23.7468 10.9224C23.7819 10.9088 23.8204 10.9065 23.8568 10.9158C23.8933 10.9251 23.9259 10.9456 23.9502 10.9743C23.9745 11.003 23.9893 11.0385 23.9925 11.076C23.9956 11.1135 23.987 11.151 23.9679 11.1834Z" fill="#6E5EA8"/>
</g>
<defs>
<clipPath id="clip0_360_53083">
<rect width="32" height="32" fill="white"/>
</clipPath>
</defs>
</svg>
