<svg width="73" height="308" viewBox="0 0 73 308" fill="none" xmlns="http://www.w3.org/2000/svg">
<g opacity="0.08">
<mask id="mask0_390_46509" style="mask-type:luminance" maskUnits="userSpaceOnUse" x="-172" y="0" width="245" height="308">
<path d="M73 0H-172V308H73V0Z" fill="white"/>
</mask>
<g mask="url(#mask0_390_46509)">
<path d="M-114.36 212.708C-113.813 213.495 -113.259 214.286 -112.697 215.078C-94.3889 240.874 -67.9658 268.881 -30.6317 298.735L-30.6274 298.74C-13.2556 283.857 2.98317 268.033 17.4726 250.807C21.6394 245.852 25.6634 240.781 29.5252 235.583C40.3907 220.97 49.9956 205.346 58.0242 188.458C68.5458 166.337 73.4737 143.771 72.9677 122.312C72.9807 122.293 72.9937 122.273 73.0023 122.258V122.254C72.1352 87.3028 56.8565 55.3129 27.8711 33.0221C13.2627 21.7896 -5.01729 12.5271 -22.9643 8.87325C-43.2227 4.75058 -62.1276 9.37003 -76.9284 19.6907C-78.7729 20.9746 -80.5546 22.3531 -82.265 23.8069C-99.0919 38.1319 -109.25 60.4356 -107.689 85.1458C-107.687 85.1587 -107.687 85.1716 -107.687 85.1845C-107.689 85.1888 -107.689 85.1931 -107.687 85.2017V85.2039C-107.507 88.0233 -107.172 90.8728 -106.679 93.746C-106.364 95.589 -106.009 97.4106 -105.618 99.2128C-100.069 124.695 -87.0306 146.627 -70.9259 166.986C-67.9571 170.743 -64.971 174.487 -61.9632 178.238C-56.7457 184.75 -51.4632 191.279 -46.1007 197.897C-46.0834 197.901 -46.0683 197.903 -46.0532 197.903C-45.8931 198.107 -45.7245 198.309 -45.5602 198.516C-43.986 200.464 -42.6735 202.546 -41.6334 204.718C-41.534 204.927 -41.4345 205.138 -41.3437 205.348C-40.948 206.211 -40.5999 207.084 -40.295 207.972C-36.5391 218.766 -38.8981 231.112 -47.1711 239.837C-48.0079 240.725 -49.3896 240.826 -50.3626 240.087C-52.1768 238.715 -53.8244 237.517 -55.2191 236.069C-61.6994 229.336 -67.9571 222.45 -73.9445 215.376C-74.5888 214.613 -75.2332 213.85 -75.8711 213.082C-76.5111 212.316 -77.1468 211.548 -77.7782 210.776C-78.3577 210.071 -78.935 209.368 -79.508 208.656C-79.6248 208.512 -79.7437 208.363 -79.8627 208.217C-80.3492 207.615 -80.8357 207.011 -81.3114 206.404C-81.4757 206.2 -81.6401 205.993 -81.8001 205.789C-82.9072 204.389 -84.0056 202.987 -85.0911 201.574C-85.1494 201.497 -85.2078 201.424 -85.264 201.35C-85.85 200.585 -86.436 199.817 -87.0133 199.045C-87.5128 198.385 -88.008 197.725 -88.4988 197.062C-89.234 196.075 -89.9605 195.086 -90.6784 194.092C-91.1844 193.398 -91.686 192.699 -92.1855 192C-92.6591 191.339 -93.1283 190.677 -93.5932 190.015C-93.8635 189.634 -94.1273 189.253 -94.3954 188.871C-94.9749 188.04 -95.5479 187.208 -96.1187 186.372C-96.5382 185.759 -96.9555 185.144 -97.3685 184.529C-97.388 184.503 -97.4031 184.477 -97.4161 184.455C-97.8853 183.756 -98.3524 183.06 -98.8129 182.361C-98.9319 182.184 -99.0486 182.008 -99.1611 181.832C-99.6692 181.064 -100.173 180.292 -100.672 179.516C-101.2 178.696 -101.726 177.875 -102.244 177.053C-102.521 176.621 -102.798 176.182 -103.068 175.743C-103.332 175.324 -103.596 174.9 -103.853 174.479C-104.385 173.627 -104.911 172.769 -105.427 171.905C-105.678 171.492 -105.929 171.079 -106.176 170.662C-106.433 170.231 -106.684 169.806 -106.939 169.378C-107.479 168.466 -108.016 167.548 -108.545 166.627C-108.757 166.255 -108.971 165.881 -109.183 165.509C-109.432 165.077 -109.676 164.644 -109.921 164.208C-110.593 163.016 -111.261 161.814 -111.914 160.608C-112.21 160.064 -112.507 159.519 -112.801 158.971C-113.183 158.253 -113.566 157.537 -113.945 156.812C-114.221 156.283 -114.498 155.756 -114.773 155.223C-115.041 154.704 -115.307 154.182 -115.575 153.659C-115.62 153.569 -115.668 153.476 -115.713 153.384C-115.975 152.872 -116.234 152.356 -116.492 151.84C-116.634 151.554 -116.775 151.265 -116.918 150.977C-117.465 149.876 -118.003 148.766 -118.535 147.652C-118.81 147.083 -119.082 146.508 -119.35 145.936C-119.625 145.356 -119.895 144.777 -120.161 144.194C-120.371 143.741 -120.581 143.283 -120.786 142.822C-120.946 142.47 -121.104 142.117 -121.262 141.764C-121.828 140.502 -122.386 139.237 -122.933 137.962C-123.111 137.551 -123.284 137.143 -123.459 136.732C-123.774 135.988 -124.086 135.241 -124.395 134.495C-137.935 101.748 -141.358 69.1777 -120.362 37.7448C-119.753 36.8287 -119.962 35.6114 -120.855 34.9749L-120.862 34.9813L-120.888 35.0071C-120.89 35.0114 -120.896 35.0136 -120.903 35.0222C-120.911 35.0308 -120.922 35.0437 -120.937 35.0566C-120.963 35.0845 -120.998 35.1211 -121.037 35.162C-121.059 35.1813 -121.078 35.2028 -121.104 35.2286C-121.709 35.8631 -123.379 37.6674 -125.623 40.5728C-125.88 40.9019 -126.142 41.2481 -126.412 41.6073C-126.51 41.732 -126.603 41.861 -126.698 41.9922C-126.882 42.2352 -127.065 42.489 -127.251 42.7449C-127.258 42.7492 -127.26 42.7557 -127.264 42.7621C-127.45 43.018 -127.641 43.2804 -127.835 43.5535C-127.837 43.5578 -127.842 43.5621 -127.848 43.5686C-128.038 43.8374 -128.235 44.1127 -128.432 44.3987C-128.538 44.5471 -128.644 44.6977 -128.748 44.8503C-128.947 45.1385 -129.15 45.4374 -129.353 45.7385C-129.36 45.7407 -129.362 45.7471 -129.366 45.7536C-129.571 46.0547 -129.779 46.3643 -129.982 46.6783C-130.199 46.9988 -130.41 47.3214 -130.622 47.6547C-130.884 48.0612 -131.148 48.4741 -131.414 48.8977C-131.682 49.3236 -131.948 49.7558 -132.218 50.1988C-132.486 50.6419 -132.759 51.0935 -133.029 51.5516C-133.304 52.0118 -133.574 52.4828 -133.846 52.9602C-133.985 53.201 -134.121 53.4441 -134.259 53.6871C-134.534 54.1731 -134.811 54.6699 -135.083 55.1774C-135.221 55.4312 -135.36 55.6871 -135.496 55.943C-135.498 55.943 -135.498 55.9473 -135.498 55.9473C-135.773 56.4635 -136.045 56.9861 -136.32 57.5173C-136.322 57.5173 -136.322 57.5173 -136.322 57.5216C-136.458 57.7882 -136.597 58.0571 -136.731 58.3259C-137.144 59.1388 -137.552 59.9711 -137.959 60.8249C-138.229 61.3926 -138.5 61.9711 -138.77 62.5604C-138.902 62.8529 -139.038 63.1475 -139.166 63.4443C-139.297 63.7432 -139.434 64.04 -139.566 64.3454C-139.697 64.6465 -139.827 64.9518 -139.959 65.2572C-140.091 65.5605 -140.221 65.868 -140.348 66.1798C-140.48 66.4917 -140.61 66.8035 -140.737 67.1175L-140.74 67.1196C-140.865 67.4336 -140.99 67.7497 -141.12 68.0702C-141.375 68.7067 -141.626 69.3541 -141.875 70.0122C-141.875 70.0122 -141.877 70.0122 -141.877 70.0165C-142.247 70.9993 -142.612 71.9993 -142.965 73.0208C-143.2 73.7026 -143.436 74.3929 -143.663 75.0897C-143.886 75.765 -144.104 76.451 -144.316 77.1435C-144.861 78.9113 -145.376 80.7307 -145.856 82.6017C-145.942 82.9286 -146.026 83.2576 -146.106 83.5888C-146.199 83.9565 -146.29 84.3286 -146.381 84.7028C-146.558 85.449 -146.731 86.2039 -146.896 86.9674C-147.147 88.1115 -147.382 89.2706 -147.605 90.4491C-147.752 91.2341 -147.895 92.0277 -148.027 92.8298C-148.094 93.2298 -148.158 93.6299 -148.223 94.0342C-148.275 94.3632 -148.327 94.6965 -148.375 95.0299C-148.396 95.1804 -148.42 95.331 -148.442 95.4815C-148.483 95.7761 -148.526 96.0708 -148.567 96.3654C-148.574 96.4299 -148.582 96.4944 -148.593 96.5611C-148.699 97.3267 -148.796 98.1009 -148.889 98.8837C-148.898 98.9934 -148.911 99.1009 -148.924 99.2106C-149.01 99.9698 -149.09 100.735 -149.166 101.507C-149.205 101.933 -149.244 102.363 -149.283 102.791C-149.363 103.74 -149.434 104.697 -149.493 105.665C-151.266 134.175 -143.724 170.414 -114.36 212.708ZM23.6503 97.5289C23.6503 109.839 18.3138 120.912 9.81166 128.575C9.40515 129.026 8.98351 129.463 8.5424 129.884C5.6125 132.699 1.98851 134.833 -1.9382 136.08C-7.0239 138.239 -12.6177 139.437 -18.4948 139.437C-38.6495 139.437 -55.5002 125.362 -59.6474 106.559C-60.041 104.785 -60.3177 102.968 -60.4756 101.116C-60.4778 101.11 -60.4778 101.103 -60.4756 101.097C-60.5794 99.9203 -60.6291 98.7289 -60.6291 97.5289C-60.6291 91.0836 -59.1674 84.9781 -56.551 79.5242C-49.8934 65.625 -35.7693 55.9495 -19.3338 55.6312C-19.0527 55.6248 -18.7738 55.6226 -18.4927 55.6226C-17.7229 55.6226 -16.9553 55.6441 -16.1963 55.6828C-16.0233 55.6914 -15.846 55.7022 -15.6709 55.7151C6.28714 57.1603 23.6503 75.3241 23.6503 97.5289ZM-114.332 212.716C-113.462 212.964 -112.587 213.196 -111.707 213.415C-112.037 213.957 -112.366 214.508 -112.686 215.058C-113.244 214.278 -113.791 213.495 -114.332 212.716Z" fill="#6E5EA7"/>
</g>
<mask id="mask1_390_46509" style="mask-type:luminance" maskUnits="userSpaceOnUse" x="-172" y="0" width="245" height="308">
<path d="M73 0H-172V308H73V0Z" fill="white"/>
</mask>
<g mask="url(#mask1_390_46509)">
<path d="M-122.348 243.592C-106.412 263.41 -87.9803 281.412 -68.4656 298.578C-66.6882 300.137 -64.8806 301.66 -63.0124 303.185C-55.0551 309.69 -43.5496 309.581 -35.6551 302.989C-33.9707 301.58 -32.2971 300.163 -30.63 298.735L-30.6256 298.74C-13.2538 283.858 2.98494 268.034 17.4744 250.807C21.6411 245.852 25.6652 240.781 29.5248 235.583C24.1105 212.888 8.57878 194.088 -12.0689 184.159C-12.7068 183.851 -13.3468 183.557 -13.9912 183.268C-23.6588 178.937 -34.3837 176.533 -45.6752 176.533C-51.2603 176.533 -56.705 177.122 -61.955 178.24C-56.7374 184.752 -51.4549 191.281 -46.0925 197.899C-46.0773 197.901 -46.06 197.905 -46.0449 197.905C-45.8849 198.11 -45.7162 198.312 -45.5519 198.518C-43.9778 200.467 -42.6652 202.548 -41.6252 204.72C-41.5257 204.929 -41.4263 205.14 -41.3354 205.351C-40.9398 206.213 -40.5916 207.086 -40.2846 207.974C-36.5287 218.77 -38.8877 231.114 -47.1606 239.839C-47.9975 240.728 -49.3791 240.829 -50.3522 240.089C-52.1663 238.719 -53.814 237.521 -55.2087 236.072C-61.689 229.338 -67.9467 222.452 -73.9341 215.379C-74.5784 214.617 -75.2228 213.852 -75.8607 213.086C-76.5007 212.321 -77.1364 211.551 -77.7678 210.781C-78.3473 210.075 -78.9246 209.372 -79.4976 208.66C-79.6144 208.516 -79.7333 208.368 -79.8522 208.222C-80.3388 207.619 -80.821 207.015 -81.301 206.409C-81.4653 206.204 -81.6296 205.998 -81.7897 205.794C-82.8967 204.394 -83.9952 202.991 -85.0807 201.578C-85.139 201.501 -85.1974 201.428 -85.2536 201.355C-85.8396 200.589 -86.4234 199.819 -87.0029 199.049C-87.5024 198.389 -87.9976 197.729 -88.4884 197.066C-89.2236 196.079 -89.9501 195.09 -90.668 194.097C-91.174 193.402 -91.6756 192.703 -92.1751 192.004C-99.9593 197.841 -111.032 204.783 -116.133 213.093C-116.464 213.635 -114.003 215.078 -114.323 215.628C-114.328 215.635 -112.684 215.078 -112.691 215.084C-117.679 223.676 -121.035 233.317 -122.348 243.592Z" fill="#F3957E"/>
</g>
<mask id="mask2_390_46509" style="mask-type:luminance" maskUnits="userSpaceOnUse" x="-172" y="0" width="245" height="308">
<path d="M73 0H-172V308H73V0Z" fill="white"/>
</mask>
<g mask="url(#mask2_390_46509)">
<path d="M-107.691 81.2986C-107.688 81.3115 -107.688 81.3244 -107.688 81.3373C-107.691 81.3416 -107.691 81.3459 -107.688 81.3524V81.3545C-107.63 85.4385 -107.25 89.5999 -106.53 93.8085C-106.255 95.4107 -105.95 96.9957 -105.619 98.5678C-100.159 124.353 -87.03 146.5 -70.7761 167.049C-68.683 169.694 -66.5834 172.335 -64.4774 174.974H-64.473C-63.7552 175.873 -63.0373 176.774 -62.3129 177.671C-56.9353 184.398 -51.4885 191.127 -45.9509 197.959C-45.9358 197.963 -45.9185 197.966 -45.9033 197.966C-45.7433 198.17 -45.5747 198.372 -45.4103 198.578C-43.8362 200.527 -42.5237 202.609 -41.4836 204.781C-41.4382 204.755 -41.3906 204.729 -41.3452 204.703C-40.9906 204.514 -40.6425 204.323 -40.2944 204.123C-30.2938 198.54 -21.396 191.239 -13.9988 182.623C-13.3458 181.864 -12.7036 181.092 -12.0765 180.311C-0.713722 166.227 6.74834 148.9 8.69008 129.951C5.76018 132.766 2.13618 134.9 -1.79053 136.147C-6.87624 138.306 -12.4701 139.504 -18.3472 139.504C-38.757 139.504 -55.7698 125.076 -59.6511 105.918C-60.196 103.228 -60.4815 100.443 -60.4815 97.5957C-60.4815 97.486 -60.4815 97.3785 -60.4771 97.2731C-60.4815 97.2667 -60.4815 97.2602 -60.4771 97.2538C-60.4296 90.9332 -58.9722 84.9503 -56.4034 79.591C-49.6333 65.4553 -35.1373 55.6895 -18.345 55.6895C-17.3979 55.6895 -16.4552 55.7217 -15.5232 55.7819C-15.7459 55.5346 -15.9708 55.2894 -16.2 55.0421C-17.2184 53.9346 -18.265 52.8485 -19.3375 51.7883C-35.626 35.6525 -57.6575 25.2501 -82.1151 23.8716C-98.0512 37.4332 -108.002 58.1562 -107.691 81.2986Z" fill="#9D90C4"/>
</g>
</g>
</svg>
