<svg width="88" height="327" viewBox="0 0 88 327" fill="none" xmlns="http://www.w3.org/2000/svg">
<g clip-path="url(#clip0_390_46535)">
<g opacity="0.08">
<mask id="mask0_390_46535" style="mask-type:luminance" maskUnits="userSpaceOnUse" x="0" y="0" width="260" height="327">
<path d="M260 0H0V327H260V0Z" fill="white"/>
</mask>
<g mask="url(#mask0_390_46535)">
<path d="M61.1694 225.829C61.75 226.665 62.3374 227.505 62.934 228.345C82.363 255.733 110.404 285.468 150.024 317.164L150.028 317.168C168.464 301.368 185.697 284.568 201.073 266.279C205.495 261.019 209.765 255.635 213.864 250.116C225.394 234.601 235.587 218.014 244.107 200.083C255.273 176.598 260.503 152.64 259.966 129.857C259.98 129.837 259.993 129.816 260.003 129.8V129.796C259.082 92.6884 242.868 58.7251 212.108 35.0592C196.605 23.1338 177.206 13.2999 158.161 9.42065C136.662 5.04367 116.599 9.94808 100.892 20.9054C98.9351 22.2685 97.0443 23.7321 95.2292 25.2755C77.3721 40.4842 66.5917 64.1638 68.2485 90.3983C68.2508 90.412 68.2508 90.4257 68.2508 90.4394C68.2485 90.444 68.2485 90.4486 68.2508 90.4577V90.46C68.4412 93.4533 68.7969 96.4786 69.3201 99.5291C69.6551 101.486 70.0314 103.42 70.4468 105.333C76.3349 132.387 90.1717 155.672 107.262 177.287C110.413 181.276 113.582 185.251 116.774 189.233C122.311 196.147 127.917 203.079 133.608 210.104C133.626 210.109 133.642 210.111 133.658 210.111C133.828 210.328 134.007 210.543 134.181 210.762C135.852 212.831 137.245 215.041 138.348 217.347C138.454 217.568 138.559 217.792 138.656 218.016C139.076 218.932 139.445 219.859 139.769 220.801C143.755 232.261 141.251 245.369 132.472 254.632C131.584 255.575 130.117 255.683 129.085 254.897C127.16 253.441 125.411 252.169 123.931 250.632C117.054 243.483 110.413 236.172 104.059 228.663C103.375 227.852 102.691 227.042 102.015 226.227C101.335 225.414 100.661 224.599 99.9906 223.779C99.3757 223.03 98.763 222.283 98.1549 221.528C98.031 221.375 97.9048 221.217 97.7786 221.062C97.2623 220.422 96.746 219.781 96.2411 219.137C96.0668 218.92 95.8924 218.701 95.7226 218.484C94.5477 216.998 93.382 215.509 92.2301 214.009C92.1681 213.927 92.1062 213.849 92.0465 213.771C91.4246 212.959 90.8028 212.143 90.1901 211.324C89.66 210.623 89.1346 209.922 88.6137 209.219C87.8335 208.171 87.0625 207.12 86.3006 206.065C85.7637 205.328 85.2313 204.586 84.7013 203.844C84.1987 203.143 83.7008 202.44 83.2074 201.736C82.9206 201.332 82.6406 200.928 82.3561 200.522C81.7411 199.64 81.133 198.757 80.5272 197.869C80.0821 197.218 79.6392 196.565 79.2009 195.912C79.1803 195.884 79.1642 195.857 79.1504 195.834C78.6525 195.092 78.1569 194.352 77.6681 193.61C77.5419 193.423 77.418 193.236 77.2986 193.049C76.7594 192.234 76.2247 191.414 75.6947 190.59C75.1348 189.72 74.5772 188.847 74.0264 187.975C73.7327 187.516 73.439 187.051 73.1522 186.585C72.8722 186.14 72.5923 185.69 72.3192 185.242C71.7547 184.338 71.1971 183.427 70.6487 182.509C70.3825 182.071 70.1163 181.632 69.8547 181.189C69.5817 180.733 69.3155 180.281 69.0447 179.826C68.4711 178.858 67.902 177.883 67.3398 176.906C67.1149 176.511 66.8877 176.114 66.6628 175.719C66.399 175.26 66.1397 174.801 65.8804 174.337C65.1667 173.072 64.4577 171.796 63.7647 170.515C63.4503 169.938 63.1359 169.36 62.8239 168.778C62.4177 168.015 62.0115 167.255 61.61 166.485C61.3163 165.924 61.0225 165.364 60.7311 164.798C60.4466 164.248 60.1643 163.693 59.8798 163.138C59.8316 163.042 59.7811 162.944 59.7329 162.846C59.4553 162.302 59.1799 161.754 58.9069 161.206C58.7554 160.903 58.6063 160.597 58.4548 160.291C57.8743 159.122 57.3029 157.944 56.7384 156.761C56.447 156.156 56.1578 155.546 55.8733 154.939C55.5819 154.322 55.295 153.708 55.0128 153.089C54.7902 152.608 54.5676 152.121 54.3496 151.633C54.1798 151.258 54.0123 150.884 53.8448 150.509C53.2436 149.169 52.6516 147.827 52.071 146.473C51.8829 146.037 51.6993 145.603 51.5134 145.167C51.1784 144.377 50.848 143.584 50.5198 142.792C36.1506 108.025 32.5181 73.4452 54.7994 40.0733C55.4465 39.1006 55.2239 37.8083 54.2762 37.1324L54.2693 37.1393L54.2418 37.1667C54.2395 37.1713 54.2326 37.1735 54.2257 37.1827C54.2166 37.1918 54.2051 37.2055 54.189 37.2192C54.1615 37.2489 54.1248 37.2877 54.0835 37.3311C54.0605 37.3516 54.0399 37.3745 54.0123 37.4019C53.3698 38.0754 51.5983 39.9911 49.2165 43.0757C48.9434 43.4251 48.6657 43.7927 48.3789 44.174C48.2756 44.3064 48.177 44.4434 48.076 44.5827C47.881 44.8407 47.6859 45.1101 47.4886 45.3818C47.4817 45.3864 47.4794 45.3932 47.4748 45.4001C47.2775 45.6718 47.0755 45.9503 46.869 46.2403C46.8667 46.2449 46.8621 46.2494 46.8552 46.2563C46.6533 46.5417 46.4445 46.834 46.2357 47.1376C46.1232 47.2952 46.0108 47.455 45.9007 47.6171C45.6896 47.9231 45.4739 48.2404 45.2582 48.5601C45.2513 48.5624 45.249 48.5692 45.2444 48.5761C45.0264 48.8957 44.8061 49.2245 44.5904 49.5579C44.3609 49.8981 44.1361 50.2406 43.9112 50.5945C43.6335 51.026 43.3536 51.4644 43.0713 51.9142C42.7868 52.3663 42.5046 52.8252 42.2177 53.2956C41.9332 53.7659 41.644 54.2454 41.3572 54.7317C41.0658 55.2203 40.779 55.7204 40.4898 56.2272C40.343 56.483 40.1984 56.741 40.0515 56.999C39.7601 57.515 39.4664 58.0424 39.1773 58.5813C39.0304 58.8507 38.8836 59.1224 38.739 59.3941C38.7367 59.3941 38.7367 59.3987 38.7367 59.3987C38.4453 59.9467 38.1561 60.5015 37.8647 61.0654C37.8624 61.0654 37.8624 61.0654 37.8624 61.07C37.7179 61.3531 37.571 61.6385 37.4287 61.9239C36.9905 62.787 36.5568 63.6706 36.1254 64.5771C35.8385 65.1799 35.5517 65.7941 35.2649 66.4197C35.1249 66.7302 34.9803 67.043 34.8449 67.3581C34.705 67.6755 34.5604 67.9905 34.4204 68.3148C34.2805 68.6344 34.1428 68.9586 34.0028 69.2829C33.8628 69.6048 33.7251 69.9313 33.5898 70.2624C33.4498 70.5934 33.3121 70.9245 33.1767 71.2579L33.1744 71.2602C33.0413 71.5935 32.9082 71.9291 32.7706 72.2693C32.4998 72.9452 32.2336 73.6324 31.9697 74.3311C31.9697 74.3311 31.9674 74.3311 31.9674 74.3357C31.575 75.3791 31.1872 76.4408 30.8132 77.5254C30.5631 78.2492 30.313 78.9821 30.072 79.7219C29.8357 80.4388 29.6039 81.1672 29.379 81.9024C28.8008 83.7792 28.2546 85.7108 27.7452 87.6973C27.6534 88.0443 27.5639 88.3936 27.479 88.7453C27.3804 89.1357 27.284 89.5307 27.1876 89.928C26.9995 90.7203 26.8159 91.5217 26.6415 92.3323C26.3753 93.5469 26.1252 94.7776 25.8888 96.0288C25.7328 96.8622 25.5814 97.7047 25.4414 98.5564C25.3702 98.9811 25.3014 99.4058 25.2326 99.835C25.1775 100.184 25.1224 100.538 25.0719 100.892C25.049 101.052 25.0237 101.212 25.0008 101.372C24.9572 101.684 24.9113 101.997 24.8677 102.31C24.8608 102.379 24.8516 102.447 24.8402 102.518C24.7277 103.331 24.6245 104.153 24.5258 104.984C24.5166 105.1 24.5029 105.214 24.4891 105.331C24.3973 106.137 24.3124 106.95 24.2321 107.769C24.1908 108.221 24.1495 108.678 24.1082 109.132C24.0233 110.139 23.9475 111.155 23.8856 112.183C22.004 142.452 30.0078 180.927 61.1694 225.829ZM207.629 103.545C207.629 116.615 201.966 128.371 192.943 136.506C192.512 136.986 192.064 137.449 191.596 137.897C188.487 140.886 184.641 143.151 180.474 144.475C175.077 146.767 169.141 148.039 162.904 148.039C141.515 148.039 123.633 133.095 119.231 113.133C118.814 111.249 118.52 109.32 118.353 107.354C118.35 107.347 118.35 107.34 118.353 107.333C118.242 106.084 118.19 104.819 118.19 103.545C118.19 96.7024 119.741 90.2202 122.517 84.4299C129.583 69.6733 144.571 59.401 162.013 59.063C162.312 59.0562 162.608 59.0539 162.906 59.0539C163.723 59.0539 164.537 59.0767 165.343 59.1178C165.526 59.127 165.715 59.1384 165.9 59.1521C189.203 60.6864 207.629 79.9707 207.629 103.545ZM61.1992 225.838C62.1217 226.101 63.051 226.348 63.985 226.58C63.6339 227.156 63.2851 227.74 62.9455 228.325C62.3535 227.496 61.7729 226.665 61.1992 225.838Z" fill="#6E5EA7"/>
</g>
<mask id="mask1_390_46535" style="mask-type:luminance" maskUnits="userSpaceOnUse" x="0" y="0" width="260" height="327">
<path d="M260 0H0V327H260V0Z" fill="white"/>
</mask>
<g mask="url(#mask1_390_46535)">
<path d="M52.6924 258.619C69.6041 279.659 89.1639 298.772 109.873 316.997C111.76 318.652 113.678 320.269 115.66 321.888C124.105 328.795 136.315 328.678 144.693 321.68C146.48 320.184 148.256 318.68 150.025 317.164L150.03 317.168C168.465 301.368 185.698 284.568 201.075 266.279C205.497 261.019 209.767 255.635 213.863 250.116C208.117 226.021 191.635 206.061 169.723 195.519C169.046 195.193 168.367 194.88 167.683 194.574C157.423 189.975 146.042 187.423 134.059 187.423C128.132 187.423 122.354 188.048 116.783 189.236C122.32 196.149 127.925 203.081 133.616 210.107C133.632 210.109 133.651 210.114 133.667 210.114C133.837 210.33 134.016 210.545 134.19 210.764C135.86 212.833 137.253 215.043 138.357 217.349C138.463 217.571 138.568 217.794 138.665 218.018C139.084 218.934 139.454 219.861 139.78 220.804C143.766 232.266 141.262 245.371 132.483 254.635C131.595 255.578 130.128 255.685 129.096 254.899C127.171 253.445 125.422 252.173 123.942 250.634C117.065 243.485 110.424 236.175 104.07 228.665C103.386 227.857 102.702 227.044 102.026 226.231C101.346 225.418 100.672 224.601 100.002 223.783C99.3866 223.034 98.774 222.288 98.1659 221.532C98.042 221.379 97.9158 221.222 97.7896 221.066C97.2733 220.427 96.7615 219.785 96.2521 219.142C96.0777 218.925 95.9033 218.705 95.7335 218.488C94.5587 217.002 93.393 215.513 92.241 214.013C92.1791 213.931 92.1171 213.854 92.0575 213.776C91.4356 212.963 90.816 212.146 90.2011 211.328C89.671 210.627 89.1455 209.926 88.6246 209.223C87.8444 208.175 87.0734 207.125 86.3116 206.07C85.7747 205.332 85.2423 204.59 84.7122 203.848C76.4514 210.045 64.7004 217.415 59.2873 226.238C58.9362 226.813 61.5475 228.345 61.2079 228.93C61.2033 228.937 62.9473 228.345 62.9404 228.352C57.6466 237.474 54.0852 247.71 52.6924 258.619Z" fill="#F3957E"/>
</g>
<mask id="mask2_390_46535" style="mask-type:luminance" maskUnits="userSpaceOnUse" x="0" y="0" width="260" height="327">
<path d="M260 0H0V327H260V0Z" fill="white"/>
</mask>
<g mask="url(#mask2_390_46535)">
<path d="M68.2463 86.3136C68.2486 86.3273 68.2486 86.341 68.2486 86.3547C68.2463 86.3593 68.2463 86.3638 68.2486 86.3707V86.373C68.3106 90.7088 68.7144 95.1269 69.4785 99.5953C69.77 101.296 70.0935 102.979 70.4446 104.648C76.2386 132.024 90.1719 155.537 107.421 177.354C109.642 180.162 111.87 182.966 114.105 185.767H114.11C114.872 186.722 115.634 187.678 116.402 188.631C122.109 195.773 127.889 202.917 133.766 210.171C133.782 210.175 133.8 210.178 133.817 210.178C133.986 210.394 134.165 210.609 134.34 210.828C136.01 212.897 137.403 215.107 138.507 217.413C138.555 217.386 138.605 217.358 138.654 217.331C139.03 217.13 139.399 216.927 139.769 216.715C150.382 210.787 159.824 203.036 167.674 193.889C168.367 193.083 169.049 192.263 169.714 191.434C181.773 176.481 189.692 158.085 191.752 137.968C188.643 140.956 184.797 143.221 180.63 144.546C175.233 146.838 169.297 148.11 163.06 148.11C141.4 148.11 123.346 132.791 119.227 112.452C118.649 109.596 118.346 106.639 118.346 103.616C118.346 103.5 118.346 103.385 118.35 103.274C118.346 103.267 118.346 103.26 118.35 103.253C118.401 96.5425 119.948 90.1905 122.674 84.5007C129.858 69.4929 145.242 59.1247 163.062 59.1247C164.067 59.1247 165.068 59.1589 166.057 59.2228C165.82 58.9603 165.582 58.7 165.338 58.4374C164.258 57.2615 163.147 56.1085 162.009 54.9828C144.723 37.8516 121.343 26.8076 95.3877 25.344C78.4759 39.7422 67.9159 61.7435 68.2463 86.3136Z" fill="#9D90C4"/>
</g>
<mask id="mask3_390_46535" style="mask-type:luminance" maskUnits="userSpaceOnUse" x="0" y="0" width="260" height="327">
<path d="M260 0H0V327H260V0Z" fill="white"/>
</mask>
<g mask="url(#mask3_390_46535)">
<path d="M8.22652 180.132C10.4248 186.477 12.8686 192.647 15.5373 198.656C25.2645 220.557 37.9746 240.316 52.6927 258.619C69.6044 279.659 89.1642 298.772 109.874 316.997C111.76 318.652 113.678 320.269 115.661 321.888C124.107 328.794 136.315 328.68 144.693 321.68C146.48 320.184 148.257 318.68 150.026 317.164C150.033 317.161 150.035 317.154 150.042 317.15C110.42 285.456 82.3719 255.712 62.9452 228.325C62.3532 227.496 61.7727 226.665 61.199 225.838C28.9749 179.413 21.5012 139.856 24.1011 109.13C24.1424 108.673 24.1837 108.219 24.225 107.767C24.303 106.947 24.3879 106.134 24.482 105.328C24.4957 105.212 24.5095 105.098 24.5187 104.981C24.6174 104.15 24.7206 103.328 24.8331 102.515C24.8422 102.445 24.8537 102.376 24.8606 102.308C24.9042 101.995 24.9501 101.682 24.9937 101.369C25.0166 101.209 25.0419 101.05 25.0648 100.89C25.1153 100.536 25.1704 100.182 25.2254 99.8326C25.2943 99.4034 25.3631 98.9787 25.4343 98.554C25.5742 97.7047 25.7257 96.8599 25.8817 96.0265C26.1181 94.7753 26.3659 93.5446 26.6344 92.3299C26.8088 91.5216 26.9923 90.7179 27.1805 89.9256C27.2769 89.5283 27.371 89.1333 27.4719 88.7429C27.5568 88.3936 27.6463 88.042 27.7381 87.6949C28.2475 85.7085 28.7937 83.7768 29.3719 81.9C29.5968 81.1648 29.8308 80.4365 30.0649 79.7195C30.3081 78.9775 30.556 78.2468 30.8061 77.523C31.1847 76.4385 31.5725 75.3768 31.9603 74.3333C31.9603 74.3288 31.9626 74.3288 31.9626 74.3288C32.2265 73.6324 32.4927 72.9451 32.7634 72.267C32.9011 71.9268 33.0342 71.5911 33.1673 71.2578L33.1719 71.2532C33.3096 70.9199 33.445 70.5865 33.5849 70.2577C33.7226 69.9267 33.858 69.6002 33.998 69.2782C34.1379 68.9517 34.2756 68.6298 34.4156 68.3101C34.5556 67.9882 34.7001 67.6708 34.8401 67.3557C34.9778 67.0384 35.1201 66.7256 35.26 66.4173C35.5469 65.7917 35.8337 65.1752 36.1205 64.5747C36.5519 63.6706 36.9856 62.7869 37.4239 61.9216C37.5685 61.6362 37.7153 61.3508 37.8576 61.0677C37.8576 61.0631 37.8576 61.0631 37.8599 61.0631C38.1513 60.4991 38.4404 59.9443 38.7319 59.3963C38.7319 59.3963 38.7319 59.394 38.7342 59.394C38.8787 59.1223 39.0256 58.8506 39.1725 58.5812C39.4639 58.0446 39.7576 57.5172 40.0467 56.9989C40.1936 56.7409 40.3381 56.4829 40.485 56.2272C40.7764 55.7203 41.0633 55.2203 41.3524 54.7316C41.6392 54.2453 41.9306 53.7658 42.2129 53.2955C42.4997 52.8274 42.7843 52.3662 43.0665 51.9141C43.351 51.4643 43.631 51.0259 43.9064 50.5944C44.1312 50.2405 44.3584 49.898 44.5856 49.5578C44.8013 49.2245 45.0193 48.8957 45.2396 48.576C45.2419 48.5692 45.2464 48.5623 45.2533 48.56C45.469 48.2404 45.6847 47.923 45.8958 47.617C46.006 47.4549 46.1184 47.2951 46.2309 47.1376C46.4397 46.8362 46.6485 46.5416 46.8504 46.2562C46.8573 46.2494 46.8596 46.2425 46.8642 46.238C47.0684 45.948 47.2703 45.6694 47.47 45.3977C47.4723 45.3909 47.4769 45.384 47.4837 45.3817C47.6811 45.11 47.8761 44.8406 48.0712 44.5826C48.1744 44.4433 48.2731 44.3063 48.3764 44.1739C48.6632 43.7926 48.9409 43.425 49.2139 43.0757C51.5958 39.991 53.3673 38.0754 54.0098 37.4041C54.0373 37.3767 54.058 37.3538 54.0809 37.3333C54.1222 37.2899 54.1589 37.2511 54.1865 37.2214C54.2025 37.2077 54.214 37.194 54.2232 37.1849C54.2301 37.1735 54.237 37.1712 54.2393 37.1666L54.2668 37.1392L54.2737 37.1324C54.2829 37.1187 54.2874 37.1164 54.2874 37.1164L54.2576 37.0867C53.4338 36.4953 52.3003 36.5661 51.543 37.2465C42.9174 45.0438 33.2912 52.0717 26.2374 61.0836C-1.99624 97.1704 -6.51215 137.618 8.22652 180.132Z" fill="#F3A76E"/>
</g>
<mask id="mask4_390_46535" style="mask-type:luminance" maskUnits="userSpaceOnUse" x="0" y="0" width="260" height="327">
<path d="M260 0H0V327H260V0Z" fill="white"/>
</mask>
<g mask="url(#mask4_390_46535)">
<path d="M8.22641 180.132C10.4247 186.477 12.8685 192.647 15.5372 198.656C27.9193 211.351 43.585 220.861 61.1691 225.829C61.1782 225.834 61.1897 225.836 61.1989 225.838C62.1213 226.101 63.0507 226.347 63.9846 226.58C72.0848 228.624 80.5751 229.708 89.3132 229.708C94.3202 229.708 99.2445 229.352 104.061 228.66C103.377 227.85 102.693 227.039 102.016 226.226C101.337 225.414 100.663 224.596 99.9926 223.777C99.3776 223.028 98.7649 222.281 98.1569 221.525C98.033 221.372 97.9067 221.217 97.7805 221.059C97.2642 220.42 96.7525 219.776 96.2431 219.135C96.0687 218.918 95.8943 218.699 95.7245 218.482C94.5496 216.995 93.3839 215.507 92.232 214.006C92.1701 213.924 92.1081 213.847 92.0484 213.769C91.4266 212.956 90.807 212.139 90.1921 211.321C89.662 210.62 89.1365 209.919 88.6156 209.216C87.8354 208.168 87.0644 207.118 86.3026 206.063C85.7656 205.326 85.2333 204.584 84.7032 203.841C84.2007 203.141 83.7027 202.437 83.2094 201.734C82.9225 201.33 82.6426 200.926 82.358 200.519C81.7431 199.638 81.135 198.754 80.5292 197.866C80.084 197.218 79.6412 196.565 79.2029 195.912C79.1822 195.884 79.1662 195.857 79.1524 195.834C78.6544 195.092 78.1588 194.352 77.67 193.61C77.5438 193.423 77.4199 193.236 77.3006 193.049C76.7613 192.231 76.2267 191.414 75.6989 190.589C75.139 189.72 74.5814 188.847 74.0307 187.975C73.737 187.516 73.4433 187.05 73.1564 186.585C72.8765 186.139 72.5988 185.69 72.3234 185.242C71.759 184.338 71.2014 183.427 70.6529 182.507C70.3867 182.068 70.1229 181.625 69.859 181.187C69.5859 180.73 69.3197 180.278 69.049 179.824C68.4753 178.856 67.9085 177.881 67.344 176.904C67.1191 176.509 66.892 176.111 66.6671 175.716C66.4032 175.257 66.1439 174.799 65.8846 174.335C65.171 173.07 64.4619 171.794 63.7689 170.513C63.4545 169.935 63.1402 169.358 62.8281 168.775C62.4219 168.013 62.0158 167.252 61.6142 166.483C61.3205 165.921 61.0268 165.362 60.7354 164.796C60.4508 164.245 60.1686 163.691 59.884 163.136C59.8359 163.04 59.7854 162.942 59.7372 162.843C59.4595 162.3 59.1842 161.752 58.9088 161.204C58.7597 160.9 58.6082 160.594 58.4568 160.289C57.8762 159.119 57.3048 157.941 56.7403 156.759C56.4489 156.154 56.1598 155.544 55.8752 154.937C55.5838 154.32 55.297 153.706 55.0147 153.087C54.7922 152.605 54.5696 152.119 54.3516 151.63C54.1795 151.256 54.012 150.882 53.8445 150.509C53.2433 149.169 52.6512 147.827 52.0707 146.473C51.8825 146.036 51.6989 145.603 51.5131 145.167C51.1781 144.377 50.8476 143.584 50.5195 142.792C36.1503 108.025 32.5178 73.4451 54.799 40.0732C55.4461 39.1005 55.2236 37.8082 54.2759 37.1324C54.285 37.1187 54.2896 37.1164 54.2896 37.1164L54.2598 37.0867C53.436 36.4953 52.3024 36.5661 51.5452 37.2465C42.9195 45.0438 33.2934 52.0717 26.2396 61.0836C-1.99635 97.1704 -6.51227 137.618 8.22641 180.132Z" fill="#F3C154"/>
</g>
<mask id="mask5_390_46535" style="mask-type:luminance" maskUnits="userSpaceOnUse" x="0" y="0" width="260" height="327">
<path d="M260 0H0V327H260V0Z" fill="white"/>
</mask>
<g mask="url(#mask5_390_46535)">
<path d="M51.7725 18.0628C51.7725 28.0383 59.9002 36.1256 69.9256 36.1256C79.951 36.1256 88.0787 28.0383 88.0787 18.0628C88.0764 8.08727 79.951 0 69.9256 0C59.9002 0 51.7725 8.08727 51.7725 18.0628Z" fill="#F3C154"/>
</g>
</g>
</g>
<defs>
<clipPath id="clip0_390_46535">
<rect width="260" height="327" fill="white"/>
</clipPath>
</defs>
</svg>
