<svg width="195" height="22" viewBox="0 0 195 22" fill="none" xmlns="http://www.w3.org/2000/svg">
<path d="M14.069 18.1484L6.26618 16.4495C5.91344 16.3691 5.59704 16.1751 5.36576 15.8975C5.13448 15.62 5.00117 15.2742 4.98638 14.9136V6.53106C5.00152 6.17024 5.1349 5.82432 5.36607 5.54635C5.59724 5.26838 5.91343 5.0737 6.26618 4.99214L14.069 3.30235L14.9071 0.00122156H5.81236C4.28359 0.00038934 2.81658 0.602817 1.73162 1.67698C0.64666 2.75114 0.031873 4.20978 0.0214844 5.73445L0.0214844 15.6771C0.0278882 17.2043 0.640918 18.6669 1.72631 19.7443C2.8117 20.8217 4.28098 21.4262 5.81236 21.4254H14.9071L14.069 18.1484ZM20.7101 18.1484L28.516 16.4495C28.8681 16.3685 29.1839 16.1743 29.4145 15.8967C29.6452 15.6192 29.7781 15.2738 29.7927 14.9136V6.53106C29.7778 6.17064 29.6448 5.82504 29.4142 5.54712C29.1837 5.2692 28.8681 5.07427 28.516 4.99214L20.7101 3.30235L19.875 0.00122156H28.9668C30.4955 0.00038934 31.9625 0.602817 33.0475 1.67698C34.1325 2.75114 34.7472 4.20978 34.7576 5.73445V15.6771C34.7512 17.2043 34.1382 18.6669 33.0528 19.7443C31.9674 20.8217 30.4981 21.4262 28.9668 21.4254H19.8902L20.7101 18.1484Z" fill="#FF953A"/>
<path d="M14.0693 10.3151H20.7104V11.1419H14.0693V10.3151ZM163.104 20.9759H161.044C159.802 20.9743 158.612 20.4816 157.734 19.606C156.856 18.7303 156.362 17.5432 156.36 16.3048V10.2698C156.359 9.65541 156.479 9.04671 156.713 8.47859C156.948 7.91048 157.293 7.39412 157.728 6.95909C158.163 6.52406 158.68 6.17891 159.249 5.94341C159.818 5.70792 160.428 5.5867 161.044 5.5867H163.104C164.346 5.5867 165.537 6.07832 166.416 6.95357C167.295 7.82883 167.789 9.01615 167.791 10.2548V16.2897C167.791 16.9043 167.671 17.5131 167.436 18.0812C167.201 18.6493 166.856 19.1657 166.42 19.6008C165.985 20.036 165.468 20.3814 164.899 20.6173C164.33 20.8532 163.72 20.9751 163.104 20.9759ZM161.044 8.27226C160.514 8.27306 160.007 8.48314 159.633 8.85645C159.258 9.22977 159.048 9.73586 159.047 10.2638V16.2988C159.048 16.8264 159.258 17.3322 159.633 17.7051C160.007 18.0779 160.515 18.2873 161.044 18.2873H163.104C163.366 18.2877 163.626 18.2366 163.868 18.1369C164.111 18.0371 164.331 17.8908 164.517 17.7061C164.703 17.5215 164.85 17.3021 164.951 17.0607C165.051 16.8192 165.104 16.5603 165.104 16.2988V10.2638C165.103 9.73534 164.892 9.22879 164.517 8.85539C164.142 8.48199 163.634 8.27226 163.104 8.27226H161.044ZM60.0181 0.502236H62.7017V20.6228H60.0181V0.502236ZM65.8483 5.93673H68.535V20.6228H65.8483V5.93673ZM67.1916 0.502236C66.832 0.499246 66.4795 0.602884 66.179 0.799997C65.8785 0.99711 65.6435 1.27881 65.5038 1.60936C65.364 1.93991 65.3259 2.30441 65.3942 2.6566C65.4626 3.00879 65.6343 3.33279 65.8875 3.58751C66.1408 3.84222 66.4642 4.01616 66.8168 4.08725C67.1693 4.15834 67.5351 4.12338 67.8677 3.9868C68.2003 3.85022 68.4847 3.61819 68.6848 3.32013C68.885 3.02208 68.9918 2.67145 68.9918 2.31273C68.9919 1.83516 68.8027 1.37692 68.4655 1.03782C68.1283 0.698719 67.6705 0.506216 67.1916 0.502236ZM50.3848 0.502236H47.1142C45.8768 2.6869 42.9208 8.67661 39.8892 20.6228H42.6848C43.1598 18.8123 43.6227 17.1256 44.0856 15.5897H53.8914C54.3472 17.1225 54.8132 18.8003 55.2892 20.6228H58.0848C55.0593 8.67661 52.1003 2.6869 50.8598 0.502236H50.3848ZM44.9389 12.8739C45.9728 9.56893 47.2427 6.34203 48.7389 3.21797H49.2563C50.7585 6.33979 52.0296 9.56706 53.0594 12.8739H44.9389ZM151.193 0.484131H153.873V20.6259H151.193V0.484131ZM71.6815 0.502236H74.3652V20.6228H71.6815V0.502236Z" fill="#FF953A"/>
<path d="M77.8322 20.9757C76.1478 20.9438 74.4719 20.7293 72.834 20.336L73.4633 17.7319C77.6476 18.7398 79.5779 18.1876 80.1195 17.7682C80.661 17.3487 80.6973 16.6366 80.6973 15.8189V11.2625H83.381V15.8098C83.381 16.715 83.381 18.604 81.7835 19.8653C80.8456 20.6046 79.5386 20.9727 77.8503 20.9727" fill="#FF953A"/>
<path d="M83.3751 15.0675H80.6914V10.5141C80.6914 9.74163 80.6551 9.12003 80.1892 8.75491C79.7717 8.42601 78.3225 7.78027 73.8749 8.85147L73.2456 6.24738C77.4148 5.24256 80.2285 5.37533 81.8532 6.65173C83.3811 7.85872 83.366 9.66921 83.366 10.5201L83.3751 15.0675ZM147.973 17.403C146.088 18.1453 142.433 18.7005 139.335 17.9371C137.623 17.5117 137.496 16.184 137.493 15.9395V5.51413C137.493 5.26972 137.623 3.94202 139.335 3.51958C142.479 2.7471 146.182 3.32646 148.046 4.08385L148.705 1.4707C146.748 0.797924 144.689 0.464203 142.618 0.483985C141.294 0.472805 139.974 0.619695 138.685 0.92152C135.602 1.67891 134.797 4.26188 134.8 5.52017V15.9335C134.8 17.1948 135.602 19.7748 138.685 20.5352C139.974 20.837 141.294 20.9839 142.618 20.9727C144.663 20.9896 146.697 20.6663 148.636 20.0162L147.973 17.403ZM178.546 5.93658H181.233V20.6227H178.546V5.93658Z" fill="#FF953A"/>
<path d="M175.563 20.9758C173.86 20.9758 172.556 20.6077 171.63 19.8684C170.02 18.6071 170.026 16.7182 170.026 15.8129V5.91858H172.713V15.8159C172.713 16.6307 172.752 17.3428 173.291 17.7652C173.829 18.1877 175.345 18.7369 179.527 17.729L180.159 20.3301C178.658 20.7243 177.115 20.941 175.563 20.9758ZM191.937 0.502197H194.621V20.6228H191.937V0.502197Z" fill="#FF953A"/>
<path d="M189.008 20.9757C187.305 20.9757 186.001 20.6076 185.075 19.8713C183.469 18.607 183.475 16.7181 183.475 15.8128V11.2625H186.161V15.8158C186.161 16.6306 186.201 17.3427 186.736 17.7651C187.272 18.1876 188.794 18.7368 192.975 17.7289L193.604 20.333C192.103 20.7251 190.56 20.9408 189.008 20.9757Z" fill="#FF953A"/>
<path d="M186.149 15.0675H183.462V10.5202C183.462 9.65717 183.462 7.85874 184.975 6.65175C186.6 5.37535 189.417 5.2456 193.583 6.24741L192.954 8.8515C188.506 7.78331 187.057 8.42905 186.639 8.75795C186.173 9.12609 186.137 9.74467 186.14 10.5141L186.149 15.0675ZM95.2833 6.54915C92.6269 4.65417 87.665 6.06334 86.4639 6.44958L87.1234 9.05065C88.6846 8.51957 92.3425 7.74408 93.7191 8.72778C93.9672 8.90581 94.2576 9.2136 94.2576 10.0313V20.6227H96.9413V10.0313C96.9413 8.13032 96.0336 7.08929 95.2833 6.54915Z" fill="#FF953A"/>
<path d="M90.4123 20.9758C87.6894 20.9758 85.8498 19.6994 85.3779 17.4785C85.2279 16.8869 85.2024 16.2708 85.3029 15.6689C85.4034 15.067 85.6277 14.4924 85.9618 13.9812C86.697 12.901 87.9496 12.21 89.6741 11.9233C91.7345 11.5703 93.8492 11.7026 95.8492 12.3095L94.9627 14.8352C93.3895 14.3861 91.7354 14.2943 90.1219 14.5666C89.4532 14.6752 88.5758 14.9257 88.1856 15.493C87.9422 15.9287 87.8802 16.4424 88.0131 16.9233C88.0948 17.3005 88.3156 18.2932 90.4335 18.2932C91.8888 18.2932 94.1731 18.0186 94.9143 17.7682L95.7796 20.2998C94.6481 20.674 92.0461 20.9758 90.4123 20.9758ZM123.699 6.54915C121.049 4.65417 116.084 6.06334 114.883 6.44958L115.542 9.05065C117.104 8.51957 120.761 7.74408 122.138 8.72778C122.386 8.90581 122.674 9.2136 122.674 10.0313V20.6227H125.36V10.0313C125.36 8.13032 124.453 7.08929 123.699 6.54915Z" fill="#FF953A"/>
<path d="M118.822 20.9758C116.099 20.9758 114.263 19.6994 113.791 17.4786C113.64 16.8872 113.614 16.2712 113.714 15.6693C113.814 15.0674 114.038 14.4927 114.372 13.9813C115.11 12.901 116.362 12.21 118.087 11.9234C120.147 11.5706 122.262 11.7029 124.262 12.3096L123.373 14.8353C121.799 14.3859 120.145 14.2941 118.532 14.5667C117.863 14.6753 116.983 14.9258 116.595 15.4931C116.35 15.9283 116.288 16.4426 116.423 16.9234C116.502 17.3005 116.725 18.2933 118.828 18.2933C120.287 18.2933 122.571 18.0187 123.309 17.7683L124.174 20.2999C123.061 20.6741 120.456 20.9758 118.822 20.9758ZM100.097 0.502197H102.781V20.6228H100.097V0.502197Z" fill="#FF953A"/>
<path d="M106.245 20.9757C104.561 20.9434 102.885 20.7289 101.247 20.336L101.879 17.7319C106.064 18.7398 107.994 18.1876 108.536 17.7682C109.077 17.3487 109.116 16.6366 109.116 15.8189V11.2625H111.803V15.8098C111.803 16.715 111.803 18.604 110.203 19.8653C109.265 20.6046 107.961 20.9727 106.269 20.9727" fill="#FF953A"/>
<path d="M111.791 15.0675H109.104V10.5141C109.104 9.74167 109.068 9.12006 108.602 8.75495C108.184 8.42604 106.735 7.7803 102.288 8.85151L101.658 6.24742C105.827 5.2426 108.641 5.37536 110.263 6.65176C111.794 7.85876 111.776 9.66925 111.776 10.5202L111.791 15.0675Z" fill="#FF953A"/>
</svg>
