<svg width="146" height="63" viewBox="0 0 146 63" fill="none" xmlns="http://www.w3.org/2000/svg">
<path d="M40.7852 21.4323C40.7768 21.2372 40.7599 21.0421 40.743 20.847C40.743 20.7634 40.7261 20.6705 40.7177 20.5869C40.7008 20.429 40.6923 20.271 40.6755 20.1224C40.6755 20.1038 40.6755 20.0759 40.6755 20.0574C40.6586 19.8994 40.6417 19.7415 40.6248 19.5836C40.6248 19.5743 40.6248 19.5557 40.6248 19.5464C40.6248 19.4907 40.6079 19.4257 40.5995 19.3699C40.5995 19.342 40.5995 19.3049 40.591 19.277C40.5826 19.212 40.5742 19.1377 40.5657 19.0726C40.5573 18.989 40.5404 18.9054 40.532 18.8311C40.5066 18.6732 40.4813 18.5059 40.456 18.348C40.4138 18.1065 40.3716 17.8742 40.3294 17.642C40.2956 17.4841 40.2703 17.3354 40.2365 17.1868C40.2196 17.1125 40.2028 17.0381 40.1859 16.9638C40.169 16.8988 40.1521 16.8338 40.1437 16.7594C40.0593 16.3785 39.958 16.007 39.8651 15.6539C39.8229 15.5146 39.7892 15.3752 39.7469 15.2359C39.7047 15.0965 39.6625 14.9572 39.6203 14.8178C39.5528 14.6135 39.4853 14.4091 39.4177 14.2047C39.3755 14.0746 39.3249 13.9446 39.2827 13.8145C39.2574 13.7495 39.232 13.6845 39.2152 13.6194C39.1898 13.5544 39.1645 13.4894 39.1476 13.4243C39.1223 13.3593 39.097 13.3036 39.0801 13.2385C39.0548 13.1735 39.0295 13.1178 39.0041 13.0527C38.9788 12.9877 38.9535 12.932 38.9282 12.8669C38.9028 12.8019 38.8775 12.7462 38.8522 12.6904C38.8015 12.5697 38.7509 12.4489 38.7003 12.3374C38.6243 12.1609 38.5483 11.9937 38.4723 11.8265C38.447 11.7707 38.4217 11.715 38.3964 11.6593C38.3457 11.5478 38.2951 11.4456 38.2444 11.3434C38.2191 11.2877 38.1938 11.2412 38.1685 11.1855C38.1178 11.0833 38.0672 10.9811 38.0165 10.8789C37.9912 10.8324 37.9659 10.7767 37.9406 10.7303C37.8899 10.6374 37.8393 10.5352 37.7886 10.4423C37.738 10.3494 37.6873 10.2565 37.6367 10.1636C37.586 10.0707 37.5354 9.98706 37.4932 9.90345C37.4425 9.81984 37.3919 9.73623 37.3497 9.65262C37.3075 9.5876 37.2737 9.52257 37.2315 9.45754C37.1977 9.39251 37.1555 9.32748 37.1218 9.27174C37.088 9.20671 37.0458 9.15097 37.012 9.09523C36.9952 9.06736 36.9698 9.0302 36.953 9.00233C36.9192 8.94659 36.877 8.89085 36.8432 8.83511C36.8095 8.77937 36.7757 8.72363 36.7419 8.67718C36.7082 8.62144 36.6744 8.57499 36.6406 8.52854C36.6238 8.50067 36.6069 8.4728 36.59 8.45422C36.5393 8.3799 36.4887 8.31487 36.4465 8.24055C36.0329 7.65529 35.729 7.28369 35.6193 7.15363C35.6193 7.15363 35.6193 7.14434 35.6108 7.14434L35.5939 7.12576C35.4336 7.25582 35.3914 7.49736 35.5011 7.68316C39.3502 14.0561 38.7256 20.6612 36.2439 27.3035C36.1848 27.4522 36.1342 27.6101 36.0751 27.7587C36.0413 27.8423 36.0076 27.926 35.9822 28.0096C35.8809 28.2697 35.7796 28.5205 35.6784 28.7806C35.653 28.855 35.6193 28.92 35.5939 28.9943C35.5602 29.0872 35.518 29.1801 35.4758 29.273C35.4251 29.3938 35.3745 29.5052 35.3238 29.626C35.2732 29.7468 35.2225 29.8583 35.1719 29.9697C35.0706 30.1927 34.9778 30.425 34.8765 30.6479C34.8511 30.7037 34.8258 30.7687 34.8005 30.8244C34.7498 30.9266 34.7076 31.0381 34.657 31.1403C34.657 31.1589 34.6401 31.1774 34.6317 31.196C34.581 31.2982 34.5304 31.4097 34.4882 31.5119C34.4375 31.6234 34.3869 31.7255 34.3362 31.837C34.2687 31.9857 34.1927 32.125 34.1252 32.2737C34.0746 32.3851 34.0155 32.4966 33.9648 32.6081C33.8467 32.8496 33.72 33.1005 33.6019 33.342C33.5597 33.4349 33.509 33.5185 33.4668 33.6021C33.4246 33.6764 33.3908 33.7508 33.3486 33.8251C33.2473 34.0109 33.1545 34.1967 33.0532 34.3825C33.0025 34.4661 32.9603 34.559 32.9097 34.6426C32.8675 34.7262 32.8168 34.8098 32.7746 34.8934C32.6818 35.0699 32.5805 35.2464 32.4876 35.4137C32.437 35.4973 32.3948 35.5809 32.3441 35.6738C32.2935 35.7667 32.2429 35.8503 32.1922 35.9432C32.0994 36.1104 31.9981 36.2776 31.9052 36.4448C31.8124 36.6028 31.7195 36.7607 31.6267 36.9186C31.6098 36.9558 31.5845 36.9929 31.5591 37.0301C31.4747 37.1695 31.3903 37.3088 31.3059 37.4574C31.3059 37.4574 31.3059 37.4667 31.2975 37.476C31.2215 37.5968 31.1455 37.7269 31.0695 37.8476C30.9683 38.0148 30.8585 38.1821 30.7572 38.3586C30.7066 38.4329 30.6559 38.5165 30.6137 38.5908C30.5293 38.7209 30.4449 38.8602 30.3521 38.9903C30.2592 39.1296 30.1664 39.269 30.0735 39.4176C29.9384 39.622 29.8118 39.8171 29.6768 40.0215C29.5839 40.1515 29.4995 40.2909 29.4067 40.4209C29.2969 40.5789 29.1956 40.7368 29.0859 40.8854C29.0775 40.904 29.0606 40.9133 29.0521 40.9319C28.8496 41.2199 28.6554 41.4986 28.4528 41.7866C28.4275 41.8237 28.3937 41.8702 28.36 41.9073C28.2756 42.0281 28.1827 42.1489 28.0983 42.2789C28.073 42.3068 28.0561 42.3347 28.0308 42.3718C27.9295 42.5205 27.8197 42.6598 27.71 42.7992C27.5918 42.9571 27.4821 43.115 27.3639 43.2637C27.2458 43.4216 27.1276 43.5702 27.0094 43.7282C25.9121 45.1588 24.7641 46.5616 23.5739 47.9272C23.3207 48.2245 23.0168 48.466 22.6876 48.7447C22.5103 48.8934 22.2571 48.8748 22.1052 48.6983C20.5858 46.9332 20.1553 44.4249 20.8474 42.2325C20.9065 42.056 20.9656 41.8795 21.0416 41.703C21.0585 41.6565 21.0753 41.6193 21.0922 41.5729C21.2864 41.1363 21.5227 40.7089 21.8097 40.3188C21.8435 40.2816 21.8688 40.2351 21.9026 40.198C21.9026 40.198 21.9026 40.198 21.911 40.198C22.8902 38.8602 23.8609 37.5318 24.8147 36.2126C25.3634 35.4508 25.9121 34.689 26.4607 33.9273C29.4151 29.8025 31.8039 25.3526 32.8168 20.1781C32.8928 19.8158 32.9519 19.4442 33.011 19.0726C33.1038 18.4874 33.1629 17.9114 33.1967 17.3354C33.4837 12.3281 31.6182 7.80392 28.5372 4.89617C28.2249 4.59889 27.8957 4.32019 27.5581 4.06007C24.8485 1.96984 21.3792 1.03155 17.6652 1.86765C14.3732 2.61084 11.0221 4.48741 8.34624 6.76345C2.9693 11.2226 0.166869 17.707 0.00648918 24.7952C0.00648918 24.7952 0.00648918 24.7952 0.00648918 24.8045C-0.0863624 29.1522 0.81683 33.7322 2.74139 38.2192C4.21013 41.6472 5.97431 44.8151 7.9664 47.7786C8.67545 48.8283 9.40982 49.8595 10.178 50.8628C12.8369 54.3559 15.8081 57.5702 18.9904 60.5801C25.8361 54.5231 30.6728 48.8469 34.0324 43.6167C34.1336 43.4588 34.2349 43.2915 34.3362 43.1336C39.7216 34.559 41.0975 27.2106 40.7768 21.423L40.7852 21.4323ZM16.2555 11.3062C16.2555 11.3062 16.323 11.3062 16.3484 11.3062C16.4919 11.3062 16.6269 11.2969 16.7704 11.2969C16.8211 11.2969 16.8717 11.2969 16.9224 11.2969C19.9358 11.362 22.5272 13.3222 23.7427 16.1463C24.2239 17.2518 24.494 18.4874 24.494 19.7972C24.494 20.0388 24.4855 20.2803 24.4686 20.5219C24.4433 20.8935 24.3927 21.2651 24.3167 21.6274C23.557 25.4362 20.4676 28.2976 16.7704 28.2976C15.69 28.2976 14.6686 28.056 13.7316 27.6194C13.0141 27.3686 12.3473 26.9319 11.8071 26.3652C11.7227 26.2816 11.6467 26.1887 11.5707 26.0958C10.0091 24.5444 9.03841 22.2962 9.03841 19.7972C9.03841 15.2916 12.2207 11.6128 16.2471 11.3155L16.2555 11.3062ZM34.0324 43.626C33.9733 43.5145 33.9142 43.403 33.8551 43.2915C34.0155 43.2451 34.1759 43.1986 34.3362 43.1522C34.2349 43.3101 34.1336 43.468 34.0324 43.626Z" fill="#F9F9F9"/>
<path d="M35.8135 49.4037C32.8929 53.4262 29.5165 57.0772 25.9375 60.5516C25.6083 60.8675 25.2791 61.1741 24.9415 61.4899C23.4812 62.8091 21.3709 62.7905 19.9275 61.4528C19.6152 61.1648 19.3113 60.8768 19.0074 60.5888C15.8251 57.5696 12.8454 54.3645 10.195 50.8715C9.43526 49.8682 8.69245 48.837 7.9834 47.7872C8.97944 43.1887 11.8241 39.3706 15.6057 37.3546C15.7238 37.2896 15.842 37.2339 15.9602 37.1781C17.7328 36.2956 19.6996 35.8125 21.7676 35.8125C22.789 35.8125 23.7935 35.9333 24.7473 36.1562C23.7935 37.4754 22.8228 38.8039 21.8436 40.1416C21.8436 40.1416 21.8436 40.1416 21.8352 40.1416C21.8098 40.1788 21.7761 40.2252 21.7423 40.2624C21.4553 40.6619 21.2105 41.0799 21.0248 41.5165C21.0079 41.563 20.9911 41.6001 20.9742 41.6466C20.8982 41.8231 20.8391 41.9996 20.78 42.1761C20.0879 44.3685 20.5268 46.8675 22.0377 48.6419C22.1897 48.8184 22.4429 48.8463 22.6202 48.6884C22.9494 48.4097 23.2533 48.1681 23.5065 47.8709C24.6967 46.5052 25.8447 45.1117 26.942 43.6718C27.0602 43.5139 27.1783 43.3652 27.2965 43.2073C27.4147 43.0494 27.5329 42.9007 27.6426 42.7428C27.7523 42.6035 27.8536 42.4548 27.9634 42.3155C27.9887 42.2876 28.0056 42.2597 28.0309 42.2226C28.1237 42.1018 28.2081 41.981 28.2926 41.851C28.3263 41.8138 28.3516 41.7674 28.3854 41.7302C28.588 41.4422 28.7906 41.1635 28.9847 40.8755C28.9932 40.8569 29.01 40.8477 29.0185 40.8291C29.1282 40.6711 29.2295 40.5225 29.3392 40.3646C29.4321 40.2345 29.525 40.0952 29.6094 39.9651C29.7444 39.7607 29.8795 39.5656 30.0061 39.3613C30.0989 39.2219 30.1918 39.0826 30.2846 38.9339C31.7112 40.1137 33.737 41.5258 34.674 43.2073C34.7331 43.3188 34.2857 43.6068 34.3448 43.7182C34.3448 43.7182 34.0409 43.6068 34.0494 43.6068C34.961 45.3533 35.5772 47.3042 35.822 49.3944L35.8135 49.4037Z" fill="#F4967E"/>
<path d="M33.1212 16.4899C33.1128 17.3167 33.0368 18.1621 32.9102 19.0168C32.8595 19.342 32.8004 19.6671 32.7413 19.983C31.7369 25.2132 29.3312 29.7002 26.3515 33.8714C25.9716 34.4103 25.5833 34.9398 25.1951 35.4786C25.06 35.6644 24.9334 35.8409 24.7983 36.0267C23.8107 37.3923 22.8147 38.7579 21.8018 40.1422C21.8018 40.1422 21.8018 40.1422 21.7933 40.1422C21.768 40.1793 21.7342 40.2258 21.7005 40.2629C21.4135 40.6624 21.1687 41.0804 20.983 41.5171C20.983 41.5171 20.9661 41.5078 20.9576 41.4985C20.8901 41.4613 20.831 41.4242 20.7635 41.3777C18.9318 40.2443 17.3027 38.7672 15.9437 37.0207C15.8255 36.8628 15.7073 36.7142 15.5891 36.5562C13.5042 33.7042 12.1368 30.1833 11.7822 26.3466C12.3225 26.9133 12.9809 27.3499 13.7068 27.6007C14.6353 28.0373 15.6651 28.2789 16.7456 28.2789C20.4849 28.2789 23.6081 25.3526 24.3172 21.4694C24.4185 20.9212 24.4691 20.3546 24.4691 19.7786C24.4691 19.76 24.4691 19.7321 24.4691 19.7136C24.4607 18.4315 24.1906 17.2146 23.7263 16.1276C22.4855 13.257 19.8265 11.2783 16.754 11.2783C16.5767 11.2783 16.4079 11.2783 16.2391 11.2969C16.2813 11.2504 16.3235 11.1947 16.3657 11.1482C16.5514 10.9253 16.7456 10.7023 16.9397 10.4886C19.9278 7.21857 23.9627 5.10975 28.4449 4.83105C31.3655 7.58088 33.1887 11.7799 33.1296 16.4807L33.1212 16.4899Z" fill="#9E91C5"/>
<path d="M43.4865 34.4104C43.1067 35.6181 42.6846 36.7979 42.2203 37.9499C40.5406 42.1304 38.3459 45.9114 35.8052 49.4044C32.8845 53.427 29.5081 57.0779 25.9291 60.5523C25.5999 60.8682 25.2707 61.1748 24.9331 61.4906C23.4728 62.8098 21.3625 62.7912 19.9191 61.4535C19.6068 61.1655 19.3029 60.8775 18.999 60.5895C25.8447 54.5325 30.6814 48.8563 34.041 43.6168C34.1423 43.4588 34.2436 43.3009 34.3449 43.143C39.9075 34.2711 41.199 26.7184 40.7516 20.8471C40.7516 20.7635 40.7347 20.6706 40.7263 20.587C40.7094 20.4291 40.701 20.2711 40.6841 20.1225C40.6841 20.1039 40.6841 20.076 40.6841 20.0575C40.6672 19.8995 40.6503 19.7416 40.6334 19.5837C40.6334 19.5744 40.6334 19.5558 40.6334 19.5465C40.6334 19.4908 40.6165 19.4257 40.6081 19.37C40.6081 19.3421 40.6081 19.305 40.5997 19.2771C40.5912 19.2121 40.5828 19.1378 40.5743 19.0727C40.5659 18.9891 40.549 18.9055 40.5406 18.8312C40.5153 18.6733 40.4899 18.506 40.4646 18.3481C40.4224 18.1066 40.3802 17.8743 40.338 17.6421C40.3042 17.4841 40.2789 17.3355 40.2451 17.1869C40.2283 17.1125 40.2114 17.0382 40.1945 16.9639C40.1776 16.8989 40.1607 16.8338 40.1523 16.7595C40.0679 16.3786 39.9666 16.007 39.8737 15.654C39.8315 15.5147 39.7978 15.3753 39.7556 15.236C39.7134 15.0966 39.6712 14.9573 39.6289 14.8179C39.5614 14.6136 39.4939 14.4092 39.4264 14.2048C39.3842 14.0747 39.3335 13.9447 39.2913 13.8146C39.266 13.7496 39.2407 13.6846 39.2238 13.6195C39.1985 13.5545 39.1731 13.4895 39.1563 13.4244C39.1309 13.3594 39.1056 13.3037 39.0887 13.2386C39.0634 13.1736 39.0381 13.1179 39.0128 13.0528C38.9874 12.9878 38.9621 12.9321 38.9368 12.867C38.9115 12.802 38.8861 12.7463 38.8608 12.6905C38.8102 12.5698 38.7595 12.449 38.7089 12.3375C38.6329 12.161 38.5569 11.9938 38.481 11.8266C38.4556 11.7708 38.4303 11.7151 38.405 11.6593C38.3544 11.5479 38.3037 11.4457 38.2531 11.3435C38.2277 11.2877 38.2024 11.2413 38.1771 11.1856C38.1264 11.0834 38.0758 10.9812 38.0251 10.879C37.9998 10.8325 37.9745 10.7768 37.9492 10.7304C37.8985 10.6375 37.8479 10.5353 37.7972 10.4424C37.7466 10.3495 37.6959 10.2566 37.6453 10.1637C37.5947 10.0708 37.544 9.98716 37.5018 9.90355C37.4512 9.81994 37.4005 9.73633 37.3583 9.65272C37.3161 9.58769 37.2823 9.52266 37.2401 9.45763C37.2064 9.3926 37.1642 9.32757 37.1304 9.27183C37.0966 9.2068 37.0544 9.15106 37.0207 9.09532C37.0038 9.06745 36.9785 9.03029 36.9616 9.00242C36.9278 8.94668 36.8856 8.89094 36.8518 8.8352C36.8181 8.77946 36.7843 8.72372 36.7505 8.67727C36.7168 8.62153 36.683 8.57508 36.6493 8.52863C36.6324 8.50076 36.6155 8.47289 36.5986 8.45431C36.548 8.37999 36.4973 8.31496 36.4551 8.24065C36.0415 7.65538 35.7376 7.28378 35.6279 7.15372C35.6279 7.15372 35.6279 7.14443 35.6194 7.14443L35.6026 7.12585C35.7461 7.00508 35.9402 7.02366 36.0753 7.15372C37.5693 8.64011 39.2238 9.98716 40.4477 11.7058C45.3267 18.5989 46.1032 26.3282 43.5625 34.4476L43.4865 34.4104Z" fill="#F4A86E"/>
<path d="M43.487 34.4105C43.1071 35.6182 42.6851 36.798 42.2208 37.95C40.0852 40.3747 37.3757 42.1955 34.3369 43.1431C34.1765 43.1895 34.0161 43.236 33.8557 43.2824C32.4545 43.6726 30.9942 43.877 29.4833 43.877C28.6223 43.877 27.7697 43.8119 26.9341 43.6726C27.0523 43.5147 27.1704 43.366 27.2886 43.2081C27.4068 43.0502 27.525 42.9015 27.6347 42.7436C27.7444 42.6042 27.8457 42.4556 27.9554 42.3163C27.9808 42.2884 27.9977 42.2605 28.023 42.2234C28.1158 42.1026 28.2002 41.9818 28.2847 41.8518C28.3184 41.8146 28.3437 41.7681 28.3775 41.731C28.5801 41.443 28.7827 41.1643 28.9768 40.8763C28.9853 40.8577 29.0021 40.8484 29.0106 40.8299C29.1203 40.6719 29.2216 40.5233 29.3313 40.3654C29.4242 40.2353 29.517 40.096 29.6015 39.9659C29.7365 39.7615 29.8716 39.5664 29.9982 39.362C30.091 39.2227 30.1839 39.0834 30.2767 38.9347C30.3611 38.8047 30.4456 38.6653 30.5384 38.5352C30.5891 38.4609 30.6397 38.3773 30.6819 38.303C30.7916 38.1358 30.8929 37.9686 30.9942 37.792C31.0702 37.6713 31.1462 37.5412 31.2221 37.4204C31.2221 37.4204 31.2221 37.4112 31.2306 37.4019C31.315 37.2625 31.3994 37.1232 31.4838 36.9745C31.5091 36.9374 31.526 36.9002 31.5513 36.8631C31.6442 36.7051 31.737 36.5472 31.8299 36.3893C31.9227 36.222 32.024 36.0548 32.1169 35.8876C32.1675 35.804 32.2182 35.7111 32.2688 35.6182C32.3195 35.5346 32.3617 35.451 32.4123 35.3581C32.5136 35.1816 32.6065 35.0144 32.6993 34.8378C32.7415 34.7542 32.7922 34.6706 32.8344 34.587C32.885 34.5034 32.9272 34.4105 32.9779 34.3269C33.0792 34.1411 33.172 33.9553 33.2733 33.7695C33.3155 33.6952 33.3493 33.6209 33.3915 33.5465C33.4337 33.4629 33.4843 33.37 33.5265 33.2864C33.6532 33.0449 33.7713 32.8033 33.8895 32.5525C33.9402 32.441 33.9992 32.3296 34.0499 32.2181C34.1174 32.0694 34.1934 31.9301 34.2609 31.7815C34.3116 31.67 34.3622 31.5678 34.4129 31.4563C34.4635 31.3541 34.5141 31.2426 34.5563 31.1404C34.5563 31.1219 34.5732 31.1033 34.5817 31.0847C34.6323 30.9825 34.6745 30.8803 34.7252 30.7688C34.7505 30.7131 34.7758 30.6481 34.8011 30.5923C34.9024 30.3694 35.0037 30.1464 35.0966 29.9142C35.1472 29.8027 35.1979 29.6819 35.2485 29.5704C35.2992 29.4497 35.3498 29.3382 35.4005 29.2174C35.4427 29.1245 35.4764 29.0316 35.5186 28.9387C35.544 28.8644 35.5777 28.7994 35.603 28.7251C35.7043 28.4649 35.8056 28.2141 35.9069 27.954C35.9407 27.8704 35.9744 27.7868 35.9998 27.7032C36.0589 27.5545 36.1179 27.3966 36.1686 27.248C38.6503 20.6056 39.2749 14.0005 35.4258 7.62758C35.316 7.44179 35.3498 7.19096 35.5186 7.07019C35.6621 6.94942 35.8563 6.968 35.9913 7.09806C37.4854 8.58445 39.1398 9.93149 40.3638 11.6501C45.2427 18.5433 46.0193 26.2725 43.4785 34.3919L43.487 34.4105Z" fill="#F4C254"/>
<path d="M32.8343 6.89314C34.5638 6.89314 35.9659 5.35006 35.9659 3.44657C35.9659 1.54308 34.5638 0 32.8343 0C31.1047 0 29.7026 1.54308 29.7026 3.44657C29.7026 5.35006 31.1047 6.89314 32.8343 6.89314Z" fill="#F4C254"/>
<path d="M72.4985 43.2822H64.4879C62.901 43.2822 61.6095 41.8701 61.6095 40.1143V39.3618C61.6095 37.6153 62.901 36.194 64.4879 36.194H70.5317C71.3252 36.194 72.0427 35.8409 72.566 35.265C73.0894 34.689 73.4101 33.8993 73.4101 33.0261C73.4101 31.2796 72.1271 29.8582 70.5317 29.8582H64.4879C62.901 29.8582 61.6095 28.4368 61.6095 26.6903V26.3652C61.6095 24.6187 62.901 23.1973 64.4879 23.1973H72.4985C73.2919 23.1973 74.0094 22.8443 74.5328 22.2683C75.0561 21.6923 75.3769 20.9027 75.3769 20.0294C75.3769 18.2829 74.0854 16.8616 72.4985 16.8616H58.0137C56.4267 16.8616 55.1353 18.2736 55.1353 20.0294V46.4129C55.1353 48.1594 56.4267 49.5808 58.0137 49.5808H72.4985C73.2919 49.5808 74.0094 49.2278 74.5328 48.6518C75.0561 48.0758 75.3769 47.2862 75.3769 46.4129C75.3769 44.6664 74.0854 43.245 72.4985 43.245V43.2822Z" fill="#F9F9F9"/>
<path d="M114.206 16.8987C112.796 16.8987 111.589 17.9949 111.31 19.5092L108.93 32.5987L107.352 41.6936H107.225L105.393 32.5987L102.599 19.407C102.287 17.9392 101.097 16.8987 99.7294 16.8987H97.349C95.9731 16.8987 94.7829 17.9484 94.4706 19.4163L91.7188 32.5987L89.8449 41.6936H89.7183L88.1398 32.5987L85.8016 19.5184C85.5315 17.9949 84.316 16.8987 82.9064 16.8987H82.6362C80.7455 16.8987 79.3442 18.831 79.7579 20.8655L85.1517 47.091C85.4556 48.5681 86.6542 49.6179 88.0301 49.6179H90.7397C92.1155 49.6179 93.3057 48.5774 93.6096 47.1096L96.8256 31.9019L98.3197 24.7301H98.4463L99.8898 31.9019L103.106 47.1096C103.418 48.5774 104.608 49.6179 105.984 49.6179H108.668C110.044 49.6179 111.235 48.5774 111.547 47.1096L117.076 20.8841C117.126 20.6332 117.152 20.3917 117.152 20.1409C117.152 18.3944 115.869 16.8987 114.197 16.8987H114.206Z" fill="#F9F9F9"/>
<path d="M145.969 48.54L137.857 21.0975C137.486 19.8434 136.768 18.7936 135.848 18.0597C134.928 17.3258 133.797 16.8984 132.607 16.8984C130.226 16.8984 128.108 18.5799 127.365 21.0696L119.143 48.54C118.983 49.0695 119.346 49.6083 119.844 49.6083H124.824C125.153 49.6083 125.44 49.3761 125.533 49.0231L127.348 42.4086C127.441 42.0649 127.728 41.8327 128.057 41.8327H136.878C137.207 41.8327 137.494 42.0649 137.587 42.4086L139.393 49.0231C139.486 49.3668 139.773 49.6083 140.103 49.6083H145.26C145.766 49.6083 146.121 49.0695 145.961 48.54H145.969ZM134.861 35.7849H130.024C129.526 35.7849 129.171 35.2647 129.315 34.7444L132.32 23.3642H132.531L135.57 34.7351C135.705 35.2554 135.35 35.7849 134.861 35.7849Z" fill="#F9F9F9"/>
<path d="M138.634 13.3404L139.031 13.0339C139.436 12.718 140.002 12.8295 140.289 13.2754L142.542 16.722C142.838 17.1772 142.737 17.8182 142.315 18.134C141.943 18.4127 141.445 18.3477 141.141 17.9854L138.491 14.8361C138.111 14.3902 138.187 13.6841 138.643 13.3311L138.634 13.3404Z" fill="#F9F9F9"/>
</svg>
