<svg width="167" height="83" viewBox="0 0 167 83" fill="none" xmlns="http://www.w3.org/2000/svg">
<path d="M35.1417 34.4042C35.1982 33.5395 35.5371 32.4982 36.3173 31.6335C36.8187 31.0793 37.4435 30.9275 38.1532 31.1534C38.9228 31.4005 39.4206 31.8735 39.4594 32.7312C39.5124 33.9313 39.057 34.9443 38.3191 35.8514C37.7189 36.5856 36.9316 36.8821 36.282 36.6491C35.4983 36.3703 35.1346 35.742 35.1417 34.4042Z" fill="#EE524D"/>
<path d="M39.0788 36.239C39.1741 35.3037 39.4601 34.2836 40.1838 33.4365C40.7628 32.7623 41.4371 32.5964 42.2209 32.8964C43.0611 33.2212 43.4953 33.793 43.4459 34.6754C43.3753 35.9143 42.8846 36.9944 41.9843 37.8591C41.423 38.4027 40.7593 38.5721 40.0143 38.2439C39.4071 37.9756 39.0611 37.2873 39.0788 36.239Z" fill="#EE524D"/>
<path d="M0 61.618C0.0811999 60.8697 0.176522 60.1249 0.236539 59.3766C0.589582 54.961 1.51102 50.6549 2.842 46.444C3.65753 43.8673 4.64252 41.3436 5.59926 38.8128C5.81815 38.2375 6.17472 37.6869 6.57366 37.2174C7.07852 36.6209 7.77048 36.4974 8.26827 36.7762C8.77312 37.0586 9.05203 37.7857 8.91434 38.4987C8.80843 39.0493 8.68133 39.5964 8.66368 40.1929C8.90375 39.84 9.10498 39.4482 9.39801 39.1446C10.2806 38.2234 11.1032 37.2033 12.127 36.4691C14.1111 35.0502 16.533 35.4914 18.0829 37.3904C19.5127 39.1411 19.9116 41.2165 19.7139 43.3802C19.5762 44.8733 19.1632 46.3381 18.8702 47.817C18.8313 48.0147 18.7642 48.2053 18.7078 48.3994C18.7678 48.4418 18.8243 48.4841 18.8843 48.5265C20.0317 47.2487 21.2214 46.0063 22.2982 44.6721C22.6407 44.245 22.6512 43.5638 22.856 43.0167C24.5718 38.4175 26.2982 33.8254 28.0246 29.2298C28.4835 28.0121 28.9531 26.7979 29.412 25.6048C27.5939 24.9766 25.7933 24.3624 23.9963 23.7235C23.4844 23.54 22.9725 23.3317 22.4959 23.0705C21.2744 22.4034 20.5895 21.3728 20.5789 19.9644C20.5683 18.7608 21.1896 18.3584 22.3406 18.7079C25.0484 19.5338 27.7704 20.3209 30.4782 21.1539C30.9654 21.3022 31.149 21.1681 31.2973 20.7198C31.5409 19.9856 31.7951 19.2479 32.1305 18.549C32.72 17.3243 33.9133 16.8336 35.0607 17.2713C36.2187 17.7125 36.7659 18.835 36.4129 20.1621C36.2328 20.8433 35.9574 21.5034 35.6962 22.2552C36.8365 22.4176 37.931 22.6717 39.0324 22.7105C41.2143 22.7846 43.3996 22.7705 45.5849 22.7282C46.3122 22.7141 47.1454 22.6117 47.4384 21.7963C47.7314 20.9845 47.1419 20.3915 46.6193 19.8868C44.9141 18.249 42.8135 17.3878 40.5329 16.9113C40.1869 16.8372 39.8303 16.7525 39.5196 16.5901C38.8912 16.2583 38.8806 15.5453 39.502 15.1923C39.7632 15.0441 40.0986 14.9453 40.3987 14.9559C43.6538 15.0723 46.6652 15.93 49.186 18.0902C50.4569 19.1809 51.3819 20.4939 51.6078 22.2305C51.8514 24.1012 51.1312 25.6296 49.4437 26.5296C47.8444 27.3838 46.0968 27.5956 44.321 27.6873C40.9106 27.8674 37.5744 27.3167 34.2452 26.6849C34.164 26.6708 34.0828 26.6602 33.938 26.639C33.5144 27.705 33.0872 28.7674 32.6706 29.8369C30.57 35.2338 28.4412 40.6165 26.4041 46.0345C25.8992 47.3758 25.6874 48.83 25.352 50.2348C25.3132 50.3972 25.3132 50.5701 25.3238 50.736C25.3626 51.4031 25.585 51.5549 26.1393 51.1949C29.5956 48.95 32.0351 46.031 32.3846 41.7319C32.4411 41.0401 32.5223 40.3518 32.6388 39.6705C32.7977 38.7564 33.2355 38.5093 34.1181 38.767C36.3317 39.4164 37.2461 41.1036 36.5682 43.5073C35.6609 46.7228 33.8321 49.3912 31.4385 51.682C30.2064 52.8609 28.7695 53.7327 27.1243 54.2022C26.5065 54.3786 25.8463 54.4916 25.2037 54.4987C23.7457 54.5128 22.8701 53.8986 22.3759 52.5291C22.1429 51.8832 21.984 51.1949 21.9028 50.5137C21.8251 49.8324 21.8851 49.1336 21.8851 48.2476C21.4156 48.8018 21.0661 49.2218 20.706 49.6348C18.7289 51.8938 16.3177 53.4821 13.3909 54.2092C11.7705 54.6116 10.3689 54.0186 9.13323 52.988C7.96112 52.0067 7.17031 50.7572 6.55601 49.3242C6.34772 50.5137 6.07234 51.6926 5.94878 52.8927C5.61692 56.0658 5.34507 59.2425 5.0697 62.4228C5.02027 62.984 5.03793 63.5628 5.10147 64.124C5.36626 66.4219 3.2833 67.0643 1.69814 66.3654C0.864956 65.9983 0.321269 65.37 0.00353043 64.5264V61.618H0ZM14.0582 41.4707C14.0229 41.1812 13.977 40.7859 13.9205 40.3941C13.8993 40.2494 13.8569 40.1082 13.804 39.9741C13.578 39.3988 13.105 39.0952 12.5613 39.3458C12.007 39.6035 11.4492 39.96 11.0432 40.4082C9.81813 41.7636 9.11557 43.4367 8.31064 45.0533C7.71046 46.2604 7.86227 47.3511 8.38124 48.4771C8.73076 49.2324 9.13323 50.0089 10.0547 50.1113C11.0326 50.2172 11.541 49.4618 12.0141 48.7559C13.4686 46.5852 13.8817 44.1214 14.0582 41.4707Z" fill="#EE524D"/>
<path d="M67.029 51.0175C66.1676 51.7834 65.3803 52.5776 64.4942 53.2412C63.4562 54.0177 62.2594 54.5048 60.932 54.533C58.9549 54.5718 57.4616 53.5412 56.7484 51.6881C56.6496 51.434 56.5613 51.1763 56.4448 50.8551C56.1165 51.2293 55.834 51.5857 55.5163 51.9105C54.203 53.2659 52.7237 54.3495 50.7749 54.5683C48.0494 54.8789 46.1395 53.3647 45.7546 50.6221C45.3628 47.8337 45.8782 45.1371 46.6408 42.4792C48.3001 36.6906 50.729 31.2478 54.0159 26.1934C54.8349 24.9333 55.9929 24.3473 57.4969 24.4744C58.7996 24.5874 59.2197 25.3815 58.5701 26.511C55.8411 31.2584 53.564 36.207 51.8799 41.4203C51.1562 43.6617 50.616 45.9489 50.4572 48.3102C50.4219 48.8467 50.4501 49.4044 50.5631 49.9303C50.6937 50.5551 51.1774 50.8163 51.8093 50.6822C52.9391 50.4421 53.7299 49.6691 54.4819 48.875C54.8702 48.4655 55.188 47.9855 55.5551 47.5549C56.24 46.7536 56.4201 45.7724 56.6284 44.7806C57.0485 42.7828 57.6098 40.8273 58.6548 39.0519C58.969 38.5189 59.3786 38.0107 59.8375 37.6012C60.4377 37.0647 61.1897 36.7435 61.984 37.1777C62.8208 37.633 62.9726 38.4766 62.849 39.3131C62.7254 40.1355 62.4783 40.9438 62.2206 41.738C61.518 43.9193 60.8719 46.1077 60.7872 48.4196C60.7802 48.5679 60.7802 48.7161 60.7978 48.8608C60.9779 50.4986 62.0405 51.1128 63.4421 50.2445C65.398 49.0303 66.7784 47.336 67.2514 45.0065C68.0211 41.2015 69.3026 37.5553 70.9796 34.0716C72.2682 31.389 73.7651 28.8018 75.2373 26.2145C75.9893 24.8944 77.232 24.3297 78.7606 24.485C80.0281 24.6121 80.4341 25.3921 79.7986 26.4934C77.1402 31.1102 74.916 35.9246 73.239 40.9826C72.3988 43.5169 71.7633 46.1042 71.6504 48.7938C71.6433 49.002 71.6398 49.2173 71.6574 49.4256C71.7492 50.5551 72.4729 51.0563 73.4826 50.541C75.4173 49.5491 76.9213 48.0808 77.4791 45.9277C79.269 39.0484 81.7403 32.4479 85.3802 26.3169C86.2275 24.8874 87.562 24.252 89.0907 24.5026C90.2451 24.6932 90.6158 25.438 90.0298 26.4475C88.2681 29.4865 86.7324 32.6315 85.5038 35.9246C85.4755 36.0023 85.4543 36.0835 85.3979 36.2529C85.6062 36.1964 85.7544 36.1647 85.8921 36.1152C91.0642 34.2022 96.4587 37.0329 97.8779 42.4051C99.1877 47.3607 96.5399 52.5599 91.8621 54.233C89.7791 54.9777 87.7138 54.6813 85.6591 54.1342C84.2469 53.7565 82.9195 53.1812 81.8251 52.1646C81.2214 53.4706 80.3387 54.0036 78.923 53.9471C77.6238 53.8977 77.0095 53.4494 76.5647 52.2846C75.6856 52.8564 74.8207 53.4882 73.8957 54.0106C72.7942 54.6283 71.5762 54.7448 70.3441 54.5118C68.7801 54.2153 67.7634 53.2729 67.2479 51.7763C67.1702 51.5187 67.1032 51.2575 67.029 51.0175ZM94.0721 44.9217C94.0757 42.9804 92.9953 41.4133 91.2372 40.8097C88.5541 39.8884 85.3626 41.5968 84.4694 44.53C84.1198 45.6842 83.9927 46.9125 83.8198 48.1126C83.7915 48.3137 83.9786 48.6526 84.1622 48.755C85.0236 49.2279 85.878 49.7644 86.803 50.0539C90.3934 51.1728 94.0651 48.5502 94.0721 44.9217Z" fill="#EE524D"/>
<path d="M53.5742 59.5069C53.6413 58.6174 53.9449 57.5868 54.711 56.7361C55.2794 56.1079 55.9396 55.9596 56.7057 56.2667C57.5283 56.5914 57.8849 57.0785 57.8849 57.9327C57.8884 59.1187 57.4577 60.1493 56.6598 61.0141C55.9926 61.7377 55.2512 61.9494 54.5804 61.6635C53.8814 61.3635 53.553 60.7317 53.5742 59.5069Z" fill="#EE524D"/>
<path d="M126.612 0.000223387C127.198 0.151999 127.788 0.289656 128.37 0.45555C130.005 0.932054 131.364 1.8533 132.561 3.04632C143.032 13.5047 153.517 23.949 163.978 34.418C168.042 38.4877 168.003 44.5446 163.929 48.646C160.13 52.4687 156.307 56.2666 152.494 60.0786C145.867 66.7003 139.237 73.3184 132.614 79.9435C130.905 81.6519 128.903 82.7743 126.467 82.9579C122.255 83.2755 118.976 81.6448 116.84 77.9952C113.814 72.8242 111.565 67.3144 109.941 61.5505C108.603 56.8066 107.756 51.9816 107.392 47.0612C106.284 32.0743 109.497 18.058 116.854 4.97705C118.411 2.20979 120.826 0.589677 123.985 0.113173C124.105 0.0955243 124.222 0.03552 124.338 -0.00683594H126.612V0.000223387ZM110.224 39.4301C110.227 43.3904 110.538 47.3295 111.216 51.2297C112.776 60.2269 115.95 68.6169 120.804 76.3609C123.579 80.7871 129.316 81.3095 132.85 77.4481C136.928 72.9901 141.002 68.5286 145.076 64.0707C150.668 57.9467 156.278 51.8368 161.842 45.6882C164.783 42.4374 164.465 37.8806 161.217 34.9368C155.65 29.8894 150.104 24.8173 144.547 19.7557C139.41 15.0789 134.291 10.381 129.129 5.73239C125.793 2.72865 119.964 3.80873 117.931 7.78666C112.857 17.7227 110.27 28.2693 110.224 39.4301Z" fill="#EE524D"/>
<path d="M124.984 19.752C126.506 19.6002 127.961 19.4555 129.514 19.3037C129.316 23.3381 129.119 27.3125 128.924 31.2657C129.45 30.5598 129.934 29.7974 130.527 29.1338C132.487 26.956 135.025 25.8301 137.846 25.2688C139.558 24.9265 141.277 24.6794 143.032 24.8806C145.426 25.1488 147.611 26.3419 148.261 28.6361C148.804 30.5633 148.169 32.1905 146.954 33.6377C145.362 35.5366 143.251 36.5532 140.854 36.9873C137.75 37.5485 134.665 37.2273 131.593 36.6838C130.728 36.532 129.878 36.3202 129.02 36.1296C128.67 36.052 128.434 36.0625 128.363 36.5249C128.176 37.7356 127.932 38.9357 127.632 40.1534V35.8014C124.352 35.0601 121.267 33.6094 117.849 33.9695C115.929 34.1742 114.778 35.0778 114.993 37.1638C115.089 38.085 115.463 38.9392 116.13 39.5604C116.956 40.3334 117.895 40.9829 118.739 41.65C117.775 41.7171 116.787 41.3465 115.826 40.8347C113.214 39.4404 111.996 36.3661 113.115 33.8883C113.934 32.074 115.484 31.1775 117.327 30.6833C119.646 30.0621 121.955 30.3021 124.264 30.7363C125.454 30.9587 126.64 31.1881 127.936 31.4352C126.937 27.5031 125.966 23.6558 124.984 19.752ZM130.552 31.9081C133.546 32.5682 136.501 32.9247 139.487 32.6635C140.977 32.5329 142.414 32.0917 143.586 31.0681C144.843 29.9668 144.681 29.0279 143.099 28.5408C140.179 27.6337 137.292 27.8702 134.467 28.9679C132.921 29.5644 131.622 30.5316 130.552 31.9081Z" fill="#EE524D"/>
<g clip-path="url(#clip0_659_76)">
<path d="M144 44.8239C142.589 47.8978 141.181 50.9716 139.766 54.0454C138.522 56.7402 137.249 59.4184 136.034 62.1257C135.511 63.2878 134.669 64.0042 133.412 64C132.156 63.9958 131.314 63.2711 130.803 62.109C126.582 52.4919 122.343 42.883 118.113 33.2741C118.067 33.1658 118.046 33.0451 118 32.891C119.671 32.262 121.309 31.6414 123.009 31C123.662 32.9534 124.303 34.8527 124.931 36.752C127.603 44.8406 130.267 52.9292 132.952 61.0136C133.048 61.3094 133.316 61.5509 133.505 61.8133C133.773 61.5926 134.129 61.4218 134.292 61.1427C137.391 55.8781 140.465 50.6009 143.543 45.3279C143.657 45.1363 143.77 44.9489 143.883 44.7573C143.92 44.7823 143.958 44.8031 144 44.8239Z" fill="#EE524D"/>
</g>
<defs>
<clipPath id="clip0_659_76">
<rect width="26" height="33" fill="white" transform="translate(118 31)"/>
</clipPath>
</defs>
</svg>
