<svg width="191" height="60" viewBox="0 0 191 60" fill="none" xmlns="http://www.w3.org/2000/svg">
<path d="M28.0259 22.6345C27.8153 22.4959 27.8284 22.3776 28.061 22.2797C28.0873 22.2675 28.1005 22.239 28.0873 22.2104C28.0829 22.2022 28.0785 22.1941 28.0698 22.19C27.8811 22.0636 27.7846 21.8923 27.7846 21.6761C27.7846 21.3907 27.7802 21.2357 27.7802 21.2194C27.7363 20.7708 27.8284 20.3548 28.0566 19.9714C28.2936 19.5758 28.412 19.3719 28.4164 19.3637C28.5305 19.1272 28.6446 18.8866 28.7543 18.65C28.9254 18.2748 29.0483 17.9159 29.1185 17.5774C29.3774 16.3132 29.3774 15.0693 29.1229 13.8376C28.864 12.606 28.3418 11.4926 27.552 10.4894C26.4594 9.10681 25.0465 8.11579 23.3044 7.51627C21.9661 7.05543 20.6321 6.88414 19.2982 7.00241C17.7843 7.13699 16.3144 7.61415 14.8927 8.44205C14.7084 8.54809 14.5021 8.52362 14.2696 8.36864C14.2432 8.35233 14.2081 8.3564 14.1906 8.38495C14.1862 8.39311 14.1818 8.39719 14.1818 8.40534C14.1599 8.54809 14.0897 8.56848 13.9756 8.46652C13.7342 8.42981 13.6772 8.34825 13.8001 8.22182C13.8352 8.18919 13.8571 8.1321 13.8703 8.06277C13.8834 7.97712 13.958 7.92003 14.0941 7.88332C14.2784 7.83438 14.3968 7.72835 14.4451 7.56114C14.4626 7.50404 14.5021 7.4551 14.5592 7.42655L16.6479 6.31725C21.3869 5.16309 25.2834 6.26831 28.3462 9.62884C29.2238 10.5913 29.8688 11.6639 30.2901 12.8507C30.6938 13.9926 30.8649 15.1916 30.8035 16.4396C30.685 18.7561 29.7635 20.8197 28.0259 22.6345Z" fill="#2EAAF2"/>
<path d="M16.6391 6.31348L14.5504 7.42278C14.4933 7.45132 14.4538 7.50026 14.4363 7.55736C14.388 7.72457 14.2695 7.83061 14.0852 7.87955C13.9492 7.91625 13.8746 7.97335 13.8615 8.05899C13.8483 8.12424 13.8264 8.18134 13.7913 8.21804C13.6684 8.34447 13.7298 8.42604 13.9668 8.46274C14.0809 8.5647 14.1467 8.54431 14.173 8.40157C14.1774 8.37302 14.2081 8.35263 14.2388 8.35671C14.2476 8.35671 14.2564 8.36079 14.2608 8.36486C14.4933 8.51984 14.6996 8.54431 14.8839 8.43827C16.3056 7.61038 17.7755 7.12914 19.2894 6.99863C20.6233 6.88444 21.9573 7.05573 23.2956 7.51658C25.0333 8.11201 26.4506 9.10304 27.5432 10.4897C28.333 11.4929 28.8552 12.6063 29.1141 13.8379C29.3686 15.0655 29.3686 16.3135 29.1097 17.5778C29.0395 17.9162 28.921 18.2751 28.7455 18.6503C28.6358 18.891 28.5261 19.1275 28.4076 19.364C28.4032 19.3722 28.2847 19.5761 28.0478 19.9717C27.8196 20.3551 27.7275 20.7711 27.7714 21.2197C27.7714 21.236 27.7757 21.3869 27.7757 21.6764C27.7757 21.8926 27.8723 22.0639 28.061 22.1903C28.0873 22.2066 28.0917 22.2393 28.0741 22.2596C28.0697 22.2678 28.061 22.276 28.0522 22.276C27.8196 22.3738 27.8065 22.4921 28.0171 22.6308L26.7182 23.8379C26.5208 24.0174 26.4242 24.2132 26.4286 24.4171C26.4988 28.3037 26.4594 32.2433 26.3145 36.2441L26.218 35.0207C26.2136 34.9717 26.1654 34.9309 26.1039 34.9269C25.9635 34.9187 25.8714 34.8616 25.8231 34.7637C25.6476 34.3885 25.3667 34.2213 24.9806 34.2702C24.9236 34.2784 24.8665 34.3151 24.8358 34.3722C24.6734 34.6618 24.5857 34.6087 24.5725 34.2132C24.5725 34.1601 24.5681 34.1601 24.5637 34.2172C24.5155 34.7393 24.4672 35.2654 24.4146 35.7874C24.3487 36.4562 24.2259 36.966 24.046 37.3167C23.594 38.214 22.8393 38.8053 21.7774 39.0867C20.5882 39.4048 19.3596 39.3437 18.0915 38.895C18.9647 39.05 19.8335 39.0949 20.7067 39.0378C22.2425 38.9358 23.2956 38.2955 23.8661 37.1169C24.046 36.7458 24.1557 36.2768 24.2039 35.7017C24.239 35.2817 24.2654 34.7964 24.2785 34.2458C24.3531 31.4032 24.3487 28.8787 24.2697 26.6683C24.2697 26.6112 24.2215 26.5663 24.1644 26.5663L22.7471 26.599C22.6901 26.599 22.6462 26.6479 22.6462 26.7091L22.5497 33.4016C22.5277 33.1609 22.4882 32.9244 22.4268 32.696C22.4224 32.6756 22.3829 32.5125 22.3127 32.2066C22.2293 31.8477 22.0494 31.5419 21.7686 31.2931C21.5316 31.0769 21.4088 30.9668 21.4 30.9627C20.9349 30.4897 20.4566 30.0329 19.9608 29.5924C19.9169 29.5516 19.8554 29.5231 19.7896 29.5068C19.3596 29.4293 19.0437 29.2825 18.8418 29.0745C18.4513 28.6626 18.1266 28.3934 17.8721 28.267C17.7141 28.1854 17.5869 28.0753 17.4991 27.9366C17.4596 27.8755 17.4289 27.8795 17.4113 27.9407L17.3718 28.0631C17.3631 28.0998 17.3718 28.1406 17.3982 28.1813C17.543 28.3893 17.5254 28.422 17.3499 28.2792C17.3236 28.2588 17.3104 28.267 17.306 28.2996C17.2972 28.3893 17.2446 28.4464 17.1524 28.4709L17.0735 26.6846C17.0691 26.5826 16.9638 26.5052 16.8409 26.5052L15.6649 26.5337C15.7307 26.4644 15.7658 26.3869 15.7658 26.3012C15.7658 26.2401 15.7307 26.187 15.6737 26.1544L14.388 25.4203C14.3266 25.3836 14.2827 25.3388 14.2564 25.2898C14.0194 24.8208 13.7123 24.4048 13.3393 24.0419C12.2423 23.2384 11.3691 22.3698 10.7241 21.4399C9.40327 19.5272 8.83284 17.4269 9.02152 15.143C9.17071 13.32 9.81574 11.6724 10.961 10.2042C12.4047 8.34855 14.2959 7.05573 16.6391 6.31348Z" fill="#26A2EB"/>
<path d="M32.5022 17.084L32.6163 17.3817C32.647 17.4551 32.6558 17.5204 32.647 17.5571L32.059 19.8817C31.3438 21.8311 30.159 23.491 28.5135 24.8572C28.4652 24.898 28.4301 24.9551 28.4214 25.0163C28.3599 25.3589 28.3292 25.7993 28.3248 26.3336C28.2941 30.3752 28.2941 32.8874 28.3248 33.8744C28.3512 34.6411 28.3073 35.3181 28.202 35.9054L28.0791 36.199L28.1712 25.0938C28.1712 24.9551 28.2327 24.8246 28.3424 24.7349C30.7251 22.6917 32.1117 20.1427 32.5022 17.084Z" fill="#4492C2"/>
<path d="M15.6694 26.5298C15.4983 26.5787 15.4237 26.6807 15.4412 26.8397C15.4544 26.9743 15.4632 27.0477 15.4632 27.0599C15.4324 29.7435 15.4719 32.4229 15.5772 35.1024C15.6123 35.971 15.7352 36.6195 15.9546 37.0477C16.3759 37.8878 17.0955 38.5037 18.1091 38.8993C19.3772 39.3438 20.6059 39.409 21.795 39.0909C22.8569 38.8095 23.6116 38.2182 24.0636 37.321C24.2391 36.9702 24.362 36.4604 24.4322 35.7916C24.4848 35.2696 24.5375 34.7435 24.5814 34.2214C24.5858 34.1643 24.5902 34.1643 24.5902 34.2174C24.6033 34.613 24.6911 34.666 24.8534 34.3764C24.8842 34.3193 24.9412 34.2826 24.9982 34.2745C25.3844 34.2255 25.6652 34.3886 25.8407 34.7639C25.889 34.8658 25.9811 34.9188 26.1216 34.9311C26.183 34.9351 26.2313 34.9759 26.2356 35.0249L26.3322 36.2484C26.1654 37.3332 25.7881 38.2304 25.2045 38.94C24.6955 39.5559 23.9583 39.9963 22.9885 40.2573C21.2421 40.7304 19.5133 40.7875 17.7976 40.4286C16.762 40.2125 15.9458 39.8821 15.3491 39.4457C14.6163 38.9074 14.0985 38.1896 13.7957 37.2924C13.5281 36.5053 13.392 35.7019 13.3876 34.874C13.3657 31.2769 13.3525 27.6676 13.3525 24.042C13.7255 24.405 14.0327 24.8209 14.2696 25.29C14.296 25.3389 14.3398 25.3878 14.4013 25.4205L15.6869 26.1546C15.744 26.1872 15.7791 26.2443 15.7791 26.3014C15.7703 26.3829 15.7352 26.4604 15.6694 26.5298Z" fill="#1999E2"/>
<path d="M22.5494 33.4019C22.5845 34.3399 22.5714 35.1148 22.5055 35.7265C22.4573 36.1915 22.2686 36.583 21.9395 36.9011C21.6587 37.1743 21.2725 37.3497 20.7767 37.4394C20.2194 37.5373 19.6665 37.5292 19.118 37.419C18.5081 37.2967 18.0473 37.0398 17.7402 36.6523C17.4155 36.2404 17.2443 35.7306 17.2312 35.123C17.1566 31.9704 17.1303 29.7518 17.1478 28.4712C17.24 28.4468 17.2926 28.3897 17.3014 28.3C17.3058 28.2673 17.3189 28.2592 17.3453 28.2796C17.5208 28.4223 17.5383 28.3897 17.3935 28.1817C17.3672 28.1409 17.3584 28.1001 17.3672 28.0634L17.4067 27.9411C17.4243 27.8758 17.455 27.8758 17.4945 27.937C17.5822 28.0756 17.7095 28.1858 17.8674 28.2673C18.1219 28.3938 18.4423 28.6629 18.8372 29.0748C19.039 29.2828 19.355 29.4296 19.785 29.5071C19.8508 29.5194 19.9122 29.5479 19.9561 29.5928C20.452 30.0373 20.9302 30.4941 21.3954 30.9631C21.3998 30.9672 21.5226 31.0773 21.764 31.2934C22.0448 31.5463 22.2247 31.8481 22.3081 32.207C22.3783 32.5128 22.4178 32.676 22.4222 32.6964C22.488 32.9247 22.5275 33.1613 22.5494 33.4019Z" fill="#1999E2"/>
<path d="M0.00877596 12.5781L0.162355 19.3032C0.162355 19.3685 0.171131 19.3685 0.179907 19.2992C0.215011 19.0504 0.232563 18.8016 0.228175 18.5528C0.223787 18.0757 0.228175 18.0594 0.232563 18.5039C0.250115 19.4093 0.272055 20.3106 0.307159 21.2078C0.311547 21.4158 0.315935 21.3506 0.311547 21.0202C0.307159 20.751 0.32471 20.4533 0.36859 20.1271C0.41247 19.7967 0.460738 19.7967 0.513394 20.1271C0.561661 20.4166 0.715241 20.5879 0.974132 20.6369C1.27251 20.6939 1.42609 20.7266 1.43926 20.7307C2.00092 20.9468 2.47921 21.2771 2.87413 21.7217C3.07159 21.946 3.74295 22.3661 4.8926 22.9778C5.92816 23.5324 6.74432 24.0789 7.34548 24.6132C7.521 24.7682 7.71846 24.915 7.93347 25.0455C8.14409 25.176 8.34594 25.3147 8.53901 25.4696C8.6882 25.5879 8.78474 25.7021 8.82423 25.8041C8.84617 25.8652 8.89005 25.9101 8.93832 25.9346C9.21037 26.061 9.49998 26.2731 9.80275 26.5708C10.1055 26.8685 10.5575 27.1295 11.1586 27.3497C11.1981 27.3661 11.2464 27.3538 11.2815 27.3171C11.3517 27.2437 11.3868 27.2804 11.3868 27.4231C11.3868 27.4884 11.4175 27.5822 11.479 27.7046C11.5009 27.7494 11.5184 27.7494 11.5272 27.6964L11.6325 26.8073C11.6369 29.132 11.6545 31.4566 11.6896 33.7812C11.7115 35.1026 11.7598 36.0488 11.8432 36.6279C12.0538 38.1409 12.7076 39.3848 13.8002 40.3595C14.4496 40.9386 15.257 41.3832 16.2224 41.6891C17.1131 41.9745 18.0521 42.1377 19.0394 42.1785C20.3427 42.2355 21.5889 42.1662 22.7692 41.9745C23.7829 41.8073 24.6824 41.4607 25.4678 40.9305C26.2138 40.4289 26.8106 39.7478 27.2581 38.8913C27.7013 38.0553 27.9734 37.1621 28.0787 36.2037L28.2015 35.9101C28.1884 37.6882 27.5609 39.2217 26.3147 40.5104C26.284 40.539 26.2928 40.5961 26.3235 40.6409C26.3674 40.7021 26.3498 40.7755 26.2708 40.8652C26.1875 40.959 26.2796 41.167 26.4727 41.3383C26.6701 41.5137 26.8676 41.6891 27.0651 41.8603C27.2143 41.9909 27.438 42.1295 27.732 42.2845C28.0743 42.4639 28.3727 42.6923 28.636 42.9737C28.8641 43.2225 29.1318 43.4101 29.4346 43.5447C30.0006 43.7894 30.2946 43.9199 30.3209 43.9362C30.672 44.1442 31.0625 44.393 31.4925 44.6785C31.9533 44.9843 32.2078 45.384 32.256 45.8775C32.2604 45.8979 32.2736 45.9142 32.2955 45.9183C32.4184 45.9346 32.4184 45.955 32.2999 45.9794C31.339 46.1507 30.3692 46.2568 29.3907 46.2975C21.1896 46.3179 12.9928 46.3057 4.79606 46.2649C3.82193 46.2608 3.08475 46.167 2.58452 45.9917C1.46559 45.5961 0.693301 44.8742 0.272055 43.8302C0.0921476 43.3652 0 42.7005 0 41.8196C0 32.0724 0 22.3253 0.00877596 12.5781Z" fill="#1193DD"/>
<path d="M6.43351 0.0248003L4.20003 0.302125C4.13421 0.310282 4.08595 0.351065 4.09033 0.400004L4.12544 0.758895C4.12983 0.803756 4.18248 0.836383 4.24391 0.832304H4.2483C4.48086 0.799678 4.62128 0.893479 4.66955 1.11371C4.68271 1.17488 4.7222 1.2279 4.77486 1.24829C5.04253 1.35841 5.37162 1.38695 5.76654 1.33394C6.39841 1.24829 6.69679 1.48075 6.66169 2.02317C6.64414 2.30457 6.63536 2.44731 6.63536 2.45139C6.66608 3.03459 6.94252 3.49951 7.46469 3.83801C7.58755 3.91958 7.6446 4.02969 7.63143 4.17243C7.62705 4.23361 7.65337 4.28663 7.69725 4.31518C8.36862 4.7434 8.94344 5.25726 9.42612 5.86085C9.65429 6.14633 9.86053 6.36656 10.0404 6.51746C10.273 6.71322 10.5099 6.90898 10.7513 7.09658C10.7996 7.13328 10.861 7.15367 10.9312 7.15775C11.1681 7.17407 11.1594 7.26379 10.9005 7.431C10.6942 7.56966 10.5977 7.74911 10.6153 7.97341C8.1536 10.5346 7.04344 13.4914 7.28917 16.8437C7.49979 19.7026 8.71965 22.1741 10.9487 24.2581C11.2691 24.5558 11.4358 24.7189 11.449 24.7393C11.5631 24.9188 11.6245 25.1471 11.6245 25.4286C11.6289 25.8894 11.6245 26.3462 11.6157 26.8029L11.5104 27.692C11.5016 27.745 11.4885 27.7491 11.4621 27.7002C11.4007 27.5778 11.37 27.484 11.37 27.4188C11.37 27.276 11.3349 27.2393 11.2647 27.3127C11.234 27.3454 11.1813 27.3576 11.1418 27.3454C10.5407 27.121 10.0887 26.8641 9.78593 26.5664C9.48316 26.2687 9.19355 26.0525 8.9215 25.9302C8.87323 25.9098 8.83374 25.8609 8.80741 25.7997C8.76792 25.6977 8.67139 25.5835 8.52219 25.4653C8.32912 25.3103 8.12728 25.1675 7.91665 25.0411C7.69725 24.9106 7.50418 24.7679 7.32866 24.6088C6.72751 24.0705 5.91135 23.5281 4.87578 22.9734C3.73052 22.3617 3.05477 21.9416 2.85731 21.7173C2.46678 21.2728 1.98849 20.9424 1.42244 20.7263C1.41367 20.7222 1.2557 20.6896 0.957315 20.6325C0.694037 20.5835 0.540457 20.4122 0.496577 20.1227C0.443922 19.7964 0.395654 19.7964 0.351774 20.1268C0.307894 20.453 0.290342 20.7507 0.29473 21.0199C0.299118 21.3502 0.29473 21.4155 0.290342 21.2075C0.259627 20.3103 0.233299 19.409 0.220135 18.5036C0.215747 18.0591 0.211359 18.0754 0.215747 18.5525C0.220135 18.8013 0.202583 19.0542 0.167479 19.2989C0.158703 19.3682 0.154315 19.3682 0.149927 19.2989L0.00951166 12.5778C0.000735697 9.62105 0.000735697 6.66428 0.00951166 3.70751C0.00951166 3.08761 0.176255 2.51257 0.500965 1.97831C1.27325 0.718112 2.44923 0.061505 4.03329 0.0084871C4.48525 -0.00782611 5.28386 0.000330492 6.43351 0.0248003Z" fill="#23A1E9"/>
<path d="M6.4333 0.0251346C15.8894 0.00474311 25.3455 0.000664809 34.806 0.00882142C35.2097 0.00882142 35.5519 0.0128997 35.8284 0.0251346C36.1882 0.0373695 36.5217 0.0903875 36.8245 0.188267C38.7025 0.763308 39.6503 2.02758 39.6635 3.98109C39.7074 9.76004 39.703 16.738 39.6415 24.9109L39.5845 23.9036C39.5845 23.8751 39.5757 23.8751 39.5626 23.8995C39.5494 23.924 39.5318 23.9403 39.5055 23.9525C39.4353 23.9892 39.387 24.03 39.3739 24.0627C39.3212 24.1972 39.2642 24.2176 39.1984 24.132C39.1589 24.079 39.1062 24.0423 39.0535 24.0259C38.8254 23.9729 38.6148 23.8424 38.4173 23.6385C38.3339 23.5529 38.2462 23.4713 38.154 23.3938C37.215 22.6516 36.3418 22.0194 35.5432 21.4933C35.3413 21.3628 35.1044 21.2282 34.8191 21.0896C34.569 20.9672 34.3189 20.8408 34.0776 20.7103C33.9679 20.6532 33.7134 20.5472 33.3141 20.4003C33.0596 20.3065 32.8226 20.1679 32.5944 19.9884C32.4409 19.8661 32.261 19.8294 32.0547 19.8824L32.6427 17.5578C32.6515 17.5211 32.6427 17.4558 32.612 17.3824L32.4979 17.0847C32.7524 13.9525 31.8748 11.1793 29.8651 8.7731C27.658 6.11812 24.7092 4.6377 21.0277 4.32367C16.9688 3.98109 13.5023 5.2005 10.6238 7.97783C10.6063 7.7576 10.6984 7.57407 10.909 7.43541C11.1635 7.2682 11.1723 7.1744 10.9398 7.16217C10.8696 7.15809 10.8037 7.13362 10.7599 7.10099C10.5185 6.91339 10.2816 6.72171 10.049 6.52187C9.86909 6.3669 9.66286 6.15075 9.43468 5.86526C8.952 5.26575 8.37718 4.75189 7.70582 4.31959C7.65755 4.29104 7.63561 4.23394 7.64 4.17685C7.64877 4.03411 7.59612 3.91991 7.47325 3.84243C6.95108 3.50393 6.67464 3.039 6.64393 2.4558C6.64393 2.45173 6.6527 2.30898 6.67025 2.03166C6.70536 1.48517 6.40697 1.25678 5.7751 1.34243C5.38019 1.39544 5.0467 1.3669 4.78342 1.25678C4.73077 1.23231 4.69127 1.18337 4.67811 1.1222C4.62984 0.90197 4.48943 0.808169 4.25686 0.840795C4.18666 0.840795 4.12961 0.808169 4.12522 0.763308V0.759229L4.09012 0.400339C4.08573 0.355477 4.134 0.310616 4.19982 0.302459L6.4333 0.0251346Z" fill="#33AFF7"/>
<path d="M51.7747 38.0714C49.1551 35.9181 47.6588 33.2876 47.2902 30.1718C47.2331 29.6824 47.2024 28.4181 47.2024 26.3789C47.2024 21.1791 47.2156 15.9752 47.2419 10.7753C47.2507 8.79328 47.2331 7.59018 47.1849 7.17012C47.0401 5.92216 46.6978 4.74761 46.1493 3.65462C46.0966 3.55674 46.1449 3.43439 46.2546 3.38953C46.2853 3.3773 46.316 3.36914 46.3468 3.36914L54.4119 3.37322C54.504 3.37322 54.5742 3.44255 54.5742 3.52412C54.5742 3.54451 54.5698 3.56082 54.5611 3.58121C54.0169 4.79247 53.6878 6.05674 53.565 7.3618C53.543 7.58203 53.5343 8.85038 53.5343 11.1546V25.7672C53.5343 27.9409 53.5518 29.2052 53.5825 29.5559C53.7537 31.3993 54.289 33.1652 55.1929 34.8536C56.3689 37.0559 58.089 38.6587 60.3532 39.6579C61.5599 40.1921 62.8675 40.5184 64.2717 40.6367C67.6372 40.9262 70.5991 39.9311 73.1661 37.6554C73.1836 37.6391 73.2056 37.6228 73.2231 37.6106C73.6751 37.2884 73.6926 37.321 73.2758 37.7085C72.4377 38.4915 71.4987 39.1481 70.4587 39.6864C68.4359 40.7346 66.2638 41.3545 63.9426 41.5339C60.6867 41.7949 57.6063 41.2484 54.7015 39.9026C53.644 39.4132 52.6654 38.8014 51.7747 38.0714Z" fill="#5B5B5B"/>
<path d="M75.316 3.40193C76.8035 3.38562 78.3393 3.37746 79.9321 3.37746C80.1033 3.37746 80.134 3.43864 80.0243 3.55691C79.0852 4.59688 78.2033 5.72657 77.3783 6.94598C76.7026 7.94924 76.3384 9.09524 76.2857 10.3881C76.2857 10.4452 76.2769 10.4452 76.2682 10.3881C76.0488 9.07077 75.6319 7.94108 75.0088 6.99492C74.2058 5.7755 73.3019 4.62135 72.3014 3.53244C72.2356 3.46311 72.2575 3.42232 72.3541 3.41825C72.8499 3.38154 73.3414 3.36931 73.8328 3.38154C74.6578 3.39785 75.1536 3.40601 75.316 3.40193Z" fill="#5B5B5B"/>
<path d="M92.3592 41.142C90.7664 41.1257 89.134 41.1217 87.4622 41.1339C87.3964 41.1339 87.3438 41.089 87.3438 41.0279C87.3438 41.0115 87.3481 40.9952 87.3525 40.983C88.0809 39.4332 88.4451 37.8264 88.4451 36.1543C88.4407 26.9047 88.4451 17.6551 88.4539 8.4055C88.4583 6.66407 88.1116 5.10615 87.4227 3.72361C87.3613 3.60126 87.4183 3.45444 87.5544 3.39734C87.5895 3.38103 87.629 3.37695 87.6685 3.37695H95.738C95.795 3.37695 95.8389 3.41774 95.8389 3.47075C95.8389 3.48299 95.8345 3.49522 95.8301 3.50746C95.4352 4.39653 95.1456 5.31007 94.9613 6.244C94.834 6.90469 94.7682 7.84677 94.7682 9.07026V33.3117C94.7682 35.5996 94.7814 36.8639 94.7989 37.1004C94.9262 38.4341 95.2641 39.731 95.8169 40.983C95.8433 41.036 95.8126 41.0972 95.7555 41.1217C95.7423 41.1257 95.7248 41.1298 95.7116 41.1298C94.5356 41.1461 93.4167 41.1543 92.3592 41.142Z" fill="#5B5B5B"/>
<path d="M109.345 25.8125C110.407 27.611 111.464 29.434 112.504 31.2856C113.737 33.4756 115.177 35.5474 116.818 37.4928C117.388 38.1698 118.02 38.7163 118.722 39.1323C119.415 39.5442 120.196 39.7522 121.07 39.7603C121.078 39.7603 121.144 39.7562 121.254 39.7481C121.561 39.7277 121.658 39.9112 121.535 40.2946C121.495 40.421 121.399 40.527 121.271 40.5841C120.539 40.9145 119.775 41.1755 118.981 41.3712C118.16 41.5752 117.357 41.6567 116.576 41.6241C113.777 41.5017 111.592 40.3027 110.012 38.023C109.143 36.7709 108.327 35.4863 107.563 34.1812C106.019 31.5303 104.527 28.8631 103.092 26.1755C103.013 26.0327 102.855 25.943 102.684 25.9553C101.547 26.0083 100.442 26.0205 99.371 25.996C99.2569 25.992 99.2482 25.9675 99.3447 25.9226C99.3622 25.9145 99.3798 25.9104 99.4017 25.9104C101.504 25.7269 103.583 25.4292 105.646 25.0091C106.216 24.8949 106.765 24.7358 107.3 24.5278C107.818 24.328 108.322 24.067 108.801 23.7448C110.53 22.5866 111.763 21.0694 112.495 19.1853C113.671 16.1796 113.663 13.1575 112.465 10.1192C111.407 7.43568 109.538 5.61675 106.857 4.66651C106.133 4.40958 104.926 4.17303 103.246 3.96096C101.969 3.79783 100.692 3.62654 99.4149 3.44302C99.3491 3.43486 99.3491 3.43078 99.4193 3.42671C102.32 3.36553 104.869 3.36961 107.072 3.43078C110.538 3.52458 113.483 4.60534 115.909 6.66896C116.958 7.56211 117.783 8.55721 118.389 9.65835C118.937 10.6616 119.319 11.7179 119.538 12.8313C119.744 13.9039 119.766 15.005 119.608 16.1347C119.205 18.9732 117.827 21.2938 115.475 23.0964C114.624 23.7489 113.68 24.2913 112.631 24.7236C111.609 25.1478 110.538 25.4659 109.424 25.6739C109.367 25.6861 109.332 25.735 109.341 25.788C109.336 25.7921 109.341 25.8044 109.345 25.8125Z" fill="#5B5B5B"/>
<path d="M150.741 41.1017C150.653 41.1017 150.557 41.0487 150.496 40.959L123.338 3.512C123.277 3.43043 123.303 3.38965 123.409 3.38965L129.894 3.41004C129.96 3.41004 130.017 3.43859 130.056 3.49161L151.843 32.9614C151.9 33.0389 151.93 33.1286 151.93 33.2224V41.0079C151.93 41.0691 151.878 41.1221 151.816 41.1221L150.741 41.1017Z" fill="#5B5B5B"/>
<path d="M155.357 3.37305C155.471 3.37305 155.581 3.37712 155.691 3.39344C155.761 3.40567 155.77 3.43422 155.726 3.48316C154.471 4.85347 153.598 5.95869 153.111 6.8029C152.325 8.1569 151.926 9.60877 151.904 11.1544C151.904 11.2279 151.891 11.2564 151.865 11.2401C151.812 11.2156 151.781 11.1667 151.772 11.1096C151.636 9.44972 151.241 8.09572 150.596 7.03944C149.82 5.78332 148.916 4.60877 147.876 3.52394C147.81 3.45461 147.828 3.42199 147.929 3.41791C150.395 3.40159 152.874 3.38528 155.357 3.37305Z" fill="#5B5B5B"/>
<path d="M158.964 12.4676C158.872 12.4145 158.819 12.3289 158.806 12.2065C158.793 12.0964 158.789 12.0353 158.789 12.0189C158.231 9.24161 157.705 6.41127 157.2 3.53607C157.187 3.45858 157.244 3.38925 157.327 3.37701C157.336 3.37701 157.349 3.37294 157.358 3.37701C159.096 3.44634 160.86 3.45042 162.646 3.38925C163.497 3.3607 164.366 3.36886 165.252 3.42188C165.401 3.43003 165.406 3.45042 165.256 3.48713C163.721 3.85418 162.492 4.59235 161.571 5.70165C160.838 6.58664 160.324 7.67555 160.044 8.96837C159.798 10.0695 159.552 11.191 159.306 12.3248C159.28 12.439 159.162 12.5124 159.039 12.4879C159.008 12.492 158.986 12.4798 158.964 12.4676Z" fill="#5B5B5B"/>
<path d="M175.665 3.40166C176.525 3.39758 177.372 3.3935 178.21 3.38535C178.28 3.38535 178.333 3.43837 178.333 3.49954C178.333 3.51585 178.328 3.53217 178.324 3.5444C177.74 4.79644 177.398 6.08111 177.293 7.40248C177.231 8.14065 177.205 9.26218 177.209 10.7712C177.231 19.0705 177.244 27.3739 177.244 35.6733C177.244 37.6145 177.617 39.3968 178.363 41.0281C178.376 41.0607 178.363 41.0974 178.328 41.1097C178.319 41.1137 178.311 41.1137 178.302 41.1137L169.947 41.126C169.886 41.126 169.833 41.077 169.833 41.0199C169.833 41.0077 169.837 40.9914 169.842 40.9791C170.219 40.1594 170.5 39.3152 170.693 38.4465C170.838 37.7981 170.912 36.9212 170.926 35.8201C170.991 27.6757 170.991 19.5273 170.921 11.3829C170.921 11.2769 170.939 10.7712 170.97 9.86985C170.983 9.53135 170.978 9.19285 170.956 8.85435C170.934 8.51993 170.921 8.18143 170.912 7.84293C170.869 6.34212 170.5 4.91063 169.802 3.5444C169.78 3.49954 169.798 3.44652 169.846 3.42613C169.859 3.42205 169.873 3.41797 169.886 3.41797C170.956 3.36496 172.04 3.35272 173.128 3.36903C174.401 3.39758 175.248 3.40574 175.665 3.40166Z" fill="#5B5B5B"/>
<path d="M182.879 3.44646C182.729 3.40159 182.738 3.37712 182.892 3.37712L190.865 3.37305C190.939 3.37305 191.001 3.43014 191.001 3.4954C191.001 3.50355 191.001 3.50763 191.001 3.51579C190.47 6.43177 189.921 9.31106 189.36 12.1536C189.338 12.2719 189.307 12.3616 189.263 12.4187C189.167 12.5492 189.061 12.5574 188.952 12.4432C188.903 12.3943 188.868 12.3168 188.846 12.223C188.592 11.1096 188.342 9.99621 188.105 8.88283C187.517 6.15853 185.775 4.34776 182.879 3.44646Z" fill="#5B5B5B"/>
<path d="M32.5021 17.0851C32.1116 20.1438 30.725 22.6928 28.3423 24.7319C28.237 24.8257 28.1756 24.9521 28.1712 25.0908L28.079 36.196C27.9737 37.1544 27.7017 38.0476 27.2585 38.8836C26.8109 39.7401 26.2098 40.4171 25.4682 40.9228C24.6827 41.4529 23.7832 41.8037 22.7696 41.9668C21.5848 42.1585 20.343 42.2278 19.0398 42.1707C18.0525 42.1259 17.1135 41.9627 16.2227 41.6813C15.2618 41.3755 14.4544 40.9309 13.8006 40.3518C12.708 39.3771 12.0541 38.1332 11.8435 36.6202C11.7601 36.041 11.7119 35.0949 11.6899 33.7735C11.6548 31.4489 11.6329 29.1242 11.6285 26.7996C11.6373 26.3428 11.6417 25.882 11.6373 25.4252C11.6329 25.1438 11.5759 24.9113 11.4618 24.736C11.4486 24.7115 11.2775 24.5525 10.9615 24.2547C8.73244 22.1748 7.51258 19.7034 7.30196 16.8445C7.05623 13.4921 8.16639 10.5353 10.628 7.97415C13.5066 5.19683 16.9731 3.98149 21.0319 4.32407C24.7135 4.63402 27.6622 6.11852 29.8737 8.76942C31.879 11.1797 32.7566 13.9529 32.5021 17.0851ZM16.6396 6.31428C14.2964 7.05246 12.4052 8.34936 10.9659 10.1968C9.82066 11.6691 9.17124 13.3167 9.02643 15.1357C8.84214 17.4195 9.40819 19.5198 10.729 21.4326C11.374 22.3624 12.2472 23.2311 13.3442 24.0345C13.3486 27.6601 13.3574 31.2694 13.3793 34.8665C13.3837 35.6944 13.5197 36.4978 13.7874 37.2849C14.0946 38.1821 14.6079 38.8999 15.3407 39.4383C15.9375 39.8787 16.7537 40.205 17.7892 40.4211C19.5049 40.78 21.2338 40.7229 22.9802 40.2498C23.95 39.9888 24.6915 39.5484 25.1961 38.9326C25.7797 38.2229 26.1571 37.3257 26.3239 36.2409C26.473 32.2401 26.5081 28.3004 26.4379 24.4138C26.4336 24.2099 26.5301 24.0182 26.7275 23.8347L28.0264 22.6275C29.764 20.8167 30.6855 18.749 30.7952 16.4285C30.8566 15.1805 30.6855 13.9856 30.2818 12.8396C29.8606 11.6528 29.2155 10.5802 28.3379 9.61771C25.2751 6.26534 21.3786 5.1642 16.6396 6.31428Z" fill="#CCEAFB"/>
<path d="M39.6457 24.9112C39.6545 30.6086 39.6589 36.3019 39.6545 41.9993C39.6545 42.7905 39.5624 43.4022 39.3869 43.8386C38.9612 44.8622 38.2065 45.5759 37.1139 45.9797C36.6137 46.1632 35.8765 46.2611 34.9111 46.2733C33.0769 46.2937 31.2384 46.3019 29.3998 46.2978C30.3783 46.257 31.3481 46.151 32.309 45.9797C32.4319 45.9552 32.4319 45.9348 32.309 45.9185C32.2871 45.9185 32.2695 45.8981 32.2695 45.8777C32.2213 45.3883 31.9668 44.9887 31.506 44.6828C31.076 44.3932 30.6855 44.1444 30.3344 43.9405C30.3081 43.9242 30.0097 43.7937 29.4481 43.549C29.1453 43.4144 28.8776 43.2268 28.6495 42.9781C28.3862 42.6966 28.0878 42.4642 27.7455 42.2888C27.4472 42.1338 27.2278 41.9911 27.0786 41.8647C26.8811 41.6934 26.6837 41.518 26.4862 41.3427C26.2887 41.1673 26.201 40.9593 26.2843 40.8696C26.3633 40.7798 26.3765 40.7064 26.337 40.6493C26.3019 40.6004 26.2975 40.5474 26.3282 40.5188C27.5744 39.2301 28.2063 37.6966 28.2151 35.9185C28.3204 35.3272 28.3642 34.6502 28.3379 33.8875C28.3072 32.9006 28.3072 30.3883 28.3379 26.3467C28.3423 25.8125 28.373 25.372 28.4345 25.0294C28.4432 24.9683 28.4783 24.9152 28.5266 24.8704C30.1721 23.5042 31.3525 21.8443 32.0721 19.8949C32.2783 19.8459 32.4582 19.8785 32.6118 20.0009C32.84 20.1803 33.0813 20.3149 33.3314 20.4087C33.7307 20.5596 33.9852 20.6616 34.0949 20.7187C34.3407 20.8492 34.5864 20.9756 34.8365 21.098C35.1173 21.2366 35.3587 21.3712 35.5605 21.5017C36.3591 22.0278 37.228 22.6599 38.1714 23.4022C38.2679 23.4756 38.3557 23.5572 38.4347 23.6469C38.6277 23.8549 38.8427 23.9854 39.0709 24.0343C39.128 24.0466 39.1806 24.0874 39.2201 24.1404C39.2859 24.2301 39.343 24.2056 39.3956 24.071C39.4088 24.0384 39.4571 24.0017 39.5273 23.9609C39.5492 23.9487 39.5668 23.9283 39.5843 23.9038C39.5975 23.8794 39.6063 23.8834 39.6063 23.9079L39.6457 24.9112Z" fill="#219FE8"/>
<path d="M15.6701 26.5297L16.8461 26.5011C16.9734 26.497 17.0743 26.5786 17.0787 26.6806L17.1577 28.4669C17.1401 29.7515 17.1664 31.966 17.241 35.1186C17.2542 35.7262 17.4253 36.232 17.75 36.6479C18.0572 37.0354 18.5135 37.2882 19.1235 37.4106C19.672 37.5207 20.2249 37.5289 20.7821 37.431C21.278 37.3453 21.6641 37.1659 21.9449 36.8926C22.2697 36.5745 22.4583 36.183 22.511 35.7181C22.5768 35.1063 22.59 34.3315 22.5549 33.3935L22.6646 26.7091C22.6646 26.6479 22.7085 26.6031 22.7655 26.599L24.1828 26.5705C24.2399 26.5705 24.2881 26.6153 24.2881 26.6724C24.3671 28.8829 24.3715 31.4073 24.2969 34.2499C24.2837 34.8005 24.2574 35.2858 24.2223 35.7059C24.174 36.2768 24.0599 36.7499 23.8844 37.121C23.314 38.2956 22.2609 38.9359 20.7251 39.0419C19.8563 39.099 18.9831 39.0541 18.1098 38.8992C17.0962 38.5076 16.3766 37.8918 15.9554 37.0476C15.7403 36.6194 15.6131 35.9709 15.578 35.1023C15.4727 32.4228 15.4376 29.7393 15.4639 27.0598C15.4639 27.0476 15.4551 26.9742 15.442 26.8396C15.4244 26.6806 15.499 26.5786 15.6701 26.5297Z" fill="#C9E8F9"/>
<path d="M128.134 41.0973C126.559 41.0687 124.993 41.0728 123.439 41.1218C123.36 41.1258 123.347 41.0973 123.4 41.0402C124.448 39.9391 125.361 38.7482 126.147 37.4676C126.836 36.342 127.213 34.9676 127.279 33.3404C127.279 33.3118 127.288 33.2873 127.301 33.2792C127.323 33.2588 127.345 33.2751 127.366 33.32C127.375 33.3404 127.38 33.3648 127.38 33.3893C127.358 34.9309 127.739 36.3053 128.516 37.5165C129.188 38.5647 130.1 39.7311 131.245 41.0117C131.289 41.0606 131.276 41.0851 131.21 41.0891C130.64 41.1218 129.613 41.1218 128.134 41.0973Z" fill="#5B5B5B"/>
<path d="M78.3256 57.9285L75.5216 57.9326C75.4339 57.9326 75.3549 57.9897 75.3242 58.0712L74.6616 59.7433C74.6353 59.8045 74.5826 59.8453 74.5212 59.8453L73.8147 59.8494C73.7752 59.8494 73.7401 59.8127 73.7445 59.7719C73.7445 59.7637 73.7489 59.7556 73.7489 59.7474L76.4036 53.0631C76.43 53.0019 76.4826 52.957 76.5397 52.957H77.2856C77.3427 52.957 77.3953 52.9978 77.4173 53.0631L80.072 59.7474C80.0895 59.7923 80.0676 59.8412 80.0193 59.8616C80.0105 59.8657 79.9974 59.8657 79.9842 59.8657L79.2734 59.8575C79.2119 59.8575 79.1593 59.8208 79.133 59.7637L78.4616 58.0223C78.4397 57.9652 78.387 57.9285 78.3256 57.9285ZM75.763 57.1251L77.9701 57.1577C78.0272 57.1577 78.0711 57.1169 78.0711 57.0598C78.0711 57.0476 78.0667 57.0353 78.0623 57.0231L77.0048 54.2213C76.9346 54.0296 76.86 54.0296 76.7854 54.2213L75.7016 57.0476C75.6884 57.0802 75.7059 57.1128 75.7367 57.121C75.7498 57.121 75.7586 57.1251 75.763 57.1251Z" fill="#5B5B5B"/>
<path d="M81.2035 52.9404H81.9451C81.9758 52.9404 81.9977 52.9608 81.9977 52.9894L81.9846 59.8124C81.9846 59.8409 81.9626 59.8613 81.9319 59.8613H81.1903C81.1596 59.8613 81.1377 59.8409 81.1377 59.8124L81.1509 52.9894C81.1509 52.9649 81.1728 52.9404 81.2035 52.9404Z" fill="#5B5B5B"/>
<path d="M83.6479 52.9443H84.3543C84.385 52.9443 84.4114 52.9688 84.4114 52.9973V59.8163C84.4114 59.8448 84.385 59.8693 84.3543 59.8693H83.6479C83.6172 59.8693 83.5908 59.8448 83.5908 59.8163V52.9973C83.5952 52.9647 83.6172 52.9443 83.6479 52.9443Z" fill="#5B5B5B"/>
<path d="M92.6918 57.1164L94.2934 59.7469C94.3153 59.7836 94.3022 59.8326 94.2583 59.8571C94.2451 59.8652 94.2276 59.8693 94.2144 59.8693H93.4465C93.3763 59.8693 93.3149 59.8326 93.2798 59.7796L91.8624 57.3774C91.7878 57.251 91.6518 57.1695 91.5114 57.1735L90.0151 57.1939C89.9581 57.1939 89.9142 57.2429 89.9142 57.3C89.9054 57.928 89.9054 58.5561 89.9229 59.1801C89.9273 59.5145 89.9317 59.6858 89.9229 59.7021C89.8483 59.8734 89.6026 59.9101 89.177 59.8163C89.0805 59.7959 89.0103 59.7143 89.0103 59.6164L89.0059 53.0789C89.0059 53.0055 89.0717 52.9443 89.1507 52.9443C90.0765 52.9443 90.9629 52.9525 91.8142 52.9729C92.4768 52.9892 93.0077 53.1809 93.407 53.5561C93.7712 53.8946 93.9818 54.3432 94.0433 54.9019C94.1442 55.8236 93.7054 56.521 92.7356 56.9941C92.683 57.0145 92.6654 57.0675 92.6918 57.1164ZM92.5733 53.9354C92.3978 53.8049 92.2003 53.7355 92.0116 53.7314L90.0239 53.7029C89.9668 53.7029 89.9229 53.7437 89.9186 53.8008V56.2967C89.9186 56.3497 89.9624 56.3946 90.0239 56.3987C90.5066 56.4109 90.9673 56.4109 91.4061 56.3946C91.9897 56.3701 92.4109 56.2763 92.661 56.1091C93.0604 55.8399 93.2315 55.4158 93.1701 54.8367C93.135 54.4982 92.9331 54.2005 92.5733 53.9354Z" fill="#5B5B5B"/>
<path d="M116.905 52.9404H117.598C117.647 52.9404 117.686 52.9771 117.686 53.022V59.7838C117.686 59.8287 117.647 59.8654 117.598 59.8654H116.909C116.861 59.8654 116.822 59.8287 116.822 59.7838V53.022C116.817 52.9771 116.857 52.9404 116.905 52.9404Z" fill="#5B5B5B"/>
<path d="M128.642 54.4702C128.55 54.3438 128.502 54.356 128.502 54.511L128.488 59.719C128.488 59.7883 128.445 59.8454 128.392 59.8454L127.742 59.8291C127.681 59.8291 127.633 59.772 127.633 59.7067L127.598 53.0999C127.598 53.0387 127.637 52.9857 127.69 52.9694C127.936 52.8878 128.164 52.8919 128.374 52.9816C128.515 53.0387 128.664 53.1774 128.822 53.3976C130.029 55.0371 131.235 56.6439 132.438 58.2263C132.565 58.3935 132.631 58.3772 132.631 58.1692L132.644 53.0591C132.644 53.002 132.688 52.9572 132.745 52.9572L133.39 52.9531C133.447 52.9531 133.495 52.9979 133.495 53.055V59.6986C133.495 59.7557 133.451 59.8046 133.394 59.8169C133.074 59.8862 132.828 59.878 132.657 59.7965C132.6 59.7679 132.464 59.6129 132.249 59.3275C131.033 57.7165 129.831 56.0975 128.642 54.4702Z" fill="#5B5B5B"/>
<path d="M156.37 56.0482L158.217 53.1689C158.288 53.0588 158.397 52.9895 158.503 52.9895L159.262 52.9732C159.341 52.9691 159.354 53.0058 159.306 53.0833L156.747 56.9495C156.699 57.0229 156.668 57.1167 156.668 57.2065V59.7472C156.668 59.8084 156.62 59.8533 156.559 59.8533L155.914 59.8574C155.857 59.8574 155.813 59.8166 155.813 59.7595L155.8 57.1086C155.8 57.0392 155.778 56.9699 155.743 56.9169L153.198 53.1037C153.132 53.0099 153.158 52.9609 153.272 52.9609H154.027C154.084 52.9609 154.145 52.9976 154.185 53.0588L156.12 56.0482C156.159 56.1135 156.252 56.1339 156.317 56.0972C156.344 56.0808 156.357 56.0645 156.37 56.0482Z" fill="#5B5B5B"/>
<path d="M108.611 55.4198C108.598 56.2477 108.598 57.0756 108.598 57.9035C108.598 58.4051 108.602 58.6702 108.611 58.6947C108.699 58.9965 108.993 59.1514 109.493 59.1596C109.585 59.1596 109.664 59.2126 109.699 59.2901C109.901 59.7224 109.805 59.9426 109.414 59.9508C108.791 59.963 108.33 59.7795 108.027 59.4043C107.834 59.1637 107.729 58.7599 107.703 58.1849C107.646 56.9532 107.641 56.1417 107.681 55.7461C107.716 55.4239 107.611 55.2771 107.36 55.3056C107.137 55.3301 107.001 55.326 106.952 55.2974C106.816 55.22 106.777 55.0691 106.834 54.8407C106.847 54.7836 106.895 54.7346 106.957 54.7183C107.137 54.6694 107.317 54.6612 107.496 54.6857C107.589 54.6979 107.676 54.6327 107.69 54.5389C107.69 54.5307 107.69 54.5266 107.694 54.5185L107.747 53.5479C107.751 53.4826 107.804 53.4337 107.869 53.4377L108.409 53.4418C108.475 53.4418 108.528 53.4867 108.532 53.5479L108.589 54.5266C108.593 54.6286 108.672 54.7061 108.765 54.7061C109.028 54.7061 109.225 54.6979 109.361 54.6775C109.712 54.6245 109.844 54.7917 109.752 55.171C109.73 55.2607 109.642 55.326 109.541 55.326L108.716 55.3301C108.659 55.3219 108.611 55.3668 108.611 55.4198Z" fill="#5B5B5B"/>
<path d="M92.5732 53.9356C92.9374 54.2007 93.1349 54.4984 93.1743 54.8369C93.2358 55.416 93.069 55.8402 92.6653 56.1093C92.4108 56.2765 91.994 56.3744 91.4104 56.3948C90.9716 56.4111 90.5108 56.4152 90.0282 56.3989C89.9711 56.3948 89.9229 56.354 89.9229 56.2969V53.801C89.9229 53.748 89.9667 53.7031 90.0238 53.7031C90.0238 53.7031 90.0238 53.7031 90.0282 53.7031L92.0159 53.7317C92.1958 53.7358 92.3933 53.8092 92.5732 53.9356Z" fill="white" fill-opacity="0.8"/>
<path d="M75.7631 57.1247C75.728 57.1247 75.7061 57.0961 75.7061 57.0635C75.7061 57.0594 75.7061 57.0513 75.7104 57.0472L76.7943 54.2209C76.8689 54.0292 76.9391 54.0292 77.0137 54.2209L78.0712 57.0227C78.0931 57.0757 78.0668 57.1328 78.0141 57.1532C78.001 57.1573 77.9878 57.1614 77.979 57.1614L75.7631 57.1247Z" fill="white" fill-opacity="0.8"/>
<path d="M147.817 55.3146C147.831 55.3146 147.848 55.3146 147.861 55.3105C147.875 55.3064 147.883 55.2983 147.892 55.2861C148.296 54.7681 148.844 54.5316 149.538 54.5805C149.603 54.5846 149.656 54.6213 149.678 54.6784C149.761 54.8864 149.77 55.0944 149.7 55.3065C149.682 55.3595 149.625 55.3921 149.564 55.388C148.59 55.3064 148.011 55.6123 147.835 56.3056C147.804 56.4239 147.791 56.9663 147.791 57.9329V59.6947C147.791 59.7518 147.747 59.8007 147.69 59.813C147.133 59.9312 146.874 59.8293 146.905 59.503C146.918 59.3725 146.927 59.2991 146.927 59.2828V54.8619C146.927 54.8048 146.971 54.7559 147.028 54.7436C147.677 54.605 147.927 54.7763 147.774 55.2494C147.765 55.2779 147.778 55.3105 147.804 55.3187C147.809 55.3146 147.813 55.3146 147.817 55.3146Z" fill="#5B5B5B"/>
<path d="M96.018 57.6512C96.1935 58.9971 97.0141 59.4824 98.4797 59.099C98.7078 59.0379 98.9053 58.8625 99.0633 58.577C99.094 58.524 99.1466 58.4914 99.2081 58.4914C99.4669 58.4914 99.682 58.5525 99.8531 58.683C99.9189 58.732 99.9321 58.8217 99.8794 58.887C99.1291 59.8168 98.212 60.1553 97.1325 59.9025C96.5621 59.7679 96.1145 59.5232 95.7898 59.1602C95.4476 58.7809 95.2457 58.3078 95.1755 57.7369C95.1009 57.1088 95.1755 56.5379 95.3949 56.0281C95.588 55.5795 95.8951 55.2287 96.3076 54.9677C96.764 54.6822 97.2554 54.5599 97.7951 54.6047C98.5235 54.6659 99.1071 54.9636 99.5415 55.506C99.9584 56.0281 100.112 56.6643 100.002 57.4188C99.9935 57.4718 99.9452 57.5126 99.8882 57.5126L96.1101 57.5574C96.0575 57.5574 96.018 57.5982 96.018 57.6431C96.018 57.6431 96.018 57.6472 96.018 57.6512ZM98.0628 55.4245C97.1633 55.1798 96.4875 55.5468 96.0399 56.5297C95.9917 56.6398 96.0443 56.7662 96.1584 56.8111C96.1847 56.8233 96.2155 56.8274 96.2462 56.8274L99.0194 56.8029C99.0764 56.8029 99.1247 56.7581 99.1247 56.7051C99.1247 56.3951 99.0325 56.1259 98.8526 55.8976C98.6727 55.6773 98.4094 55.5183 98.0628 55.4245Z" fill="#5B5B5B"/>
<path d="M102.245 55.3709C102.605 54.959 102.96 54.7224 103.302 54.6613C104.276 54.4941 104.97 54.7021 105.387 55.2934C105.619 55.6237 105.751 56.1988 105.773 57.0226C105.799 57.9239 105.808 58.8415 105.79 59.7755C105.79 59.8285 105.742 59.8693 105.685 59.8693H105.04C104.978 59.8693 104.926 59.8203 104.926 59.7632C104.926 58.6784 104.926 57.6384 104.93 56.6433C104.93 56.3374 104.851 56.0642 104.689 55.8277C104.535 55.6034 104.303 55.4525 103.991 55.375C103.421 55.2322 102.96 55.3464 102.609 55.7257C102.39 55.9622 102.258 56.3171 102.223 56.7983C102.148 57.7689 102.139 58.7436 102.205 59.7184C102.21 59.7755 102.17 59.8244 102.118 59.8407C101.898 59.8978 101.679 59.8978 101.455 59.8489C101.398 59.8366 101.358 59.7836 101.358 59.7265V54.8733C101.358 54.8122 101.398 54.7632 101.459 54.7428C102.06 54.5634 102.28 54.7061 102.126 55.1711C102.109 55.2241 102.113 55.2893 102.144 55.3587C102.157 55.3872 102.192 55.4035 102.223 55.3913C102.227 55.3872 102.24 55.3791 102.245 55.3709Z" fill="#5B5B5B"/>
<path d="M114.338 59.2864C113.517 60.0898 112.578 60.2162 111.521 59.6656C111.301 59.5514 111.126 59.3761 110.99 59.1477C110.876 58.9479 110.81 58.7235 110.801 58.4748C110.775 57.9527 110.972 57.5612 111.385 57.2921C111.617 57.1412 112.061 57.0107 112.719 56.9087C113.188 56.8353 113.653 56.766 114.11 56.6966C114.281 56.6722 114.404 56.5294 114.395 56.3704C114.377 56.089 114.312 55.8687 114.197 55.7015C114.088 55.5465 113.895 55.4324 113.609 55.363C112.921 55.1917 112.35 55.3753 111.889 55.9177C111.845 55.9707 111.788 55.9992 111.727 56.0074C111.477 56.0319 111.258 55.9666 111.073 55.8116C111.029 55.7749 111.021 55.7138 111.056 55.6648C111.718 54.739 112.67 54.4169 113.908 54.7064C114.478 54.841 114.869 55.1224 115.075 55.5547C115.18 55.779 115.233 56.1991 115.233 56.8149C115.229 57.7774 115.237 58.7358 115.246 59.6983C115.246 59.7554 115.211 59.8084 115.154 59.8328C114.575 60.0531 114.32 59.8818 114.391 59.319C114.399 59.2496 114.382 59.2415 114.338 59.2864ZM112.324 59.1436C113.649 59.4495 114.351 58.8867 114.43 57.4552C114.434 57.394 114.382 57.341 114.312 57.341C114.303 57.341 114.294 57.341 114.285 57.3451C113.763 57.443 113.258 57.5164 112.771 57.5612C112.491 57.5898 112.245 57.6754 112.03 57.8141C111.802 57.9691 111.679 58.1648 111.666 58.3973C111.652 58.589 111.714 58.7602 111.85 58.903C111.955 59.0131 112.109 59.0947 112.324 59.1436Z" fill="#5B5B5B"/>
<path d="M119.437 56.8228C119.169 56.4843 119.112 56.1091 119.27 55.7013C119.397 55.375 119.639 55.114 119.994 54.9182C120.626 54.5675 121.324 54.5063 122.087 54.7347C122.407 54.8326 122.671 55.008 122.877 55.2649C123.031 55.4566 123.118 55.5789 123.136 55.6197C123.21 55.8032 123.022 55.9133 122.57 55.9582C122.504 55.9623 122.443 55.9378 122.403 55.8929C121.956 55.3546 121.42 55.1752 120.793 55.3505C120.494 55.4362 120.279 55.5708 120.152 55.7502C120.02 55.9419 120.02 56.1458 120.161 56.3579C120.253 56.5006 120.411 56.6066 120.639 56.6801C121.025 56.8065 121.517 56.9411 122.113 57.0797C122.39 57.145 122.64 57.2714 122.859 57.459C123.061 57.6303 123.193 57.8505 123.263 58.1115C123.434 58.8049 123.158 59.3269 122.434 59.6776C121.468 60.1466 120.556 60.1058 119.687 59.5553C119.468 59.4166 119.301 59.2657 119.182 59.1066C118.915 58.7355 119.077 58.5153 119.678 58.4541C119.74 58.446 119.797 58.4745 119.832 58.5275C120.288 59.2249 120.907 59.4411 121.683 59.1841C122.026 59.0699 122.254 58.8864 122.364 58.6336C122.495 58.3277 122.399 58.0789 122.07 57.8872C121.942 57.8138 121.697 57.7404 121.337 57.6711C120.986 57.6018 120.644 57.508 120.31 57.3815C119.906 57.2306 119.617 57.0471 119.437 56.8228Z" fill="#5B5B5B"/>
<path d="M135.817 57.6513C135.882 58.5812 136.387 59.1154 137.331 59.2541C138.002 59.3519 138.524 59.1195 138.897 58.5648C138.932 58.5118 138.989 58.4792 139.051 58.4792C139.274 58.4833 139.476 58.5444 139.652 58.6709C139.7 58.7076 139.713 58.7688 139.687 58.8218C139.388 59.4213 138.945 59.772 138.349 59.874C136.383 60.2043 135.259 59.4784 134.979 57.6921C134.843 56.8112 135.044 56.0608 135.588 55.449C135.983 55.0086 136.462 54.7394 137.023 54.6415C137.436 54.5722 137.844 54.6007 138.248 54.7231C138.643 54.8454 138.963 55.0534 139.217 55.3471C139.682 55.8854 139.88 56.5828 139.81 57.4392C139.805 57.5045 139.748 57.5534 139.678 57.5534L135.909 57.5616C135.856 57.5616 135.812 57.6024 135.812 57.6513C135.817 57.6472 135.817 57.6472 135.817 57.6513ZM135.904 56.7989L138.831 56.8275C138.923 56.8275 138.994 56.7582 138.994 56.6725C138.994 56.6562 138.989 56.6399 138.985 56.6276C138.678 55.6325 138.072 55.2165 137.168 55.3797C136.791 55.449 136.492 55.5918 136.277 55.8161C136.049 56.0526 135.9 56.3503 135.83 56.7174C135.825 56.7541 135.847 56.7908 135.887 56.7949C135.9 56.7989 135.9 56.7989 135.904 56.7989Z" fill="#5B5B5B"/>
<path d="M144.501 59.3478C144.527 59.1887 144.488 59.1724 144.378 59.2948C143.926 59.8168 143.329 60.0493 142.588 59.9881C142.013 59.9391 141.574 59.7352 141.276 59.3682C140.986 59.0134 140.868 58.6178 140.92 58.1855C140.964 57.8388 141.135 57.5574 141.443 57.3413C141.636 57.2067 141.938 57.0925 142.355 56.9987C142.978 56.86 143.593 56.7581 144.198 56.6928C144.404 56.6724 144.549 56.5011 144.527 56.3095C144.435 55.5468 143.957 55.2165 143.097 55.3184C142.618 55.3755 142.246 55.5835 141.978 55.9424C141.938 55.9954 141.881 56.024 141.82 56.0199C141.596 56.0077 141.368 55.9342 141.131 55.8078C141.083 55.7833 141.07 55.7263 141.096 55.6814C141.096 55.6773 141.1 55.6773 141.1 55.6732C141.816 54.7352 142.79 54.409 144.014 54.6863C144.523 54.8005 144.891 55.0452 145.12 55.4163C145.264 55.6488 145.348 56.0321 145.37 56.5623C145.414 57.6186 145.409 58.6749 145.357 59.7312C145.352 59.7882 145.313 59.8372 145.256 59.8535C144.672 60.0329 144.418 59.8617 144.501 59.3478ZM142.215 59.0868C142.373 59.1887 142.553 59.2458 142.746 59.254C144.001 59.3111 144.593 58.6993 144.523 57.4187C144.518 57.3698 144.475 57.3372 144.426 57.3372C144.422 57.3372 144.418 57.3372 144.418 57.3372L142.654 57.5982C142.298 57.6512 142.039 57.8103 141.868 58.0713C141.627 58.4506 141.745 58.785 142.215 59.0868Z" fill="#5B5B5B"/>
<path d="M161.916 59.9964C160.503 59.9923 159.362 58.777 159.362 57.2803C159.367 55.7835 160.512 54.5723 161.925 54.5723C163.338 54.5763 164.479 55.7917 164.479 57.2884C164.479 58.7852 163.329 60.0005 161.916 59.9964ZM161.925 59.2745C162.851 59.2745 163.605 58.3855 163.605 57.2884C163.605 56.1873 162.86 55.2982 161.929 55.2941C161.003 55.2941 160.249 56.1832 160.249 57.2803C160.249 58.3814 160.995 59.2705 161.925 59.2745Z" fill="#5B5B5B"/>
<path d="M169.262 59.1604C169.254 59.0666 169.218 59.0544 169.157 59.1237C168.788 59.5275 168.38 59.7762 167.942 59.8741C167.476 59.9761 167.033 59.9067 166.608 59.6661C166.116 59.3888 165.853 58.9361 165.818 58.2999C165.756 57.1947 165.734 56.0405 165.756 54.8456C165.756 54.764 165.818 54.6987 165.892 54.6947L166.511 54.6743C166.564 54.6702 166.608 54.7273 166.608 54.8007V54.8048C166.621 55.8611 166.634 56.9133 166.638 57.9695C166.638 58.2999 166.744 58.5731 166.954 58.7934C167.139 58.9891 167.402 59.0992 167.74 59.1196C168.31 59.1604 168.731 58.9728 169.012 58.5568C169.179 58.308 169.267 57.9247 169.271 57.4027C169.28 56.5788 169.284 55.7346 169.275 54.8619C169.275 54.7885 169.328 54.7232 169.407 54.7069C169.82 54.6213 170.065 54.658 170.14 54.8211C170.144 54.8292 170.144 55.0005 170.144 55.335V59.7151C170.144 59.7966 170.083 59.8578 170.008 59.8578H170.004L169.416 59.8456C169.354 59.8456 169.306 59.7966 169.302 59.7354L169.262 59.1604Z" fill="#5B5B5B"/>
<path d="M98.8478 55.897C99.0277 56.1254 99.1199 56.3946 99.1199 56.7045C99.1199 56.7576 99.0716 56.8024 99.0146 56.8024L96.2414 56.8269C96.1185 56.8269 96.0176 56.7331 96.0176 56.6148C96.0176 56.5863 96.0264 56.5577 96.0351 56.5292C96.4827 55.5463 97.1585 55.1793 98.058 55.424C98.409 55.5178 98.6723 55.6768 98.8478 55.897Z" fill="white" fill-opacity="0.8"/>
<path d="M135.904 56.7992C135.865 56.7992 135.834 56.7666 135.834 56.7299C135.834 56.7258 135.834 56.7258 135.834 56.7218C135.904 56.3547 136.049 56.057 136.282 55.8204C136.497 55.5961 136.795 55.4534 137.172 55.3841C138.076 55.2209 138.682 55.6369 138.989 56.632C139.015 56.7136 138.967 56.8033 138.879 56.8278C138.866 56.8319 138.849 56.8359 138.831 56.8359L135.904 56.7992Z" fill="white" fill-opacity="0.8"/>
<path d="M163.606 57.2843C163.601 58.3855 162.851 59.2746 161.925 59.2705C160.999 59.2705 160.249 58.3773 160.249 57.2762C160.253 56.175 161.004 55.286 161.93 55.2901C162.86 55.2941 163.606 56.1873 163.606 57.2843Z" fill="white" fill-opacity="0.8"/>
<path d="M111.849 58.9029C111.713 58.7601 111.652 58.5888 111.665 58.3971C111.678 58.1606 111.801 57.9648 112.029 57.8139C112.244 57.6712 112.49 57.5896 112.771 57.5611C113.253 57.5122 113.758 57.4387 114.284 57.3449C114.35 57.3327 114.412 57.3735 114.425 57.4347C114.425 57.4428 114.429 57.451 114.429 57.4591C114.35 58.8906 113.648 59.4534 112.323 59.1476C112.108 59.0945 111.954 59.013 111.849 58.9029Z" fill="white" fill-opacity="0.8"/>
<path d="M142.215 59.0866C141.745 58.7848 141.627 58.4504 141.864 58.0752C142.03 57.8101 142.294 57.6551 142.649 57.6021L144.413 57.3411C144.466 57.3329 144.514 57.3656 144.518 57.4104C144.518 57.4145 144.518 57.4186 144.518 57.4186C144.589 58.7032 143.992 59.315 142.741 59.2538C142.553 59.2457 142.373 59.1886 142.215 59.0866Z" fill="white" fill-opacity="0.8"/>
</svg>
