<svg width="190" height="77" viewBox="0 0 190 77" fill="none" xmlns="http://www.w3.org/2000/svg">
<mask id="mask0_659_11" style="mask-type:luminance" maskUnits="userSpaceOnUse" x="0" y="25" width="100" height="42">
<path d="M9.68567 48.2913V61.807C9.68186 62.3716 9.2279 62.8332 8.66332 62.8446H4.22676C3.95591 62.8446 3.69651 62.7302 3.5134 62.5318C3.32266 62.3372 3.21203 62.0779 3.20059 61.807V57.4467L0.0114554 58.0151V61.8032C0.0228997 64.1264 1.89975 66.0109 4.22294 66.0299H8.65568C10.9789 66.0109 12.8557 64.1264 12.8672 61.8032V60.365H83.6042C84.5693 60.3765 85.5078 60.056 86.2631 59.4571C86.9917 60.0598 87.9111 60.3841 88.8533 60.365H89.4904C90.444 60.3612 91.3672 60.0408 92.1225 59.4571C92.8741 60.0408 93.7934 60.3574 94.7433 60.365H95.3918C96.5095 60.3688 97.5815 59.9187 98.3635 59.1214C99.157 58.3356 99.6033 57.2674 99.6071 56.1535V51.7284L96.418 52.2968V56.1535C96.4103 56.7143 95.9564 57.1683 95.3956 57.1759H94.7471C94.4801 57.1683 94.2207 57.0538 94.0299 56.8669C93.8354 56.68 93.7285 56.4244 93.7285 56.1535V51.7284L90.5394 52.2968V56.1535C90.5318 56.7219 90.0702 57.1759 89.5018 57.1759H88.8647C88.3001 57.1759 87.8348 56.7219 87.8271 56.1535V51.7284L84.638 52.2968V56.1535C84.6571 56.699 84.2336 57.1568 83.6881 57.1759C83.6652 57.1759 83.6386 57.1759 83.6118 57.1759H47.5776C47.0092 57.1759 46.5477 56.7219 46.54 56.1535V55.3868C46.5515 55.1121 46.6621 54.8565 46.8529 54.662C47.0398 54.4598 47.303 54.3453 47.5776 54.353H53.3875V51.1638H47.5776C45.2468 51.1753 43.3623 53.0598 43.3509 55.3906V56.1574C43.3471 56.5007 43.3852 56.844 43.4691 57.1797H12.871V47.7229L9.68567 48.2913ZM48.7488 46.4412C48.1079 47.082 48.1079 48.1197 48.7488 48.7644C49.3897 49.4052 50.4311 49.4052 51.0681 48.7644C51.6938 48.1158 51.6938 47.0897 51.0681 46.4412C50.7439 46.1284 50.3242 45.9758 49.9084 45.9758C49.4926 45.9758 49.073 46.1322 48.7488 46.4412ZM92.134 45.9758C91.6991 45.9758 91.2871 46.1474 90.9819 46.4564C90.3372 47.0973 90.3372 48.1387 90.9781 48.7834C91.619 49.4281 92.6604 49.4281 93.3051 48.7872C93.9498 48.1464 93.9498 47.1049 93.3089 46.4603C92.9999 46.1513 92.5803 45.9758 92.1416 45.9758C92.1378 45.9758 92.134 45.9758 92.134 45.9758ZM87.3083 45.9758C86.8734 45.9758 86.4614 46.1474 86.1563 46.4564C85.5116 47.0973 85.5116 48.1387 86.1524 48.7834C86.7933 49.4281 87.8348 49.4281 88.4795 48.7872C89.1242 48.1464 89.1241 47.1049 88.4833 46.4603C88.1743 46.1513 87.7547 45.9758 87.316 45.9758C87.316 45.9758 87.3121 45.9758 87.3083 45.9758ZM95.43 46.4526C94.7853 47.0935 94.7853 48.1349 95.4261 48.7796C96.067 49.4243 97.1084 49.4243 97.7531 48.7834C98.3978 48.1425 98.3978 47.1011 97.7569 46.4564C97.4518 46.1474 97.0321 45.972 96.5972 45.972C96.5896 45.972 96.582 45.972 96.5744 45.972C96.1433 45.9758 95.7313 46.1474 95.43 46.4526ZM87.9263 26.12V42.5806H99.6033V39.7882H91.2871V26.12H87.9263V26.12ZM26.4096 32.5211H19.8406V25.9674H16.4836V42.5768H19.8406V35.3173H26.4096V42.5768H29.736V25.9712L26.4096 25.9674V32.5211ZM55.169 26.5282V26.5243C52.369 28.0426 50.7058 31.0486 50.9041 34.2263C50.8889 35.756 51.2246 37.2667 51.8883 38.6438C53.2883 41.4248 56.2181 43.0956 59.3233 42.8782C61.9173 42.8744 64.4274 41.9665 66.4187 40.307V33.6732H59.2088V36.4923H63.0465V38.5828C61.9173 39.4602 60.544 39.9561 59.1134 40.0057C56.2562 40.0057 54.3565 38.0563 54.3565 34.0928C54.3565 30.465 56.1952 28.569 59.1516 28.569C60.8645 28.4546 62.4285 29.5571 62.8901 31.2127L66.2165 30.5832C65.5604 27.5467 63.2449 25.7003 59.1555 25.7003C59.0639 25.6965 58.9685 25.6965 58.8769 25.6965C57.599 25.6927 56.3325 25.9788 55.169 26.5282ZM3.39514 26.2687H3.40657C1.7319 26.9249 0.625614 28.5347 0.61417 30.3315C0.61417 32.9484 2.327 34.4132 5.93576 35.3135C7.33196 35.653 8.22462 35.8934 8.61754 36.0307C9.73527 36.4312 10.1625 36.9729 10.1625 37.7397C10.1625 38.9871 9.05242 40.0438 6.88945 40.0438C5.03548 40.1888 3.41039 38.804 3.26543 36.9463C3.26162 36.9157 3.26163 36.889 3.25782 36.8585L0 37.1751C0.453956 40.8869 2.66652 42.8744 6.84749 42.8744C8.08729 42.9125 9.31946 42.7027 10.4753 42.2564C12.314 41.5125 13.5157 39.7234 13.5119 37.7397C13.5424 36.8089 13.3097 35.8896 12.8443 35.0846C11.9364 33.677 10.6394 32.9827 7.38157 32.2007C6.29436 32.0214 5.24911 31.6475 4.29924 31.0944C3.74228 30.6633 3.64309 29.8622 4.07798 29.3053C4.15046 29.2099 4.23819 29.126 4.33738 29.0573C5.01259 28.6186 5.80988 28.4088 6.6148 28.4508C8.51455 28.4508 9.37287 29.1565 9.67042 30.8693L13.0198 30.7167C12.9168 27.684 10.8301 25.6813 6.65294 25.6813C6.58046 25.6813 6.50797 25.6774 6.43549 25.6774C5.39406 25.6889 4.36028 25.8834 3.39514 26.2687ZM72.4231 34.2797C72.4231 30.4535 74.2733 28.5652 77.0428 28.5652C79.8123 28.5652 81.6091 30.4154 81.6091 34.2301C81.6091 38.0678 79.7093 40.0057 77.0428 40.0057C74.3763 40.0057 72.4231 38.0411 72.4231 34.2797ZM71.2749 27.8519C69.6193 29.6105 68.7801 31.9871 68.9594 34.3942C68.9594 39.6852 72.1065 42.8744 77.039 42.8744C81.9219 42.8744 85.0805 39.6547 85.0805 34.3064C85.0805 28.92 81.8837 25.6965 77.0008 25.6965C76.8292 25.6851 76.6575 25.6774 76.4897 25.6774C74.5365 25.6774 72.6596 26.4557 71.2749 27.8519ZM36.0838 34.2721C36.0838 30.4459 37.9339 28.5576 40.7034 28.5576C43.4729 28.5576 45.2697 30.4078 45.2697 34.2225C45.2697 38.0602 43.3699 39.9981 40.7034 39.9981C38.0369 39.9981 36.0838 38.0335 36.0838 34.2721ZM34.9393 27.8442C33.2837 29.6028 32.4445 31.9794 32.6238 34.3865C32.6238 39.6776 35.771 42.8667 40.7034 42.8667C45.5863 42.8667 48.745 39.6471 48.745 34.295C48.745 28.9086 45.5482 25.6851 40.6653 25.6851C40.4936 25.6736 40.322 25.666 40.1503 25.666C38.201 25.6736 36.3203 26.4518 34.9393 27.8442Z" fill="white"/>
</mask>
<g mask="url(#mask0_659_11)">
<path d="M99.6074 25.6924H0.0117188V66.0372H99.6074V25.6924Z" fill="#2EADBA"/>
</g>
<mask id="mask1_659_11" style="mask-type:luminance" maskUnits="userSpaceOnUse" x="113" y="0" width="77" height="77">
<path d="M165.079 59.7543C164.965 59.8268 164.85 59.9069 164.736 59.9642C164.702 59.987 164.66 60.0137 164.618 60.0328C164.492 60.1129 164.362 60.1854 164.233 60.2617C164.103 60.338 163.985 60.4029 163.862 60.4715C163.74 60.5402 163.66 60.586 163.561 60.6394C163.462 60.6928 163.363 60.7462 163.26 60.7996C163.157 60.853 163.046 60.9102 162.939 60.9636C162.874 60.9979 162.813 61.0285 162.749 61.059C162.363 61.2535 161.97 61.4328 161.574 61.6007C161.505 61.6312 161.432 61.6655 161.36 61.6922C161.246 61.7418 161.127 61.7914 161.009 61.8448C160.891 61.8982 160.727 61.9555 160.582 62.0127L160.326 62.108L160.284 62.1233C160.143 62.1767 160.002 62.2263 159.861 62.2759L159.613 62.3636C159.46 62.4132 159.311 62.4628 159.151 62.5162C158.991 62.5658 158.827 62.6154 158.659 62.6688L158.465 62.7222L158.194 62.7947L157.927 62.8672C157.736 62.913 157.545 62.9626 157.354 63.0045C157.259 63.0312 157.16 63.0503 157.065 63.0694L156.866 63.1113C156.729 63.1418 156.592 63.1686 156.454 63.1953C156.443 63.1991 156.428 63.2029 156.416 63.2029L156.027 63.2715C155.874 63.2982 155.733 63.3249 155.581 63.344L155.314 63.386C155.035 63.428 154.753 63.4623 154.467 63.4928L154.348 63.5043C153.914 63.55 153.475 63.5843 153.032 63.6072L152.613 63.6263C152.46 63.6263 152.323 63.6378 152.178 63.6378C152.033 63.6378 151.857 63.6378 151.693 63.6378H151.194C151.053 63.6378 150.919 63.6378 150.778 63.6263L150.374 63.6072C150.168 63.5958 149.969 63.5844 149.767 63.5691C149.687 63.5691 149.607 63.5615 149.527 63.55L149.294 63.5271C149.183 63.5195 149.076 63.5081 148.966 63.4928C148.878 63.4852 148.787 63.4737 148.699 63.4623C148.638 63.4623 148.581 63.4508 148.519 63.4394C148.218 63.4012 147.928 63.3593 147.631 63.3097L147.261 63.2449L147.097 63.2143C146.913 63.18 146.73 63.1418 146.547 63.1075C146.364 63.0694 146.208 63.035 146.04 62.9969L145.594 62.8901C145.403 62.8443 145.216 62.7947 145.029 62.7375C144.899 62.7032 144.773 62.6688 144.648 62.6268C144.548 62.6001 144.449 62.5696 144.354 62.5391C144.258 62.5086 144.194 62.4857 144.113 62.4628C143.93 62.4056 143.747 62.3446 143.564 62.2797L143.495 62.2568C143.312 62.192 143.133 62.1309 142.954 62.0623C142.687 61.9631 142.42 61.8563 142.153 61.7456H142.145C141.981 61.677 141.817 61.6083 141.657 61.5396C141.538 61.4862 141.416 61.4367 141.298 61.3794C141.18 61.3222 141.104 61.2917 141.008 61.2459L140.879 61.1811L140.608 61.0476C140.474 60.9827 140.341 60.914 140.207 60.8454C140.074 60.7767 139.936 60.7042 139.803 60.6317C139.711 60.586 139.62 60.5326 139.532 60.4792C139.406 60.4105 139.284 60.3418 139.162 60.2693C139.04 60.1968 138.903 60.1167 138.777 60.0404C138.738 60.0176 138.7 59.9947 138.662 59.9718C138.544 59.9069 138.433 59.8345 138.319 59.762L138.288 59.7429L130.823 70.0618L130.85 70.0809C132.349 71.0727 133.913 71.9578 135.538 72.7283C135.74 72.8237 135.946 72.9191 136.152 73.0144C136.293 73.0793 136.434 73.1403 136.576 73.2014C136.686 73.2548 136.801 73.3006 136.911 73.354C137.441 73.579 137.979 73.7965 138.525 73.9948C138.609 74.0292 138.689 74.0597 138.773 74.0864C138.979 74.1627 139.185 74.239 139.391 74.3076C139.795 74.445 140.203 74.5785 140.615 74.7044C140.833 74.773 141.054 74.8379 141.275 74.8989C141.497 74.96 141.714 75.0248 141.939 75.082C142.164 75.1393 142.385 75.2003 142.607 75.2537C143.026 75.3529 143.45 75.4521 143.873 75.5436C143.999 75.5703 144.121 75.597 144.247 75.6199L144.663 75.7038C144.884 75.7458 145.101 75.7839 145.327 75.8221C145.498 75.8488 145.67 75.8793 145.842 75.906L145.922 75.9213C146.025 75.9404 146.131 75.9518 146.238 75.9671C146.463 75.9976 146.692 76.0319 146.914 76.0586C147.02 76.0701 147.127 76.0853 147.238 76.0967L147.497 76.1273L147.779 76.1578C147.955 76.1769 148.13 76.1921 148.306 76.2074C148.409 76.2188 148.512 76.2303 148.615 76.2341C148.722 76.2417 148.821 76.2532 148.916 76.257C148.947 76.2608 148.977 76.2608 149.008 76.257C149.118 76.2646 149.229 76.2761 149.343 76.2799H149.431C149.511 76.2799 149.584 76.2875 149.672 76.2913C149.851 76.3027 150.03 76.3104 150.209 76.318C150.332 76.318 150.457 76.3256 150.579 76.3295H150.793H151.007H151.663H152.319H152.533H152.746C152.872 76.3295 152.994 76.3295 153.12 76.318C153.299 76.318 153.479 76.3027 153.658 76.2913C153.738 76.2913 153.811 76.2913 153.895 76.2799H153.986C154.097 76.2799 154.211 76.2684 154.322 76.257C154.352 76.2608 154.383 76.2608 154.41 76.257C154.513 76.257 154.615 76.2417 154.718 76.2341C154.821 76.2265 154.924 76.2188 155.027 76.2074C155.203 76.1959 155.378 76.1769 155.55 76.1578L155.832 76.1273L156.092 76.0967C156.202 76.0853 156.309 76.0739 156.416 76.0586C156.641 76.0281 156.87 75.9976 157.091 75.9671C157.194 75.9518 157.301 75.9404 157.404 75.9213L157.484 75.906C157.656 75.8793 157.831 75.8526 158.003 75.8221C158.224 75.7839 158.442 75.7458 158.667 75.7038L159.083 75.6199C159.205 75.597 159.331 75.5703 159.453 75.5436C159.876 75.4559 160.3 75.3605 160.719 75.2537C160.944 75.2003 161.165 75.1431 161.387 75.082C161.608 75.021 161.833 74.96 162.05 74.8989C162.268 74.8341 162.489 74.773 162.71 74.7044C163.122 74.5785 163.531 74.4488 163.935 74.3076C164.141 74.2352 164.347 74.155 164.553 74.0864C164.637 74.0597 164.721 74.0292 164.801 73.9948C165.343 73.7927 165.88 73.579 166.415 73.354C166.525 73.3044 166.64 73.2586 166.75 73.2014C166.888 73.1441 167.033 73.0793 167.174 73.0144C167.38 72.9229 167.586 72.8275 167.788 72.7283C169.413 71.9578 170.985 71.0727 172.484 70.0809C172.511 70.0656 172.533 70.0466 172.556 70.0275L165.152 59.7047L165.079 59.7543ZM143.179 49.5537V49.5613C143.183 54.2649 146.997 58.0758 151.705 58.072C156.408 58.0682 160.219 54.2535 160.216 49.5499C160.212 44.8463 156.401 41.0353 151.697 41.0353C146.994 41.0353 143.179 44.8501 143.179 49.5537ZM171.389 13.2143C168.726 15.507 168.425 19.5239 170.718 22.1866C179.751 32.6734 178.568 48.497 168.082 57.5303C167.601 57.9461 167.101 58.3429 166.59 58.7167L174.033 69.0394C190.875 56.7216 194.548 33.0854 182.23 16.2394C181.639 15.4307 181.014 14.6449 180.361 13.8857C179.102 12.4247 177.325 11.6732 175.536 11.6732C174.067 11.6732 172.591 12.1805 171.389 13.2143ZM123.037 13.8781C109.418 29.6864 111.196 53.5439 127.008 67.1626C127.783 67.8302 128.584 68.4634 129.411 69.0662L136.85 58.7434C130.407 54.0246 126.6 46.521 126.596 38.5367L126.608 38.5329C126.608 32.5322 128.763 26.7262 132.681 22.179C134.973 19.5163 134.672 15.4994 132.009 13.2067C130.808 12.1729 129.331 11.6655 127.859 11.6655C126.07 11.6693 124.292 12.417 123.037 13.8781ZM151.697 0C147.852 0 144.731 3.11666 144.731 6.96575V29.1447C144.731 32.9938 147.852 36.1105 151.697 36.1105C155.542 36.1105 158.663 32.9938 158.663 29.1447V6.96575C158.663 3.11666 155.546 0 151.697 0Z" fill="white"/>
</mask>
<g mask="url(#mask1_659_11)">
<path d="M194.549 0H109.419V76.3371H194.549V0Z" fill="url(#paint0_linear_659_11)"/>
</g>
<defs>
<linearGradient id="paint0_linear_659_11" x1="113.412" y1="38.1874" x2="189.97" y2="38.1874" gradientUnits="userSpaceOnUse">
<stop stop-color="#25B4BA"/>
<stop offset="1" stop-color="#6B78B7"/>
</linearGradient>
</defs>
</svg>
