<svg width="182" height="63" viewBox="0 0 182 63" fill="none" xmlns="http://www.w3.org/2000/svg">
<path d="M0 49.8497V42.6612H3.25331C3.29257 42.6612 3.40475 42.5768 3.59546 42.4023C3.78617 42.2109 3.93762 41.9801 4.0498 41.6986C4.16199 41.4228 4.22369 41.102 4.22369 40.7361V11.4586H13.2151V27.074C15.5934 23.3475 18.8748 21.169 23.0648 20.5441C23.4631 20.5272 23.8557 20.516 24.2371 20.516C25.1122 20.516 25.9984 20.5666 26.8902 20.6567C28.1467 20.8087 29.3639 21.0958 30.5418 21.518C31.7983 21.9402 32.9706 22.4975 34.0531 23.1955C35.1357 23.8935 36.0836 24.7435 36.8914 25.7455C37.6991 26.7475 38.3497 27.8959 38.8321 29.1849C39.3201 30.474 39.5781 31.9207 39.6174 33.5251V34.0711C39.6174 34.1668 39.6286 34.2906 39.6455 34.4426V40.7473C39.6455 41.952 39.4099 43.0778 38.9443 44.1305C38.4787 45.1831 37.8561 46.1007 37.0765 46.8831C36.1622 47.8176 35.074 48.5494 33.8063 49.0729C32.5387 49.5964 31.1644 49.861 29.6836 49.861H0V49.8497ZM13.2488 42.6612H29.779C29.8182 42.6612 29.9304 42.5768 30.1211 42.4023C30.3118 42.2109 30.4633 41.9801 30.5755 41.6986C30.6876 41.4228 30.7493 41.102 30.7493 40.7361V34.9492C30.7493 34.7578 30.7437 34.5552 30.7325 34.3357C30.7213 34.1161 30.7157 33.891 30.7157 33.6602C30.6764 32.8552 30.5642 32.1459 30.3735 31.5267C30.1828 30.9075 29.9248 30.3727 29.6051 29.9224C29.2797 29.472 28.8983 29.1005 28.4608 28.8022C28.0233 28.5038 27.5465 28.2618 27.0361 28.0704C26.5593 27.9184 26.0489 27.8114 25.4936 27.7551C25.1122 27.6988 24.7307 27.6707 24.3493 27.6707C24.1586 27.6707 23.9567 27.6819 23.7491 27.6988C20.8155 27.8508 18.3587 28.9935 16.3675 31.1214C14.3762 33.2492 13.3386 35.681 13.2432 38.4112V42.6612H13.2488ZM74.4951 49.8497H70.3555C70.3163 50.6322 70.1031 51.6792 69.7105 52.9852C69.3178 54.2912 68.8074 55.4677 68.168 56.5091C67.5285 57.5505 66.7713 58.4399 65.8963 59.1717C65.0212 59.9091 64.0789 60.5227 63.0692 61.0181C62.0428 61.5134 60.9826 61.8962 59.9001 62.1664C58.8175 62.431 57.7125 62.628 56.5907 62.7519C55.4689 62.8757 54.3302 62.9489 53.1803 62.9658C52.0304 62.9827 50.4038 62.9939 48.3116 62.9939V55.8392C50.1794 55.8392 51.5256 55.8336 52.367 55.8223C53.2028 55.811 54.0049 55.7716 54.7677 55.6928C55.5306 55.614 56.2093 55.5183 56.8094 55.3945C57.4096 55.2706 57.9369 55.1018 58.3912 54.8935C58.7726 54.7021 59.126 54.4488 59.4626 54.1335C59.7935 53.8183 60.102 53.413 60.3769 52.9176C60.6517 52.4223 60.8817 51.7974 61.0612 51.0544C61.2407 50.3113 61.3416 49.9173 61.3585 49.8779C60.5227 49.8779 59.3672 49.7934 57.892 49.6189C56.4168 49.4444 55.0874 49.1967 53.9095 48.8759C52.7316 48.5494 51.6715 48.1272 50.7403 47.6037C49.8092 47.0802 49.0015 46.461 48.3116 45.7573C47.5487 44.9523 46.9654 44.0967 46.5559 43.1791C46.1465 42.2616 45.8492 41.2933 45.6697 40.2688C45.4902 39.2499 45.3892 38.1523 45.3724 36.987V33.5476C45.3892 32.0221 45.5855 30.6148 45.9557 29.3369C46.3259 28.0591 46.8196 26.9051 47.4422 25.8862C48.0592 24.8673 48.7884 23.9779 49.6241 23.2236C50.4599 22.4693 51.3573 21.8557 52.3053 21.3772C54.0161 20.5385 55.8559 20.1163 57.8135 20.1163H58.0715C60.0908 20.1163 61.9923 20.5666 63.7816 21.4617C64.6959 21.9402 65.5653 22.5481 66.3955 23.2799C67.2256 24.0173 67.9324 24.873 68.5213 25.8581C69.1103 26.8432 69.5759 27.9409 69.918 29.1512C70.2602 30.3671 70.4341 31.6787 70.4341 33.0916V42.6612H74.4895V49.8497H74.4951ZM61.4482 33.0916C61.4482 31.5267 61.1958 30.2883 60.691 29.382C60.1861 28.4757 59.5916 27.8508 58.9073 27.5074C58.5651 27.3555 58.251 27.271 57.9649 27.2485C57.7349 27.2485 57.4489 27.3273 57.1067 27.4793C56.4 27.8396 55.7774 28.5094 55.2389 29.4833C54.6948 30.4571 54.4087 31.8419 54.3695 33.6376C54.3526 34.3244 54.3414 34.9661 54.3414 35.5572C54.3414 35.8443 54.3526 36.1314 54.3695 36.4185C54.3695 37.2797 54.4143 38.034 54.4985 38.6814C54.5826 39.3288 54.7004 39.8692 54.8575 40.3026C55.0089 40.7304 55.2108 41.0738 55.4576 41.3215C55.8559 41.7437 56.6299 42.0814 57.7686 42.3404C58.9129 42.5993 60.1357 42.7344 61.4538 42.7569V33.0916H61.4482ZM89.3537 22.717V40.7417C89.3537 41.0288 89.3425 41.1976 89.3257 41.2596C89.3425 41.3722 89.4098 41.5467 89.5276 41.7775C89.6398 42.0083 89.7856 42.2165 89.9539 42.4079C90.1446 42.5824 90.268 42.6669 90.3241 42.6669H96.4885V49.861H90.3521C89.1125 49.861 87.9626 49.6865 86.8969 49.3318C85.8312 48.9772 85.1468 48.6957 84.844 48.4875C84.5747 48.6957 83.9072 48.9772 82.8303 49.3318C81.7533 49.6865 80.5978 49.861 79.3638 49.861H72.7675V42.6612H79.3919C79.448 42.6612 79.5714 42.5768 79.7621 42.4023C80.1042 42.042 80.3062 41.5973 80.3623 41.0851V22.717H89.3537ZM79.8182 58.3611C79.8182 57.7306 79.9416 57.1452 80.1884 56.5991C80.4352 56.0531 80.7605 55.5746 81.1587 55.1693C81.557 54.7584 82.0226 54.4375 82.5554 54.2067C83.0883 53.9759 83.6716 53.8633 84.2943 53.8633C84.8664 53.8633 85.4105 53.9759 85.9377 54.2067C86.4594 54.4375 86.9193 54.7584 87.3064 55.1693C87.699 55.5803 88.0075 56.0587 88.2319 56.5991C88.4619 57.1452 88.574 57.7306 88.574 58.3611C88.574 58.9915 88.4619 59.5714 88.2319 60.0949C88.0019 60.6184 87.6934 61.0856 87.3064 61.4853C86.9137 61.885 86.4594 62.2002 85.9377 62.431C85.4161 62.6618 84.8664 62.7744 84.2943 62.7744C83.666 62.7744 83.0827 62.6618 82.5554 62.431C82.0226 62.2002 81.557 61.885 81.1587 61.4853C80.7605 61.0856 80.4352 60.6184 80.1884 60.0949C79.9416 59.5657 79.8182 58.9915 79.8182 58.3611ZM135.551 40.7417C135.551 41.4116 135.483 42.0477 135.349 42.6612H139.943V49.8554H94.7497V42.6612H99.1473C99.1865 42.6612 99.2987 42.5768 99.4894 42.4023C99.6801 42.2109 99.8316 41.9801 99.9438 41.6986C100.056 41.4228 100.118 41.102 100.118 40.7361V11.4586H109.109V27.074C111.487 23.3475 114.769 21.169 118.959 20.5441C119.357 20.5272 119.75 20.516 120.131 20.516C121.006 20.516 121.892 20.5666 122.784 20.6567C124.041 20.8087 125.258 21.0958 126.441 21.518C127.698 21.9402 128.87 22.4975 129.953 23.1955C131.035 23.8935 131.983 24.7435 132.791 25.7455C133.599 26.7475 134.249 27.8959 134.732 29.1849C135.22 30.474 135.478 31.9207 135.517 33.5251V34.0711C135.517 34.1668 135.528 34.2906 135.545 34.4426V40.7417H135.551ZM109.143 42.6612H125.673C125.712 42.6612 125.824 42.5768 126.015 42.4023C126.206 42.2109 126.357 41.9801 126.469 41.6986C126.582 41.4228 126.643 41.102 126.643 40.7361V34.9492C126.643 34.7578 126.638 34.5552 126.626 34.3357C126.615 34.1161 126.61 33.891 126.61 33.6602C126.57 32.8552 126.458 32.1459 126.268 31.5267C126.077 30.9075 125.819 30.3727 125.499 29.9224C125.174 29.472 124.792 29.1005 124.355 28.8022C123.917 28.5038 123.44 28.2618 122.93 28.0704C122.453 27.9184 121.943 27.8114 121.388 27.7551C121.006 27.6988 120.625 27.6707 120.243 27.6707C120.053 27.6707 119.851 27.6819 119.643 27.6988C116.71 27.8508 114.253 28.9935 112.261 31.1214C110.27 33.2492 109.233 35.681 109.137 38.4112V42.6612H109.143ZM141.423 21.2872C144.581 20.6004 147.01 20.257 148.704 20.257C148.99 20.257 149.265 20.2683 149.534 20.2852C151.458 20.364 153.191 20.7017 154.745 21.3041C156.299 21.9064 157.673 22.7395 158.868 23.8091C160.068 24.8786 161.106 26.1283 161.981 27.5637C162.705 28.7459 163.327 30.0406 163.849 31.4479C164.37 32.8495 164.825 34.33 165.206 35.8893C165.588 37.4486 165.919 39.0586 166.205 40.7304C166.491 42.4023 166.777 44.1361 167.063 45.9318V46.247C167.063 46.6298 166.984 47.0182 166.833 47.4235C166.603 47.9414 166.294 48.358 165.907 48.6845C165.515 49.011 165.077 49.2755 164.578 49.4895C164.084 49.6977 163.591 49.816 163.092 49.8328C162.996 49.8497 162.822 49.861 162.576 49.861H138.249V42.6612H157.46C157.421 42.3967 157.28 41.6086 157.034 40.297C156.787 38.991 156.512 37.7526 156.204 36.5873C155.901 35.4221 155.558 34.3525 155.188 33.3787C154.818 32.4048 154.392 31.5267 153.915 30.7442C153.494 30.0969 153.034 29.534 152.53 29.0667C152.025 28.5995 151.447 28.2336 150.791 27.9803C150.134 27.727 149.394 27.575 148.581 27.5356H148.126C147.324 27.5356 146.051 27.7157 144.301 28.0816L141.423 21.2872ZM145.933 13.0348C145.933 12.4043 146.057 11.8189 146.303 11.2728C146.55 10.7268 146.876 10.2539 147.274 9.84301C147.672 9.43208 148.138 9.11122 148.67 8.88042C149.203 8.64962 149.787 8.53704 150.409 8.53704C150.981 8.53704 151.525 8.64962 152.053 8.88042C152.574 9.11122 153.034 9.43208 153.421 9.84301C153.814 10.2539 154.123 10.7324 154.347 11.2728C154.577 11.8189 154.689 12.4043 154.689 13.0348C154.689 13.6652 154.577 14.245 154.347 14.7686C154.117 15.2921 153.808 15.7593 153.421 16.159C153.029 16.5586 152.574 16.8739 152.053 17.1047C151.531 17.3355 150.981 17.4481 150.409 17.4481C149.781 17.4481 149.198 17.3355 148.67 17.1047C148.138 16.8739 147.672 16.5586 147.274 16.159C146.876 15.7593 146.55 15.2977 146.303 14.7686C146.057 14.2394 145.933 13.6652 145.933 13.0348ZM182 8.73406L173.121 9.47711L172.779 7.03967L175.319 6.89894C174.977 6.44298 174.691 6.06582 174.461 5.77873C174.231 5.49164 174.08 5.21581 174.007 4.94561C173.951 4.79362 173.923 4.63037 173.923 4.45587C173.923 4.34328 173.934 4.21944 173.951 4.08434C174.007 3.79725 174.153 3.41447 174.377 2.93598C174.641 2.3224 175.061 1.88332 175.634 1.60186C176.206 1.32603 176.851 1.14027 177.574 1.04457C177.933 1.00517 178.298 0.988281 178.657 0.988281H179.369C179.958 1.04457 180.514 1.12338 181.024 1.21908L180.424 3.53831C180.026 3.4595 179.616 3.40321 179.195 3.3638C178.988 3.34692 178.786 3.33566 178.595 3.33566C178.405 3.33566 178.214 3.34692 178.023 3.3638C177.339 3.44261 176.946 3.58334 176.851 3.79162C176.812 3.87043 176.795 3.95487 176.795 4.05057C176.795 4.20255 176.862 4.37706 176.997 4.56845C177.171 4.87243 177.423 5.19892 177.765 5.5423C178.107 5.88568 178.382 6.22907 178.595 6.57245L181.652 6.28536L182 8.73406ZM181.798 11.543V49.5345H172.835V11.543H181.798Z" fill="#F5C044"/>
</svg>
