<svg width="137" height="37" viewBox="0 0 137 37" fill="none" xmlns="http://www.w3.org/2000/svg">
    <path d="M11.4442 6.06836H8.09888V9.29021H11.4442V6.06836Z" fill="#333333" />
    <path d="M6.368 6.06836H3.02271V9.29021H6.368V6.06836Z" fill="#333333" />
    <path d="M24.5299 28.5586H21.1846V31.7804H24.5299V28.5586Z" fill="#333333" />
    <path
        d="M48.3592 20.9483C48.3592 22.6157 47.7135 23.4494 46.4427 23.4494H44.0384C44.3338 22.6157 44.4987 21.676 44.4987 20.6444V14.5893H40.7206V20.9483C40.7206 22.6157 40.0749 23.4494 38.8041 23.4494H36.3999C36.6953 22.6157 36.8601 21.676 36.8601 20.6444V14.5893H33.0546V20.7787C33.0546 21.5276 32.9996 22.001 32.8897 22.22C32.5943 23.0255 31.9967 23.4424 31.1381 23.4424H24.4475C24.7429 22.5804 24.9077 21.6689 24.9077 20.6374V14.5893H21.1022V20.7787C21.1022 22.5592 20.4565 23.4424 19.1857 23.4424H15.545C13.7109 23.4424 12.7904 22.4461 12.7904 20.6091V11.8691C7.98888 11.8691 5.58466 11.8691 5.58466 11.8974C2.02641 11.8974 0 14.5681 0 18.7014C0 22.5309 2.0745 25.4207 5.31676 25.4207C7.17831 25.4207 8.47659 24.8343 9.14977 23.7532C10.0153 26.0283 11.5265 27.1659 13.6834 27.1659H46.58C47.9264 27.1659 49.1422 26.6642 50.1932 25.6962C51.5121 24.4739 52.1647 22.7853 52.1647 20.6162V14.5893H48.3592V20.9483ZM8.90248 18.3976C8.90248 20.6727 7.93392 22.1988 6.34027 22.1988C4.82905 22.1988 3.75058 20.5879 3.75058 18.6449C3.75058 16.4829 4.884 14.7307 6.4227 14.7307H8.90248V18.3976Z"
        fill="#333333" />
    <path
        d="M79.5043 14.2852C76.8871 14.2852 74.6477 15.2531 72.8137 17.2244C73.6998 18.475 74.3249 19.337 74.7027 19.8598C75.7812 18.7223 77.6152 17.8603 79.2364 17.8603C82.3962 17.8603 84.7111 20.3049 84.876 23.442H67.0916V20.9196C67.0916 17.2244 64.5569 14.5607 61.1017 14.5607C57.6465 14.5607 54.9744 17.0901 54.9744 20.8348C54.9744 24.5795 57.5641 27.1655 61.1017 27.1655C62.3725 27.1655 63.1281 27.109 63.4235 26.9959C63.1281 28.0769 62.2626 28.6351 60.8063 28.6351H60.4835V31.7439H60.8887C64.5569 31.7439 66.6108 30.2178 67.0435 27.1655H88.9013V25.8866C88.9013 18.6445 85.6934 14.3134 79.5111 14.2852H79.5043ZM63.3136 23.442H61.1292C59.7278 23.442 58.8074 22.2479 58.8074 20.6653C58.8074 19.1957 59.563 18.0581 60.9918 18.0581C62.4206 18.0581 63.3136 19.1109 63.3136 20.7501V23.442Z"
        fill="#333333" />
    <path
        d="M134.293 18.9582C134.004 18.6615 133.681 18.4212 133.338 18.2093C133.681 17.9902 134.004 17.75 134.293 17.4533C138.469 13.1575 134.293 1.90924 134.293 1.90924C134.293 1.90924 123.357 -2.38656 119.18 1.90924C118.899 2.20599 118.665 2.53807 118.452 2.89134C118.239 2.53807 118.006 2.20599 117.724 1.90924C113.548 -2.38656 102.612 1.90924 102.612 1.90924C102.612 1.90924 98.4423 13.1645 102.612 17.4533C102.9 17.75 103.223 17.9902 103.567 18.2093C103.223 18.4283 102.9 18.6685 102.612 18.9582C98.4423 23.254 102.612 34.5022 102.612 34.5022C102.612 34.5022 113.555 38.798 117.724 34.5022C118.006 34.2055 118.246 33.8734 118.452 33.5201C118.665 33.8734 118.899 34.2125 119.18 34.5022C123.357 38.798 134.293 34.5022 134.293 34.5022C134.293 34.5022 138.469 23.254 134.293 18.9582Z"
        fill="white" />
    <path style="mix-blend-mode:multiply"
        d="M119.551 8.75587C116.405 8.29661 112.881 8.38846 110.896 10.4374C108.911 12.4794 108.814 16.1039 109.261 19.3399C113.472 19.1209 117.717 17.4535 117.717 17.4535C117.717 17.4535 119.338 13.087 119.551 8.7488V8.75587Z"
        fill="url(#paint0_linear_325_7910)" />
    <path style="mix-blend-mode:multiply"
        d="M117.346 27.6622C120.492 28.1214 124.016 28.0225 126.001 25.9806C127.993 23.9387 128.083 20.3141 127.636 17.0781C123.425 17.2972 119.173 18.9646 119.173 18.9646C119.173 18.9646 117.552 23.3311 117.346 27.6693V27.6622Z"
        fill="url(#paint1_linear_325_7910)" />
    <path style="mix-blend-mode:multiply"
        d="M110.896 25.9811C110.896 25.9811 115.285 27.698 119.565 27.8746C119.393 23.4728 117.724 18.958 117.724 18.958C117.724 18.958 113.334 17.2411 109.062 17.0645C109.233 21.4662 110.903 25.9811 110.903 25.9811H110.896Z"
        fill="url(#paint2_linear_325_7910)" />
    <path style="mix-blend-mode:multiply"
        d="M119.18 17.4525C119.18 17.4525 123.57 19.1694 127.849 19.3461C127.677 14.9443 126.008 10.4365 126.008 10.4365C126.008 10.4365 121.619 8.71254 117.339 8.54297C117.511 12.9448 119.18 17.4525 119.18 17.4525Z"
        fill="url(#paint3_linear_325_7910)" />
    <path style="mix-blend-mode:multiply"
        d="M134.292 18.9574C132.719 17.3394 130.185 16.9437 127.643 17.0709C128.09 20.3069 127.993 23.9315 126.008 25.9734C124.016 28.0153 120.499 28.1142 117.353 27.655C117.229 30.2763 117.614 32.8763 119.18 34.5014C123.357 38.7972 134.292 34.5014 134.292 34.5014C134.292 34.5014 138.469 23.2532 134.292 18.9574Z"
        fill="url(#paint4_linear_325_7910)" />
    <path style="mix-blend-mode:multiply"
        d="M134.292 1.90924C134.292 1.90924 123.357 -2.38656 119.18 1.90924C117.648 3.48484 117.25 5.99308 117.339 8.54371C121.619 8.71328 126.008 10.4373 126.008 10.4373C126.008 10.4373 127.677 14.9521 127.849 19.3468C130.329 19.4457 132.767 19.0289 134.299 17.4533C138.476 13.1575 134.299 1.90924 134.299 1.90924H134.292Z"
        fill="url(#paint5_linear_325_7910)" />
    <path style="mix-blend-mode:multiply"
        d="M110.896 10.4373C112.881 8.38827 116.405 8.29642 119.551 8.75568C119.682 6.13439 119.29 3.5343 117.717 1.90924C113.541 -2.38656 102.605 1.90924 102.605 1.90924C102.605 1.90924 98.4353 13.1645 102.605 17.4533C104.178 19.0712 106.713 19.4669 109.261 19.3397C108.815 16.1038 108.904 12.4792 110.896 10.4373Z"
        fill="url(#paint6_linear_325_7910)" />
    <path style="mix-blend-mode:multiply"
        d="M110.896 25.9811C110.896 25.9811 109.227 21.4663 109.055 17.0645C106.575 16.9656 104.137 17.3824 102.605 18.958C98.4353 23.2538 102.605 34.502 102.605 34.502C102.605 34.502 113.547 38.7978 117.717 34.502C119.249 32.9264 119.654 30.4182 119.558 27.8676C115.279 27.6909 110.889 25.974 110.889 25.974L110.896 25.9811Z"
        fill="url(#paint7_linear_325_7910)" />
    <defs>
        <linearGradient id="paint0_linear_325_7910" x1="116.975" y1="17.9692" x2="111.422" y2="9.96074"
            gradientUnits="userSpaceOnUse">
            <stop stop-color="#0099C4" />
            <stop offset="1" stop-color="#8ED8F8" />
        </linearGradient>
        <linearGradient id="paint1_linear_325_7910" x1="119.18" y1="18.9575" x2="126.201" y2="25.7828"
            gradientUnits="userSpaceOnUse">
            <stop stop-color="#52BA69" />
            <stop offset="1" stop-color="#D7E488" />
        </linearGradient>
        <linearGradient id="paint2_linear_325_7910" x1="112.304" y1="26.6876" x2="116.494" y2="18.3445"
            gradientUnits="userSpaceOnUse">
            <stop stop-color="#839DD1" />
            <stop offset="1" stop-color="#5B6AB1" />
        </linearGradient>
        <linearGradient id="paint3_linear_325_7910" x1="119.18" y1="17.4525" x2="126.2" y2="10.6343"
            gradientUnits="userSpaceOnUse">
            <stop stop-color="#00AF9D" />
            <stop offset="1" stop-color="#98D4C3" />
        </linearGradient>
        <linearGradient id="paint4_linear_325_7910" x1="117.326" y1="26.7294" x2="136.154" y2="26.7294"
            gradientUnits="userSpaceOnUse">
            <stop stop-color="#52BA69" />
            <stop offset="1" stop-color="#D7E488" />
        </linearGradient>
        <linearGradient id="paint5_linear_325_7910" x1="122.944" y1="16.4358" x2="132.286" y2="0.717094"
            gradientUnits="userSpaceOnUse">
            <stop stop-color="#00AF9D" />
            <stop offset="1" stop-color="#98D4C3" />
        </linearGradient>
        <linearGradient id="paint6_linear_325_7910" x1="111.59" y1="18.9582" x2="108.549" y2="0.303611"
            gradientUnits="userSpaceOnUse">
            <stop stop-color="#0099C4" />
            <stop offset="1" stop-color="#8ED8F8" />
        </linearGradient>
        <linearGradient id="paint7_linear_325_7910" x1="102.735" y1="34.6434" x2="114.662" y2="22.6358"
            gradientUnits="userSpaceOnUse">
            <stop stop-color="#839DD1" />
            <stop offset="1" stop-color="#5B6AB1" />
        </linearGradient>
    </defs>
</svg>