<svg width="89" height="59" viewBox="0 0 89 59" fill="none" xmlns="http://www.w3.org/2000/svg">
<path d="M39.5449 27.1654L39.5451 27.1648L39.1068 28.7094L39.5449 27.1654ZM41.6749 32.8254H41.6754L38.7817 32.8358L41.6749 32.8254ZM41.9286 32.6293L42.4326 30.7178L41.9286 32.6297V32.6293ZM50.1686 23.8264L49.4557 27.1055L50.1686 23.8262V23.8264Z" fill="#131B28"/>
<path d="M52.4214 23.6294H50.4135C50.3021 23.6294 50.1915 23.7183 50.1677 23.8265L49.4549 27.1058L48.7421 30.3851C48.7186 30.4934 48.608 30.582 48.4966 30.582H47.0754C45.6694 30.582 45.8321 29.615 46.12 28.2902L46.1286 28.2501L46.1603 28.0832C46.1621 28.0724 46.1643 28.0616 46.1662 28.0517L46.2302 27.7117L46.2991 27.3474C46.3201 27.2375 46.3518 27.077 46.3725 26.9759L46.6965 25.4015L47.0208 23.8272C47.0433 23.7186 46.9702 23.6295 46.8586 23.6295H44.7978C44.6863 23.6295 44.5761 23.7186 44.5533 23.8269L44.1101 25.9175L43.6671 28.0078C43.6667 28.0087 43.6666 28.01 43.6664 28.0109L43.6252 28.2052C43.1148 30.5224 43.2503 32.7321 46.0242 32.8013C46.0695 32.8026 46.1046 32.8028 46.1046 32.8028H50.4589C50.5703 32.8028 50.6807 32.7139 50.7039 32.6053L51.643 28.2163L52.5819 23.8269C52.6051 23.7185 52.5328 23.6294 52.4214 23.6294ZM60.4313 30.6049C60.5428 30.6049 60.6158 30.6938 60.5934 30.8024L60.3985 31.7498M60.2038 32.6979L60.3986 31.7497L60.2036 32.6982V32.6979H60.2038ZM59.9593 32.8973L59.9602 32.8971C59.3693 32.9019 57.5937 32.9153 56.2591 32.9153C57.8833 32.9153 59.9591 32.8973 59.9591 32.8973H59.9593ZM55.0613 29.3844C55.0596 29.2806 55.1784 29.1019 55.2901 29.1019L55.0393 29.0977C54.9262 30.2278 55.0613 29.3844 55.0613 29.3844Z" fill="#131B28"/>
<path d="M60.4309 30.6046C60.5424 30.6046 60.6154 30.6935 60.5931 30.8021L60.3981 31.7495L60.3663 31.9042M57.3844 32.9123C57.2219 32.9129 57.0597 32.9136 56.8999 32.9139C57.0597 32.9137 57.2221 32.913 57.3844 32.9123ZM59.9602 32.8967C59.9602 32.8967 59.9602 32.8967 59.9602 32.8967V32.8967ZM60.2034 32.698L60.3667 31.9041L60.2033 32.6985L60.2034 32.698ZM27.1831 29.4079L27.495 28.0331L27.1384 29.6046L26.7962 31.2054L27.0962 29.8021C27.1193 29.6935 27.1586 29.5161 27.1831 29.4079ZM30.9161 23.606H28.7111C28.5996 23.606 28.4883 23.6945 28.4633 23.8024L28.2543 24.7201L28.0452 25.638C28.0206 25.7461 28.0917 25.8346 28.2033 25.8346H30.4254C30.5368 25.8346 30.6476 25.7461 30.6715 25.6377L30.8736 24.7201L31.0757 23.8031V23.8028C31.0994 23.6946 31.0278 23.606 30.9161 23.606ZM30.4363 26.6587V26.6584L29.7896 29.6336L30.4363 26.6587ZM24.0307 36.5164C24.0307 36.5164 25.1422 36.5307 25.8488 36.5307C25.3121 36.5307 24.4256 36.5208 24.0298 36.5161L24.0307 36.5164Z" fill="#131B28"/>
<path d="M30.2769 26.4618H28.0545C27.9431 26.4618 27.8317 26.5503 27.8071 26.6586L27.4949 28.0334L27.1831 29.4083C27.1585 29.5164 27.1193 29.6939 27.0961 29.8025L26.7962 31.2058L26.4965 32.609C26.4671 32.7401 26.4314 32.8696 26.3895 32.9973C26.3895 32.9973 25.9744 34.2257 25.2763 34.2116C25.2466 34.2111 25.2177 34.2109 25.1892 34.2101L24.5851 34.1989H24.5848C24.4735 34.1973 24.3616 34.2837 24.3355 34.3913L24.1051 35.3548L23.875 36.3178C23.8491 36.4255 23.919 36.5143 24.0297 36.5162C24.4256 36.5209 25.3121 36.5308 25.8487 36.5308C27.5922 36.5308 28.5113 35.5702 29.1006 32.8061L29.79 29.6338L30.4367 26.6586C30.4602 26.5505 30.3882 26.4618 30.2768 26.4618H30.2769ZM61.8471 32.8026C61.7357 32.8026 61.6634 32.7137 61.6868 32.6051L63.3586 24.8184" fill="#131B28"/>
<path d="M61.711 32.7036C61.6974 32.6494 61.7054 32.5163 61.7291 32.4078L62.5225 28.7116L61.6866 32.6049C61.663 32.7135 61.7355 32.8023 61.8469 32.8023H62.0499C61.9383 32.8023 61.7244 32.7579 61.711 32.7036ZM64.0384 32.7578C63.9777 32.7822 63.8367 32.8023 63.7251 32.8023H63.9281C64.0396 32.8023 64.149 32.7133 64.171 32.6045L64.2113 32.407C64.189 32.5156 64.0992 32.7333 64.0384 32.7578ZM64.5091 30.9427L64.8076 29.4759C64.8075 29.4768 64.8074 29.4781 64.8071 29.4787L64.5091 30.9427ZM71.1056 25.3396L71.1976 25.718C71.223 25.8263 71.1527 25.9142 71.0414 25.9144M64.8072 29.476C64.8295 29.3674 64.8661 29.1915 64.8892 29.084L65.208 27.5991L64.847 29.2811L64.8072 29.476ZM63.386 24.6904C63.3637 24.7952 63.3354 24.9276 63.3165 25.0152L62.5231 28.7116L63.359 24.8181L63.386 24.6904Z" fill="#131B28"/>
<path d="M71.1974 25.7182L71.1053 25.3398L71.0142 24.9523L70.968 24.7561C70.7876 24.0587 70.2575 23.6561 69.107 23.6561L67.3157 23.6543L65.666 23.6523H63.8097C63.6983 23.6523 63.588 23.7409 63.5651 23.8495H63.565L63.4828 24.2352L63.3861 24.6907L63.359 24.8183L62.5231 28.7119L61.7297 32.408C61.7062 32.5166 61.6981 32.6495 61.7117 32.7038C61.7251 32.758 61.9391 32.8026 62.0506 32.8026H63.7253C63.8368 32.8026 63.9779 32.7825 64.0385 32.758C64.0993 32.7336 64.1892 32.5159 64.2114 32.4074L64.5091 30.9431L64.8071 29.4791L64.8076 29.4762L64.8474 29.2812L65.2083 27.5993L65.5273 26.1137C65.5508 26.0058 65.6607 25.9174 65.7719 25.9171L71.0413 25.9145C71.1524 25.9144 71.2229 25.8264 71.1974 25.7182Z" fill="#131B28"/>
<path d="M77.9808 22.2969C77.8693 22.2977 77.6869 22.2984 77.5752 22.2984H75.8888C75.7773 22.2984 75.6343 22.3733 75.5715 22.4649L71.842 27.8979C71.779 27.9897 71.7072 27.9759 71.6825 27.868L71.408 26.6711C71.3833 26.5629 71.2717 26.4746 71.1601 26.4746H68.7625C68.651 26.4746 68.5849 26.5616 68.6154 26.6683L69.6898 30.4107C69.7204 30.5173 69.7226 30.6925 69.695 30.7999L69.2267 32.6111C69.199 32.7187 69.2676 32.8066 69.3791 32.8066H71.7488C71.8602 32.8066 71.9742 32.7187 72.0018 32.6112L72.4703 30.7999C72.4978 30.6925 72.5754 30.532 72.6426 30.4434L78.6972 22.4525C78.7644 22.3641 78.7281 22.2919 78.6167 22.2928L77.9811 22.2969H77.9808ZM58.9328 26.984L58.9327 26.9818C58.9187 27.1021 58.8071 27.1904 58.6956 27.1904H55.6559C55.5509 27.1904 55.4974 27.1192 55.5128 27.0317C55.5137 27.0291 55.5141 27.0269 55.5157 27.0247C55.5157 27.0247 55.5147 27.0249 55.5139 27.0255C55.5145 27.0221 55.5145 27.019 55.5154 27.0154L55.5294 26.964C55.8197 26.1965 56.4111 25.6927 57.5225 25.6927C58.7737 25.6927 59.0179 26.3005 58.9329 26.984H58.9328ZM58.0411 23.4951C54.1393 23.4951 53.2147 25.8501 52.6959 28.227C52.1773 30.6496 52.2219 32.9148 56.2594 32.9148H56.4027C56.4155 32.9145 56.4286 32.9145 56.4414 32.9145H56.7018C56.7174 32.9143 56.7331 32.9143 56.7491 32.9143L56.8707 32.914H56.8993C57.0591 32.9138 57.2212 32.913 57.3838 32.9125H57.3919C58.4582 32.9083 59.5276 32.9004 59.9608 32.8969C60.0715 32.8952 60.1799 32.8064 60.2027 32.6987L60.3661 31.9043L60.3979 31.7496L60.593 30.8021C60.6152 30.6936 60.5424 30.6046 60.4308 30.6046H56.801C55.3574 30.6046 54.9286 30.2232 55.0866 29.1016H60.889L60.8885 29.1023C60.8899 29.1023 60.8911 29.1016 60.8924 29.1016C60.9847 29.1001 61.0699 29.0369 61.1038 28.9528C61.1101 28.9366 61.1156 28.9199 61.1178 28.9023L61.1171 28.903C61.9788 25.6715 61.7317 23.4953 58.0408 23.4953L58.0411 23.4951ZM39.5997 26.9717L39.5448 27.165V27.1657L39.1065 28.7096L38.6685 30.2533C38.6383 30.3599 38.5223 30.4473 38.4106 30.4473H36.0916C34.3326 30.4473 33.9043 29.0791 34.3326 27.0613C34.7608 24.9973 35.6005 23.7143 37.3318 23.5846C39.6976 23.4071 40.171 25.0617 39.5997 26.9717ZM41.1901 30.3285C41.1901 30.3285 42.2834 27.6887 42.5317 26.1639C42.8704 24.1227 41.8426 21.1626 37.873 21.1626C33.926 21.1626 32.2121 23.9888 31.558 27.0611C30.9041 30.1557 31.761 32.8697 35.6855 32.8474L38.7816 32.836L41.6753 32.8256C41.7867 32.8246 41.9007 32.7367 41.9289 32.6297L42.4331 30.7178C42.4612 30.6105 42.3931 30.5222 42.2816 30.5216L41.7984 30.5187L41.3156 30.5158C41.2207 30.5152 41.1665 30.4543 41.1779 30.3733C41.18 30.3588 41.1834 30.3438 41.1897 30.3282L41.1901 30.3285Z" fill="#131B28"/>
<path d="M60.7291 28.5618C60.7291 28.5969 60.7151 28.6306 60.6901 28.6554C60.6652 28.6802 60.6313 28.6941 60.596 28.6941C60.5607 28.6941 60.5268 28.6802 60.5019 28.6554C60.4769 28.6306 60.4629 28.5969 60.4629 28.5618C60.4629 28.4887 60.5225 28.4297 60.596 28.4297C60.6696 28.4297 60.7291 28.4887 60.7291 28.5618Z" fill="#131B28"/>
<path d="M11.0507 25.1295C9.9609 26.6872 10.0966 28.7136 10.9291 30.3686C10.949 30.4083 10.9697 30.4473 10.9902 30.4864C11.0033 30.5111 11.0156 30.5366 11.029 30.5609C11.0369 30.5756 11.0454 30.5899 11.0533 30.6038C11.0676 30.6302 11.0821 30.6553 11.0967 30.6809C11.1226 30.7264 11.1491 30.7714 11.1762 30.8165C11.1913 30.8412 11.2061 30.8659 11.2216 30.8908C11.2517 30.939 11.2824 30.9866 11.3138 31.0343C11.3269 31.0546 11.3397 31.0749 11.353 31.0945C11.3966 31.159 11.4409 31.2232 11.4867 31.2863C11.4878 31.288 11.489 31.2898 11.4906 31.2915C11.4976 31.3015 11.5056 31.3114 11.5131 31.3215C11.5673 31.3958 11.6231 31.4688 11.6806 31.5406C11.7315 31.6042 11.7834 31.667 11.8362 31.7291C11.8873 31.7891 11.9394 31.8488 11.9928 31.9073L11.9959 31.9104C11.9982 31.913 12.0001 31.9144 12.0021 31.9169C12.0708 31.9909 12.1409 32.0637 12.2125 32.1351C12.2543 32.1769 12.2967 32.2183 12.3397 32.2592C12.3571 32.2757 12.3742 32.2925 12.3916 32.3084C12.449 32.3621 12.5069 32.4147 12.5659 32.4662L12.5686 32.4684C12.5787 32.4773 12.589 32.4856 12.599 32.494C12.651 32.5389 12.704 32.5834 12.7573 32.627C12.779 32.6446 12.8011 32.6618 12.8229 32.679C12.8665 32.7138 12.9105 32.748 12.955 32.7818L13.0255 32.8351C13.0745 32.8708 13.1238 32.9061 13.1736 32.9408C13.1918 32.9538 13.2093 32.9664 13.2275 32.9789C13.2327 32.9822 13.2373 32.9858 13.2424 32.9893C13.2896 33.0218 13.3378 33.0527 13.3862 33.0839C13.4069 33.0976 13.4275 33.1119 13.4485 33.1251C13.5225 33.1718 13.5977 33.2178 13.6736 33.2623L13.7359 33.2972C13.7917 33.3293 13.8479 33.3607 13.9049 33.3914C13.9356 33.4079 13.9673 33.4235 13.9984 33.4395C14.0387 33.4603 14.0786 33.4816 14.1194 33.5019C14.1286 33.5064 14.1383 33.5108 14.1473 33.5153C14.1638 33.5231 14.1804 33.5309 14.1969 33.5391C14.2602 33.5693 14.324 33.5988 14.3886 33.6273L14.4291 33.6455C14.5209 33.6854 14.6136 33.7233 14.7071 33.7591C14.7767 33.7858 14.8473 33.812 14.9181 33.8369L14.9447 33.846C15.0223 33.873 15.1009 33.898 15.1799 33.9225C15.1987 33.9279 15.2178 33.934 15.2366 33.9394C15.3172 33.9635 15.3967 33.9924 15.4796 34.0076C20.7502 34.9633 22.2813 30.858 22.2813 30.858C20.9954 32.5238 18.7131 32.9631 16.5504 32.4741C16.4686 32.4555 16.3891 32.4302 16.3092 32.4067C16.211 32.3776 16.1134 32.3465 16.0166 32.3133L15.9847 32.302C15.916 32.2778 15.8477 32.2527 15.7798 32.2265L15.7223 32.2038C15.648 32.1747 15.5742 32.1442 15.501 32.1124C15.486 32.1061 15.4717 32.0994 15.4568 32.0931C15.3943 32.065 15.3321 32.0362 15.2702 32.0067L15.2164 31.9811C15.1679 31.9576 15.1199 31.9325 15.072 31.908C15.04 31.8911 15.0074 31.8754 14.9757 31.8579C14.9174 31.8267 14.8598 31.7946 14.8027 31.7614C14.7833 31.7506 14.7637 31.7402 14.7442 31.7289C14.6684 31.6844 14.5933 31.6387 14.5189 31.5918C14.4984 31.5788 14.4784 31.5649 14.4581 31.5515C14.4042 31.517 14.3507 31.4817 14.2978 31.4456C14.2803 31.4337 14.2634 31.4211 14.2462 31.4094C14.1721 31.3579 14.0991 31.3048 14.0274 31.25C13.9609 31.1992 13.895 31.1475 13.8297 31.095C13.7722 31.0481 13.7153 31.0008 13.6594 30.9521L13.6407 30.9365C13.58 30.8836 13.5204 30.8294 13.4615 30.7748C13.4447 30.7588 13.4279 30.7427 13.4112 30.7266C13.3676 30.6854 13.3248 30.6436 13.2825 30.6011C13.2655 30.5842 13.2485 30.5678 13.2321 30.5509C13.1785 30.4965 13.1259 30.4412 13.0743 30.385L13.0664 30.3767C12.9972 30.3014 12.9298 30.2244 12.8643 30.1459C12.8252 30.0992 12.7868 30.052 12.7491 30.0043C12.7348 29.987 12.7207 29.9695 12.7068 29.9519C12.6615 29.8934 12.6171 29.835 12.5737 29.7757C11.3732 28.1473 10.9418 25.9012 11.9014 24.0566" fill="#0868AC"/>
<path d="M14.4342 23.817C13.646 24.9447 13.6889 26.4545 14.3036 27.6473C14.4065 27.8478 14.523 28.0411 14.6521 28.2259C14.7703 28.3943 14.9012 28.5945 15.0579 28.7297C15.1152 28.7921 15.1742 28.853 15.2348 28.9122C15.2501 28.9278 15.2658 28.9427 15.2813 28.958C15.3402 29.0148 15.4002 29.0706 15.462 29.125C15.4646 29.1268 15.4669 29.1294 15.4693 29.1313C15.47 29.132 15.4707 29.1322 15.4712 29.1329C15.5396 29.1927 15.6103 29.25 15.6822 29.3066C15.6982 29.3186 15.7139 29.3313 15.7301 29.3436C15.802 29.3986 15.8755 29.4526 15.9508 29.504L15.9572 29.5088C15.9904 29.5317 16.0241 29.553 16.0579 29.5748C16.0739 29.5852 16.0892 29.5964 16.1056 29.6062C16.1593 29.6405 16.2139 29.6738 16.2692 29.7059C16.277 29.7106 16.2847 29.7147 16.2923 29.7191C16.34 29.7464 16.3884 29.7735 16.4369 29.7995C16.4539 29.809 16.471 29.8173 16.4883 29.8261C16.5219 29.8436 16.5554 29.8614 16.5895 29.8782C16.5947 29.8808 16.6 29.883 16.6048 29.8852C16.6742 29.9191 16.7443 29.9519 16.8158 29.9829C16.8311 29.9897 16.847 29.9957 16.8625 30.0021C16.9197 30.0261 16.9774 30.0496 17.0355 30.0719C17.1127 30.1003 17.1904 30.1276 17.2684 30.1538C17.2924 30.1613 17.3161 30.1694 17.3403 30.1765C17.416 30.2001 17.4908 30.2296 17.5699 30.2426C21.6393 30.913 22.5788 27.7975 22.5788 27.7975C21.7319 29.0104 20.0918 29.5891 18.3417 29.1373C18.2644 29.117 18.1875 29.0949 18.1112 29.071C18.0879 29.064 18.065 29.0564 18.0419 29.0489C17.9878 29.0314 17.9341 29.0129 17.8807 28.9935C17.8564 28.9847 17.8319 28.9758 17.808 28.9666C17.7498 28.9444 17.6919 28.9212 17.6345 28.897C17.6188 28.8904 17.6031 28.8844 17.5877 28.8774C17.5161 28.8464 17.4454 28.8137 17.3755 28.7792C17.3395 28.7618 17.3042 28.7435 17.2689 28.7253L17.2074 28.6939C17.1622 28.6695 17.1172 28.644 17.0728 28.6184C17.0623 28.6123 17.0512 28.6067 17.0406 28.6002C16.9856 28.5682 16.9312 28.5352 16.8774 28.5013C16.8608 28.4909 16.8447 28.4793 16.8283 28.4685C16.7928 28.4457 16.7576 28.4226 16.7226 28.3991C16.648 28.3475 16.5747 28.2942 16.5027 28.2391C16.4861 28.226 16.4695 28.2133 16.4531 28.2003C15.687 27.5988 15.0798 26.777 14.7913 25.845C14.4886 24.8784 14.5538 23.7934 15.078 22.9131" fill="#0868AC"/>
<path d="M17.2794 22.8366C16.8147 23.5166 16.7691 24.361 17.0915 25.112C17.4315 25.909 18.1283 26.5344 18.9413 26.8308C18.9749 26.8431 19.0084 26.8542 19.0424 26.8658C19.0571 26.8702 19.0719 26.8753 19.0868 26.8797C19.1348 26.8946 19.1823 26.9121 19.2318 26.9213C21.4788 27.3529 22.0882 25.7747 22.2505 25.5424C21.7166 26.3068 20.8194 26.4903 19.7186 26.2245C19.6286 26.2016 19.5397 26.1743 19.4523 26.1427C19.3446 26.1047 19.2389 26.0611 19.1358 26.0121C18.9403 25.9185 18.7546 25.8058 18.5815 25.6756C17.5964 24.9324 16.9844 23.5147 17.6272 22.3599M42.5862 36.0796L41.9384 37.5465H41.2235L41.2821 36.2137L40.7557 37.5465H40.0632L40.045 36.0796L40.1215 35.7174H40.6118L40.5173 37.1662L41.0616 35.7174H41.7452L41.6958 37.1843L42.2355 35.7174H42.6627L42.5862 36.0796ZM43.7146 36.5139C43.7776 36.2276 43.7596 36.1739 43.6112 36.1739H43.3863L43.2423 36.8449L43.0219 37.5468H42.6037L42.9454 35.9548L42.9951 35.7221H43.3774L43.4268 35.8295C43.4268 35.8295 43.6473 35.7 43.8629 35.7C44.3218 35.7 44.2859 36.044 44.1867 36.5139H43.7146ZM45.0731 35.4893C44.8889 35.4893 44.7719 35.4356 44.8168 35.2123C44.8663 34.9884 45.0104 34.9348 45.19 34.9348C45.3702 34.9348 45.4914 34.9884 45.442 35.2123C45.397 35.4312 45.2532 35.4893 45.0732 35.4893H45.0731ZM44.8754 37.5466H44.4612L44.5423 36.8311L44.6862 36.1693L44.3986 36.1064L44.4794 35.7177H45.2662L44.8753 37.5466H44.8754ZM46.6696 36.1056L46.1525 36.1684L46.0038 36.8662C45.9633 37.0587 45.9633 37.1122 46.1344 37.1122H46.4807L46.4087 37.4789C46.4087 37.4789 46.094 37.5728 45.959 37.5728C45.4281 37.5728 45.4326 37.282 45.5272 36.848L45.6712 36.1641L45.3833 36.1015L45.4686 35.7123H45.7702L45.9412 35.2514H46.3504L46.2513 35.7123H46.755L46.6696 36.1056ZM47.7444 36.129C47.5016 36.129 47.3755 36.2544 47.3262 36.4779L48.0187 36.4198C48.0501 36.2676 48.0187 36.129 47.7444 36.129ZM47.2589 36.8086C47.2271 37.0324 47.3126 37.1083 47.6004 37.1083H48.3244L48.2525 37.4483C48.2525 37.4483 47.8163 37.5689 47.4926 37.5689C46.6874 37.5689 46.6784 37.1176 46.7819 36.6344C46.8853 36.1601 47.0697 35.691 47.8475 35.691C48.599 35.691 48.6349 36.1424 48.4505 36.8086H47.2588H47.2589ZM50.1006 37.5462H49.687L49.768 36.8307L50.0603 35.4711L49.7722 35.4042L49.8577 35.015H50.6449L50.1006 37.5462ZM51.5951 36.129C51.3519 36.129 51.2262 36.2544 51.1766 36.4779L51.8692 36.4198C51.9006 36.2676 51.8692 36.129 51.5951 36.129ZM51.1092 36.8086C51.0778 37.0324 51.1633 37.1083 51.451 37.1083H52.1751L52.1032 37.4483C52.1032 37.4483 51.6667 37.5689 51.3428 37.5689C50.5378 37.5689 50.529 37.1176 50.6325 36.6344C50.736 36.1601 50.9204 35.691 51.6983 35.691C52.4494 35.691 52.4855 36.1424 52.3011 36.8086H51.1092ZM54.1983 36.1511C54.1983 36.1511 53.6721 36.1556 53.5282 36.1556C53.2223 36.1556 53.1909 36.2492 53.1685 36.3476L53.1502 36.4372L54.1218 36.5089C54.1218 36.5089 54.1263 36.8175 54.0858 36.9917C54.0274 37.2824 53.7261 37.5773 53.182 37.5773C52.9119 37.5773 52.4757 37.4749 52.4757 37.4749L52.5522 37.1215H53.2223C53.5191 37.1215 53.5597 37.0408 53.5779 36.9606L53.6003 36.8444L52.6467 36.7726C52.6467 36.7726 52.6109 36.5356 52.6602 36.2987C52.7323 35.9765 53.0289 35.6995 53.5731 35.6995C53.8431 35.6995 54.2791 35.7975 54.2791 35.7975L54.1983 36.1511ZM56.0066 36.1511C56.0066 36.1511 55.4806 36.1556 55.3365 36.1556C55.0308 36.1556 54.9993 36.2492 54.9768 36.3476L54.9585 36.4372L55.9303 36.5089C55.9303 36.5089 55.9349 36.8175 55.8943 36.9917C55.8359 37.2824 55.5345 37.5773 54.9902 37.5773C54.7204 37.5773 54.2841 37.4749 54.2841 37.4749L54.3606 37.1215H55.0307C55.3275 37.1215 55.368 37.0408 55.3862 36.9606L55.4085 36.8444L54.455 36.7726C54.455 36.7726 54.4192 36.5356 54.4685 36.2987C54.5406 35.9765 54.8372 35.6995 55.3815 35.6995C55.6513 35.6995 56.0876 35.7975 56.0876 35.7975L56.0066 36.1511ZM56.5728 37.8375H56.2132L56.2266 37.569C56.0961 37.5604 56.0287 37.4664 56.0601 37.3096C56.1097 37.0861 56.2491 37.0325 56.4334 37.0325C56.6133 37.0325 56.7345 37.0861 56.6854 37.3096L56.5728 37.8375ZM58.9786 36.1693C58.7089 36.1693 58.6146 36.3303 58.5515 36.6254C58.4885 36.9206 58.5065 37.0949 58.7764 37.0949H59.1495L59.3567 36.1693H58.9786ZM59.5949 37.3096L59.5452 37.5466L59.1677 37.5422L59.1137 37.4261C59.1137 37.4261 58.7807 37.5689 58.5562 37.5689C57.9802 37.5689 57.9534 37.0995 58.0567 36.6254C58.1601 36.1423 58.385 35.6862 58.9563 35.6862C59.1633 35.6862 59.442 35.789 59.442 35.789L59.6714 35.0154H60.0852L59.5949 37.3096ZM61.0838 36.1511C60.7331 36.1511 60.6204 36.3476 60.5575 36.6339C60.4992 36.9247 60.5262 37.1215 60.8722 37.1215C61.2322 37.1215 61.3403 36.929 61.4031 36.6339C61.4662 36.3566 61.448 36.1511 61.0838 36.1511ZM60.7781 37.5733C60.0359 37.5733 59.9773 37.1128 60.0763 36.634C60.1799 36.1556 60.4407 35.6995 61.1829 35.6995C61.9203 35.6995 61.9879 36.1557 61.8842 36.634C61.7809 37.1216 61.52 37.5733 60.7781 37.5733ZM64.988 37.5462L65.0691 36.8396L65.1095 36.6384C65.1681 36.3702 65.204 36.1734 64.9206 36.1734H64.7003C64.7094 36.3121 64.6822 36.4685 64.6463 36.6339L64.453 37.5462H64.0346L64.1157 36.8396L64.1559 36.6384C64.2145 36.3702 64.2503 36.1734 63.9673 36.1734H63.7872L63.4904 37.5462H63.009L63.4004 35.7173H63.7782L63.8366 35.8291C63.8366 35.8291 64.093 35.6948 64.2999 35.6948C64.4573 35.6948 64.5743 35.7664 64.6149 35.8556C64.7047 35.8065 64.9612 35.6948 65.1457 35.6948C65.721 35.6948 65.7033 36.1597 65.5997 36.634L65.4063 37.5462H64.988ZM66.8996 36.1511C66.5487 36.1511 66.4363 36.3476 66.3734 36.6339C66.315 36.9247 66.3421 37.1215 66.6882 37.1215C67.0479 37.1215 67.1562 36.929 67.2191 36.6339C67.2818 36.3566 67.2639 36.1511 66.8996 36.1511ZM66.5938 37.5733C65.8515 37.5733 65.7932 37.1128 65.8922 36.634C65.9955 36.1556 66.2565 35.6995 66.9986 35.6995C67.7363 35.6995 67.8037 36.1557 67.7001 36.634C67.5968 37.1216 67.3358 37.5733 66.5939 37.5733H66.5938ZM68.9498 36.5139C69.0127 36.2276 68.9948 36.1739 68.8465 36.1739H68.6215L68.4776 36.8449L68.2571 37.5468H67.839L68.1806 35.9548L68.2303 35.7221H68.6126L68.6619 35.8295C68.6619 35.8295 68.8824 35.7 69.0984 35.7C69.5571 35.7 69.521 36.044 69.422 36.5139H68.9498ZM70.5607 36.129C70.3182 36.129 70.192 36.2544 70.1427 36.4779L70.8349 36.4198C70.8667 36.2676 70.8349 36.129 70.5607 36.129ZM70.075 36.8086C70.0437 37.0324 70.129 37.1083 70.4168 37.1083H71.1409L71.069 37.4483C71.069 37.4483 70.6326 37.5689 70.309 37.5689C69.504 37.5689 69.4949 37.1176 69.5981 36.6344C69.7017 36.1601 69.8862 35.691 70.6641 35.691C71.4151 35.691 71.4513 36.1424 71.2669 36.8086H70.075ZM71.6708 37.5735C71.4819 37.5735 71.3651 37.5198 71.4145 37.3009C71.4594 37.0767 71.5989 37.0234 71.788 37.0234C71.9632 37.0234 72.0845 37.0767 72.0398 37.3009C71.9901 37.5154 71.8463 37.5735 71.6708 37.5735Z" fill="#0868AC"/>
</svg>
