<svg width="40" height="54" viewBox="0 0 40 54" fill="none" xmlns="http://www.w3.org/2000/svg">
<path d="M7.85425 10V4.56H9.11825V6.768H11.0063V4.56H12.2703V10H11.0063V7.824H9.11825V10H7.85425ZM14.1986 10V5.616H12.8146V4.56H16.8146V5.616H15.4626V10H14.1986ZM17.3543 10V4.56H19.3383L20.2983 7.872L21.2183 4.56H23.2423V10H21.9783V6.224H21.8743L20.8663 9.872H19.7223L18.7223 6.224H18.6183V10H17.3543ZM24.1355 10V4.56H25.3995V8.944H27.4715V10H24.1355ZM29.8105 10.088C29.6132 10.088 29.3945 10.072 29.1545 10.04C28.9145 10.0133 28.6798 9.97867 28.4505 9.936C28.2265 9.89333 28.0345 9.85333 27.8745 9.816L27.9785 8.896C28.1278 8.91733 28.3012 8.944 28.4985 8.976C28.7012 9.00267 28.9065 9.024 29.1145 9.04C29.3278 9.056 29.5198 9.064 29.6905 9.064C29.9358 9.064 30.1278 9.00533 30.2665 8.888C30.4052 8.76533 30.4745 8.58933 30.4745 8.36C30.4745 8.20533 30.4452 8.08267 30.3865 7.992C30.3278 7.90133 30.2425 7.83733 30.1305 7.8C30.0238 7.75733 29.8958 7.736 29.7465 7.736C29.6292 7.736 29.5118 7.74667 29.3945 7.768C29.2772 7.78933 29.1678 7.816 29.0665 7.848C28.9652 7.87467 28.8798 7.904 28.8105 7.936L27.9865 7.824L28.1145 4.728H31.4985V5.824H29.0905L29.0025 6.824C29.0718 6.79733 29.1572 6.768 29.2585 6.736C29.3652 6.704 29.4798 6.67733 29.6025 6.656C29.7252 6.62933 29.8452 6.616 29.9625 6.616C30.3358 6.616 30.6505 6.66667 30.9065 6.768C31.1625 6.86933 31.3598 7.04 31.4985 7.28C31.6372 7.51467 31.7065 7.83733 31.7065 8.248C31.7065 8.67467 31.6292 9.024 31.4745 9.296C31.3198 9.568 31.1012 9.768 30.8185 9.896C30.5358 10.024 30.1998 10.088 29.8105 10.088Z" fill="black"/>
<path d="M2.5 14L5.6875 50L20 54L34.3075 50.0025L37.5 14H2.5Z" fill="#FF5722"/>
<path d="M30.5875 25.7724H20H13.8125L14.2125 30.2949H20H30.1875L28.985 43.8549L20 46.3624L19.9925 46.3649L11.0125 43.8549L10.385 36.7624H14.785L15.1125 40.4424L19.995 41.7699L20 41.7674L24.8875 40.4399L25.3975 34.7124H20H10.205L9.02002 21.3599H20H30.9775L30.5875 25.7724Z" fill="#FAFAFA"/>
</svg>
