<svg width="33" height="49" viewBox="0 0 33 49" fill="none" xmlns="http://www.w3.org/2000/svg">
<path d="M32.4405 9.62988L29.5361 45.0591L16.4805 49.0002L3.46093 45.0646L0.55957 9.62988H32.4405Z" fill="#004CE8"/>
<path d="M27.0495 42.8027L29.5315 12.5269H16.5V45.9874L27.0495 42.8027Z" fill="#0065F4"/>
<path d="M7.21094 25.6694L7.56865 30.0153H16.5001L18.2169 27.8424L16.5001 25.6694H7.21094Z" fill="#EBEBEB"/>
<path d="M16.5001 16.873H16.4863H6.49219L6.855 21.219H16.5001L18.2169 19.046L16.5001 16.873Z" fill="#EBEBEB"/>
<path d="M16.5002 41.4775L18.217 39.1729L16.5002 36.9559L16.4827 36.961L12.0377 35.6541L11.7536 32.188H9.59365H7.74707L8.30623 39.0117L16.4818 41.4831L16.5002 41.4775Z" fill="#EBEBEB"/>
<path d="M8.0625 0H12.8965V2.20117H10.084V4.40234H12.8965V6.60352H8.0625V0Z" fill="black"/>
<path d="M13.8633 0H18.6973V1.91406H15.8848V2.29688H18.6973V6.69922H13.8633V4.68945H16.6758V4.30664H13.8633V0Z" fill="black"/>
<path d="M19.6641 0H24.498V1.91406H21.6855V2.29688H24.498V6.69922H19.6641V4.68945H22.4766V4.30664H19.6641V0Z" fill="black"/>
<path d="M21.401 30.0152L20.9377 35.6515L16.4863 36.9598V41.4812L24.6684 39.012L24.7284 38.2777L25.6663 26.8363L25.7637 25.6693L26.4842 16.873H16.4863V21.219H22.1103L21.7471 25.6693H16.4863V30.0152H21.401Z" fill="white"/>
</svg>
