<svg width="32" height="32" viewBox="0 0 32 32" fill="none" xmlns="http://www.w3.org/2000/svg">
<g id="candidate 1">
<g id="Group">
<path id="Vector" d="M10.822 15.9078C10.822 14.0799 11.782 12.4702 13.2268 11.5635C12.1262 10.9478 10.8705 10.6035 9.54197 10.6035C5.88136 10.6035 2.74439 13.2072 2.085 16.8047C2.04621 17.0181 2.10439 17.2217 2.245 17.3962C2.39045 17.5708 2.59894 17.6678 2.82197 17.6678H11.1371C10.9335 17.1199 10.822 16.5235 10.822 15.9078Z" fill="#403C73"/>
<path id="Vector_2" d="M22.3515 9.39159H22.3709H22.3903C24.2279 9.3819 25.7212 7.88371 25.7212 6.04614C25.7212 4.19887 24.2182 2.70068 22.3757 2.70068C20.5333 2.70068 19.0303 4.20371 19.0303 6.04614C19.0254 7.88371 20.5139 9.3819 22.3515 9.39159Z" fill="#403C73"/>
<path id="Vector_3" d="M9.52236 9.39159H9.54176H9.56115C11.3987 9.3819 12.8872 7.88371 12.8872 6.04614C12.8872 4.19887 11.3842 2.70068 9.54176 2.70068C7.69933 2.70068 6.1963 4.20371 6.1963 6.04614C6.19145 7.88856 7.68479 9.3819 9.52236 9.39159Z" fill="#403C73"/>
<path id="Vector_4" d="M15.9566 21.0425C11.6802 21.0425 8.00993 24.0922 7.23902 28.291C7.19538 28.5382 7.25841 28.7807 7.42326 28.9794C7.59296 29.1831 7.84023 29.2994 8.10205 29.2994H23.8111C24.073 29.2994 24.3202 29.1831 24.4899 28.9794C24.6548 28.7807 24.7178 28.5382 24.6742 28.291C23.9033 24.0922 20.233 21.0425 15.9566 21.0425Z" fill="#403C73"/>
<path id="Vector_5" d="M29.9149 16.8096C29.2506 13.212 26.1185 10.6084 22.4628 10.6084C21.1149 10.6084 19.8349 10.9623 18.7197 11.5926C20.1403 12.5042 21.0906 14.0945 21.0906 15.9126C21.0906 16.5332 20.9791 17.1296 20.7803 17.6726H29.1828C29.4058 17.6726 29.6191 17.5757 29.7597 17.4011C29.8955 17.2266 29.9585 17.0229 29.9149 16.8096Z" fill="#403C73"/>
<path id="Vector_6" d="M12.0391 15.9127C12.0391 18.0654 13.7845 19.8157 15.9324 19.8303H15.9518H15.976C18.1288 19.8206 19.8742 18.0654 19.8742 15.9127C19.8742 13.7503 18.1142 11.9951 15.9566 11.9951C13.7942 11.9903 12.0391 13.7503 12.0391 15.9127Z" fill="#403C73"/>
</g>
</g>
</svg>
