<svg width="32" height="32" viewBox="0 0 32 32" fill="none" xmlns="http://www.w3.org/2000/svg">
<g id="insurance 1">
<g id="Group">
<path id="Vector" d="M18.1894 5.625H13.8106C12.4475 7.17875 10.7362 8.37562 8.8125 9.12375V14.8594C8.8125 19.71 11.6206 24.06 16 26.0513C20.3794 24.06 23.1875 19.71 23.1875 14.8594V9.12438C21.2631 8.37625 19.5525 7.17938 18.1894 5.625ZM21.0381 13.6894L15.2044 19.5226C15.0213 19.7057 14.7812 19.7975 14.5419 19.7975C14.3019 19.7975 14.0619 19.7056 13.8787 19.5226L10.9619 16.6063C10.5963 16.2401 10.5963 15.6463 10.9619 15.2801C11.3281 14.9144 11.9219 14.9144 12.2881 15.2801L14.5419 17.5338L19.7125 12.3638C20.0781 11.9976 20.6719 11.9976 21.0381 12.3638C21.4037 12.73 21.4037 13.3231 21.0381 13.6894ZM27.8694 4.375C25.1669 4.375 22.7056 2.89 21.4444 0.5C21.2824 0.1925 20.9631 0 20.6156 0H11.3843C11.0368 0 10.7174 0.1925 10.5549 0.5C9.29437 2.89 6.83313 4.375 4.125 4.375C3.6075 4.375 3.1875 4.795 3.1875 5.3125V14.8594C3.1875 18.6975 4.38687 22.3625 6.65562 25.4581C8.92437 28.5537 12.0575 30.8006 15.7175 31.9562C15.8094 31.9856 15.905 32 16 32C16.095 32 16.1906 31.9856 16.2825 31.9562C19.9426 30.8006 23.0756 28.5538 25.3444 25.4581C27.6131 22.3624 28.8125 18.6975 28.8125 14.8594V5.3125C28.8125 4.795 28.3869 4.375 27.8694 4.375ZM25.0625 14.8169C25.0625 20.5581 21.6469 25.6925 16.3606 27.8969C16.245 27.9451 16.1225 27.9688 16 27.9688C15.8775 27.9688 15.7544 27.945 15.6394 27.8969C10.3531 25.6925 6.9375 20.5581 6.9375 14.8169V8.42188C6.9375 8.01688 7.1975 7.6575 7.5825 7.53125C9.57188 6.87687 11.3244 5.67375 12.65 4.05188C12.8281 3.83375 13.095 3.7075 13.3763 3.7075H18.6238C18.9113 3.7075 19.25 3.93 19.3499 4.05188C20.6756 5.67375 22.4281 6.87687 24.4174 7.53125C24.6919 7.62125 24.9018 7.82937 25.0006 8.08875C25.0019 8.09125 25.0024 8.09438 25.0037 8.09688C25.0275 8.16125 25.0443 8.22875 25.0537 8.29813C25.0544 8.305 25.0556 8.3125 25.0562 8.31938C25.06 8.35312 25.0625 8.38688 25.0625 8.42188V14.8169Z" fill="#403C73"/>
</g>
</g>
</svg>
