<svg width="32" height="32" viewBox="0 0 32 32" fill="none" xmlns="http://www.w3.org/2000/svg">
<g id="humanity 1" clip-path="url(#clip0_360_55826)">
<g id="Group">
<path id="Vector" d="M11.4814 13.4231H20.5189C21.0367 13.4231 21.4564 13.0034 21.4564 12.4856V10.4773C21.4564 9.09091 20.9364 7.82391 20.0816 6.86035C19.1044 8.02723 17.6378 8.77098 16.0002 8.77098C14.3626 8.77098 12.8961 8.02723 11.9188 6.86035C11.0639 7.82391 10.5439 9.09091 10.5439 10.4773V12.4856C10.5439 13.0034 10.9637 13.4231 11.4814 13.4231Z" fill="#403C73"/>
<path id="Vector_2" d="M15.9997 6.89581C17.9009 6.89581 19.4476 5.34912 19.4476 3.44794C19.4476 1.54675 17.9009 0 15.9997 0C14.0985 0 12.5518 1.54675 12.5518 3.44794C12.5518 5.34912 14.0985 6.89581 15.9997 6.89581Z" fill="#403C73"/>
<path id="Vector_3" d="M10.8883 16.5912C9.91769 15.6207 8.34406 15.6207 7.3735 16.5912C6.40294 17.5618 6.40294 19.1354 7.3735 20.106L9.63369 22.3664C9.99981 22.7325 9.99981 23.3261 9.63369 23.6922C9.26756 24.0583 8.67394 24.0584 8.30787 23.6922L8.30781 23.6922L4.29125 19.6755C4.11544 19.4997 4.01662 19.2612 4.01662 19.0126V11.0459C4.01662 9.93635 3.11937 9.0376 2.00831 9.0376H0.9375C0.41975 9.0376 0 9.45735 0 9.9751V22.0251C0 22.2738 0.09875 22.5122 0.274625 22.688L6.025 28.4384V31.0626C6.025 31.5803 6.44475 32.0001 6.9625 32.0001H13.9916C14.5094 32.0001 14.9291 31.5803 14.9291 31.0626V23.1005C14.9291 21.509 14.3094 20.0128 13.1842 18.8877L10.8883 16.5912Z" fill="#403C73"/>
<path id="Vector_4" d="M31.0621 9.0376H29.9912C28.8801 9.0376 27.9829 9.93641 27.9829 11.0459V19.0126C27.9829 19.2612 27.8841 19.4997 27.7083 19.6755L23.6916 23.6922L23.6916 23.6922C23.3256 24.0584 22.7319 24.0583 22.3658 23.6922C21.9996 23.3261 21.9996 22.7325 22.3658 22.3664L24.6259 20.106C25.5965 19.1354 25.5965 17.5618 24.6259 16.5912C23.6554 15.6207 22.0818 15.6207 21.1112 16.5912L18.8153 18.8877C17.6901 20.0128 17.0703 21.509 17.0703 23.1005V31.0626C17.0703 31.5803 17.4901 32.0001 18.0078 32.0001H25.0369C25.5547 32.0001 25.9744 31.5803 25.9744 31.0626V28.4384L31.7249 22.688C31.9007 22.5122 31.9995 22.2737 31.9995 22.0251V9.9751C31.9996 9.45735 31.5798 9.0376 31.0621 9.0376Z" fill="#403C73"/>
</g>
</g>
<defs>
<clipPath id="clip0_360_55826">
<rect width="32" height="32" fill="white"/>
</clipPath>
</defs>
</svg>
