<svg width="32" height="32" viewBox="0 0 32 32" fill="none" xmlns="http://www.w3.org/2000/svg">
<g clip-path="url(#clip0_360_53214)">
<path d="M0.611687 28.7992L7.50663 21.9043C8.22188 22.941 9.12162 23.8407 10.1582 24.556L3.26331 31.4509C2.53106 32.1831 1.34387 32.1831 0.611687 31.4509C-0.120562 30.7186 -0.120562 29.5315 0.611687 28.7992Z" fill="#403C73"/>
<path d="M2.1875 3.125C2.1875 1.40188 3.58938 0 5.3125 0C7.03562 0 8.4375 1.40188 8.4375 3.125C8.4375 4.84812 7.03562 6.25 5.3125 6.25C3.58938 6.25 2.1875 4.84812 2.1875 3.125Z" fill="#403C73"/>
<path d="M23.5625 3.125C23.5625 1.40188 24.9644 0 26.6875 0C28.4106 0 29.8125 1.40188 29.8125 3.125C29.8125 4.84812 28.4106 6.25 26.6875 6.25C24.9644 6.25 23.5625 4.84812 23.5625 3.125Z" fill="#403C73"/>
<path d="M12.5625 22.3125C12.5625 20.4171 14.1046 18.875 16 18.875C17.8954 18.875 19.4375 20.4171 19.4375 22.3125V23.7674C18.387 24.2379 17.2236 24.5 16 24.5C14.7764 24.5 13.613 24.2379 12.5625 23.7674V22.3125Z" fill="#403C73"/>
<path d="M16 17C17.0355 17 17.875 16.1605 17.875 15.125C17.875 14.0895 17.0355 13.25 16 13.25C14.9645 13.25 14.125 14.0895 14.125 15.125C14.125 16.1605 14.9645 17 16 17Z" fill="#403C73"/>
<path d="M23.3313 26.3232C24.2252 27.1342 25.4078 27.6252 26.6875 27.6252C27.9794 27.6252 29.1584 27.1327 30.0467 26.3256C31.2381 27.3006 32 28.7817 32 30.4377V31.0627C32 31.5804 31.5802 32.0002 31.0625 32.0002H22.3125C21.7947 32.0002 21.375 31.5804 21.375 31.0627V30.4377C21.375 28.7803 22.1382 27.2982 23.3313 26.3232Z" fill="#403C73"/>
<path d="M26.6878 19.5C28.4109 19.5 29.8128 20.9019 29.8128 22.625C29.8128 24.3481 28.4109 25.75 26.6878 25.75C25.1046 25.75 23.7935 24.5663 23.5908 23.0376C24.4986 22.0526 25.1987 20.9108 25.6613 19.674C25.9831 19.5618 26.3283 19.5 26.6878 19.5Z" fill="#403C73"/>
<path d="M1.95331 6.8252C2.84162 7.63232 4.02063 8.12482 5.3125 8.12482C6.60437 8.12482 7.78337 7.63232 8.67169 6.8252C9.05681 7.14038 9.39669 7.50876 9.68087 7.91851C8.17163 9.09226 6.99581 10.6753 6.32206 12.4998H0.9375C0.41975 12.4998 0 12.0801 0 11.5623V10.9373C0 9.28132 0.761937 7.8002 1.95331 6.8252Z" fill="#403C73"/>
<path d="M22.3193 7.91851C22.6035 7.5087 22.9434 7.14038 23.3285 6.8252C24.2168 7.63232 25.3958 8.12482 26.6877 8.12482C27.9796 8.12482 29.1586 7.63232 30.0469 6.8252C31.2383 7.80026 32.0002 9.28132 32.0002 10.9373V11.5623C32.0002 12.0801 31.5805 12.4998 31.0627 12.4998H25.6781C25.0045 10.6753 23.8286 9.09226 22.3193 7.91851Z" fill="#403C73"/>
<path d="M16 7.625C20.6524 7.625 24.4375 11.4101 24.4375 16.0625C24.4375 18.7032 23.2177 21.0641 21.3125 22.6123V22.3125C21.3125 20.3643 20.2577 18.6587 18.6899 17.7341C19.3453 17.0585 19.75 16.1384 19.75 15.125C19.75 13.0573 18.0677 11.375 16 11.375C13.9323 11.375 12.25 13.0573 12.25 15.125C12.25 16.1384 12.6547 17.0585 13.3101 17.7341C11.7423 18.6587 10.6875 20.3643 10.6875 22.3125V22.6123C8.78225 21.064 7.5625 18.7032 7.5625 16.0625C7.5625 11.4101 11.3476 7.625 16 7.625Z" fill="#403C73"/>
</g>
<defs>
<clipPath id="clip0_360_53214">
<rect width="32" height="32" fill="white"/>
</clipPath>
</defs>
</svg>
