<svg width="68" height="72" viewBox="0 0 68 72" fill="none" xmlns="http://www.w3.org/2000/svg">
<g id="Group 21">
<path id="Vector" d="M16.6482 8.71438C12.8214 14.4566 9.96694 20.8293 8.33996 27.5242C7.88818 29.4033 8.50654 31.6076 10.5429 32.2484C12.2739 32.7913 14.7868 32.0442 15.2671 30.0455C16.0284 26.8853 17.0605 23.8198 18.3443 20.8648C18.6534 20.1598 18.9626 19.4549 19.322 18.772C19.4955 18.4039 19.6689 18.0356 19.877 17.6706C19.4545 18.4699 20.0851 17.3056 20.1514 17.1546C20.9302 15.707 21.8097 14.3037 22.7207 12.9381C23.7924 11.3429 23.5112 8.89021 21.7963 7.79004C20.1287 6.74658 17.8019 6.98699 16.6482 8.71438Z" fill="#403C73"/>
<path id="Vector_2" d="M44.9098 27.4227L26.6122 42.6445C25.1378 43.8711 24.7862 46.3705 26.1356 47.8387C27.4849 49.3069 29.7419 49.6362 31.3297 48.3153L49.6273 33.0934C51.1017 31.8669 51.4533 29.3675 50.1039 27.8993C48.7546 26.4311 46.4976 26.1018 44.9098 27.4227Z" fill="#403C73"/>
<path id="Vector_3" d="M44.5458 59.3577C42.7258 59.7843 40.9058 60.2109 39.0857 60.6375C38.5914 60.6969 38.1379 60.8823 37.7441 61.1779C37.3032 61.4168 36.9251 61.7313 36.6572 62.1781C36.3577 62.5871 36.1779 63.0245 36.1177 63.4904C35.9725 63.931 35.9627 64.419 36.041 64.8976C36.2511 65.8423 36.7225 66.7934 37.5658 67.3073C38.3587 67.7991 39.3407 68.1336 40.2853 67.9235C42.1053 67.4968 43.9254 67.0703 45.7454 66.6436C46.2397 66.5842 46.6932 66.3989 47.087 66.1033C47.5279 65.8644 47.906 65.5499 48.174 65.103C48.4545 64.7098 48.6343 64.2723 48.7134 63.7907C48.8429 63.3312 48.8685 62.8621 48.7902 62.3835C48.58 61.4389 48.1086 60.4877 47.2496 59.9549C46.4913 59.4663 45.4747 59.1287 44.5458 59.3577Z" fill="#403C73"/>
</g>
</svg>
