<svg width="65" height="73" viewBox="0 0 65 73" fill="none" xmlns="http://www.w3.org/2000/svg">
<g id="Group 172">
<path id="Vector" d="M11.2217 60.2517C17.8017 62.3306 24.7169 63.3001 31.6001 63.001C33.5307 62.9124 35.4761 61.7054 35.5253 59.5712C35.5654 57.7574 34.1489 55.5514 32.0955 55.646C28.8482 55.7935 25.6166 55.6547 22.4211 55.2434C21.658 55.1425 20.8949 55.0416 20.139 54.8863C19.7371 54.822 19.3352 54.7578 18.9267 54.6595C19.812 54.8431 18.5182 54.5611 18.3547 54.5395C16.7477 54.194 15.1551 53.7394 13.5901 53.2441C11.7597 52.6583 9.48199 53.6106 8.90213 55.5638C8.36363 57.4558 9.24164 59.6239 11.2217 60.2517Z" fill="#403C73"/>
<path id="Vector_2" d="M21.3317 27.9026L41.0418 41.2451C42.63 42.3202 45.1286 41.9628 46.1636 40.2583C47.1986 38.5539 46.8873 36.2944 45.1769 35.1366L25.4668 21.7941C23.8786 20.719 21.38 21.0764 20.345 22.7808C19.31 24.4853 19.6214 26.7448 21.3317 27.9026Z" fill="#403C73"/>
<path id="Vector_3" d="M52.1081 19.3705C53.0241 21 53.94 22.6296 54.856 24.2592C55.0505 24.7175 55.3547 25.1016 55.7481 25.3976C56.1002 25.7547 56.5074 26.0304 57.0112 26.1635C57.4873 26.3374 57.9575 26.3885 58.4218 26.3167C58.8854 26.3337 59.3568 26.2074 59.7948 25.9991C60.6437 25.5345 61.4262 24.8172 61.6853 23.8643C61.9372 22.9658 61.9854 21.9296 61.5209 21.0807C60.6049 19.4511 59.689 17.8215 58.773 16.1919C58.5785 15.7336 58.2743 15.3496 57.8809 15.0535C57.5288 14.6964 57.1215 14.4207 56.6178 14.2876C56.162 14.1275 55.6918 14.0764 55.2072 14.1344C54.7298 14.1378 54.2721 14.2437 53.8342 14.452C52.9853 14.9166 52.2027 15.6339 51.9299 16.6072C51.6714 17.4715 51.6298 18.5419 52.1081 19.3705Z" fill="#403C73"/>
</g>
</svg>
