<svg width="146" height="57" viewBox="0 0 146 57" fill="none" xmlns="http://www.w3.org/2000/svg">
<g clip-path="url(#clip0_360_52857)">
<path d="M40.7794 19.5566C40.7709 19.3786 40.754 19.2006 40.7372 19.0225C40.7372 18.9462 40.7203 18.8615 40.7118 18.7852C40.695 18.6411 40.6865 18.497 40.6696 18.3613C40.6696 18.3444 40.6696 18.3189 40.6696 18.302C40.6527 18.1579 40.6359 18.0138 40.619 17.8696C40.619 17.8612 40.619 17.8442 40.619 17.8357C40.619 17.7849 40.6021 17.7255 40.5937 17.6747C40.5937 17.6492 40.5937 17.6153 40.5852 17.5899C40.5768 17.5306 40.5683 17.4627 40.5599 17.4034C40.5515 17.3271 40.5346 17.2508 40.5261 17.183C40.5008 17.0389 40.4755 16.8863 40.4502 16.7422C40.408 16.5218 40.3657 16.3099 40.3235 16.0979C40.2898 15.9538 40.2645 15.8182 40.2307 15.6826C40.2138 15.6147 40.1969 15.5469 40.18 15.4791C40.1632 15.4198 40.1463 15.3604 40.1378 15.2926C40.0534 14.9451 39.9521 14.606 39.8593 14.2838C39.8171 14.1567 39.7833 14.0295 39.7411 13.9024C39.6989 13.7752 39.6567 13.6481 39.6145 13.5209C39.5469 13.3344 39.4794 13.1479 39.4119 12.9614C39.3697 12.8427 39.319 12.7241 39.2768 12.6054C39.2515 12.546 39.2262 12.4867 39.2093 12.4274C39.184 12.368 39.1586 12.3087 39.1418 12.2493C39.1164 12.19 39.0911 12.1391 39.0742 12.0798C39.0489 12.0205 39.0236 11.9696 38.9983 11.9103C38.9729 11.8509 38.9476 11.8 38.9223 11.7407C38.897 11.6814 38.8716 11.6305 38.8463 11.5796C38.7957 11.4694 38.745 11.3592 38.6944 11.2575C38.6184 11.0964 38.5424 10.9439 38.4665 10.7913C38.4411 10.7404 38.4158 10.6895 38.3905 10.6387C38.3398 10.537 38.2892 10.4437 38.2385 10.3505C38.2132 10.2996 38.1879 10.2572 38.1626 10.2064C38.1119 10.1131 38.0613 10.0199 38.0106 9.92661C37.9853 9.88422 37.96 9.83336 37.9347 9.79098C37.884 9.70621 37.8334 9.61296 37.7827 9.52819C37.7321 9.44341 37.6814 9.35864 37.6308 9.27387C37.5801 9.1891 37.5295 9.11281 37.4873 9.03651C37.4366 8.96022 37.386 8.88393 37.3438 8.80763C37.3016 8.74829 37.2678 8.68895 37.2256 8.62961C37.1918 8.57027 37.1496 8.51093 37.1159 8.46007C37.0821 8.40073 37.0399 8.34987 37.0061 8.29901C36.9892 8.27358 36.9639 8.23967 36.947 8.21424C36.9133 8.16337 36.8711 8.11251 36.8373 8.06165C36.8035 8.01079 36.7698 7.95992 36.736 7.91754C36.7022 7.86668 36.6685 7.82429 36.6347 7.7819C36.6178 7.75647 36.6009 7.73104 36.5841 7.71409C36.5334 7.64627 36.4828 7.58693 36.4406 7.51911C36.0269 6.98506 35.7231 6.64597 35.6133 6.52729C35.6133 6.52729 35.6133 6.51882 35.6049 6.51882L35.588 6.50186C35.4276 6.62054 35.3854 6.84095 35.4951 7.01049C39.3444 12.8258 38.7197 18.853 36.238 24.9141C36.1789 25.0498 36.1282 25.1939 36.0691 25.3295C36.0354 25.4058 36.0016 25.4821 35.9763 25.5584C35.875 25.7957 35.7737 26.0246 35.6724 26.262C35.6471 26.3298 35.6133 26.3891 35.588 26.4569C35.5542 26.5417 35.512 26.6265 35.4698 26.7113C35.4192 26.8215 35.3685 26.9232 35.3179 27.0334C35.2672 27.1436 35.2166 27.2453 35.1659 27.347C35.0646 27.5505 34.9718 27.7624 34.8705 27.9659C34.8452 28.0167 34.8198 28.0761 34.7945 28.1269C34.7439 28.2202 34.7017 28.3219 34.651 28.4152C34.651 28.4321 34.6341 28.4491 34.6257 28.466C34.575 28.5593 34.5244 28.661 34.4822 28.7542C34.4315 28.856 34.3809 28.9492 34.3302 29.0509C34.2627 29.1866 34.1867 29.3137 34.1192 29.4494C34.0686 29.5511 34.0095 29.6528 33.9588 29.7545C33.8407 29.9749 33.714 30.2038 33.5959 30.4242C33.5536 30.509 33.503 30.5853 33.4608 30.6616C33.4186 30.7294 33.3848 30.7972 33.3426 30.865C33.2413 31.0346 33.1485 31.2041 33.0472 31.3737C32.9965 31.45 32.9543 31.5347 32.9037 31.611C32.8615 31.6873 32.8108 31.7636 32.7686 31.8399C32.6758 32.001 32.5745 32.162 32.4816 32.3146C32.431 32.3909 32.3888 32.4672 32.3381 32.552C32.2875 32.6368 32.2368 32.713 32.1862 32.7978C32.0933 32.9504 31.992 33.103 31.8992 33.2556C31.8063 33.3997 31.7135 33.5438 31.6206 33.6879C31.6037 33.7218 31.5784 33.7557 31.5531 33.7896C31.4687 33.9168 31.3842 34.044 31.2998 34.1796C31.2998 34.1796 31.2998 34.1881 31.2914 34.1965C31.2154 34.3067 31.1395 34.4254 31.0635 34.5356C30.9622 34.6882 30.8524 34.8408 30.7512 35.0019C30.7005 35.0697 30.6499 35.146 30.6077 35.2138C30.5232 35.3325 30.4388 35.4596 30.346 35.5783C30.2531 35.7055 30.1603 35.8326 30.0674 35.9683C29.9324 36.1548 29.8057 36.3328 29.6707 36.5193C29.5778 36.6379 29.4934 36.7651 29.4006 36.8838C29.2908 37.0279 29.1895 37.172 29.0798 37.3076C29.0713 37.3246 29.0545 37.3331 29.046 37.35C28.8434 37.6128 28.6493 37.8671 28.4467 38.1299C28.4214 38.1638 28.3876 38.2062 28.3538 38.2401C28.2694 38.3503 28.1766 38.4605 28.0922 38.5792C28.0668 38.6046 28.05 38.6301 28.0246 38.664C27.9233 38.7996 27.8136 38.9268 27.7039 39.0539C27.5857 39.198 27.4759 39.3421 27.3578 39.4778C27.2396 39.6219 27.1214 39.7575 27.0032 39.9016C25.9059 41.2071 24.7579 42.4871 23.5676 43.7333C23.3144 44.0045 23.0105 44.2249 22.6813 44.4793C22.504 44.6149 22.2508 44.5979 22.0989 44.4369C20.5794 42.8262 20.1489 40.5374 20.8411 38.5368C20.9002 38.3757 20.9593 38.2147 21.0353 38.0536C21.0522 38.0112 21.069 37.9773 21.0859 37.9349C21.2801 37.5365 21.5164 37.1466 21.8034 36.7905C21.8372 36.7566 21.8625 36.7142 21.8963 36.6803C21.8963 36.6803 21.8963 36.6803 21.9047 36.6803C22.8839 35.4596 23.8546 34.2474 24.8085 33.0437C25.3572 32.3485 25.9059 31.6534 26.4546 30.9583C29.409 27.1945 31.7979 23.1339 32.8108 18.4122C32.8868 18.0816 32.9459 17.7425 33.005 17.4034C33.0978 16.8694 33.1569 16.3438 33.1907 15.8182C33.4777 11.249 31.6122 7.12069 28.5311 4.46736C28.2188 4.19609 27.8896 3.94178 27.5519 3.70442C24.8423 1.79707 21.3729 0.940886 17.6588 1.70382C14.3667 2.38199 11.0155 4.09437 8.33962 6.17126C2.96253 10.2403 0.160037 16.1573 -0.000346601 22.6253C-0.000346601 22.6253 -0.000346601 22.6253 -0.000346601 22.6338C-0.0932004 26.6011 0.810014 30.7803 2.73462 34.8747C4.2034 38.0028 5.96762 40.8934 7.95976 43.5976C8.66883 44.5556 9.40321 45.4965 10.1714 46.412C12.8304 49.5994 15.8017 52.5325 18.984 55.2791C25.8299 49.752 30.6667 44.5725 34.0264 39.7999C34.1277 39.6558 34.229 39.5032 34.3302 39.3591C39.7158 31.5347 41.0917 24.8293 40.7709 19.5481L40.7794 19.5566ZM16.2491 10.3166C16.2491 10.3166 16.3166 10.3166 16.3419 10.3166C16.4854 10.3166 16.6205 10.3081 16.764 10.3081C16.8146 10.3081 16.8653 10.3081 16.9159 10.3081C19.9295 10.3674 22.5209 12.1561 23.7365 14.7331C24.2176 15.7419 24.4877 16.8694 24.4877 18.0646C24.4877 18.285 24.4793 18.5054 24.4624 18.7258C24.4371 19.0649 24.3864 19.404 24.3105 19.7346C23.5508 23.2102 20.4613 25.8212 16.764 25.8212C15.6835 25.8212 14.6621 25.6008 13.7251 25.2023C13.0076 24.9735 12.3408 24.575 11.8005 24.0579C11.7161 23.9816 11.6401 23.8969 11.5642 23.8121C10.0025 22.3964 9.0318 20.345 9.0318 18.0646C9.0318 13.9532 12.2142 10.5963 16.2406 10.325L16.2491 10.3166ZM34.0264 39.8084C33.9673 39.7067 33.9082 39.6049 33.8491 39.5032C34.0095 39.4608 34.1699 39.4184 34.3302 39.376C34.229 39.5202 34.1277 39.6643 34.0264 39.8084Z" fill="#6E5EA8"/>
<path d="M35.8074 45.0812C32.8867 48.7518 29.5102 52.0833 25.9311 55.2537C25.6019 55.5419 25.2727 55.8217 24.935 56.1099C23.4747 57.3136 21.3644 57.2967 19.9209 56.076C19.6086 55.8132 19.3047 55.5504 19.0008 55.2876C15.8185 52.5326 12.8387 49.608 10.1882 46.4206C9.42846 45.505 8.68563 44.5641 7.97656 43.6062C8.97263 39.41 11.8173 35.9259 15.599 34.0864C15.7172 34.0271 15.8354 33.9762 15.9536 33.9253C17.7262 33.12 19.693 32.6792 21.7611 32.6792C22.7825 32.6792 23.787 32.7894 24.7409 32.9929C23.787 34.1966 22.8163 35.4088 21.8371 36.6295C21.8371 36.6295 21.8371 36.6295 21.8287 36.6295C21.8033 36.6634 21.7696 36.7058 21.7358 36.7397C21.4488 37.1042 21.204 37.4857 21.0183 37.8841C21.0014 37.9265 20.9845 37.9604 20.9677 38.0028C20.8917 38.1639 20.8326 38.3249 20.7735 38.486C20.0813 40.4866 20.5203 42.7669 22.0313 44.3861C22.1832 44.5471 22.4364 44.5726 22.6137 44.4285C22.9429 44.1741 23.2468 43.9537 23.5 43.6825C24.6903 42.4363 25.8383 41.1648 26.9356 39.8508C27.0538 39.7067 27.172 39.5711 27.2902 39.427C27.4083 39.2829 27.5265 39.1472 27.6363 39.0031C27.746 38.876 27.8473 38.7403 27.957 38.6132C27.9823 38.5877 27.9992 38.5623 28.0245 38.5284C28.1174 38.4182 28.2018 38.308 28.2862 38.1893C28.32 38.1554 28.3453 38.113 28.3791 38.0791C28.5817 37.8163 28.7843 37.562 28.9784 37.2992C28.9869 37.2823 29.0037 37.2738 29.0122 37.2568C29.1219 37.1127 29.2232 36.9771 29.3329 36.833C29.4258 36.7143 29.5187 36.5871 29.6031 36.4685C29.7381 36.282 29.8732 36.1039 29.9998 35.9175C30.0927 35.7903 30.1855 35.6631 30.2784 35.5275C31.7049 36.6041 33.7308 37.8926 34.6678 39.427C34.7269 39.5287 34.2795 39.7915 34.3386 39.8932C34.3386 39.8932 34.0347 39.7915 34.0432 39.7915C34.9548 41.3852 35.571 43.1654 35.8158 45.0727L35.8074 45.0812Z" fill="#F4967E"/>
<path d="M33.1149 15.047C33.1064 15.8014 33.0305 16.5728 32.9039 17.3527C32.8532 17.6494 32.7941 17.9461 32.735 18.2344C31.7305 23.007 29.3248 27.1014 26.345 30.9076C25.9651 31.3993 25.5768 31.8825 25.1885 32.3741C25.0535 32.5437 24.9269 32.7048 24.7918 32.8743C23.8042 34.1204 22.8081 35.3666 21.7952 36.6296C21.7952 36.6296 21.7952 36.6296 21.7867 36.6296C21.7614 36.6636 21.7276 36.7059 21.6939 36.7399C21.4069 37.1044 21.1621 37.4858 20.9764 37.8843C20.9764 37.8843 20.9595 37.8758 20.951 37.8673C20.8835 37.8334 20.8244 37.7995 20.7569 37.7571C18.9251 36.7229 17.296 35.375 15.9369 33.7813C15.8188 33.6372 15.7006 33.5016 15.5824 33.3575C13.4974 30.755 12.1299 27.5422 11.7754 24.0412C12.3156 24.5583 12.974 24.9567 13.7 25.1856C14.6285 25.584 15.6584 25.8044 16.7389 25.8044C20.4783 25.8044 23.6016 23.1341 24.3107 19.5907C24.412 19.0905 24.4626 18.5734 24.4626 18.0479C24.4626 18.0309 24.4626 18.0055 24.4626 17.9885C24.4542 16.8187 24.184 15.7082 23.7198 14.7164C22.4789 12.0969 19.8199 10.2913 16.7473 10.2913C16.57 10.2913 16.4012 10.2913 16.2324 10.3083C16.2746 10.2659 16.3168 10.215 16.359 10.1726C16.5447 9.96918 16.7389 9.76573 16.933 9.57076C19.9212 6.58682 23.9561 4.66252 28.4384 4.4082C31.3591 6.91742 33.1824 10.7491 33.1233 15.0385L33.1149 15.047Z" fill="#9E91C5"/>
<path d="M43.4803 31.3993C43.1004 32.5013 42.6784 33.5779 42.2141 34.6291C40.5343 38.4438 38.3396 41.894 35.7987 45.0813C32.8781 48.7519 29.5016 52.0834 25.9225 55.2539C25.5933 55.5421 25.264 55.8218 24.9264 56.11C23.4661 57.3138 21.3557 57.2968 19.9123 56.0761C19.6 55.8133 19.2961 55.5506 18.9922 55.2878C25.838 49.7607 30.6749 44.5812 34.0345 39.8001C34.1358 39.656 34.2371 39.5119 34.3384 39.3678C39.9012 31.2721 41.1927 24.3803 40.7453 19.0227C40.7453 18.9465 40.7284 18.8617 40.72 18.7854C40.7031 18.6413 40.6947 18.4972 40.6778 18.3615C40.6778 18.3446 40.6778 18.3191 40.6778 18.3022C40.6609 18.1581 40.644 18.014 40.6271 17.8699C40.6271 17.8614 40.6271 17.8444 40.6271 17.836C40.6271 17.7851 40.6102 17.7257 40.6018 17.6749C40.6018 17.6495 40.6018 17.6155 40.5934 17.5901C40.5849 17.5308 40.5765 17.463 40.568 17.4036C40.5596 17.3273 40.5427 17.251 40.5343 17.1832C40.509 17.0391 40.4836 16.8865 40.4583 16.7424C40.4161 16.522 40.3739 16.3101 40.3317 16.0981C40.2979 15.954 40.2726 15.8184 40.2388 15.6828C40.222 15.615 40.2051 15.5471 40.1882 15.4793C40.1713 15.42 40.1544 15.3606 40.146 15.2928C40.0616 14.9453 39.9603 14.6062 39.8674 14.284C39.8252 14.1569 39.7914 14.0297 39.7492 13.9026C39.707 13.7754 39.6648 13.6483 39.6226 13.5211C39.5551 13.3346 39.4876 13.1481 39.42 12.9616C39.3778 12.8429 39.3272 12.7243 39.285 12.6056C39.2596 12.5462 39.2343 12.4869 39.2174 12.4276C39.1921 12.3682 39.1668 12.3089 39.1499 12.2495C39.1246 12.1902 39.0993 12.1393 39.0824 12.08C39.0571 12.0207 39.0317 11.9698 39.0064 11.9105C38.9811 11.8511 38.9558 11.8003 38.9304 11.7409C38.9051 11.6816 38.8798 11.6307 38.8545 11.5799C38.8038 11.4696 38.7532 11.3594 38.7025 11.2577C38.6266 11.0967 38.5506 10.9441 38.4746 10.7915C38.4493 10.7406 38.424 10.6898 38.3986 10.6389C38.348 10.5372 38.2973 10.4439 38.2467 10.3507C38.2214 10.2998 38.1961 10.2574 38.1707 10.2066C38.1201 10.1133 38.0694 10.0201 38.0188 9.92682C37.9935 9.88443 37.9681 9.83357 37.9428 9.79118C37.8922 9.70641 37.8415 9.61317 37.7909 9.52839C37.7402 9.44362 37.6896 9.35885 37.6389 9.27408C37.5883 9.18931 37.5376 9.11302 37.4954 9.03672C37.4448 8.96043 37.3941 8.88414 37.3519 8.80784C37.3097 8.7485 37.276 8.68916 37.2337 8.62982C37.2 8.57048 37.1578 8.51114 37.124 8.46028C37.0902 8.40094 37.048 8.35008 37.0143 8.29922C36.9974 8.27378 36.9721 8.23988 36.9552 8.21444C36.9214 8.16358 36.8792 8.11272 36.8454 8.06186C36.8117 8.01099 36.7779 7.96013 36.7442 7.91775C36.7104 7.86688 36.6766 7.8245 36.6429 7.78211C36.626 7.75668 36.6091 7.73125 36.5922 7.7143C36.5416 7.64648 36.4909 7.58714 36.4487 7.51932C36.0351 6.98527 35.7312 6.64618 35.6215 6.5275C35.6215 6.5275 35.6215 6.51903 35.613 6.51903L35.5961 6.50207C35.7396 6.39187 35.9338 6.40882 36.0689 6.5275C37.563 7.88384 39.2174 9.11302 40.4414 10.6813C45.3205 16.9713 46.0971 24.0242 43.5562 31.4332L43.4803 31.3993Z" fill="#F4A86E"/>
<path d="M43.481 31.3994C43.1012 32.5014 42.6791 33.578 42.2149 34.6292C40.0792 36.8417 37.3696 38.5032 34.3307 39.3679C34.1703 39.4102 34.0099 39.4526 33.8496 39.495C32.4483 39.8511 30.988 40.0375 29.477 40.0375C28.616 40.0375 27.7634 39.9782 26.9277 39.8511C27.0459 39.7069 27.1641 39.5713 27.2823 39.4272C27.4004 39.2831 27.5186 39.1475 27.6284 39.0033C27.7381 38.8762 27.8394 38.7406 27.9491 38.6134C27.9745 38.588 27.9913 38.5625 28.0167 38.5286C28.1095 38.4184 28.1939 38.3082 28.2783 38.1895C28.3121 38.1556 28.3374 38.1132 28.3712 38.0793C28.5738 37.8165 28.7764 37.5622 28.9705 37.2994C28.979 37.2825 28.9958 37.274 29.0043 37.2571C29.114 37.113 29.2153 36.9773 29.3251 36.8332C29.4179 36.7145 29.5108 36.5874 29.5952 36.4687C29.7302 36.2822 29.8653 36.1042 29.9919 35.9177C30.0848 35.7905 30.1776 35.6634 30.2705 35.5277C30.3549 35.4091 30.4393 35.2819 30.5322 35.1632C30.5828 35.0954 30.6334 35.0191 30.6757 34.9513C30.7854 34.7987 30.8867 34.6461 30.988 34.4851C31.064 34.3748 31.1399 34.2562 31.2159 34.146C31.2159 34.146 31.2159 34.1375 31.2243 34.129C31.3087 34.0019 31.3932 33.8747 31.4776 33.7391C31.5029 33.7052 31.5198 33.6712 31.5451 33.6373C31.638 33.4932 31.7308 33.3491 31.8237 33.205C31.9165 33.0524 32.0178 32.8998 32.1107 32.7472C32.1613 32.671 32.212 32.5862 32.2626 32.5014C32.3133 32.4251 32.3555 32.3488 32.4061 32.2641C32.5074 32.103 32.6003 31.9504 32.6931 31.7893C32.7353 31.713 32.786 31.6367 32.8282 31.5605C32.8788 31.4842 32.921 31.3994 32.9717 31.3231C33.073 31.1536 33.1658 30.984 33.2671 30.8145C33.3093 30.7466 33.3431 30.6788 33.3853 30.611C33.4275 30.5347 33.4781 30.45 33.5204 30.3737C33.647 30.1533 33.7652 29.9328 33.8833 29.704C33.934 29.6022 33.9931 29.5005 34.0437 29.3988C34.1112 29.2632 34.1872 29.136 34.2547 29.0004C34.3054 28.8986 34.356 28.8054 34.4067 28.7037C34.4573 28.6104 34.508 28.5087 34.5502 28.4154C34.5502 28.3985 34.5671 28.3815 34.5755 28.3646C34.6262 28.2713 34.6684 28.1781 34.719 28.0764C34.7443 28.0255 34.7697 27.9662 34.795 27.9153C34.8963 27.7118 34.9976 27.5084 35.0904 27.2965C35.1411 27.1947 35.1917 27.0845 35.2424 26.9828C35.293 26.8726 35.3437 26.7709 35.3943 26.6607C35.4365 26.5759 35.4703 26.4911 35.5125 26.4064C35.5378 26.3386 35.5716 26.2792 35.5969 26.2114C35.6982 25.974 35.7995 25.7452 35.9008 25.5078C35.9346 25.4315 35.9683 25.3552 35.9936 25.2789C36.0527 25.1433 36.1118 24.9992 36.1625 24.8635C38.6442 18.8024 39.2689 12.7752 35.4196 6.95992C35.3099 6.79037 35.3437 6.56149 35.5125 6.45129C35.656 6.34109 35.8501 6.35804 35.9852 6.47672C37.4793 7.83306 39.1338 9.06224 40.3578 10.6305C45.2368 16.9205 46.0134 23.9734 43.4726 31.3824L43.481 31.3994Z" fill="#F4C254"/>
<path d="M32.828 6.29001C34.5576 6.29001 35.9597 4.88194 35.9597 3.145C35.9597 1.40807 34.5576 0 32.828 0C31.0984 0 29.6963 1.40807 29.6963 3.145C29.6963 4.88194 31.0984 6.29001 32.828 6.29001Z" fill="#F4C254"/>
<path d="M72.4936 39.4949H64.4828C62.8958 39.4949 61.6043 38.2063 61.6043 36.6042V35.9175C61.6043 34.3238 62.8958 33.0268 64.4828 33.0268H70.5267C71.3202 33.0268 72.0377 32.7047 72.5611 32.1791C73.0844 31.6535 73.4052 30.933 73.4052 30.1361C73.4052 28.5424 72.1221 27.2454 70.5267 27.2454H64.4828C62.8958 27.2454 61.6043 25.9485 61.6043 24.3548V24.0581C61.6043 22.4644 62.8958 21.1674 64.4828 21.1674H72.4936C73.287 21.1674 74.0045 20.8452 74.5279 20.3197C75.0513 19.7941 75.372 19.0735 75.372 18.2767C75.372 16.683 74.0805 15.386 72.4936 15.386H58.0084C56.4214 15.386 55.1299 16.6745 55.1299 18.2767V42.3516C55.1299 43.9453 56.4214 45.2423 58.0084 45.2423H72.4936C73.287 45.2423 74.0045 44.9202 74.5279 44.3946C75.0513 43.869 75.372 43.1485 75.372 42.3516C75.372 40.7579 74.0805 39.4609 72.4936 39.4609V39.4949Z" fill="#403C73"/>
<path d="M114.202 15.4199C112.793 15.4199 111.585 16.4202 111.307 17.802L108.926 29.7462L107.348 38.0453H107.221L105.39 29.7462L102.596 17.7087C102.283 16.3694 101.093 15.4199 99.7255 15.4199H97.345C95.9691 15.4199 94.7789 16.3778 94.4666 17.7172L91.7147 29.7462L89.8408 38.0453H89.7141L88.1356 29.7462L85.7974 17.8105C85.5273 16.4202 84.3117 15.4199 82.902 15.4199H82.6319C80.7411 15.4199 79.3398 17.1832 79.7535 19.0396L85.1474 42.9705C85.4513 44.3183 86.65 45.2763 88.0259 45.2763H90.7355C92.1115 45.2763 93.3017 44.3268 93.6056 42.9874L96.8217 29.1104L98.3158 22.5661H98.4424L99.8859 29.1104L103.102 42.9874C103.414 44.3268 104.605 45.2763 105.98 45.2763H108.665C110.041 45.2763 111.231 44.3268 111.543 42.9874L117.072 19.0566C117.123 18.8277 117.148 18.6073 117.148 18.3784C117.148 16.7847 115.865 15.4199 114.194 15.4199H114.202Z" fill="#403C73"/>
<path d="M145.966 44.2929L137.854 19.2516C137.483 18.1072 136.765 17.1492 135.845 16.4796C134.925 15.8099 133.794 15.4199 132.604 15.4199C130.223 15.4199 128.105 16.9543 127.362 19.2261L119.14 44.2929C118.98 44.7761 119.343 45.2678 119.841 45.2678H124.821C125.15 45.2678 125.437 45.0559 125.53 44.7337L127.345 38.698C127.438 38.3844 127.725 38.1724 128.054 38.1724H136.875C137.204 38.1724 137.491 38.3844 137.584 38.698L139.391 44.7337C139.483 45.0474 139.77 45.2678 140.1 45.2678H145.257C145.764 45.2678 146.118 44.7761 145.958 44.2929H145.966ZM134.858 32.6539H130.021C129.523 32.6539 129.168 32.1791 129.312 31.7044L132.317 21.32H132.528L135.567 31.6959C135.702 32.1707 135.347 32.6539 134.858 32.6539Z" fill="#403C73"/>
<path d="M138.631 12.1731L139.028 11.8933C139.433 11.6051 139.998 11.7068 140.285 12.1137L142.539 15.2587C142.835 15.6741 142.733 16.259 142.311 16.5473C141.94 16.8016 141.442 16.7422 141.138 16.4116L138.487 13.5379C138.107 13.131 138.183 12.4867 138.639 12.1646L138.631 12.1731Z" fill="#403C73"/>
</g>
<defs>
<clipPath id="clip0_360_52857">
<rect width="146" height="57" fill="white"/>
</clipPath>
</defs>
</svg>
