<svg width="40" height="40" viewBox="0 0 40 40" fill="none" xmlns="http://www.w3.org/2000/svg">
<g id="side-menu (1) 1">
<g id="Layer 2">
<path id="Vector" d="M8.33333 8.74992C7.7808 8.74992 7.2509 8.53043 6.86019 8.13972C6.46949 7.74902 6.25 7.21912 6.25 6.66659C6.25 6.11405 6.46949 5.58415 6.86019 5.19345C7.2509 4.80275 7.7808 4.58325 8.33333 4.58325H31.6667C32.2192 4.58325 32.7491 4.80275 33.1398 5.19345C33.5305 5.58415 33.75 6.11405 33.75 6.66659C33.75 7.21912 33.5305 7.74902 33.1398 8.13972C32.7491 8.53043 32.2192 8.74992 31.6667 8.74992H8.33333Z" fill="#403C73"/>
<path id="Vector_2" d="M8.33333 17.0832C7.7808 17.0832 7.2509 16.8637 6.86019 16.473C6.46949 16.0823 6.25 15.5524 6.25 14.9998C6.25 14.4473 6.46949 13.9174 6.86019 13.5267C7.2509 13.136 7.7808 12.9165 8.33333 12.9165H21.6667C22.2192 12.9165 22.7491 13.136 23.1398 13.5267C23.5305 13.9174 23.75 14.4473 23.75 14.9998C23.75 15.5524 23.5305 16.0823 23.1398 16.473C22.7491 16.8637 22.2192 17.0832 21.6667 17.0832H8.33333Z" fill="#403C73"/>
<g id="Group">
<path id="Vector_3" d="M8.33333 27.0832C7.7808 27.0832 7.2509 26.8637 6.86019 26.473C6.46949 26.0823 6.25 25.5524 6.25 24.9998C6.25 24.4473 6.46949 23.9174 6.86019 23.5267C7.2509 23.136 7.7808 22.9165 8.33333 22.9165H31.6667C32.2192 22.9165 32.7491 23.136 33.1398 23.5267C33.5305 23.9174 33.75 24.4473 33.75 24.9998C33.75 25.5524 33.5305 26.0823 33.1398 26.473C32.7491 26.8637 32.2192 27.0832 31.6667 27.0832H8.33333Z" fill="#403C73"/>
<path id="Vector_4" d="M8.33333 35.4164C7.7808 35.4164 7.2509 35.1969 6.86019 34.8062C6.46949 34.4155 6.25 33.8856 6.25 33.3331C6.25 32.7806 6.46949 32.2506 6.86019 31.8599C7.2509 31.4692 7.7808 31.2498 8.33333 31.2498H21.6667C22.2192 31.2498 22.7491 31.4692 23.1398 31.8599C23.5305 32.2506 23.75 32.7806 23.75 33.3331C23.75 33.8856 23.5305 34.4155 23.1398 34.8062C22.7491 35.1969 22.2192 35.4164 21.6667 35.4164H8.33333Z" fill="#403C73"/>
</g>
</g>
</g>
</svg>
